<svg width="80" height="80" viewBox="0 0 80 80" fill="none" xmlns="http://www.w3.org/2000/svg">
<path d="M39.9966 65.4527C54.0543 65.4527 65.4503 54.0567 65.4503 39.9991C65.4503 25.9414 54.0543 14.5454 39.9966 14.5454C25.939 14.5454 14.543 25.9414 14.543 39.9991C14.543 54.0567 25.939 65.4527 39.9966 65.4527Z" fill="#FDCA47"/>
<path d="M18.6424 31.4278C18.8485 29.5502 19.5347 27.7532 20.4753 26.1067C21.4266 24.4638 22.6646 22.9731 24.1069 21.719C25.5474 20.4631 27.1939 19.4419 28.9532 18.727C30.7144 18.0211 32.5902 17.5929 34.4786 17.6556C32.8429 18.5908 31.2985 19.4562 29.8401 20.4308C28.3799 21.3947 27.0075 22.4339 25.7086 23.5608C24.4097 24.6895 23.1896 25.906 22.0322 27.2193C20.864 28.529 19.7926 29.9372 18.6406 31.4278H18.6424Z" fill="#FFE8BB"/>
<path d="M65.4518 39.9991C65.4518 54.0562 54.057 65.4545 39.9963 65.4545C32.3138 65.4545 25.4268 62.0504 20.7578 56.6666C25.2243 60.5562 31.065 62.9068 37.4522 62.9068C51.5093 62.9068 62.9076 51.5121 62.9076 37.4514C62.9076 31.0822 60.5696 25.2594 56.6997 20.7928C62.062 25.4582 65.45 32.3309 65.45 39.9973L65.4518 39.9991Z" fill="#F9B700"/>
<path d="M30.0501 44.7864C28.3356 44.4334 26.87 46.0244 27.3591 47.7049C28.9537 53.1819 34.0096 57.1826 40.0008 57.1826C45.992 57.1826 51.048 53.1801 52.6425 47.7049C53.1317 46.0244 51.6661 44.4334 49.9515 44.7864C43.3189 46.1498 36.6845 46.1498 30.0519 44.7864H30.0501Z" fill="#664100"/>
<path d="M64.5431 25.4924C64.6882 22.6796 62.9557 20.0011 60.1518 19.0712C58.0126 18.3617 55.7677 18.8401 54.1302 20.148C53.5981 18.1217 52.0842 16.3963 49.9449 15.6868C47.1411 14.757 44.1508 15.8678 42.5867 18.2094C42.0815 18.9673 41.7805 19.8398 41.6175 20.7356C40.5926 26.3882 43.1941 31.8097 47.5137 37.1219C47.9401 37.6468 48.6335 37.8761 49.2892 37.7113C55.9272 36.0325 61.2537 33.2412 63.8104 28.0974C64.2153 27.2822 64.4965 26.4026 64.5449 25.4924H64.5431Z" fill="#DF2540"/>
<path d="M15.4518 25.4923C15.3067 22.6794 17.0392 20.0009 19.8431 19.0711C21.9823 18.3616 24.2272 18.84 25.8648 20.1479C26.3969 18.1215 27.9108 16.3962 30.05 15.6867C32.8539 14.7569 35.8441 15.8677 37.4082 18.2093C37.9135 18.9672 38.2145 19.8397 38.3775 20.7355C39.4023 26.3881 36.8009 31.8096 32.4812 37.1217C32.0548 37.6467 31.3615 37.876 30.7057 37.7112C24.0678 36.0324 18.7413 33.2411 16.1846 28.0973C15.7797 27.2821 15.4984 26.4024 15.45 25.4923H15.4518Z" fill="#DF2540"/>
</svg>
