<svg width="80" height="80" viewBox="0 0 80 80" fill="none" xmlns="http://www.w3.org/2000/svg">
<path d="M39.9975 65.4509C54.0557 65.4509 65.4521 54.0553 65.4521 39.9982C65.4521 25.941 54.0557 14.5454 39.9975 14.5454C25.9393 14.5454 14.543 25.941 14.543 39.9982C14.543 54.0553 25.9393 65.4509 39.9975 65.4509Z" fill="#FDCA47"/>
<path d="M18.6424 31.4291C18.8484 29.5515 19.5346 27.7546 20.4753 26.1081C21.4267 24.4653 22.6647 22.9747 24.107 21.7206C25.5476 20.4647 27.1942 19.4435 28.9536 18.7287C30.7149 18.0228 32.5907 17.5946 34.4792 17.6573C32.8434 18.5925 31.2989 19.4578 29.8405 20.4324C28.3802 21.3963 27.0078 22.4354 25.7088 23.5623C24.4098 24.691 23.1897 25.9075 22.0322 27.2207C20.8641 28.5303 19.7927 29.9385 18.6406 31.4291H18.6424Z" fill="#FFE8BB"/>
<path d="M65.4534 40C65.4534 54.0566 54.0582 65.4545 39.997 65.4545C32.3142 65.4545 25.427 62.0506 20.7578 56.6669C25.2245 60.5564 31.0655 62.9069 37.4528 62.9069C51.5105 62.9069 62.9092 51.5126 62.9092 37.4524C62.9092 31.0834 60.571 25.2608 56.7009 20.7944C62.0635 25.4597 65.4516 32.3321 65.4516 39.9982L65.4534 40Z" fill="#F9B700"/>
<path d="M52.3866 45.1795C52.8614 44.8122 53.5046 45.3246 53.252 45.8692C51.2309 50.2281 46.0583 53.3293 39.9952 53.3293C33.9321 53.3293 28.7595 50.2281 26.7385 45.8692C26.4859 45.3246 27.1291 44.8122 27.6039 45.1795C30.9992 47.797 35.3064 49.3628 39.9934 49.3628C44.6805 49.3628 48.9877 47.797 52.383 45.1795H52.3866Z" fill="#664100"/>
<path d="M55.603 46.9244C59.4611 46.9244 62.5888 43.7969 62.5888 39.939C62.5888 36.0812 59.4611 32.9537 55.603 32.9537C51.7448 32.9537 48.6172 36.0812 48.6172 39.939C48.6172 43.7969 51.7448 46.9244 55.603 46.9244Z" fill="#F46C60"/>
<path d="M24.3823 46.9244C28.2405 46.9244 31.3681 43.7969 31.3681 39.939C31.3681 36.0812 28.2405 32.9537 24.3823 32.9537C20.5242 32.9537 17.3965 36.0812 17.3965 39.939C17.3965 43.7969 20.5242 46.9244 24.3823 46.9244Z" fill="#F46C60"/>
<path d="M42.7816 35.4999C42.5577 35.4999 42.332 35.4407 42.1259 35.3171C41.5203 34.9534 41.3232 34.1687 41.6851 33.5614C42.959 31.4366 45.566 30.1162 48.49 30.1162C51.4141 30.1162 54.0227 31.4366 55.2966 33.5614C55.6603 34.1669 55.4632 34.9534 54.8576 35.3171C54.2502 35.6808 53.4655 35.4837 53.1018 34.8782C52.3009 33.5399 50.4896 32.6764 48.49 32.6764C46.4905 32.6764 44.6808 33.5399 43.8799 34.8782C43.6398 35.2777 43.2152 35.4999 42.7816 35.4999Z" fill="#664100"/>
<path d="M37.2053 35.4996C37.4293 35.4996 37.655 35.4405 37.861 35.3169C38.4666 34.9532 38.6637 34.1685 38.3018 33.5611C37.0279 31.4363 34.421 30.116 31.4969 30.116C28.5729 30.116 25.9642 31.4363 24.6903 33.5611C24.3266 34.1667 24.5236 34.9532 25.1292 35.3169C25.7366 35.6806 26.5214 35.4835 26.8851 34.8779C27.686 33.5396 29.4974 32.6761 31.4969 32.6761C33.4964 32.6761 35.306 33.5396 36.1069 34.8779C36.347 35.2775 36.7717 35.4996 37.2053 35.4996Z" fill="#664100"/>
</svg>
