<svg width="151" height="151" viewBox="0 0 151 151" fill="none" xmlns="http://www.w3.org/2000/svg">
<path d="M56.8145 87.9979H19.252C15.8145 87.9979 13.002 90.8104 13.002 94.2479C13.002 97.6854 15.8145 100.498 19.252 100.498H56.8145V111.685C56.8145 114.498 60.1895 115.873 62.127 113.873L79.502 96.4354C80.6895 95.1854 80.6895 93.2479 79.502 91.9979L62.127 74.5604C60.1895 72.5604 56.8145 73.9979 56.8145 76.7479V87.9979ZM94.1895 74.1854V62.9979H131.752C135.189 62.9979 138.002 60.1854 138.002 56.7479C138.002 53.3104 135.189 50.4979 131.752 50.4979H94.1895V39.3104C94.1895 36.4979 90.8145 35.1229 88.877 37.1229L71.502 54.5604C70.3145 55.8104 70.3145 57.7479 71.502 58.9979L88.877 76.4354C89.3176 76.8673 89.8761 77.1591 90.4823 77.274C91.0885 77.389 91.7151 77.3219 92.2832 77.0813C92.8514 76.8407 93.3355 76.4373 93.6748 75.9219C94.014 75.4066 94.1931 74.8023 94.1895 74.1854Z" fill="#E0E0E0"/>
</svg>
