<svg width="187" height="186" viewBox="0 0 187 186" fill="none" xmlns="http://www.w3.org/2000/svg">
<path d="M184.494 37.0239C183.847 36.2507 183.039 35.6289 182.127 35.2022C181.214 34.7756 180.219 34.5545 179.211 34.5547H40.419L36.2119 11.4456C35.6357 8.27383 33.9645 5.40486 31.4898 3.33891C29.015 1.27296 25.8937 0.141091 22.67 0.140625H7.14063C5.31519 0.140625 3.56452 0.865776 2.27374 2.15655C0.982964 3.44733 0.257813 5.198 0.257812 7.02344C0.257813 8.84887 0.982964 10.5995 2.27374 11.8903C3.56452 13.1811 5.31519 13.9062 7.14063 13.9062H22.627L44.6175 134.605C45.2653 138.185 46.8472 141.529 49.2032 144.301C45.9515 147.338 43.6045 151.217 42.4224 155.506C41.2404 159.796 41.2695 164.329 42.5065 168.603C43.7435 172.877 46.1401 176.725 49.4306 179.721C52.721 182.716 56.7767 184.741 61.148 185.572C65.5192 186.403 70.0352 186.007 74.1951 184.428C78.3551 182.849 81.9964 180.149 84.7155 176.627C87.4345 173.105 89.1249 168.898 89.5992 164.474C90.0736 160.05 89.3133 155.581 87.4028 151.562H126.48C124.94 154.786 124.143 158.314 124.148 161.887C124.148 166.651 125.561 171.309 128.208 175.27C130.855 179.232 134.618 182.32 139.02 184.143C143.421 185.966 148.265 186.443 152.938 185.514C157.611 184.584 161.903 182.29 165.272 178.921C168.641 175.552 170.936 171.259 171.865 166.586C172.795 161.913 172.318 157.07 170.494 152.668C168.671 148.266 165.583 144.504 161.622 141.857C157.66 139.21 153.003 137.797 148.238 137.797H64.9304C63.3186 137.797 61.7579 137.231 60.5205 136.198C59.2832 135.165 58.4476 133.73 58.1595 132.144L55.4322 117.148H155.233C160.069 117.148 164.751 115.45 168.463 112.351C172.175 109.252 174.681 104.949 175.546 100.191L186.008 42.6678C186.185 41.6736 186.141 40.6526 185.879 39.6772C185.618 38.7018 185.145 37.7959 184.494 37.0239ZM75.9688 161.887C75.9688 163.929 75.3633 165.925 74.2288 167.623C73.0944 169.32 71.4819 170.644 69.5954 171.425C67.7089 172.206 65.6331 172.411 63.6304 172.013C61.6277 171.614 59.7881 170.631 58.3442 169.187C56.9003 167.743 55.9171 165.904 55.5187 163.901C55.1203 161.898 55.3248 159.822 56.1062 157.936C56.8876 156.049 58.2109 154.437 59.9087 153.302C61.6065 152.168 63.6026 151.562 65.6445 151.562C68.3827 151.562 71.0087 152.65 72.9449 154.586C74.881 156.523 75.9688 159.149 75.9688 161.887ZM158.563 161.887C158.563 163.929 157.957 165.925 156.823 167.623C155.688 169.32 154.076 170.644 152.189 171.425C150.303 172.206 148.227 172.411 146.224 172.013C144.221 171.614 142.382 170.631 140.938 169.187C139.494 167.743 138.511 165.904 138.112 163.901C137.714 161.898 137.919 159.822 138.7 157.936C139.481 156.049 140.805 154.437 142.502 153.302C144.2 152.168 146.196 151.562 148.238 151.562C150.976 151.562 153.602 152.65 155.539 154.586C157.475 156.523 158.563 159.149 158.563 161.887ZM162.004 97.7303C161.715 99.3206 160.876 100.758 159.633 101.792C158.39 102.825 156.823 103.389 155.207 103.383H52.9285L42.9226 48.3203H170.96L162.004 97.7303Z" fill="#E0E0E0"/>
</svg>
