<svg width="16" height="16" viewBox="0 0 16 16" fill="none" xmlns="http://www.w3.org/2000/svg">
<g id="Iconsax/Linear/edit">
<path id="Vector" d="M7.39062 1.74951H6.14062C3.01562 1.74951 1.76562 2.99951 1.76562 6.12451V9.87451C1.76562 12.9995 3.01562 14.2495 6.14062 14.2495H9.89062C13.0156 14.2495 14.2656 12.9995 14.2656 9.87451V8.62451" stroke="#3C425D" stroke-width="0.9375" stroke-linecap="round" stroke-linejoin="round"/>
<path id="Vector_2" d="M10.5257 2.38741L5.60066 7.31241C5.41316 7.49991 5.22566 7.86866 5.18816 8.13741L4.91941 10.0187C4.81941 10.6999 5.30066 11.1749 5.98191 11.0812L7.86316 10.8124C8.12566 10.7749 8.49441 10.5874 8.68816 10.3999L13.6132 5.47491C14.4632 4.62491 14.8632 3.63741 13.6132 2.38741C12.3632 1.13741 11.3757 1.53741 10.5257 2.38741Z" stroke="#3C425D" stroke-width="0.9375" stroke-miterlimit="10" stroke-linecap="round" stroke-linejoin="round"/>
<path id="Vector_3" d="M9.82031 3.09351C10.0276 3.82942 10.4203 4.4998 10.9609 5.04041C11.5015 5.58102 12.1719 5.97376 12.9078 6.18101" stroke="#3C425D" stroke-width="0.9375" stroke-miterlimit="10" stroke-linecap="round" stroke-linejoin="round"/>
</g>
</svg>
