<svg width="201" height="201" viewBox="0 0 201 201" fill="none" xmlns="http://www.w3.org/2000/svg">
<g id="PlusCircle">
<path id="Vector" d="M100.5 19.25C84.4303 19.25 68.7214 24.0152 55.36 32.9431C41.9985 41.871 31.5844 54.5605 25.4348 69.407C19.2852 84.2535 17.6762 100.59 20.8112 116.351C23.9463 132.112 31.6846 146.589 43.0476 157.952C54.4106 169.315 68.888 177.054 84.6489 180.189C100.41 183.324 116.747 181.715 131.593 175.565C146.44 169.416 159.129 159.002 168.057 145.64C176.985 132.279 181.75 116.57 181.75 100.5C181.727 78.9581 173.16 58.3051 157.927 43.0727C142.695 27.8403 122.042 19.2727 100.5 19.25ZM100.5 169.25C86.9026 169.25 73.6105 165.218 62.3046 157.664C50.9987 150.109 42.1868 139.372 36.9833 126.809C31.7798 114.247 30.4183 100.424 33.071 87.0875C35.7238 73.7514 42.2716 61.5013 51.8864 51.8864C61.5013 42.2715 73.7514 35.7237 87.0876 33.071C100.424 30.4183 114.247 31.7798 126.81 36.9833C139.372 42.1868 150.109 50.9987 157.664 62.3045C165.218 73.6104 169.25 86.9025 169.25 100.5C169.229 118.727 161.979 136.202 149.091 149.091C136.202 161.979 118.727 169.229 100.5 169.25ZM138 100.5C138 102.158 137.342 103.747 136.169 104.919C134.997 106.092 133.408 106.75 131.75 106.75H106.75V131.75C106.75 133.408 106.092 134.997 104.919 136.169C103.747 137.342 102.158 138 100.5 138C98.8424 138 97.2527 137.342 96.0806 136.169C94.9085 134.997 94.25 133.408 94.25 131.75V106.75H69.25C67.5924 106.75 66.0027 106.092 64.8306 104.919C63.6585 103.747 63 102.158 63 100.5C63 98.8424 63.6585 97.2527 64.8306 96.0806C66.0027 94.9085 67.5924 94.25 69.25 94.25H94.25V69.25C94.25 67.5924 94.9085 66.0027 96.0806 64.8306C97.2527 63.6585 98.8424 63 100.5 63C102.158 63 103.747 63.6585 104.919 64.8306C106.092 66.0027 106.75 67.5924 106.75 69.25V94.25H131.75C133.408 94.25 134.997 94.9085 136.169 96.0806C137.342 97.2527 138 98.8424 138 100.5Z" fill="#E0E0E0"/>
</g>
</svg>
