<svg width="151" height="173" viewBox="0 0 151 173" fill="none" xmlns="http://www.w3.org/2000/svg">
<path d="M113.364 8.125H37.7331C29.7226 8.15063 22.0476 11.3441 16.3834 17.0083C10.7191 22.6725 7.52563 30.3475 7.5 38.3578V148.79C7.5 162.886 17.6101 168.913 29.9561 162.011L68.1605 140.722C72.2435 138.486 78.8539 138.486 82.8396 140.722L121.044 162.011C133.39 168.913 143.5 162.886 143.5 148.79V38.3578C143.507 34.394 142.732 30.4677 141.221 26.8031C139.71 23.1386 137.492 19.8075 134.694 17.0001C131.895 14.1927 128.571 11.964 124.912 10.4412C121.252 8.91843 117.328 8.13138 113.364 8.125Z" stroke="#E0E0E0" stroke-width="14.5818" stroke-linecap="round" stroke-linejoin="round"/>
</svg>
