<svg width="20" height="20" viewBox="0 0 20 20" fill="none" xmlns="http://www.w3.org/2000/svg">
<g id="Iconsax/Linear/trash">
<path id="Vector" d="M17.5 4.98329C14.725 4.70829 11.9333 4.56663 9.15 4.56663C7.5 4.56663 5.85 4.64996 4.2 4.81663L2.5 4.98329M7.08333 4.14163L7.26667 3.04996C7.4 2.25829 7.5 1.66663 8.90833 1.66663H11.0917C12.5 1.66663 12.6083 2.29163 12.7333 3.05829L12.9167 4.14163M15.7083 7.61663L15.1667 16.0083C15.075 17.3166 15 18.3333 12.675 18.3333H7.325C5 18.3333 4.925 17.3166 4.83333 16.0083L4.29167 7.61663M8.60833 13.75H11.3833M7.91667 10.4166H12.0833" stroke="#3C425D" stroke-width="1.25" stroke-linecap="round" stroke-linejoin="round"/>
</g>
</svg>
