<svg width="30" height="31" viewBox="0 0 30 31" fill="none" xmlns="http://www.w3.org/2000/svg">
<g clip-path="url(#clip0_13395_155146)">
<path d="M12.4298 24.0724C12.9033 24.0724 13.2873 23.6885 13.2873 23.2149C13.2873 22.7413 12.9033 22.3574 12.4298 22.3574C11.9562 22.3574 11.5723 22.7413 11.5723 23.2149C11.5723 23.6885 11.9562 24.0724 12.4298 24.0724Z" stroke="#3769FF" stroke-width="1.715" stroke-linecap="round" stroke-linejoin="round"/>
<path d="M21.8614 24.0724C22.335 24.0724 22.7189 23.6885 22.7189 23.2149C22.7189 22.7413 22.335 22.3574 21.8614 22.3574C21.3878 22.3574 21.0039 22.7413 21.0039 23.2149C21.0039 23.6885 21.3878 24.0724 21.8614 24.0724Z" stroke="#3769FF" stroke-width="1.715" stroke-linecap="round" stroke-linejoin="round"/>
<path d="M5.56836 6.06543H8.99836L11.2965 17.5474C11.3749 17.9421 11.5896 18.2968 11.9032 18.5492C12.2167 18.8016 12.609 18.9356 13.0115 18.9279H21.3464C21.7488 18.9356 22.1411 18.8016 22.4546 18.5492C22.7682 18.2968 22.9829 17.9421 23.0614 17.5474L24.4334 10.3529H9.85586" stroke="#3769FF" stroke-width="1.715" stroke-linecap="round" stroke-linejoin="round"/>
</g>
<defs>
<clipPath id="clip0_13395_155146">
<rect width="20.58" height="20.58" fill="white" transform="translate(4.71094 5.20801)"/>
</clipPath>
</defs>
</svg>
