<svg width="23" height="22" viewBox="0 0 23 22" fill="none" xmlns="http://www.w3.org/2000/svg">
<g clip-path="url(#clip0_7791_79179)">
<path d="M0.5 16.5V15.2854C0.5 14.6896 0.820832 14.2084 1.4625 13.8417C2.10416 13.475 2.92916 13.2917 3.93749 13.2917C4.1361 13.2917 4.31943 13.2955 4.48749 13.3031C4.65554 13.3108 4.8236 13.3299 4.99166 13.3604C4.86943 13.6202 4.77777 13.8837 4.71666 14.1511C4.65554 14.4184 4.62499 14.7049 4.62499 15.0104V16.5H0.5ZM5.99999 16.5V15.0104C5.99999 14.0174 6.50797 13.2153 7.52394 12.6042C8.53991 11.9931 9.86525 11.6875 11.5 11.6875C13.15 11.6875 14.4791 11.9931 15.4875 12.6042C16.4958 13.2153 17 14.0174 17 15.0104V16.5H5.99999ZM18.375 16.5V15.0104C18.375 14.7049 18.3482 14.4184 18.2947 14.1511C18.2413 13.8837 18.1534 13.6202 18.0312 13.3604C18.1993 13.3299 18.3673 13.3108 18.5354 13.3031C18.7034 13.2955 18.8791 13.2917 19.0625 13.2917C20.1013 13.2917 20.934 13.475 21.5604 13.8417C22.1868 14.2084 22.4999 14.6896 22.4999 15.2854V16.5H18.375ZM11.5 13.0625C10.2778 13.0625 9.2847 13.2459 8.52081 13.6125C7.75693 13.9792 7.37498 14.4452 7.37498 15.0104V15.125H15.625V14.9875C15.625 14.4375 15.2468 13.9792 14.4906 13.6125C13.7343 13.2459 12.7375 13.0625 11.5 13.0625ZM3.93749 12.6042C3.49444 12.6042 3.11631 12.4476 2.80312 12.1344C2.48993 11.8212 2.33333 11.4431 2.33333 11C2.33333 10.557 2.48993 10.1788 2.80312 9.86564C3.11631 9.55244 3.49444 9.39584 3.93749 9.39584C4.38055 9.39584 4.75867 9.55244 5.07186 9.86564C5.38506 10.1788 5.54165 10.557 5.54165 11C5.54165 11.4431 5.38506 11.8212 5.07186 12.1344C4.75867 12.4476 4.38055 12.6042 3.93749 12.6042ZM19.0625 12.6042C18.6194 12.6042 18.2413 12.4476 17.9281 12.1344C17.6149 11.8212 17.4583 11.4431 17.4583 11C17.4583 10.557 17.6149 10.1788 17.9281 9.86564C18.2413 9.55244 18.6194 9.39584 19.0625 9.39584C19.5055 9.39584 19.8836 9.55244 20.1968 9.86564C20.51 10.1788 20.6666 10.557 20.6666 11C20.6666 11.4431 20.51 11.8212 20.1968 12.1344C19.8836 12.4476 19.5055 12.6042 19.0625 12.6042ZM11.5 11C10.7361 11 10.0868 10.7327 9.55206 10.1979C9.01734 9.66321 8.74998 9.0139 8.74998 8.25001C8.74998 7.47084 9.01734 6.81771 9.55206 6.29063C10.0868 5.76354 10.7361 5.5 11.5 5.5C12.2791 5.5 12.9323 5.76354 13.4593 6.29063C13.9864 6.81771 14.25 7.47084 14.25 8.25001C14.25 9.0139 13.9864 9.66321 13.4593 10.1979C12.9323 10.7327 12.2791 11 11.5 11ZM11.5 6.875C11.118 6.875 10.7934 7.00487 10.526 7.26459C10.2587 7.52431 10.125 7.85278 10.125 8.25001C10.125 8.63195 10.2587 8.95661 10.526 9.22397C10.7934 9.49133 11.118 9.62501 11.5 9.62501C11.8972 9.62501 12.2257 9.49133 12.4854 9.22397C12.7451 8.95661 12.875 8.63195 12.875 8.25001C12.875 7.85278 12.7451 7.52431 12.4854 7.26459C12.2257 7.00487 11.8972 6.875 11.5 6.875Z" fill="url(#paint0_linear_7791_79179)"/>
</g>
<defs>
<linearGradient id="paint0_linear_7791_79179" x1="6.41248" y1="11" x2="16.9571" y2="11.1052" gradientUnits="userSpaceOnUse">
<stop stop-color="#583EE7"/>
<stop offset="0.484375" stop-color="#0EA0E6"/>
<stop offset="1" stop-color="#00B6AE"/>
</linearGradient>
<clipPath id="clip0_7791_79179">
<rect width="21.9999" height="22.0001" fill="white" transform="translate(0.5)"/>
</clipPath>
</defs>
</svg>
