<svg width="23" height="23" viewBox="0 0 23 23" fill="none" xmlns="http://www.w3.org/2000/svg">
<path d="M11.5003 1.91602C6.21991 1.91602 1.91699 6.21893 1.91699 11.4993C1.91699 16.7798 6.21991 21.0827 11.5003 21.0827C16.7807 21.0827 21.0837 16.7798 21.0837 11.4993C21.0837 6.21893 16.7807 1.91602 11.5003 1.91602ZM15.3337 12.2181H12.2191V15.3327C12.2191 15.7256 11.8932 16.0514 11.5003 16.0514C11.1074 16.0514 10.7816 15.7256 10.7816 15.3327V12.2181H7.66699C7.27408 12.2181 6.94824 11.8923 6.94824 11.4993C6.94824 11.1064 7.27408 10.7806 7.66699 10.7806H10.7816V7.66602C10.7816 7.2731 11.1074 6.94727 11.5003 6.94727C11.8932 6.94727 12.2191 7.2731 12.2191 7.66602V10.7806H15.3337C15.7266 10.7806 16.0524 11.1064 16.0524 11.4993C16.0524 11.8923 15.7266 12.2181 15.3337 12.2181Z" fill="#00847D"/>
</svg>
