<svg width="40" height="41" viewBox="0 0 40 41" fill="none" xmlns="http://www.w3.org/2000/svg">
<g id="Alarm">
<path id="Vector" d="M19.9997 5.50069C17.033 5.50069 14.1329 6.38043 11.6662 8.02865C9.19943 9.67687 7.27684 12.0196 6.14153 14.7604C5.00621 17.5013 4.70916 20.5173 5.28794 23.4271C5.86672 26.3368 7.29533 29.0095 9.39312 31.1073C11.4909 33.2051 14.1636 34.6337 17.0734 35.2125C19.9831 35.7913 22.9991 35.4942 25.74 34.3589C28.4809 33.2236 30.8235 31.301 32.4718 28.8343C34.12 26.3675 34.9997 23.4674 34.9997 20.5007C34.9952 16.5238 33.4134 12.7112 30.6013 9.89912C27.7892 7.08706 23.9766 5.50524 19.9997 5.50069ZM19.9997 33.0007C17.5275 33.0007 15.1107 32.2676 13.0551 30.8941C10.9995 29.5205 9.39732 27.5683 8.45122 25.2842C7.50513 23.0002 7.25759 20.4868 7.7399 18.0621C8.22222 15.6373 9.41273 13.41 11.1609 11.6619C12.909 9.9137 15.1363 8.72319 17.5611 8.24088C19.9859 7.75856 22.4992 8.00611 24.7833 8.9522C27.0673 9.8983 29.0196 11.5005 30.3931 13.5561C31.7666 15.6117 32.4997 18.0284 32.4997 20.5007C32.496 23.8148 31.1778 26.992 28.8344 29.3354C26.491 31.6788 23.3138 32.997 19.9997 33.0007ZM9.63409 5.13507L4.63409 10.1351C4.51796 10.2512 4.38008 10.3433 4.22834 10.4062C4.0766 10.469 3.91396 10.5014 3.74972 10.5014C3.58547 10.5014 3.42284 10.469 3.2711 10.4062C3.11936 10.3433 2.98148 10.2512 2.86534 10.1351C2.63079 9.90052 2.49902 9.5824 2.49902 9.2507C2.49902 8.91899 2.63079 8.60087 2.86534 8.36632L7.86534 3.36632C7.98148 3.25018 8.11936 3.15806 8.2711 3.0952C8.42284 3.03235 8.58547 3 8.74972 3C8.91396 3 9.0766 3.03235 9.22834 3.0952C9.38008 3.15806 9.51796 3.25018 9.63409 3.36632C9.75023 3.48246 9.84236 3.62033 9.90521 3.77207C9.96806 3.92382 10.0004 4.08645 10.0004 4.2507C10.0004 4.41494 9.96806 4.57757 9.90521 4.72932C9.84236 4.88106 9.75023 5.01893 9.63409 5.13507ZM37.1341 10.1351C37.018 10.2513 36.8801 10.3435 36.7284 10.4064C36.5766 10.4693 36.414 10.5017 36.2497 10.5017C36.0854 10.5017 35.9228 10.4693 35.771 10.4064C35.6193 10.3435 35.4814 10.2513 35.3653 10.1351L30.3653 5.13507C30.1308 4.90052 29.999 4.5824 29.999 4.2507C29.999 3.91899 30.1308 3.60087 30.3653 3.36632C30.5999 3.13177 30.918 3 31.2497 3C31.5814 3 31.8995 3.13177 32.1341 3.36632L37.1341 8.36632C37.2503 8.48241 37.3425 8.62027 37.4054 8.77202C37.4683 8.92377 37.5007 9.08643 37.5007 9.2507C37.5007 9.41496 37.4683 9.57762 37.4054 9.72937C37.3425 9.88112 37.2503 10.019 37.1341 10.1351ZM28.7497 19.2507C29.0812 19.2507 29.3992 19.3824 29.6336 19.6168C29.868 19.8512 29.9997 20.1692 29.9997 20.5007C29.9997 20.8322 29.868 21.1502 29.6336 21.3846C29.3992 21.619 29.0812 21.7507 28.7497 21.7507H19.9997C19.6682 21.7507 19.3503 21.619 19.1158 21.3846C18.8814 21.1502 18.7497 20.8322 18.7497 20.5007V11.7507C18.7497 11.4192 18.8814 11.1012 19.1158 10.8668C19.3503 10.6324 19.6682 10.5007 19.9997 10.5007C20.3312 10.5007 20.6492 10.6324 20.8836 10.8668C21.118 11.1012 21.2497 11.4192 21.2497 11.7507V19.2507H28.7497Z" fill="#E0E0E0"/>
</g>
</svg>
