<svg width="39" height="38" viewBox="0 0 39 38" fill="none" xmlns="http://www.w3.org/2000/svg">
<g id="Calculator">
<path id="Vector" d="M12.375 17.8125H26.625C26.9399 17.8125 27.242 17.6874 27.4647 17.4647C27.6874 17.242 27.8125 16.9399 27.8125 16.625V9.5C27.8125 9.18506 27.6874 8.88301 27.4647 8.66031C27.242 8.43761 26.9399 8.3125 26.625 8.3125H12.375C12.0601 8.3125 11.758 8.43761 11.5353 8.66031C11.3126 8.88301 11.1875 9.18506 11.1875 9.5V16.625C11.1875 16.9399 11.3126 17.242 11.5353 17.4647C11.758 17.6874 12.0601 17.8125 12.375 17.8125ZM13.5625 10.6875H25.4375V15.4375H13.5625V10.6875ZM30.1875 3.5625H8.8125C8.18261 3.5625 7.57852 3.81272 7.13312 4.25812C6.68772 4.70352 6.4375 5.30761 6.4375 5.9375V32.0625C6.4375 32.6924 6.68772 33.2965 7.13312 33.7419C7.57852 34.1873 8.18261 34.4375 8.8125 34.4375H30.1875C30.8174 34.4375 31.4215 34.1873 31.8669 33.7419C32.3123 33.2965 32.5625 32.6924 32.5625 32.0625V5.9375C32.5625 5.30761 32.3123 4.70352 31.8669 4.25812C31.4215 3.81272 30.8174 3.5625 30.1875 3.5625ZM30.1875 32.0625H8.8125V5.9375H30.1875V32.0625ZM15.3438 21.9688C15.3438 22.321 15.2393 22.6654 15.0436 22.9584C14.8478 23.2513 14.5696 23.4796 14.2442 23.6144C13.9187 23.7492 13.5605 23.7845 13.215 23.7158C12.8695 23.647 12.5521 23.4774 12.303 23.2283C12.0539 22.9792 11.8842 22.6618 11.8155 22.3163C11.7467 21.9707 11.782 21.6126 11.9168 21.2871C12.0517 20.9616 12.28 20.6834 12.5729 20.4877C12.8658 20.292 13.2102 20.1875 13.5625 20.1875C14.0349 20.1875 14.488 20.3752 14.822 20.7092C15.1561 21.0433 15.3438 21.4963 15.3438 21.9688ZM21.2812 21.9688C21.2812 22.321 21.1768 22.6654 20.9811 22.9584C20.7853 23.2513 20.5071 23.4796 20.1817 23.6144C19.8562 23.7492 19.498 23.7845 19.1525 23.7158C18.807 23.647 18.4896 23.4774 18.2405 23.2283C17.9914 22.9792 17.8217 22.6618 17.753 22.3163C17.6842 21.9707 17.7195 21.6126 17.8543 21.2871C17.9892 20.9616 18.2175 20.6834 18.5104 20.4877C18.8033 20.292 19.1477 20.1875 19.5 20.1875C19.9724 20.1875 20.4255 20.3752 20.7595 20.7092C21.0936 21.0433 21.2812 21.4963 21.2812 21.9688ZM27.2188 21.9688C27.2188 22.321 27.1143 22.6654 26.9186 22.9584C26.7228 23.2513 26.4446 23.4796 26.1192 23.6144C25.7937 23.7492 25.4355 23.7845 25.09 23.7158C24.7445 23.647 24.4271 23.4774 24.178 23.2283C23.9289 22.9792 23.7592 22.6618 23.6905 22.3163C23.6217 21.9707 23.657 21.6126 23.7918 21.2871C23.9267 20.9616 24.155 20.6834 24.4479 20.4877C24.7408 20.292 25.0852 20.1875 25.4375 20.1875C25.9099 20.1875 26.363 20.3752 26.697 20.7092C27.0311 21.0433 27.2188 21.4963 27.2188 21.9688ZM15.3438 27.9062C15.3438 28.2585 15.2393 28.6029 15.0436 28.8959C14.8478 29.1888 14.5696 29.4171 14.2442 29.5519C13.9187 29.6867 13.5605 29.722 13.215 29.6533C12.8695 29.5845 12.5521 29.4149 12.303 29.1658C12.0539 28.9167 11.8842 28.5993 11.8155 28.2538C11.7467 27.9082 11.782 27.5501 11.9168 27.2246C12.0517 26.8991 12.28 26.6209 12.5729 26.4252C12.8658 26.2295 13.2102 26.125 13.5625 26.125C14.0349 26.125 14.488 26.3127 14.822 26.6467C15.1561 26.9808 15.3438 27.4338 15.3438 27.9062ZM21.2812 27.9062C21.2812 28.2585 21.1768 28.6029 20.9811 28.8959C20.7853 29.1888 20.5071 29.4171 20.1817 29.5519C19.8562 29.6867 19.498 29.722 19.1525 29.6533C18.807 29.5845 18.4896 29.4149 18.2405 29.1658C17.9914 28.9167 17.8217 28.5993 17.753 28.2538C17.6842 27.9082 17.7195 27.5501 17.8543 27.2246C17.9892 26.8991 18.2175 26.6209 18.5104 26.4252C18.8033 26.2295 19.1477 26.125 19.5 26.125C19.9724 26.125 20.4255 26.3127 20.7595 26.6467C21.0936 26.9808 21.2812 27.4338 21.2812 27.9062ZM27.2188 27.9062C27.2188 28.2585 27.1143 28.6029 26.9186 28.8959C26.7228 29.1888 26.4446 29.4171 26.1192 29.5519C25.7937 29.6867 25.4355 29.722 25.09 29.6533C24.7445 29.5845 24.4271 29.4149 24.178 29.1658C23.9289 28.9167 23.7592 28.5993 23.6905 28.2538C23.6217 27.9082 23.657 27.5501 23.7918 27.2246C23.9267 26.8991 24.155 26.6209 24.4479 26.4252C24.7408 26.2295 25.0852 26.125 25.4375 26.125C25.9099 26.125 26.363 26.3127 26.697 26.6467C27.0311 26.9808 27.2188 27.4338 27.2188 27.9062Z" fill="url(#paint0_linear_10081_108460)"/>
</g>
<defs>
<linearGradient id="paint0_linear_10081_108460" x1="13.4586" y1="19" x2="25.9813" y2="19.0528" gradientUnits="userSpaceOnUse">
<stop stop-color="#583EE7"/>
<stop offset="0.484375" stop-color="#0EA0E6"/>
<stop offset="1" stop-color="#00B6AE"/>
</linearGradient>
</defs>
</svg>
