<svg width="41" height="41" viewBox="0 0 41 41" fill="none" xmlns="http://www.w3.org/2000/svg">
<g id="ChartLineUp">
<path id="Vector" d="M36.875 33C36.875 33.3315 36.7433 33.6495 36.5089 33.8839C36.2745 34.1183 35.9565 34.25 35.625 34.25H5.625C5.29348 34.25 4.97554 34.1183 4.74112 33.8839C4.5067 33.6495 4.375 33.3315 4.375 33V8C4.375 7.66848 4.5067 7.35054 4.74112 7.11612C4.97554 6.8817 5.29348 6.75 5.625 6.75C5.95652 6.75 6.27446 6.8817 6.50888 7.11612C6.7433 7.35054 6.875 7.66848 6.875 8V24.9828L14.7406 17.1156C14.8567 16.9994 14.9946 16.9072 15.1463 16.8443C15.2981 16.7814 15.4607 16.749 15.625 16.749C15.7893 16.749 15.9519 16.7814 16.1037 16.8443C16.2554 16.9072 16.3933 16.9994 16.5094 17.1156L20.625 21.2328L28.8578 13H25.625C25.2935 13 24.9755 12.8683 24.7411 12.6339C24.5067 12.3995 24.375 12.0815 24.375 11.75C24.375 11.4185 24.5067 11.1005 24.7411 10.8661C24.9755 10.6317 25.2935 10.5 25.625 10.5H31.875C32.2065 10.5 32.5245 10.6317 32.7589 10.8661C32.9933 11.1005 33.125 11.4185 33.125 11.75V18C33.125 18.3315 32.9933 18.6495 32.7589 18.8839C32.5245 19.1183 32.2065 19.25 31.875 19.25C31.5435 19.25 31.2255 19.1183 30.9911 18.8839C30.7567 18.6495 30.625 18.3315 30.625 18V14.7672L21.5094 23.8844C21.3933 24.0006 21.2554 24.0928 21.1037 24.1557C20.9519 24.2186 20.7893 24.251 20.625 24.251C20.4607 24.251 20.2981 24.2186 20.1463 24.1557C19.9946 24.0928 19.8567 24.0006 19.7406 23.8844L15.625 19.7672L6.875 28.5172V31.75H35.625C35.9565 31.75 36.2745 31.8817 36.5089 32.1161C36.7433 32.3505 36.875 32.6685 36.875 33Z" fill="url(#paint0_linear_9387_98546)"/>
</g>
<defs>
<linearGradient id="paint0_linear_9387_98546" x1="13.1094" y1="20.5" x2="28.6877" y2="20.5918" gradientUnits="userSpaceOnUse">
<stop stop-color="#583EE7"/>
<stop offset="0.484375" stop-color="#0EA0E6"/>
<stop offset="1" stop-color="#00B6AE"/>
</linearGradient>
</defs>
</svg>
