<svg width="40" height="41" viewBox="0 0 40 41" fill="none" xmlns="http://www.w3.org/2000/svg">
<g id="ChartLineUp">
<path id="Vector" d="M36.25 33C36.25 33.3315 36.1183 33.6495 35.8839 33.8839C35.6495 34.1183 35.3315 34.25 35 34.25H5C4.66848 34.25 4.35054 34.1183 4.11612 33.8839C3.8817 33.6495 3.75 33.3315 3.75 33V8C3.75 7.66848 3.8817 7.35054 4.11612 7.11612C4.35054 6.8817 4.66848 6.75 5 6.75C5.33152 6.75 5.64946 6.8817 5.88388 7.11612C6.1183 7.35054 6.25 7.66848 6.25 8V24.9828L14.1156 17.1156C14.2317 16.9994 14.3696 16.9072 14.5213 16.8443C14.6731 16.7814 14.8357 16.749 15 16.749C15.1643 16.749 15.3269 16.7814 15.4787 16.8443C15.6304 16.9072 15.7683 16.9994 15.8844 17.1156L20 21.2328L28.2328 13H25C24.6685 13 24.3505 12.8683 24.1161 12.6339C23.8817 12.3995 23.75 12.0815 23.75 11.75C23.75 11.4185 23.8817 11.1005 24.1161 10.8661C24.3505 10.6317 24.6685 10.5 25 10.5H31.25C31.5815 10.5 31.8995 10.6317 32.1339 10.8661C32.3683 11.1005 32.5 11.4185 32.5 11.75V18C32.5 18.3315 32.3683 18.6495 32.1339 18.8839C31.8995 19.1183 31.5815 19.25 31.25 19.25C30.9185 19.25 30.6005 19.1183 30.3661 18.8839C30.1317 18.6495 30 18.3315 30 18V14.7672L20.8844 23.8844C20.7683 24.0006 20.6304 24.0928 20.4787 24.1557C20.3269 24.2186 20.1643 24.251 20 24.251C19.8357 24.251 19.6731 24.2186 19.5213 24.1557C19.3696 24.0928 19.2317 24.0006 19.1156 23.8844L15 19.7672L6.25 28.5172V31.75H35C35.3315 31.75 35.6495 31.8817 35.8839 32.1161C36.1183 32.3505 36.25 32.6685 36.25 33Z" fill="#E0E0E0"/>
</g>
</svg>
