<svg width="41" height="40" viewBox="0 0 41 40" fill="none" xmlns="http://www.w3.org/2000/svg">
<g id="Coins">
<path id="Vector" d="M28.875 13.9953V13.125C28.875 9.20625 22.9641 6.25 15.125 6.25C7.28594 6.25 1.375 9.20625 1.375 13.125V19.375C1.375 22.6391 5.47656 25.2328 11.375 26.0094V26.875C11.375 30.7938 17.2859 33.75 25.125 33.75C32.9641 33.75 38.875 30.7938 38.875 26.875V20.625C38.875 17.3906 34.9031 14.7937 28.875 13.9953ZM36.375 20.625C36.375 22.6906 31.5641 25 25.125 25C24.5422 25 23.9641 24.9797 23.3937 24.9422C26.7641 23.7141 28.875 21.7188 28.875 19.375V16.5219C33.5422 17.2172 36.375 19.1047 36.375 20.625ZM11.375 23.4766V19.7594C12.6184 19.9214 13.8711 20.0018 15.125 20C16.3789 20.0018 17.6316 19.9214 18.875 19.7594V23.4766C17.6334 23.66 16.38 23.7514 15.125 23.75C13.87 23.7514 12.6166 23.66 11.375 23.4766ZM26.375 17.1766V19.375C26.375 20.6859 24.4359 22.0937 21.375 22.9484V19.2969C23.3922 18.8078 25.1 18.0797 26.375 17.1766ZM15.125 8.75C21.5641 8.75 26.375 11.0594 26.375 13.125C26.375 15.1906 21.5641 17.5 15.125 17.5C8.68594 17.5 3.875 15.1906 3.875 13.125C3.875 11.0594 8.68594 8.75 15.125 8.75ZM3.875 19.375V17.1766C5.15 18.0797 6.85781 18.8078 8.875 19.2969V22.9484C5.81406 22.0937 3.875 20.6859 3.875 19.375ZM13.875 26.875V26.2234C14.2859 26.2391 14.7016 26.25 15.125 26.25C15.7312 26.25 16.3234 26.2297 16.9047 26.1953C17.5504 26.4265 18.2081 26.6226 18.875 26.7828V30.4484C15.8141 29.5938 13.875 28.1859 13.875 26.875ZM21.375 30.9766V27.25C22.618 27.4171 23.8708 27.5006 25.125 27.5C26.3789 27.5018 27.6316 27.4214 28.875 27.2594V30.9766C26.3883 31.3411 23.8617 31.3411 21.375 30.9766ZM31.375 30.4484V26.7969C33.3922 26.3078 35.1 25.5797 36.375 24.6766V26.875C36.375 28.1859 34.4359 29.5938 31.375 30.4484Z" fill="url(#paint0_linear_9387_98536)"/>
</g>
<defs>
<linearGradient id="paint0_linear_9387_98536" x1="11.4531" y1="20" x2="29.4279" y2="20.1222" gradientUnits="userSpaceOnUse">
<stop stop-color="#583EE7"/>
<stop offset="0.484375" stop-color="#0EA0E6"/>
<stop offset="1" stop-color="#00B6AE"/>
</linearGradient>
</defs>
</svg>
