<svg width="41" height="40" viewBox="0 0 41 40" fill="none" xmlns="http://www.w3.org/2000/svg">
<g id="HandCoins" clip-path="url(#clip0_10081_108478)">
<path id="Vector" d="M36.4891 22.0406C36.0239 21.6827 35.4825 21.4369 34.9069 21.3223C34.3313 21.2077 33.7371 21.2273 33.1703 21.3797L26.6328 22.8828C26.7849 22.2403 26.7896 21.5717 26.6466 20.9271C26.5035 20.2825 26.2164 19.6787 25.8068 19.1608C25.3972 18.643 24.8756 18.2246 24.2813 17.9369C23.687 17.6493 23.0353 17.4999 22.375 17.5H14.5531C13.8962 17.4984 13.2456 17.6269 12.6386 17.8782C12.0317 18.1295 11.4806 18.4985 11.0172 18.9641L7.48281 22.5H3C2.33696 22.5 1.70107 22.7634 1.23223 23.2322C0.763392 23.7011 0.5 24.337 0.5 25L0.5 31.25C0.5 31.913 0.763392 32.5489 1.23223 33.0178C1.70107 33.4866 2.33696 33.75 3 33.75H19.25C19.3522 33.7501 19.454 33.7375 19.5531 33.7125L29.5531 31.2125C29.6169 31.1973 29.6791 31.1764 29.7391 31.15L35.8125 28.5656L35.8812 28.5344C36.465 28.2427 36.9648 27.8072 37.3337 27.269C37.7026 26.7308 37.9284 26.1075 37.9898 25.4579C38.0512 24.8082 37.9463 24.1537 37.6848 23.5558C37.4233 22.958 37.014 22.4365 36.4953 22.0406H36.4891ZM3 25H6.75V31.25H3V25ZM34.7859 26.2828L28.8484 28.8109L19.0938 31.25H9.25V24.2672L12.7859 20.7328C13.0172 20.4997 13.2926 20.3148 13.596 20.189C13.8993 20.0632 14.2247 19.999 14.5531 20H22.375C22.8723 20 23.3492 20.1975 23.7008 20.5492C24.0525 20.9008 24.25 21.3777 24.25 21.875C24.25 22.3723 24.0525 22.8492 23.7008 23.2008C23.3492 23.5525 22.8723 23.75 22.375 23.75H18C17.6685 23.75 17.3505 23.8817 17.1161 24.1161C16.8817 24.3505 16.75 24.6685 16.75 25C16.75 25.3315 16.8817 25.6495 17.1161 25.8839C17.3505 26.1183 17.6685 26.25 18 26.25H23C23.0941 26.2497 23.1879 26.2393 23.2797 26.2188L33.7484 23.8109L33.7969 23.7984C34.1165 23.7097 34.4576 23.7423 34.7545 23.89C35.0515 24.0376 35.2834 24.2899 35.4056 24.5982C35.5278 24.9066 35.5316 25.2492 35.4163 25.5602C35.3011 25.8712 35.0749 26.1286 34.7812 26.2828H34.7859ZM26.125 15C26.4338 15.0004 26.7422 14.9753 27.0469 14.925C27.3896 15.943 28.0167 16.8417 28.8539 17.5146C29.6912 18.1876 30.7037 18.6067 31.7716 18.7225C32.8395 18.8382 33.9183 18.6458 34.8803 18.1679C35.8423 17.6901 36.6474 16.9467 37.2004 16.0258C37.7533 15.1049 38.031 14.0448 38.0006 12.9711C37.9702 11.8973 37.633 10.8547 37.0289 9.96656C36.4247 9.07838 35.5789 8.38176 34.5913 7.95906C33.6038 7.53636 32.5159 7.40526 31.4562 7.58125C31.1262 6.60039 30.532 5.72958 29.739 5.06465C28.946 4.39973 27.9849 3.96647 26.9615 3.81256C25.9381 3.65865 24.8921 3.79004 23.9386 4.19229C22.985 4.59454 22.161 5.25204 21.557 6.09245C20.9531 6.93285 20.5927 7.92357 20.5156 8.95559C20.4384 9.9876 20.6475 11.0209 21.1197 11.9418C21.5919 12.8626 22.3091 13.6354 23.1922 14.175C24.0753 14.7145 25.0901 15 26.125 15ZM35.5 13.125C35.5 13.7431 35.3167 14.3473 34.9733 14.8612C34.63 15.3751 34.1419 15.7756 33.5709 16.0121C32.9999 16.2486 32.3715 16.3105 31.7653 16.19C31.1592 16.0694 30.6023 15.7718 30.1653 15.3347C29.7283 14.8977 29.4306 14.3409 29.31 13.7347C29.1895 13.1285 29.2514 12.5001 29.4879 11.9291C29.7244 11.3581 30.1249 10.87 30.6388 10.5267C31.1527 10.1833 31.7569 10 32.375 10C33.2038 10 33.9987 10.3292 34.5847 10.9153C35.1708 11.5013 35.5 12.2962 35.5 13.125ZM26.125 6.25C26.8067 6.25034 27.4696 6.47361 28.0127 6.88575C28.5557 7.29789 28.9491 7.87631 29.1328 8.53281C28.4926 8.98328 27.9535 9.5624 27.5499 10.2332C27.1463 10.9039 26.8872 11.6515 26.7891 12.4281C26.5708 12.4753 26.3483 12.4993 26.125 12.5C25.2962 12.5 24.5013 12.1708 23.9153 11.5847C23.3292 10.9987 23 10.2038 23 9.375C23 8.5462 23.3292 7.75134 23.9153 7.16529C24.5013 6.57924 25.2962 6.25 26.125 6.25Z" fill="url(#paint0_linear_10081_108478)"/>
</g>
<defs>
<linearGradient id="paint0_linear_10081_108478" x1="10.58" y1="18.75" x2="28.5581" y2="18.8621" gradientUnits="userSpaceOnUse">
<stop stop-color="#583EE7"/>
<stop offset="0.484375" stop-color="#0EA0E6"/>
<stop offset="1" stop-color="#00B6AE"/>
</linearGradient>
<clipPath id="clip0_10081_108478">
<rect width="40" height="40" fill="white" transform="translate(0.5)"/>
</clipPath>
</defs>
</svg>
