<svg width="41" height="41" viewBox="0 0 41 41" fill="none" xmlns="http://www.w3.org/2000/svg">
<g id="Laptop">
<path id="Vector" d="M36.625 26.75H35.375V11.75C35.375 10.7554 34.9799 9.80161 34.2767 9.09835C33.5734 8.39509 32.6196 8 31.625 8H9.125C8.13044 8 7.17661 8.39509 6.47335 9.09835C5.77009 9.80161 5.375 10.7554 5.375 11.75V26.75H4.125C3.79348 26.75 3.47554 26.8817 3.24112 27.1161C3.0067 27.3505 2.875 27.6685 2.875 28V30.5C2.875 31.4946 3.27009 32.4484 3.97335 33.1517C4.67661 33.8549 5.63044 34.25 6.625 34.25H34.125C35.1196 34.25 36.0734 33.8549 36.7766 33.1517C37.4799 32.4484 37.875 31.4946 37.875 30.5V28C37.875 27.6685 37.7433 27.3505 37.5089 27.1161C37.2745 26.8817 36.9565 26.75 36.625 26.75ZM7.875 11.75C7.875 11.4185 8.0067 11.1005 8.24112 10.8661C8.47554 10.6317 8.79348 10.5 9.125 10.5H31.625C31.9565 10.5 32.2745 10.6317 32.5089 10.8661C32.7433 11.1005 32.875 11.4185 32.875 11.75V26.75H7.875V11.75ZM35.375 30.5C35.375 30.8315 35.2433 31.1495 35.0089 31.3839C34.7745 31.6183 34.4565 31.75 34.125 31.75H6.625C6.29348 31.75 5.97554 31.6183 5.74112 31.3839C5.5067 31.1495 5.375 30.8315 5.375 30.5V29.25H35.375V30.5ZM24.125 14.25C24.125 14.5815 23.9933 14.8995 23.7589 15.1339C23.5245 15.3683 23.2065 15.5 22.875 15.5H17.875C17.5435 15.5 17.2255 15.3683 16.9911 15.1339C16.7567 14.8995 16.625 14.5815 16.625 14.25C16.625 13.9185 16.7567 13.6005 16.9911 13.3661C17.2255 13.1317 17.5435 13 17.875 13H22.875C23.2065 13 23.5245 13.1317 23.7589 13.3661C23.9933 13.6005 24.125 13.9185 24.125 14.25Z" fill="url(#paint0_linear_9387_98540)"/>
</g>
<defs>
<linearGradient id="paint0_linear_9387_98540" x1="12.2812" y1="21.125" x2="29.0577" y2="21.2365" gradientUnits="userSpaceOnUse">
<stop stop-color="#583EE7"/>
<stop offset="0.484375" stop-color="#0EA0E6"/>
<stop offset="1" stop-color="#00B6AE"/>
</linearGradient>
</defs>
</svg>
