<svg width="28" height="31" viewBox="0 0 28 31" fill="none" xmlns="http://www.w3.org/2000/svg">
<g id="Group">
<path id="Vector" d="M14.0117 16.9397V1.05078L25.5673 6.82856L14.0117 12.6063" stroke="url(#paint0_linear_16777_109664)" stroke-width="1.3" stroke-linecap="round" stroke-linejoin="round"/>
<path id="Vector_2" d="M26.3654 12.9341C27.1341 15.3032 27.206 17.8432 26.5726 20.252C25.9393 22.6608 24.6272 24.8369 22.7927 26.5215C20.9581 28.2061 18.6783 29.3282 16.2243 29.7544C13.7704 30.1806 11.2457 29.8928 8.95057 28.9254C6.65546 27.958 4.68656 26.3516 3.27813 24.2974C1.8697 22.2432 1.08101 19.8276 1.00591 17.3381C0.930811 14.8486 1.57245 12.3898 2.8545 10.2545C4.13655 8.11911 6.00503 6.39698 8.23765 5.29297" stroke="url(#paint1_linear_16777_109664)" stroke-width="1.3" stroke-linecap="round" stroke-linejoin="round"/>
<path id="Vector_3" d="M8.23695 12.6016C7.51315 13.565 7.04193 14.6943 6.86624 15.8865C6.69054 17.0787 6.81595 18.2959 7.23104 19.4272C7.64613 20.5585 8.33771 21.568 9.24276 22.3637C10.1478 23.1593 11.2376 23.7159 12.4127 23.9826C13.5879 24.2493 14.8112 24.2177 15.971 23.8907C17.1309 23.5638 18.1905 22.9517 19.0533 22.1105C19.9161 21.2692 20.5546 20.2254 20.9108 19.0742C21.267 17.9229 21.3295 16.7009 21.0925 15.5193" stroke="url(#paint2_linear_16777_109664)" stroke-width="1.3" stroke-linecap="round" stroke-linejoin="round"/>
</g>
<defs>
<linearGradient id="paint0_linear_16777_109664" x1="17.1173" y1="8.99523" x2="22.6563" y2="9.01531" gradientUnits="userSpaceOnUse">
<stop stop-color="#583EE7"/>
<stop offset="0.484375" stop-color="#0EA0E6"/>
<stop offset="1" stop-color="#00B6AE"/>
</linearGradient>
<linearGradient id="paint1_linear_16777_109664" x1="7.9875" y1="17.6195" x2="20.4502" y2="17.6851" gradientUnits="userSpaceOnUse">
<stop stop-color="#583EE7"/>
<stop offset="0.484375" stop-color="#0EA0E6"/>
<stop offset="1" stop-color="#00B6AE"/>
</linearGradient>
<linearGradient id="paint2_linear_16777_109664" x1="10.671" y1="18.3816" x2="17.5947" y2="18.4248" gradientUnits="userSpaceOnUse">
<stop stop-color="#583EE7"/>
<stop offset="0.484375" stop-color="#0EA0E6"/>
<stop offset="1" stop-color="#00B6AE"/>
</linearGradient>
</defs>
</svg>
