<svg width="41" height="40" viewBox="0 0 41 40" fill="none" xmlns="http://www.w3.org/2000/svg">
<g id="Robot">
<path id="Vector" d="M31.75 7.5H21.75V2.5C21.75 2.16848 21.6183 1.85054 21.3839 1.61612C21.1495 1.3817 20.8315 1.25 20.5 1.25C20.1685 1.25 19.8505 1.3817 19.6161 1.61612C19.3817 1.85054 19.25 2.16848 19.25 2.5V7.5H9.25C7.92392 7.5 6.65215 8.02678 5.71447 8.96447C4.77678 9.90215 4.25 11.1739 4.25 12.5V30C4.25 31.3261 4.77678 32.5979 5.71447 33.5355C6.65215 34.4732 7.92392 35 9.25 35H31.75C33.0761 35 34.3479 34.4732 35.2855 33.5355C36.2232 32.5979 36.75 31.3261 36.75 30V12.5C36.75 11.1739 36.2232 9.90215 35.2855 8.96447C34.3479 8.02678 33.0761 7.5 31.75 7.5ZM34.25 30C34.25 30.663 33.9866 31.2989 33.5178 31.7678C33.0489 32.2366 32.413 32.5 31.75 32.5H9.25C8.58696 32.5 7.95107 32.2366 7.48223 31.7678C7.01339 31.2989 6.75 30.663 6.75 30V12.5C6.75 11.837 7.01339 11.2011 7.48223 10.7322C7.95107 10.2634 8.58696 10 9.25 10H31.75C32.413 10 33.0489 10.2634 33.5178 10.7322C33.9866 11.2011 34.25 11.837 34.25 12.5V30ZM26.125 21.25H14.875C13.7147 21.25 12.6019 21.7109 11.7814 22.5314C10.9609 23.3519 10.5 24.4647 10.5 25.625C10.5 26.7853 10.9609 27.8981 11.7814 28.7186C12.6019 29.5391 13.7147 30 14.875 30H26.125C27.2853 30 28.3981 29.5391 29.2186 28.7186C30.0391 27.8981 30.5 26.7853 30.5 25.625C30.5 24.4647 30.0391 23.3519 29.2186 22.5314C28.3981 21.7109 27.2853 21.25 26.125 21.25ZM21.75 23.75V27.5H19.25V23.75H21.75ZM13 25.625C13 25.1277 13.1975 24.6508 13.5492 24.2992C13.9008 23.9475 14.3777 23.75 14.875 23.75H16.75V27.5H14.875C14.3777 27.5 13.9008 27.3025 13.5492 26.9508C13.1975 26.5992 13 26.1223 13 25.625ZM26.125 27.5H24.25V23.75H26.125C26.6223 23.75 27.0992 23.9475 27.4508 24.2992C27.8025 24.6508 28 25.1277 28 25.625C28 26.1223 27.8025 26.5992 27.4508 26.9508C27.0992 27.3025 26.6223 27.5 26.125 27.5ZM11.75 16.875C11.75 16.5042 11.86 16.1416 12.066 15.8333C12.272 15.525 12.5649 15.2846 12.9075 15.1427C13.2501 15.0008 13.6271 14.9637 13.9908 15.036C14.3545 15.1084 14.6886 15.287 14.9508 15.5492C15.213 15.8114 15.3916 16.1455 15.464 16.5092C15.5363 16.8729 15.4992 17.2499 15.3573 17.5925C15.2154 17.9351 14.975 18.228 14.6667 18.434C14.3584 18.64 13.9958 18.75 13.625 18.75C13.1277 18.75 12.6508 18.5525 12.2992 18.2008C11.9475 17.8492 11.75 17.3723 11.75 16.875ZM25.5 16.875C25.5 16.5042 25.61 16.1416 25.816 15.8333C26.022 15.525 26.3149 15.2846 26.6575 15.1427C27.0001 15.0008 27.3771 14.9637 27.7408 15.036C28.1045 15.1084 28.4386 15.287 28.7008 15.5492C28.963 15.8114 29.1416 16.1455 29.214 16.5092C29.2863 16.8729 29.2492 17.2499 29.1073 17.5925C28.9654 17.9351 28.725 18.228 28.4167 18.434C28.1084 18.64 27.7458 18.75 27.375 18.75C26.8777 18.75 26.4008 18.5525 26.0492 18.2008C25.6975 17.8492 25.5 17.3723 25.5 16.875Z" fill="url(#paint0_linear_10081_108496)"/>
</g>
<defs>
<linearGradient id="paint0_linear_10081_108496" x1="12.9844" y1="18.125" x2="28.5628" y2="18.1998" gradientUnits="userSpaceOnUse">
<stop stop-color="#583EE7"/>
<stop offset="0.484375" stop-color="#0EA0E6"/>
<stop offset="1" stop-color="#00B6AE"/>
</linearGradient>
</defs>
</svg>
