<svg width="31" height="31" viewBox="0 0 31 31" fill="none" xmlns="http://www.w3.org/2000/svg">
<g id="solar:delivery-outline">
<g id="Group">
<path id="Vector" fill-rule="evenodd" clip-rule="evenodd" d="M22.9897 3.48907C22.2882 3.09511 21.541 3.05699 20.7518 3.15484C20.002 3.24888 19.0883 3.48526 17.9915 3.77119L15.4257 4.43711C14.329 4.72305 13.4165 4.95942 12.7188 5.24282C11.983 5.54019 11.3476 5.93923 10.9359 6.63184C10.5216 7.32826 10.4809 8.07296 10.5838 8.85071C10.6817 9.58399 10.927 10.4736 11.2193 11.5334L11.9093 14.0294C12.2016 15.0905 12.4482 15.9788 12.7417 16.66C13.0531 17.3844 13.4686 18.0007 14.1752 18.3972C14.8767 18.7899 15.624 18.8293 16.4144 18.7302C17.1642 18.6374 18.078 18.3998 19.1747 18.1138L21.7405 17.4479C22.8372 17.1632 23.7497 16.9256 24.4474 16.6422C25.1832 16.3448 25.8186 15.9458 26.2303 15.2532C26.6446 14.5568 26.6853 13.812 26.5824 13.0356C26.4845 12.3023 26.2392 11.4114 25.947 10.3516L25.2569 7.85565C24.9646 6.79578 24.7181 5.90619 24.4245 5.22503C24.1131 4.50065 23.695 3.8843 22.9897 3.48907ZM18.4084 5.63169C19.5839 5.32669 20.3756 5.12336 20.9882 5.04711C21.574 4.9734 21.8549 5.03821 22.0595 5.15259C22.259 5.26442 22.4509 5.45886 22.6733 5.97863C22.9084 6.52509 23.1219 7.28632 23.4371 8.42753L24.0903 10.7951C24.4067 11.9363 24.6151 12.6988 24.6926 13.2859C24.7663 13.8438 24.7003 14.0967 24.591 14.2784C24.4804 14.4653 24.2796 14.6546 23.7332 14.8757C23.1638 15.1058 22.3734 15.3142 21.1978 15.6192L18.7578 16.2533C17.5823 16.5583 16.7906 16.7617 16.1781 16.8379C15.5909 16.9129 15.3113 16.8481 15.1067 16.7337C14.9072 16.6219 14.7153 16.4262 14.4929 15.9077C14.2578 15.3612 14.0443 14.5987 13.7292 13.4575L13.076 11.0912C12.7595 9.94744 12.5511 9.18621 12.4736 8.60036C12.3999 8.04119 12.466 7.78957 12.5752 7.60657C12.6858 7.41976 12.8866 7.2304 13.4331 7.00928C14.0024 6.77926 14.7928 6.57211 15.9684 6.26584L18.4084 5.63169Z" fill="url(#paint0_linear_16777_109714)"/>
<path id="Vector_2" fill-rule="evenodd" clip-rule="evenodd" d="M4.0668 6.25398C3.82603 6.19495 3.57174 6.23205 3.35788 6.3574C3.14401 6.48276 2.9874 6.6865 2.92127 6.92541C2.85513 7.16432 2.88468 7.4196 3.00364 7.63708C3.1226 7.85457 3.32162 8.01715 3.55846 8.09033L5.72269 8.69144C6.26407 8.8414 6.66692 9.2506 6.80417 9.7475L9.28484 18.7234C9.18885 18.7424 9.09349 18.7644 8.9989 18.7895C6.48646 19.4414 4.9513 21.9691 5.64009 24.4663C6.32634 26.9508 8.93663 28.383 11.4389 27.7323C13.6298 27.1643 15.0773 25.1703 14.9553 23.015L25.6557 20.2344C25.7769 20.203 25.8907 20.1479 25.9906 20.0725C26.0905 19.9971 26.1745 19.9027 26.2379 19.7948C26.3014 19.6869 26.3429 19.5675 26.3602 19.4435C26.3775 19.3196 26.3702 19.1934 26.3388 19.0722C26.3073 18.9511 26.2523 18.8373 26.1769 18.7374C26.1015 18.6375 26.0071 18.5534 25.8992 18.49C25.7913 18.4266 25.6719 18.385 25.5479 18.3677C25.4239 18.3504 25.2978 18.3577 25.1766 18.3892L14.4533 21.1761C14.1325 20.5631 13.681 20.0279 13.1307 19.6085C12.5804 19.1891 11.9448 18.8956 11.2686 18.7488L8.6418 9.23917C8.48056 8.6671 8.17385 8.14657 7.75158 7.72831C7.32931 7.31004 6.80588 7.00832 6.2323 6.85254L4.06807 6.25271L4.0668 6.25398ZM9.47928 20.6335C11.0195 20.2344 12.5649 21.1278 12.9614 22.5639C13.3553 23.9872 12.4912 25.4906 10.9611 25.8884C9.42082 26.2887 7.87549 25.394 7.47899 23.958C7.08503 22.5346 7.94919 21.0312 9.47928 20.6335Z" fill="url(#paint1_linear_16777_109714)"/>
</g>
</g>
<defs>
<linearGradient id="paint0_linear_16777_109714" x1="14.8614" y1="10.9428" x2="22.5758" y2="10.9823" gradientUnits="userSpaceOnUse">
<stop stop-color="#583EE7"/>
<stop offset="0.484375" stop-color="#0EA0E6"/>
<stop offset="1" stop-color="#00B6AE"/>
</linearGradient>
<linearGradient id="paint1_linear_16777_109714" x1="9.19768" y1="17.0578" x2="20.4537" y2="17.1186" gradientUnits="userSpaceOnUse">
<stop stop-color="#583EE7"/>
<stop offset="0.484375" stop-color="#0EA0E6"/>
<stop offset="1" stop-color="#00B6AE"/>
</linearGradient>
</defs>
</svg>
