<svg width="41" height="40" viewBox="0 0 41 40" fill="none" xmlns="http://www.w3.org/2000/svg">
<g id="TrendUp">
<path id="Vector" d="M37.9997 8.75V18.75C37.9997 19.0815 37.868 19.3995 37.6336 19.6339C37.3992 19.8683 37.0812 20 36.7497 20C36.4182 20 36.1003 19.8683 35.8658 19.6339C35.6314 19.3995 35.4997 19.0815 35.4997 18.75V11.7672L22.6341 24.6344C22.518 24.7506 22.3801 24.8428 22.2284 24.9057C22.0766 24.9686 21.914 25.001 21.7497 25.001C21.5855 25.001 21.4228 24.9686 21.271 24.9057C21.1193 24.8428 20.9814 24.7506 20.8653 24.6344L15.4997 19.2672L5.13409 29.6344C4.89954 29.8689 4.58142 30.0007 4.24972 30.0007C3.91801 30.0007 3.59989 29.8689 3.36534 29.6344C3.13079 29.3998 2.99902 29.0817 2.99902 28.75C2.99902 28.4183 3.13079 28.1002 3.36534 27.8656L14.6153 16.6156C14.7314 16.4994 14.8693 16.4072 15.021 16.3443C15.1728 16.2814 15.3355 16.249 15.4997 16.249C15.664 16.249 15.8266 16.2814 15.9784 16.3443C16.1301 16.4072 16.268 16.4994 16.3841 16.6156L21.7497 21.9828L33.7325 10H26.7497C26.4182 10 26.1003 9.8683 25.8658 9.63388C25.6314 9.39946 25.4997 9.08152 25.4997 8.75C25.4997 8.41848 25.6314 8.10054 25.8658 7.86612C26.1003 7.6317 26.4182 7.5 26.7497 7.5H36.7497C37.0812 7.5 37.3992 7.6317 37.6336 7.86612C37.868 8.10054 37.9997 8.41848 37.9997 8.75Z" fill="url(#paint0_linear_10081_108454)"/>
</g>
<defs>
<linearGradient id="paint0_linear_10081_108454" x1="12.4055" y1="18.7503" x2="29.182" y2="18.8805" gradientUnits="userSpaceOnUse">
<stop stop-color="#583EE7"/>
<stop offset="0.484375" stop-color="#0EA0E6"/>
<stop offset="1" stop-color="#00B6AE"/>
</linearGradient>
</defs>
</svg>
