<svg width="34" height="34" viewBox="0 0 34 34" fill="none" xmlns="http://www.w3.org/2000/svg">
<g id="TrendUp">
<path id="Vector" d="M31.8746 7.4375V15.9375C31.8746 16.2193 31.7627 16.4895 31.5634 16.6888C31.3642 16.8881 31.0939 17 30.8121 17C30.5303 17 30.2601 16.8881 30.0608 16.6888C29.8616 16.4895 29.7496 16.2193 29.7496 15.9375V10.0021L18.8138 20.9392C18.7152 21.038 18.598 21.1164 18.469 21.1698C18.34 21.2233 18.2017 21.2508 18.0621 21.2508C17.9225 21.2508 17.7842 21.2233 17.6552 21.1698C17.5263 21.1164 17.4091 21.038 17.3104 20.9392L12.7496 16.3771L3.93883 25.1892C3.73946 25.3886 3.46906 25.5006 3.18711 25.5006C2.90517 25.5006 2.63476 25.3886 2.4354 25.1892C2.23603 24.9899 2.12402 24.7194 2.12402 24.4375C2.12402 24.1556 2.23603 23.8851 2.4354 23.6858L11.9979 14.1233C12.0966 14.0245 12.2138 13.9461 12.3427 13.8927C12.4717 13.8392 12.61 13.8117 12.7496 13.8117C12.8892 13.8117 13.0275 13.8392 13.1565 13.8927C13.2855 13.9461 13.4027 14.0245 13.5013 14.1233L18.0621 18.6854L28.2475 8.5H22.3121C22.0303 8.5 21.7601 8.38806 21.5608 8.1888C21.3616 7.98954 21.2496 7.71929 21.2496 7.4375C21.2496 7.15571 21.3616 6.88546 21.5608 6.6862C21.7601 6.48694 22.0303 6.375 22.3121 6.375H30.8121C31.0939 6.375 31.3642 6.48694 31.5634 6.6862C31.7627 6.88546 31.8746 7.15571 31.8746 7.4375Z" fill="url(#paint0_linear_16777_109678)"/>
</g>
<defs>
<linearGradient id="paint0_linear_16777_109678" x1="10.1195" y1="15.9378" x2="24.3795" y2="16.0484" gradientUnits="userSpaceOnUse">
<stop stop-color="#583EE7"/>
<stop offset="0.484375" stop-color="#0EA0E6"/>
<stop offset="1" stop-color="#00B6AE"/>
</linearGradient>
</defs>
</svg>
