<svg width="31" height="31" viewBox="0 0 31 31" fill="none" xmlns="http://www.w3.org/2000/svg">
<g id="WhatsappLogo">
<path id="Vector" d="M22.3024 17.5042L18.4977 15.6018C18.3479 15.5272 18.1811 15.4934 18.0141 15.5038C17.8471 15.5143 17.6858 15.5686 17.5465 15.6613L15.7999 16.8265C14.9981 16.3857 14.3383 15.7259 13.8976 14.9241L15.0628 13.1775C15.1555 13.0382 15.2098 12.8769 15.2202 12.7099C15.2306 12.5429 15.1968 12.3761 15.1222 12.2264L13.2199 8.42167C13.141 8.26243 13.0191 8.12846 12.868 8.03495C12.717 7.94144 12.5427 7.89212 12.365 7.89258C11.1037 7.89258 9.894 8.39364 9.0021 9.28554C8.11021 10.1774 7.60914 11.3871 7.60914 12.6484C7.61229 15.4224 8.71564 18.0819 10.6771 20.0433C12.6386 22.0048 15.2981 23.1082 18.072 23.1113C18.6966 23.1113 19.315 22.9883 19.892 22.7493C20.469 22.5103 20.9933 22.16 21.4349 21.7184C21.8766 21.2767 22.2269 20.7525 22.4659 20.1755C22.7049 19.5984 22.8279 18.98 22.8279 18.3555C22.828 18.1788 22.7789 18.0055 22.6861 17.8551C22.5933 17.7048 22.4604 17.5832 22.3024 17.5042ZM18.072 21.209C15.8024 21.2065 13.6265 20.3037 12.0216 18.6989C10.4167 17.094 9.51401 14.9181 9.51149 12.6484C9.5113 11.9887 9.73973 11.3493 10.1579 10.839C10.576 10.3287 11.1581 9.97909 11.805 9.84961L13.1699 12.5842L12.0083 14.313C11.9215 14.4432 11.8682 14.5928 11.853 14.7486C11.8379 14.9043 11.8614 15.0614 11.9215 15.2059C12.6021 16.8233 13.8888 18.1101 15.5062 18.7906C15.6512 18.8534 15.8095 18.8791 15.9668 18.8654C16.1241 18.8517 16.2756 18.799 16.4075 18.7122L18.1446 17.5541L20.8792 18.919C20.7487 19.5667 20.3975 20.149 19.8856 20.5666C19.3737 20.9842 18.7327 21.2113 18.072 21.209ZM15.2185 3.13672C13.0837 3.13625 10.9851 3.6885 9.12704 4.73972C7.26897 5.79093 5.7147 7.30529 4.61554 9.1354C3.51637 10.9655 2.90974 13.049 2.8547 15.1831C2.79966 17.3173 3.29808 19.4293 4.30144 21.3136L2.95197 25.362C2.84019 25.6972 2.82397 26.0569 2.90512 26.4008C2.98628 26.7447 3.1616 27.0592 3.41145 27.309C3.66129 27.5589 3.97578 27.7342 4.31967 27.8154C4.66355 27.8965 5.02325 27.8803 5.35843 27.7685L9.40686 26.419C11.0652 27.3011 12.9027 27.7937 14.7798 27.8596C16.657 27.9254 18.5245 27.5628 20.2405 26.7992C21.9566 26.0355 23.4762 24.891 24.6839 23.4524C25.8916 22.0138 26.7557 20.319 27.2106 18.4966C27.6655 16.6742 27.6992 14.7722 27.3093 12.9348C26.9193 11.0974 26.1159 9.373 24.96 7.89248C23.8041 6.41196 22.3261 5.21422 20.6382 4.39019C18.9503 3.56616 17.0968 3.13749 15.2185 3.13672ZM15.2185 25.9648C13.3792 25.9661 11.5721 25.4817 9.97994 24.5607C9.86337 24.4931 9.73376 24.451 9.59971 24.4373C9.46566 24.4235 9.33021 24.4385 9.20236 24.481L4.75563 25.9648L6.23827 21.5181C6.28101 21.3903 6.29611 21.2549 6.28258 21.1209C6.26905 20.9868 6.2272 20.8572 6.1598 20.7405C5.00647 18.7465 4.54341 16.4277 4.84246 14.1436C5.14151 11.8596 6.18595 9.73811 7.81375 8.10825C9.44156 6.47838 11.5617 5.43127 13.8454 5.12933C16.129 4.8274 18.4485 5.28753 20.4439 6.43834C22.4394 7.58915 23.9993 9.36631 24.8817 11.4941C25.764 13.622 25.9195 15.9815 25.324 18.2067C24.7286 20.4319 23.4154 22.3984 21.5882 23.8012C19.761 25.2039 17.522 25.9645 15.2185 25.9648Z" fill="url(#paint0_linear_16777_109702)"/>
</g>
<defs>
<linearGradient id="paint0_linear_16777_109702" x1="9.49626" y1="15.502" x2="21.3493" y2="15.561" gradientUnits="userSpaceOnUse">
<stop stop-color="#583EE7"/>
<stop offset="0.484375" stop-color="#0EA0E6"/>
<stop offset="1" stop-color="#00B6AE"/>
</linearGradient>
</defs>
</svg>
