<svg width="41" height="41" viewBox="0 0 41 41" fill="none" xmlns="http://www.w3.org/2000/svg">
<g id="BellSimpleRinging">
<path id="Vector" d="M26.8104 35.9638C26.8104 36.2953 26.6787 36.6132 26.4443 36.8477C26.2099 37.0821 25.8919 37.2138 25.5604 37.2138H15.5604C15.2289 37.2138 14.911 37.0821 14.6765 36.8477C14.4421 36.6132 14.3104 36.2953 14.3104 35.9638C14.3104 35.6322 14.4421 35.3143 14.6765 35.0799C14.911 34.8455 15.2289 34.7138 15.5604 34.7138H25.5604C25.8919 34.7138 26.2099 34.8455 26.4443 35.0799C26.6787 35.3143 26.8104 35.6322 26.8104 35.9638ZM36.0901 10.3888C34.6852 7.64291 32.5757 5.31985 29.9776 3.65752C29.8388 3.56884 29.6838 3.50848 29.5216 3.4799C29.3594 3.45132 29.1931 3.45508 29.0323 3.49097C28.8716 3.52686 28.7195 3.59417 28.5848 3.68904C28.4502 3.7839 28.3356 3.90445 28.2476 4.04374C28.1597 4.18303 28.1002 4.33833 28.0725 4.50071C28.0448 4.66308 28.0495 4.82933 28.0862 4.9899C28.123 5.15047 28.1911 5.30219 28.2867 5.43633C28.3823 5.57048 28.5035 5.68441 28.6432 5.77158C30.8723 7.18955 32.6782 9.18172 33.8714 11.5388C34.029 11.8237 34.2916 12.0358 34.6033 12.13C34.915 12.2242 35.2512 12.1931 35.5403 12.0433C35.8293 11.8934 36.0486 11.6367 36.1513 11.3277C36.2539 11.0187 36.232 10.6818 36.0901 10.3888ZM6.1401 12.2138C6.36911 12.2137 6.59368 12.1507 6.78932 12.0316C6.98496 11.9126 7.14413 11.7421 7.24948 11.5388C8.44261 9.18172 10.2486 7.18955 12.4776 5.77158C12.6174 5.68441 12.7385 5.57048 12.8341 5.43633C12.9297 5.30219 12.9978 5.15047 13.0346 4.9899C13.0714 4.82933 13.076 4.66308 13.0483 4.50071C13.0206 4.33833 12.9611 4.18303 12.8732 4.04374C12.7853 3.90445 12.6707 3.7839 12.536 3.68904C12.4013 3.59417 12.2493 3.52686 12.0885 3.49097C11.9277 3.45508 11.7615 3.45132 11.5992 3.4799C11.437 3.50848 11.282 3.56884 11.1432 3.65752C8.54514 5.31985 6.43561 7.64291 5.03073 10.3888C4.93204 10.5793 4.88404 10.792 4.89135 11.0064C4.89867 11.2208 4.96105 11.4297 5.07249 11.6131C5.18393 11.7964 5.34069 11.948 5.52767 12.0532C5.71465 12.1584 5.92556 12.2137 6.1401 12.2138ZM35.2182 28.4544C35.4397 28.8341 35.5571 29.2656 35.5586 29.7052C35.5601 30.1448 35.4457 30.577 35.2268 30.9583C35.008 31.3396 34.6925 31.6564 34.3121 31.8768C33.9318 32.0972 33.5 32.2134 33.0604 32.2138H8.06041C7.62107 32.2129 7.18972 32.0963 6.8098 31.8756C6.42988 31.655 6.11482 31.3381 5.89635 30.9569C5.67788 30.5758 5.56372 30.1437 5.56536 29.7044C5.56701 29.2651 5.68441 28.8339 5.90573 28.4544C7.31354 26.0247 8.06041 22.57 8.06041 18.4638C8.06041 15.1486 9.37737 11.9691 11.7216 9.62493C14.0658 7.28073 17.2452 5.96377 20.5604 5.96377C23.8756 5.96377 27.055 7.28073 29.3993 9.62493C31.7435 11.9691 33.0604 15.1486 33.0604 18.4638C33.0604 22.5685 33.8073 26.0231 35.2182 28.4544ZM33.0604 29.7138C31.3979 26.8591 30.5604 23.0747 30.5604 18.4638C30.5604 15.8116 29.5068 13.2681 27.6315 11.3927C25.7561 9.51734 23.2126 8.46377 20.5604 8.46377C17.9082 8.46377 15.3647 9.51734 13.4893 11.3927C11.614 13.2681 10.5604 15.8116 10.5604 18.4638C10.5604 23.0763 9.71979 26.8606 8.06041 29.7138H33.0604Z" fill="url(#paint0_linear_11030_101953)"/>
</g>
<defs>
<linearGradient id="paint0_linear_11030_101953" x1="13.3091" y1="20.3374" x2="28.324" y2="20.4068" gradientUnits="userSpaceOnUse">
<stop stop-color="#583EE7"/>
<stop offset="0.484375" stop-color="#0EA0E6"/>
<stop offset="1" stop-color="#00B6AE"/>
</linearGradient>
</defs>
</svg>
