<svg width="40" height="41" viewBox="0 0 40 41" fill="none" xmlns="http://www.w3.org/2000/svg">
<g id="Icon/calender">
<path id="Vector" d="M15.582 14.25V12.9583H24.4987V14.25H15.582ZM15.582 19.5417V18.25H24.4987V19.5417H15.582ZM28.332 14.6667C28.0543 14.6667 27.8043 14.5625 27.582 14.3542C27.3598 14.1458 27.2487 13.8889 27.2487 13.5833C27.2487 13.3056 27.3598 13.0556 27.582 12.8333C27.8043 12.6111 28.0543 12.5 28.332 12.5C28.6098 12.5 28.8598 12.6111 29.082 12.8333C29.3043 13.0556 29.4154 13.3056 29.4154 13.5833C29.4154 13.8889 29.3043 14.1458 29.082 14.3542C28.8598 14.5625 28.6098 14.6667 28.332 14.6667ZM28.332 19.875C28.0543 19.875 27.8043 19.7639 27.582 19.5417C27.3598 19.3194 27.2487 19.0694 27.2487 18.7917C27.2487 18.4861 27.3598 18.2222 27.582 18C27.8043 17.7778 28.0543 17.6667 28.332 17.6667C28.6098 17.6667 28.8598 17.7778 29.082 18C29.3043 18.2222 29.4154 18.4861 29.4154 18.7917C29.4154 19.0694 29.3043 19.3194 29.082 19.5417C28.8598 19.7639 28.6098 19.875 28.332 19.875Z" fill="url(#paint0_linear_11030_101247)"/>
<path id="Vector_2" d="M9.66667 35.5C8.80556 35.5 8.08333 35.2014 7.5 34.6042C6.91667 34.0069 6.625 33.2917 6.625 32.4583V29.0417H11.75V6.125L13.8333 7.625L16.0417 6.125L18.2083 7.625L20.375 6.125L22.5417 7.625L24.75 6.125L26.9167 7.625L29.0833 6.125L31.2917 7.625L33.375 6.125V32.4583C33.375 33.2917 33.0833 34.0069 32.5 34.6042C31.9167 35.2014 31.1944 35.5 30.3333 35.5H9.66667ZM30.3333 34.2083C30.8333 34.2083 31.2569 34.0417 31.6042 33.7083C31.9514 33.375 32.125 32.9583 32.125 32.4583V8.45833H13V29.0417H28.5833V32.4583C28.5833 32.9583 28.75 33.375 29.0833 33.7083C29.4167 34.0417 29.8333 34.2083 30.3333 34.2083ZM9.625 34.2083H27.2917V30.2917H7.875V32.4583C7.875 32.9583 8.04861 33.375 8.39583 33.7083C8.74306 34.0417 9.15278 34.2083 9.625 34.2083Z" fill="url(#paint1_linear_11030_101247)"/>
</g>
<defs>
<linearGradient id="paint0_linear_11030_101247" x1="19.2997" y1="16.1875" x2="25.9301" y2="16.2495" gradientUnits="userSpaceOnUse">
<stop stop-color="#583EE7"/>
<stop offset="0.484375" stop-color="#0EA0E6"/>
<stop offset="1" stop-color="#00B6AE"/>
</linearGradient>
<linearGradient id="paint1_linear_11030_101247" x1="13.8141" y1="20.8125" x2="26.6364" y2="20.8707" gradientUnits="userSpaceOnUse">
<stop stop-color="#583EE7"/>
<stop offset="0.484375" stop-color="#0EA0E6"/>
<stop offset="1" stop-color="#00B6AE"/>
</linearGradient>
</defs>
</svg>
