<svg width="32" height="33" viewBox="0 0 32 33" fill="none" xmlns="http://www.w3.org/2000/svg">
<g id="ChatCenteredText">
<path id="Vector" d="M11 13.5C11 13.2348 11.1054 12.9804 11.2929 12.7929C11.4804 12.6054 11.7348 12.5 12 12.5H20C20.2652 12.5 20.5196 12.6054 20.7071 12.7929C20.8946 12.9804 21 13.2348 21 13.5C21 13.7652 20.8946 14.0196 20.7071 14.2071C20.5196 14.3946 20.2652 14.5 20 14.5H12C11.7348 14.5 11.4804 14.3946 11.2929 14.2071C11.1054 14.0196 11 13.7652 11 13.5ZM12 18.5H20C20.2652 18.5 20.5196 18.3946 20.7071 18.2071C20.8946 18.0196 21 17.7652 21 17.5C21 17.2348 20.8946 16.9804 20.7071 16.7929C20.5196 16.6054 20.2652 16.5 20 16.5H12C11.7348 16.5 11.4804 16.6054 11.2929 16.7929C11.1054 16.9804 11 17.2348 11 17.5C11 17.7652 11.1054 18.0196 11.2929 18.2071C11.4804 18.3946 11.7348 18.5 12 18.5ZM29 7.5V23.5C29 24.0304 28.7893 24.5391 28.4142 24.9142C28.0391 25.2893 27.5304 25.5 27 25.5H19.5662L17.7113 28.5362C17.5327 28.8312 17.2809 29.0749 16.9804 29.2439C16.6799 29.4128 16.3408 29.5012 15.996 29.5004C15.6512 29.4997 15.3125 29.4098 15.0127 29.2396C14.713 29.0693 14.4623 28.8244 14.285 28.5287L12.4338 25.5H5C4.46957 25.5 3.96086 25.2893 3.58579 24.9142C3.21071 24.5391 3 24.0304 3 23.5V7.5C3 6.96957 3.21071 6.46086 3.58579 6.08579C3.96086 5.71071 4.46957 5.5 5 5.5H27C27.5304 5.5 28.0391 5.71071 28.4142 6.08579C28.7893 6.46086 29 6.96957 29 7.5ZM27 7.5H5V23.5H12.4338C12.7781 23.5009 13.1164 23.5902 13.4162 23.7594C13.7161 23.9286 13.9675 24.172 14.1462 24.4662L16 27.5L17.8525 24.46C18.0321 24.1667 18.284 23.9243 18.584 23.7562C18.8841 23.5881 19.2223 23.4999 19.5662 23.5H27V7.5Z" fill="url(#paint0_linear_11319_128905)"/>
</g>
<defs>
<linearGradient id="paint0_linear_11319_128905" x1="9.9875" y1="17.5002" x2="22.4502" y2="17.5675" gradientUnits="userSpaceOnUse">
<stop stop-color="#583EE7"/>
<stop offset="0.484375" stop-color="#0EA0E6"/>
<stop offset="1" stop-color="#00B6AE"/>
</linearGradient>
</defs>
</svg>
