<svg width="41" height="41" viewBox="0 0 41 41" fill="none" xmlns="http://www.w3.org/2000/svg">
<g id="Coins">
<path id="Vector" d="M29.3379 14.1711V13.3008C29.3379 9.38203 23.427 6.42578 15.5879 6.42578C7.74883 6.42578 1.83789 9.38203 1.83789 13.3008V19.5508C1.83789 22.8148 5.93945 25.4086 11.8379 26.1852V27.0508C11.8379 30.9695 17.7488 33.9258 25.5879 33.9258C33.427 33.9258 39.3379 30.9695 39.3379 27.0508V20.8008C39.3379 17.5664 35.366 14.9695 29.3379 14.1711ZM36.8379 20.8008C36.8379 22.8664 32.027 25.1758 25.5879 25.1758C25.0051 25.1758 24.427 25.1555 23.8566 25.118C27.227 23.8898 29.3379 21.8945 29.3379 19.5508V16.6977C34.0051 17.393 36.8379 19.2805 36.8379 20.8008ZM11.8379 23.6523V19.9352C13.0813 20.0972 14.334 20.1776 15.5879 20.1758C16.8418 20.1776 18.0945 20.0972 19.3379 19.9352V23.6523C18.0963 23.8358 16.8429 23.9272 15.5879 23.9258C14.3329 23.9272 13.0794 23.8358 11.8379 23.6523ZM26.8379 17.3523V19.5508C26.8379 20.8617 24.8988 22.2695 21.8379 23.1242V19.4727C23.8551 18.9836 25.5629 18.2555 26.8379 17.3523ZM15.5879 8.92578C22.027 8.92578 26.8379 11.2352 26.8379 13.3008C26.8379 15.3664 22.027 17.6758 15.5879 17.6758C9.14883 17.6758 4.33789 15.3664 4.33789 13.3008C4.33789 11.2352 9.14883 8.92578 15.5879 8.92578ZM4.33789 19.5508V17.3523C5.61289 18.2555 7.3207 18.9836 9.33789 19.4727V23.1242C6.27695 22.2695 4.33789 20.8617 4.33789 19.5508ZM14.3379 27.0508V26.3992C14.7488 26.4148 15.1645 26.4258 15.5879 26.4258C16.1941 26.4258 16.7863 26.4055 17.3676 26.3711C18.0133 26.6023 18.671 26.7984 19.3379 26.9586V30.6242C16.277 29.7695 14.3379 28.3617 14.3379 27.0508ZM21.8379 31.1523V27.4258C23.0809 27.5929 24.3337 27.6764 25.5879 27.6758C26.8418 27.6776 28.0945 27.5972 29.3379 27.4352V31.1523C26.8512 31.5169 24.3246 31.5169 21.8379 31.1523ZM31.8379 30.6242V26.9727C33.8551 26.4836 35.5629 25.7555 36.8379 24.8523V27.0508C36.8379 28.3617 34.8988 29.7695 31.8379 30.6242Z" fill="url(#paint0_linear_11030_101947)"/>
</g>
<defs>
<linearGradient id="paint0_linear_11030_101947" x1="11.916" y1="20.1758" x2="29.8907" y2="20.298" gradientUnits="userSpaceOnUse">
<stop stop-color="#583EE7"/>
<stop offset="0.484375" stop-color="#0EA0E6"/>
<stop offset="1" stop-color="#00B6AE"/>
</linearGradient>
</defs>
</svg>
