<svg width="41" height="41" viewBox="0 0 41 41" fill="none" xmlns="http://www.w3.org/2000/svg">
<g id="CreditCard">
<path id="Vector" d="M35.7949 8.01172H5.79492C5.13188 8.01172 4.496 8.27511 4.02715 8.74395C3.55831 9.21279 3.29492 9.84868 3.29492 10.5117V30.5117C3.29492 31.1748 3.55831 31.8106 4.02715 32.2795C4.496 32.7483 5.13188 33.0117 5.79492 33.0117H35.7949C36.458 33.0117 37.0938 32.7483 37.5627 32.2795C38.0315 31.8106 38.2949 31.1748 38.2949 30.5117V10.5117C38.2949 9.84868 38.0315 9.21279 37.5627 8.74395C37.0938 8.27511 36.458 8.01172 35.7949 8.01172ZM35.7949 10.5117V14.2617H5.79492V10.5117H35.7949ZM35.7949 30.5117H5.79492V16.7617H35.7949V30.5117ZM33.2949 26.7617C33.2949 27.0932 33.1632 27.4112 32.9288 27.6456C32.6944 27.88 32.3764 28.0117 32.0449 28.0117H27.0449C26.7134 28.0117 26.3955 27.88 26.161 27.6456C25.9266 27.4112 25.7949 27.0932 25.7949 26.7617C25.7949 26.4302 25.9266 26.1123 26.161 25.8778C26.3955 25.6434 26.7134 25.5117 27.0449 25.5117H32.0449C32.3764 25.5117 32.6944 25.6434 32.9288 25.8778C33.1632 26.1123 33.2949 26.4302 33.2949 26.7617ZM23.2949 26.7617C23.2949 27.0932 23.1632 27.4112 22.9288 27.6456C22.6944 27.88 22.3764 28.0117 22.0449 28.0117H19.5449C19.2134 28.0117 18.8955 27.88 18.661 27.6456C18.4266 27.4112 18.2949 27.0932 18.2949 26.7617C18.2949 26.4302 18.4266 26.1123 18.661 25.8778C18.8955 25.6434 19.2134 25.5117 19.5449 25.5117H22.0449C22.3764 25.5117 22.6944 25.6434 22.9288 25.8778C23.1632 26.1123 23.2949 26.4302 23.2949 26.7617Z" fill="url(#paint0_linear_11030_101998)"/>
</g>
<defs>
<linearGradient id="paint0_linear_11030_101998" x1="12.7012" y1="20.5117" x2="29.4775" y2="20.6288" gradientUnits="userSpaceOnUse">
<stop stop-color="#583EE7"/>
<stop offset="0.484375" stop-color="#0EA0E6"/>
<stop offset="1" stop-color="#00B6AE"/>
</linearGradient>
</defs>
</svg>
