<svg width="33" height="33" viewBox="0 0 33 33" fill="none" xmlns="http://www.w3.org/2000/svg">
<g id="DeviceMobile">
<path id="Vector" d="M22.082 2.1377H10.082C9.28638 2.1377 8.52332 2.45377 7.96071 3.01638C7.3981 3.57898 7.08203 4.34205 7.08203 5.1377V27.1377C7.08203 27.9333 7.3981 28.6964 7.96071 29.259C8.52332 29.8216 9.28638 30.1377 10.082 30.1377H22.082C22.8777 30.1377 23.6407 29.8216 24.2034 29.259C24.766 28.6964 25.082 27.9333 25.082 27.1377V5.1377C25.082 4.34205 24.766 3.57898 24.2034 3.01638C23.6407 2.45377 22.8777 2.1377 22.082 2.1377ZM9.08203 8.1377H23.082V24.1377H9.08203V8.1377ZM10.082 4.1377H22.082C22.3472 4.1377 22.6016 4.24305 22.7891 4.43059C22.9767 4.61813 23.082 4.87248 23.082 5.1377V6.1377H9.08203V5.1377C9.08203 4.87248 9.18739 4.61813 9.37492 4.43059C9.56246 4.24305 9.81681 4.1377 10.082 4.1377ZM22.082 28.1377H10.082C9.81681 28.1377 9.56246 28.0323 9.37492 27.8448C9.18739 27.6573 9.08203 27.4029 9.08203 27.1377V26.1377H23.082V27.1377C23.082 27.4029 22.9767 27.6573 22.7891 27.8448C22.6016 28.0323 22.3472 28.1377 22.082 28.1377Z" fill="url(#paint0_linear_15324_43381)"/>
</g>
<defs>
<linearGradient id="paint0_linear_15324_43381" x1="11.9195" y1="16.1377" x2="20.5477" y2="16.1653" gradientUnits="userSpaceOnUse">
<stop stop-color="#583EE7"/>
<stop offset="0.484375" stop-color="#0EA0E6"/>
<stop offset="1" stop-color="#00B6AE"/>
</linearGradient>
</defs>
</svg>
