<svg width="351" height="309" viewBox="0 0 351 309" fill="none" xmlns="http://www.w3.org/2000/svg">
<g clip-path="url(#clip0_6529_76172)">
<path d="M319.502 308.692V277.704C319.502 277.704 332.736 299.673 319.502 308.692Z" fill="#F1F1F1"/>
<path d="M320.319 308.687L295.303 287.73C295.303 287.73 321.988 293.691 320.319 308.687Z" fill="#F1F1F1"/>
<path d="M232.086 136.73L99.336 207.53C98.8714 207.777 98.3183 207.846 97.7981 207.721C97.2779 207.597 96.833 207.289 96.5611 206.866L11.1943 73.584C10.9235 73.16 10.848 72.6553 10.9844 72.1806C11.1208 71.7059 11.458 71.3 11.922 71.0518L144.672 0.252163C145.137 0.00501421 145.69 -0.0638692 146.21 0.0606241C146.73 0.185117 147.175 0.492822 147.447 0.916232L232.814 134.198C233.084 134.622 233.16 135.126 233.023 135.601C232.887 136.076 232.55 136.482 232.086 136.73Z" fill="white"/>
<path d="M232.086 136.73L99.336 207.53C98.8714 207.777 98.3183 207.846 97.7981 207.721C97.2779 207.597 96.833 207.289 96.5611 206.866L11.1943 73.584C10.9235 73.16 10.848 72.6553 10.9844 72.1806C11.1208 71.7059 11.458 71.3 11.922 71.0518L144.672 0.252163C145.137 0.00501421 145.69 -0.0638692 146.21 0.0606241C146.73 0.185117 147.175 0.492822 147.447 0.916232L232.814 134.198C233.084 134.622 233.16 135.126 233.023 135.601C232.887 136.076 232.55 136.482 232.086 136.73ZM12.3315 71.6911C12.0531 71.8399 11.8507 72.0835 11.7689 72.3683C11.687 72.6532 11.7323 72.956 11.8948 73.2104L97.2616 206.492C97.4248 206.746 97.6917 206.931 98.0038 207.005C98.3159 207.08 98.6478 207.039 98.9266 206.89L231.676 136.091C231.955 135.942 232.157 135.698 232.239 135.413C232.321 135.129 232.276 134.826 232.113 134.571L146.746 1.28982C146.583 1.03577 146.316 0.851132 146.004 0.776435C145.692 0.701738 145.36 0.743075 145.081 0.89138L12.3315 71.6911Z" fill="#3F3D56"/>
<path d="M97.6608 84.9634L64.736 102.523C64.2714 102.77 63.7183 102.839 63.1981 102.715C62.6779 102.59 62.233 102.283 61.9611 101.859L42.7177 71.8148C42.4469 71.3908 42.3714 70.8861 42.5078 70.4114C42.6443 69.9367 42.9815 69.5308 43.4455 69.2827L76.3702 51.7229C76.8349 51.4757 77.3879 51.4068 77.9082 51.5313C78.4284 51.6558 78.8732 51.9635 79.1451 52.3869L98.3885 82.4312C98.6593 82.8552 98.7348 83.3599 98.5984 83.8346C98.462 84.3093 98.1248 84.7152 97.6608 84.9634ZM43.8549 69.9219C43.5765 70.0708 43.3742 70.3143 43.2923 70.5992C43.2105 70.884 43.2558 71.1868 43.4183 71.4412L62.6616 101.485C62.8248 101.74 63.0917 101.924 63.4038 101.999C63.716 102.074 64.0478 102.032 64.3266 101.884L97.2513 84.3241C97.5298 84.1753 97.7321 83.9317 97.8139 83.6469C97.8958 83.362 97.8505 83.0592 97.688 82.8048L78.4446 52.7605C78.2815 52.5065 78.0146 52.3219 77.7025 52.2472C77.3903 52.1725 77.0585 52.2138 76.7797 52.3621L43.8549 69.9219Z" fill="#F2F2F2"/>
<path d="M90.5549 93.6849L57.6301 111.245C57.2119 111.467 56.7142 111.529 56.246 111.417C55.7778 111.305 55.3774 111.028 55.1327 110.647L35.8893 80.6028C35.6456 80.2212 35.5776 79.767 35.7004 79.3398C35.8232 78.9125 36.1267 78.5472 36.5443 78.3239L69.4691 60.7641C69.8872 60.5416 70.385 60.4796 70.8532 60.5917C71.3214 60.7037 71.7218 60.9807 71.9665 61.3617L91.2098 91.406C91.4536 91.7876 91.5215 92.2418 91.3987 92.669C91.276 93.0963 90.9725 93.4616 90.5549 93.6849Z" fill="#6C63FF"/>
<path d="M170.027 71.0251L67.0496 125.946C66.6316 126.169 66.1336 126.231 65.6653 126.119C65.1969 126.007 64.7965 125.73 64.5522 125.349C64.3079 124.967 64.2396 124.513 64.3625 124.085C64.4853 123.658 64.7891 123.293 65.2072 123.07L168.185 68.1485C168.392 68.0382 168.62 67.966 168.858 67.9363C169.095 67.9066 169.337 67.9199 169.569 67.9754C169.801 68.0309 170.019 68.1275 170.21 68.2598C170.4 68.392 170.561 68.5573 170.682 68.7462C170.803 68.9351 170.882 69.1439 170.915 69.3606C170.947 69.5774 170.933 69.7978 170.872 70.0094C170.811 70.2211 170.705 70.4197 170.56 70.5939C170.415 70.7682 170.234 70.9147 170.027 71.0251Z" fill="#CCCCCC"/>
<path d="M151.504 94.196L73.3953 135.854C73.1883 135.964 72.9595 136.036 72.722 136.066C72.4845 136.096 72.2429 136.083 72.011 136.027C71.5426 135.915 71.1422 135.638 70.8979 135.256C70.6536 134.875 70.5853 134.42 70.7082 133.993C70.831 133.566 71.1348 133.2 71.5529 132.977L149.662 91.3194C149.869 91.209 150.097 91.1369 150.335 91.1072C150.572 91.0775 150.814 91.0908 151.046 91.1463C151.278 91.2018 151.496 91.2984 151.687 91.4307C151.877 91.5629 152.038 91.7282 152.159 91.9171C152.28 92.106 152.359 92.3148 152.392 92.5315C152.424 92.7483 152.41 92.9687 152.349 93.1803C152.288 93.392 152.182 93.5906 152.037 93.7648C151.892 93.9391 151.711 94.0856 151.504 94.196Z" fill="#CCCCCC"/>
<path d="M146.34 34.7751L100.805 59.06C100.387 59.2829 99.8895 59.3452 99.4211 59.2331C98.9528 59.121 98.5524 58.8438 98.3081 58.4623C98.0637 58.0809 97.9955 57.6265 98.1183 57.1991C98.2411 56.7717 98.545 56.4063 98.963 56.1834L144.497 31.8985C144.915 31.6756 145.413 31.6133 145.882 31.7254C146.114 31.7809 146.331 31.8775 146.522 32.0098C146.713 32.142 146.874 32.3073 146.995 32.4962C147.116 32.6851 147.195 32.8939 147.227 33.1106C147.26 33.3274 147.245 33.5478 147.184 33.7594C147.124 33.9711 147.018 34.1697 146.873 34.3439C146.728 34.5182 146.547 34.6647 146.34 34.7751Z" fill="#CCCCCC"/>
<path d="M141.322 50.7429L107.151 68.9671C106.944 69.0775 106.715 69.1496 106.478 69.1793C106.24 69.209 105.999 69.1957 105.767 69.1402C105.535 69.0847 105.317 68.9881 105.126 68.8558C104.935 68.7236 104.775 68.5583 104.654 68.3694C104.533 68.1805 104.454 67.9718 104.421 67.755C104.389 67.5383 104.403 67.3178 104.464 67.1062C104.525 66.8946 104.631 66.6959 104.776 66.5217C104.921 66.3474 105.102 66.2009 105.309 66.0905L139.479 47.8663C139.897 47.6434 140.395 47.5811 140.864 47.6932C141.332 47.8053 141.732 48.0825 141.977 48.464C142.221 48.8454 142.289 49.2998 142.166 49.7272C142.044 50.1546 141.74 50.52 141.322 50.7429Z" fill="#CCCCCC"/>
<path d="M182.722 90.8406L79.7449 145.762C79.3269 145.985 78.8289 146.047 78.3606 145.935C77.8922 145.823 77.4918 145.545 77.2475 145.164C77.0032 144.783 76.9349 144.328 77.0578 143.901C77.1806 143.473 77.4844 143.108 77.9025 142.885L180.88 87.964C181.298 87.741 181.796 87.6787 182.264 87.7908C182.733 87.9029 183.133 88.1802 183.377 88.5616C183.622 88.9431 183.69 89.3975 183.567 89.8249C183.444 90.2523 183.14 90.6176 182.722 90.8406Z" fill="#CCCCCC"/>
<path d="M164.199 114.013L86.0906 155.671C85.8836 155.782 85.6549 155.854 85.4173 155.883C85.1798 155.913 84.9382 155.9 84.7063 155.844C84.4744 155.789 84.2567 155.692 84.0657 155.56C83.8748 155.428 83.7142 155.262 83.5932 155.074C83.4722 154.885 83.3932 154.676 83.3607 154.459C83.3281 154.242 83.3426 154.022 83.4035 153.81C83.4643 153.599 83.5702 153.4 83.7151 153.226C83.8601 153.052 84.0412 152.905 84.2482 152.795L162.357 111.137C162.564 111.026 162.793 110.954 163.03 110.925C163.268 110.895 163.509 110.908 163.741 110.964C163.973 111.019 164.191 111.116 164.382 111.248C164.573 111.38 164.733 111.546 164.854 111.734C164.975 111.923 165.054 112.132 165.087 112.349C165.119 112.566 165.105 112.786 165.044 112.998C164.983 113.209 164.877 113.408 164.732 113.582C164.588 113.756 164.406 113.903 164.199 114.013Z" fill="#CCCCCC"/>
<path d="M195.414 110.658L92.4363 165.579C92.2294 165.689 92.0006 165.762 91.763 165.791C91.5255 165.821 91.2839 165.808 91.052 165.752C90.8201 165.697 90.6024 165.6 90.4114 165.468C90.2205 165.336 90.0599 165.17 89.9389 164.981C89.8179 164.793 89.7389 164.584 89.7064 164.367C89.6738 164.15 89.6884 163.93 89.7492 163.718C89.81 163.507 89.9159 163.308 90.0608 163.134C90.2058 162.959 90.3869 162.813 90.5939 162.702L193.571 107.781C193.778 107.671 194.007 107.599 194.245 107.569C194.482 107.539 194.724 107.553 194.956 107.608C195.188 107.664 195.405 107.76 195.596 107.893C195.787 108.025 195.948 108.19 196.069 108.379C196.19 108.568 196.269 108.777 196.301 108.993C196.334 109.21 196.319 109.431 196.258 109.642C196.198 109.854 196.092 110.052 195.947 110.227C195.802 110.401 195.621 110.548 195.414 110.658Z" fill="#CCCCCC"/>
<path d="M201.761 120.566L98.784 175.487C98.577 175.598 98.3482 175.67 98.1107 175.699C97.8731 175.729 97.6315 175.716 97.3996 175.66C97.1677 175.605 96.9501 175.508 96.7591 175.376C96.5681 175.244 96.4076 175.078 96.2866 174.89C96.1656 174.701 96.0866 174.492 96.054 174.275C96.0215 174.058 96.036 173.838 96.0968 173.626C96.1576 173.415 96.2635 173.216 96.4085 173.042C96.5534 172.868 96.7345 172.721 96.9415 172.611L199.919 117.69C200.126 117.579 200.355 117.507 200.592 117.477C200.83 117.448 201.071 117.461 201.303 117.516C201.535 117.572 201.753 117.669 201.944 117.801C202.135 117.933 202.295 118.098 202.416 118.287C202.537 118.476 202.616 118.685 202.649 118.902C202.682 119.118 202.667 119.339 202.606 119.55C202.545 119.762 202.439 119.961 202.295 120.135C202.15 120.309 201.968 120.456 201.761 120.566Z" fill="#CCCCCC"/>
<path d="M168.462 159.139C169.892 157.601 171.18 155.958 172.312 154.225C173.326 152.662 174.322 150.991 174.546 149.158C174.66 148.377 174.571 147.583 174.286 146.839C174 146.096 173.527 145.425 172.903 144.88C172.301 144.373 171.537 144.055 170.723 143.97C169.909 143.886 169.087 144.04 168.375 144.41C167.655 144.788 167.06 145.336 166.653 145.996C166.246 146.657 166.043 147.405 166.064 148.163C166.122 148.997 166.387 149.808 166.837 150.536C167.286 151.264 167.911 151.89 168.663 152.367C171.707 154.379 176.46 154.274 179.704 152.743C183.358 151.018 185.246 146.505 182.376 143.416C181.778 142.773 180.785 143.491 180.934 144.185C181.124 145.121 181.698 145.955 182.54 146.518C183.381 147.081 184.427 147.33 185.462 147.213C186.498 147.096 187.445 146.623 188.111 145.89C188.777 145.157 189.112 144.22 189.046 143.27L187.755 143.958C189.337 144.598 191.076 144.846 192.797 144.677C194.518 144.509 196.159 143.93 197.557 142.999C198.248 142.54 198.865 141.996 199.391 141.381C200.023 140.629 201.084 140.143 201.943 139.601L208.135 135.697C209.046 135.123 208.18 133.754 207.262 134.333L201.654 137.869C200.719 138.458 199.778 139.04 198.85 139.637C198.186 140.064 197.777 140.752 197.173 141.259C196.029 142.198 194.616 142.821 193.099 143.055C191.582 143.289 190.024 143.125 188.605 142.581C188.473 142.517 188.325 142.484 188.175 142.486C188.024 142.489 187.878 142.526 187.748 142.595C187.619 142.664 187.511 142.763 187.435 142.881C187.359 142.999 187.317 143.133 187.314 143.27C187.383 143.837 187.203 144.405 186.814 144.852C186.425 145.298 185.858 145.587 185.238 145.654C184.617 145.721 183.992 145.561 183.5 145.21C183.007 144.859 182.687 144.344 182.608 143.778L181.167 144.547C183.019 146.54 181.785 149.596 179.652 150.934C177.266 152.429 173.74 152.688 171.05 151.759C170.391 151.552 169.785 151.223 169.271 150.792C168.757 150.362 168.345 149.839 168.063 149.257C167.8 148.731 167.726 148.144 167.849 147.577C167.972 147.011 168.287 146.494 168.749 146.099C169.149 145.738 169.688 145.533 170.251 145.527C170.814 145.522 171.357 145.716 171.766 146.07C172.211 146.484 172.538 146.993 172.717 147.55C172.897 148.107 172.923 148.696 172.794 149.265C172.517 150.847 171.558 152.307 170.666 153.659C169.648 155.199 168.496 156.662 167.222 158.035C166.508 158.806 167.74 159.918 168.462 159.139Z" fill="#6C63FF"/>
<path d="M183.827 196.698C183.976 196.838 184.113 196.989 184.236 197.149L203.412 196.72L205.649 192.99L212.26 195.335L209.003 202.29C208.739 202.852 208.284 203.321 207.704 203.626C207.124 203.931 206.451 204.057 205.786 203.984L184.121 201.595C183.61 202.186 182.914 202.62 182.126 202.841C181.338 203.061 180.494 203.058 179.709 202.831C178.923 202.603 178.231 202.163 177.726 201.568C177.221 200.974 176.926 200.253 176.881 199.502C176.836 198.751 177.043 198.005 177.473 197.363C177.904 196.722 178.539 196.215 179.293 195.911C180.047 195.606 180.884 195.519 181.694 195.659C182.504 195.8 183.248 196.162 183.827 196.698Z" fill="#FFB7B7"/>
<path d="M246.34 302.967H240.035L237.035 280.774L246.341 280.775L246.34 302.967Z" fill="#FFB7B7"/>
<path d="M247.944 308.544L227.613 308.543V308.309C227.613 306.394 228.447 304.557 229.931 303.203C231.415 301.849 233.428 301.088 235.526 301.088H235.527L247.944 301.088L247.944 308.544Z" fill="#2F2E41"/>
<path d="M189.085 302.838L183.287 300.577L190.082 279.094L198.64 282.43L189.085 302.838Z" fill="#FFB7B7"/>
<path d="M188.165 308.541L169.469 301.253L169.57 301.037C170.394 299.276 171.952 297.886 173.899 297.173C175.847 296.46 178.025 296.481 179.955 297.234L179.956 297.234L191.374 301.685L188.165 308.541Z" fill="#2F2E41"/>
<path d="M215.693 201.504L215.236 208.246L228.564 209.548L242.509 210.909L238.404 200.672L215.693 201.504Z" fill="#FFB7B7"/>
<path d="M214.816 208.334L209.639 175.398L218.613 172.714L221.248 169.416L234.075 170.109L235.958 173.958L242.797 176.907L241.746 194.719L242.513 209.619L214.816 208.334Z" fill="#2F2E41"/>
<path d="M211.558 199.508L202.43 196.175L202.469 196.027C202.508 195.877 206.393 181.063 206.909 178.682C207.446 176.202 209.409 175.516 209.493 175.488L209.554 175.468L213.166 176.471L214.752 187.846L211.558 199.508Z" fill="#2F2E41"/>
<path d="M193.782 298.938L181.631 296.664L201.051 247.764L207.698 231.085C207.698 231.085 211.914 217.712 213.818 212.537L214.968 205.593L242.177 208.341C242.177 208.341 249.777 218.525 247.468 235.125L248.512 297.517L236.361 298.085L226.184 235.16L208.321 269.655C208.321 269.655 202.691 284.376 198.663 287.566L193.782 298.938Z" fill="#2F2E41"/>
<path d="M231.266 210.657C231.48 210.652 231.694 210.663 231.907 210.689L244.6 197.566L243.124 193.533L249.503 190.704L252.877 197.612C253.15 198.17 253.217 198.794 253.068 199.39C252.919 199.985 252.562 200.521 252.051 200.916L235.402 213.789C235.529 214.533 235.405 215.294 235.046 215.971C234.687 216.648 234.111 217.21 233.394 217.582C232.677 217.953 231.853 218.116 231.032 218.05C230.211 217.984 229.431 217.691 228.797 217.21C228.162 216.73 227.703 216.084 227.481 215.36C227.258 214.635 227.283 213.866 227.551 213.155C227.819 212.443 228.318 211.823 228.982 211.377C229.645 210.931 230.442 210.679 231.266 210.657Z" fill="#FFB7B7"/>
<path d="M243.584 198.843L238.289 187.477L240.354 179.56L242.579 176.995C242.742 176.931 242.918 176.899 243.095 176.9C243.273 176.902 243.448 176.937 243.609 177.003C244.43 177.305 245.129 178.229 245.687 179.749L250.649 192.648L243.584 198.843Z" fill="#2F2E41"/>
<path d="M216.113 165.203V156.634C216.113 153.589 217.439 150.669 219.799 148.515C222.159 146.362 225.359 145.152 228.696 145.152C232.033 145.152 235.234 146.362 237.594 148.515C239.953 150.669 241.279 153.589 241.279 156.634V165.203C241.279 165.612 241.1 166.004 240.784 166.293C240.467 166.582 240.037 166.745 239.589 166.746H217.804C217.355 166.745 216.926 166.582 216.609 166.293C216.292 166.004 216.114 165.612 216.113 165.203Z" fill="#2F2E41"/>
<path d="M226.108 166.547C231.203 166.547 235.334 162.778 235.334 158.129C235.334 153.48 231.203 149.711 226.108 149.711C221.013 149.711 216.883 153.48 216.883 158.129C216.883 162.778 221.013 166.547 226.108 166.547Z" fill="#FFB7B7"/>
<path d="M213.137 157.321C213.14 154.913 214.189 152.604 216.055 150.902C217.921 149.199 220.451 148.241 223.09 148.238H224.969C227.607 148.241 230.137 149.199 232.004 150.902C233.87 152.604 234.919 154.913 234.922 157.321V157.492H230.953L229.599 154.034L229.329 157.492H227.278L226.595 155.747L226.458 157.492H213.137L213.137 157.321Z" fill="#2F2E41"/>
<path d="M225.205 167.711C225.018 167.481 224.907 167.208 224.884 166.922C224.86 166.637 224.926 166.351 225.072 166.098C227.062 162.644 229.849 156.261 226.15 152.325L225.884 152.042H236.622V166.753L226.868 168.323C226.769 168.339 226.669 168.347 226.569 168.347C226.302 168.347 226.04 168.29 225.803 168.179C225.566 168.069 225.361 167.908 225.205 167.711Z" fill="#2F2E41"/>
<path d="M99.9453 298.118L105.643 299.977L116.21 280.805L107.8 278.062L99.9453 298.118Z" fill="#9F616A"/>
<path d="M96.5176 302.684L99.1566 295.946L110.378 299.606C112.274 300.226 113.822 301.507 114.683 303.168C115.545 304.829 115.65 306.733 114.974 308.464L114.891 308.676L96.5176 302.684Z" fill="#2F2E41"/>
<path d="M136.999 303.261L143.05 303.261L145.929 281.963L136.998 281.963L136.999 303.261Z" fill="#9F616A"/>
<path d="M135.453 301.458L147.37 301.458H147.37C148.368 301.458 149.355 301.637 150.277 301.985C151.198 302.334 152.035 302.844 152.741 303.488C153.446 304.131 154.005 304.895 154.387 305.736C154.769 306.577 154.965 307.478 154.965 308.388V308.613L135.453 308.614L135.453 301.458Z" fill="#2F2E41"/>
<path d="M123.205 167.191L125.837 162.446C125.837 162.446 135.64 164.688 136.532 169.873L123.205 167.191Z" fill="#F1F1F1"/>
<path d="M112.35 221.45L119.507 257.893L100.504 288.559L111.856 292.612L131.106 262.886L133.574 254.779L135.054 297.116L145.293 296.833L149.987 257.3L142.458 220.549L112.35 221.45Z" fill="#2F2E41"/>
<path d="M125.93 230.064C115.417 230.064 108.741 228.229 108.592 228.2L108.35 228.153L113.826 204.984L114.072 183.613C114.072 174.557 120.604 167.88 121.511 167.264C121.663 166.714 121.946 166.201 122.338 165.762C122.73 165.322 123.223 164.965 123.782 164.717C125.96 163.815 128.623 164.898 128.735 164.944L136.726 167.678L136.764 167.779C136.86 168.038 147.386 199.57 147.386 199.57C147.386 199.57 146.749 227.121 146.527 228.023C146.527 228.023 131.772 230.064 125.93 230.064Z" fill="#3F3D56"/>
<path d="M134.014 160.951C139.979 160.951 144.815 156.539 144.815 151.095C144.815 145.652 139.979 141.239 134.014 141.239C128.049 141.239 123.213 145.652 123.213 151.095C123.213 156.539 128.049 160.951 134.014 160.951Z" fill="#9F616A"/>
<path opacity="0.2" d="M121.971 185.361L140.867 209.419L143.657 198.185L121.971 185.361Z" fill="black"/>
<path d="M181.212 201.731C180.681 202.114 180.063 202.387 179.404 202.529C178.745 202.672 178.059 202.68 177.396 202.555C176.732 202.429 176.107 202.173 175.564 201.803C175.021 201.433 174.573 200.959 174.253 200.414L157.988 202.79L161.512 195.672L176.417 194.507C177.455 194.076 178.631 194.008 179.721 194.316C180.811 194.623 181.739 195.285 182.331 196.175C182.922 197.066 183.134 198.123 182.928 199.147C182.722 200.171 182.111 201.09 181.212 201.731Z" fill="#9F616A"/>
<path d="M162.352 195.266L168.196 194.743L169.815 202.182L162.461 202.301L162.352 195.266Z" fill="#F1F1F1"/>
<path d="M167.14 204.774L138.519 202.448L124.067 181.475L124.022 181.29C123.612 179.576 123.899 177.785 124.83 176.251C125.761 174.717 127.272 173.544 129.081 172.952C130.89 172.36 132.873 172.389 134.661 173.034C136.448 173.678 137.917 174.894 138.794 176.455L147.277 191.555L164.399 193.917L167.14 204.774Z" fill="#3F3D56"/>
<path d="M124.814 159.652L133.778 159.946C134.325 159.964 135.808 154.582 136.002 153.466C136.156 152.739 136.594 152.088 137.235 151.634C137.876 151.181 138.676 150.956 139.485 151.001C140.156 151.059 141.849 149.915 143.595 148.56C146.91 145.988 146.737 141.158 143.096 138.985C142.996 138.925 142.898 138.871 142.803 138.822C140.505 137.649 137.818 137.255 135.185 137.224C132.799 137.197 130.345 137.471 128.242 138.502C124.473 140.35 122.467 144.388 122.291 148.289C122.114 152.19 123.485 156.005 125.04 159.642" fill="#2F2E41"/>
<path d="M349.544 309.001H0.469437C0.344935 309.001 0.225531 308.956 0.137495 308.876C0.049458 308.795 0 308.687 0 308.573C0 308.459 0.049458 308.35 0.137495 308.27C0.225531 308.19 0.344935 308.145 0.469437 308.145H349.731C349.855 308.145 349.974 308.19 350.062 308.27C350.151 308.35 350.2 308.459 350.2 308.573C350.2 308.809 349.803 309.001 349.544 309.001Z" fill="#CBCBCB"/>
</g>
<defs>
<clipPath id="clip0_6529_76172">
<rect width="350.2" height="309" fill="white"/>
</clipPath>
</defs>
</svg>
