<svg width="22" height="21" viewBox="0 0 22 21" fill="none" xmlns="http://www.w3.org/2000/svg">
<g id="Envelope">
<path id="Vector" d="M18.875 3.9375H3.125C2.95095 3.9375 2.78403 4.00664 2.66096 4.12971C2.53789 4.25278 2.46875 4.4197 2.46875 4.59375V15.75C2.46875 16.0981 2.60703 16.4319 2.85317 16.6781C3.09931 16.9242 3.43315 17.0625 3.78125 17.0625H18.2188C18.5668 17.0625 18.9007 16.9242 19.1468 16.6781C19.393 16.4319 19.5312 16.0981 19.5312 15.75V4.59375C19.5312 4.4197 19.4621 4.25278 19.339 4.12971C19.216 4.00664 19.049 3.9375 18.875 3.9375ZM11 10.9225L4.81238 5.25H17.1876L11 10.9225ZM8.5973 10.5L3.78125 14.9141V6.0859L8.5973 10.5ZM9.56855 11.39L10.5529 12.2965C10.674 12.4076 10.8324 12.4693 10.9967 12.4693C11.1611 12.4693 11.3194 12.4076 11.4405 12.2965L12.4249 11.39L17.1827 15.75H4.81238L9.56855 11.39ZM13.4027 10.5L18.2188 6.08508V14.9149L13.4027 10.5Z" fill="url(#paint0_linear_6529_76572)"/>
</g>
<defs>
<linearGradient id="paint0_linear_6529_76572" x1="7.0543" y1="10.5" x2="15.2328" y2="10.553" gradientUnits="userSpaceOnUse">
<stop stop-color="#583EE7"/>
<stop offset="0.484375" stop-color="#0EA0E6"/>
<stop offset="1" stop-color="#00B6AE"/>
</linearGradient>
</defs>
</svg>
