<svg width="21" height="21" viewBox="0 0 21 21" fill="none" xmlns="http://www.w3.org/2000/svg">
<g id="Envelope">
<path id="Vector" d="M18.375 3.9375H2.625C2.45095 3.9375 2.28403 4.00664 2.16096 4.12971C2.03789 4.25278 1.96875 4.4197 1.96875 4.59375V15.75C1.96875 16.0981 2.10703 16.4319 2.35317 16.6781C2.59931 16.9242 2.93315 17.0625 3.28125 17.0625H17.7188C18.0668 17.0625 18.4007 16.9242 18.6468 16.6781C18.893 16.4319 19.0312 16.0981 19.0312 15.75V4.59375C19.0312 4.4197 18.9621 4.25278 18.839 4.12971C18.716 4.00664 18.549 3.9375 18.375 3.9375ZM10.5 10.9225L4.31238 5.25H16.6876L10.5 10.9225ZM8.0973 10.5L3.28125 14.9141V6.0859L8.0973 10.5ZM9.06855 11.39L10.0529 12.2965C10.174 12.4076 10.3324 12.4693 10.4967 12.4693C10.6611 12.4693 10.8194 12.4076 10.9405 12.2965L11.9249 11.39L16.6827 15.75H4.31238L9.06855 11.39ZM12.9027 10.5L17.7188 6.08508V14.9149L12.9027 10.5Z" fill="url(#paint0_linear_5910_65753)"/>
</g>
<defs>
<linearGradient id="paint0_linear_5910_65753" x1="6.5543" y1="10.5" x2="14.7328" y2="10.553" gradientUnits="userSpaceOnUse">
<stop stop-color="#583EE7"/>
<stop offset="0.484375" stop-color="#0EA0E6"/>
<stop offset="1" stop-color="#00B6AE"/>
</linearGradient>
</defs>
</svg>
