<svg width="41" height="41" viewBox="0 0 41 41" fill="none" xmlns="http://www.w3.org/2000/svg">
<g id="Files">
<path id="Vector" d="M33.568 10.4125L27.318 4.1625C27.2018 4.04646 27.0639 3.95444 26.9122 3.8917C26.7604 3.82897 26.5978 3.79675 26.4336 3.79688H13.9336C13.2706 3.79688 12.6347 4.06027 12.1658 4.52911C11.697 4.99795 11.4336 5.63383 11.4336 6.29688V8.79688H8.93359C8.27055 8.79688 7.63467 9.06027 7.16583 9.52911C6.69699 9.99795 6.43359 10.6338 6.43359 11.2969V33.7969C6.43359 34.4599 6.69699 35.0958 7.16583 35.5646C7.63467 36.0335 8.27055 36.2969 8.93359 36.2969H26.4336C27.0966 36.2969 27.7325 36.0335 28.2014 35.5646C28.6702 35.0958 28.9336 34.4599 28.9336 33.7969V31.2969H31.4336C32.0966 31.2969 32.7325 31.0335 33.2014 30.5646C33.6702 30.0958 33.9336 29.4599 33.9336 28.7969V11.2969C33.9337 11.1327 33.9015 10.9701 33.8388 10.8183C33.776 10.6666 33.684 10.5287 33.568 10.4125ZM26.4336 33.7969H8.93359V11.2969H20.9164L26.4336 16.8141V30.0219C26.4336 30.0312 26.4336 30.0391 26.4336 30.0469C26.4336 30.0547 26.4336 30.0625 26.4336 30.0719V33.7969ZM31.4336 28.7969H28.9336V16.2969C28.9337 16.1327 28.9015 15.9701 28.8388 15.8183C28.776 15.6666 28.684 15.5287 28.568 15.4125L22.318 9.1625C22.2018 9.04646 22.0639 8.95444 21.9122 8.8917C21.7604 8.82897 21.5978 8.79675 21.4336 8.79688H13.9336V6.29688H25.9164L31.4336 11.8141V28.7969ZM22.6836 23.7969C22.6836 24.1284 22.5519 24.4463 22.3175 24.6808C22.0831 24.9152 21.7651 25.0469 21.4336 25.0469H13.9336C13.6021 25.0469 13.2841 24.9152 13.0497 24.6808C12.8153 24.4463 12.6836 24.1284 12.6836 23.7969C12.6836 23.4654 12.8153 23.1474 13.0497 22.913C13.2841 22.6786 13.6021 22.5469 13.9336 22.5469H21.4336C21.7651 22.5469 22.0831 22.6786 22.3175 22.913C22.5519 23.1474 22.6836 23.4654 22.6836 23.7969ZM22.6836 28.7969C22.6836 29.1284 22.5519 29.4463 22.3175 29.6808C22.0831 29.9152 21.7651 30.0469 21.4336 30.0469H13.9336C13.6021 30.0469 13.2841 29.9152 13.0497 29.6808C12.8153 29.4463 12.6836 29.1284 12.6836 28.7969C12.6836 28.4654 12.8153 28.1474 13.0497 27.913C13.2841 27.6786 13.6021 27.5469 13.9336 27.5469H21.4336C21.7651 27.5469 22.0831 27.6786 22.3175 27.913C22.5519 28.1474 22.6836 28.4654 22.6836 28.7969Z" fill="url(#paint0_linear_11030_102006)"/>
</g>
<defs>
<linearGradient id="paint0_linear_11030_102006" x1="13.8242" y1="20.0469" x2="27.0061" y2="20.1025" gradientUnits="userSpaceOnUse">
<stop stop-color="#583EE7"/>
<stop offset="0.484375" stop-color="#0EA0E6"/>
<stop offset="1" stop-color="#00B6AE"/>
</linearGradient>
</defs>
</svg>
