<svg width="41" height="41" viewBox="0 0 41 41" fill="none" xmlns="http://www.w3.org/2000/svg">
<g id="File">
<path id="Vector" d="M33.566 13.8148L24.816 5.06484C24.6998 4.9488 24.5619 4.85678 24.4102 4.79405C24.2585 4.73131 24.0958 4.69909 23.9316 4.69922H8.93164C8.2686 4.69922 7.63271 4.96261 7.16387 5.43145C6.69503 5.90029 6.43164 6.53618 6.43164 7.19922V34.6992C6.43164 35.3623 6.69503 35.9981 7.16387 36.467C7.63271 36.9358 8.2686 37.1992 8.93164 37.1992H31.4316C32.0947 37.1992 32.7306 36.9358 33.1994 36.467C33.6682 35.9981 33.9316 35.3623 33.9316 34.6992V14.6992C33.9318 14.535 33.8995 14.3724 33.8368 14.2207C33.7741 14.0689 33.6821 13.931 33.566 13.8148ZM25.1816 8.96641L29.6645 13.4492H25.1816V8.96641ZM31.4316 34.6992H8.93164V7.19922H22.6816V14.6992C22.6816 15.0307 22.8133 15.3487 23.0478 15.5831C23.2822 15.8175 23.6001 15.9492 23.9316 15.9492H31.4316V34.6992Z" fill="url(#paint0_linear_14998_10764)"/>
</g>
<defs>
<linearGradient id="paint0_linear_14998_10764" x1="13.8223" y1="20.9492" x2="27.0041" y2="21.0048" gradientUnits="userSpaceOnUse">
<stop stop-color="#583EE7"/>
<stop offset="0.484375" stop-color="#0EA0E6"/>
<stop offset="1" stop-color="#00B6AE"/>
</linearGradient>
</defs>
</svg>
