<svg width="60" height="61" viewBox="0 0 60 61" fill="none" xmlns="http://www.w3.org/2000/svg">
<g id="Frame 1000008785">
<circle id="Ellipse 680" cx="30" cy="30.5" r="30" fill="#F0F6FF"/>
<path id="Vector" d="M38 28.5C38 28.7967 37.912 29.0867 37.7472 29.3334C37.5824 29.58 37.3481 29.7723 37.074 29.8858C36.7999 29.9994 36.4983 30.0291 36.2074 29.9712C35.9164 29.9133 35.6491 29.7704 35.4393 29.5607C35.2296 29.3509 35.0867 29.0836 35.0288 28.7926C34.9709 28.5017 35.0007 28.2001 35.1142 27.926C35.2277 27.6519 35.42 27.4176 35.6666 27.2528C35.9133 27.088 36.2033 27 36.5 27C36.8978 27 37.2794 27.158 37.5607 27.4393C37.842 27.7206 38 28.1022 38 28.5ZM33 22H28C27.7348 22 27.4804 22.1054 27.2929 22.2929C27.1054 22.4804 27 22.7348 27 23C27 23.2652 27.1054 23.5196 27.2929 23.7071C27.4804 23.8946 27.7348 24 28 24H33C33.2652 24 33.5196 23.8946 33.7071 23.7071C33.8946 23.5196 34 23.2652 34 23C34 22.7348 33.8946 22.4804 33.7071 22.2929C33.5196 22.1054 33.2652 22 33 22ZM45 28V32C45 32.7956 44.6839 33.5587 44.1213 34.1213C43.5587 34.6839 42.7956 35 42 35H41.705L39.6787 40.6725C39.54 41.061 39.2845 41.3972 38.9473 41.6348C38.6101 41.8725 38.2076 42 37.795 42H36.205C35.7924 42 35.3899 41.8725 35.0527 41.6348C34.7155 41.3972 34.46 41.061 34.3213 40.6725L34.0812 40H26.9187L26.6788 40.6725C26.54 41.061 26.2845 41.3972 25.9473 41.6348C25.6101 41.8725 25.2076 42 24.795 42H23.205C22.7924 42 22.3899 41.8725 22.0527 41.6348C21.7155 41.3972 21.46 41.061 21.3212 40.6725L19.75 36.2775C18.2552 34.5857 17.3193 32.4737 17.07 30.23C16.7473 30.3995 16.477 30.654 16.2884 30.9659C16.0999 31.2779 16.0001 31.6355 16 32C16 32.2652 15.8946 32.5196 15.7071 32.7071C15.5196 32.8946 15.2652 33 15 33C14.7348 33 14.4804 32.8946 14.2929 32.7071C14.1054 32.5196 14 32.2652 14 32C14.0015 31.1082 14.301 30.2425 14.8509 29.5404C15.4008 28.8383 16.1695 28.3401 17.035 28.125C17.2584 25.3692 18.51 22.7981 20.5414 20.9224C22.5727 19.0467 25.2351 18.0035 28 18H41C41.2652 18 41.5196 18.1054 41.7071 18.2929C41.8946 18.4804 42 18.7348 42 19C42 19.2652 41.8946 19.5196 41.7071 19.7071C41.5196 19.8946 41.2652 20 41 20H38.3263C39.9858 21.1644 41.291 22.765 42.0975 24.625C42.1512 24.75 42.2038 24.875 42.2537 25C43.0046 25.0637 43.704 25.4077 44.2129 25.9636C44.7217 26.5194 45.0027 27.2464 45 28ZM43 28C43 27.7348 42.8946 27.4804 42.7071 27.2929C42.5196 27.1054 42.2652 27 42 27H41.5425C41.3295 27.0002 41.122 26.9324 40.9503 26.8065C40.7785 26.6806 40.6514 26.5032 40.5875 26.3C40.0146 24.4717 38.8723 22.8743 37.3275 21.7409C35.7826 20.6076 33.916 19.9976 32 20H28C26.2534 19.9999 24.5445 20.508 23.0817 21.4624C21.6189 22.4168 20.4654 23.7762 19.7619 25.3749C19.0584 26.9735 18.8352 28.7423 19.1197 30.4656C19.4041 32.1889 20.1838 33.7922 21.3637 35.08C21.454 35.1781 21.5237 35.2933 21.5687 35.4188L23.205 40H24.795L25.2725 38.6637C25.3418 38.4696 25.4695 38.3016 25.638 38.1828C25.8065 38.0639 26.0076 38.0001 26.2137 38H34.7862C34.9924 38.0001 35.1935 38.0639 35.362 38.1828C35.5305 38.3016 35.6582 38.4696 35.7275 38.6637L36.205 40H37.795L40.0588 33.6637C40.1281 33.4696 40.2557 33.3016 40.4242 33.1828C40.5927 33.0639 40.7938 33.0001 41 33H42C42.2652 33 42.5196 32.8946 42.7071 32.7071C42.8946 32.5196 43 32.2652 43 32V28Z" fill="url(#paint0_linear_6529_75528)"/>
</g>
<defs>
<linearGradient id="paint0_linear_6529_75528" x1="22.3313" y1="30" x2="37.1904" y2="30.0957" gradientUnits="userSpaceOnUse">
<stop stop-color="#583EE7"/>
<stop offset="0.484375" stop-color="#0EA0E6"/>
<stop offset="1" stop-color="#00B6AE"/>
</linearGradient>
</defs>
</svg>
