<svg width="30" height="30" viewBox="0 0 30 30" fill="none" xmlns="http://www.w3.org/2000/svg">
<g id="solar:document-outline">
<path id="Vector" fill-rule="evenodd" clip-rule="evenodd" d="M13.68 1.56348H16.32C18.6175 1.56348 20.4375 1.56348 21.8612 1.75473C23.3263 1.95223 24.5125 2.36723 25.4487 3.30223C26.3837 4.23848 26.7987 5.42473 26.9963 6.88973C27.1875 8.31473 27.1875 10.1335 27.1875 12.431V17.571C27.1875 19.8685 27.1875 21.6885 26.9963 23.1122C26.7987 24.5772 26.3837 25.7635 25.4487 26.6997C24.5125 27.6347 23.3263 28.0497 21.8612 28.2472C20.4363 28.4385 18.6175 28.4385 16.32 28.4385H13.68C11.3825 28.4385 9.5625 28.4385 8.13875 28.2472C6.67375 28.0497 5.4875 27.6347 4.55125 26.6997C3.61625 25.7635 3.20125 24.5772 3.00375 23.1122C2.8125 21.6872 2.8125 19.8685 2.8125 17.571V12.431C2.8125 10.1335 2.8125 8.31348 3.00375 6.88973C3.20125 5.42473 3.61625 4.23848 4.55125 3.30223C5.4875 2.36723 6.67375 1.95223 8.13875 1.75473C9.56375 1.56348 11.3825 1.56348 13.68 1.56348ZM8.3875 3.61348C7.13 3.78223 6.405 4.09973 5.875 4.62848C5.3475 5.15723 5.03 5.88223 4.86125 7.13973C4.68875 8.42473 4.68625 10.1172 4.68625 12.501V17.501C4.68625 19.8847 4.68875 21.5785 4.86125 22.8635C5.03 24.1197 5.3475 24.8447 5.87625 25.3735C6.405 25.9022 7.13 26.2197 8.3875 26.3885C9.6725 26.561 11.365 26.5635 13.7487 26.5635H16.2487C18.6325 26.5635 20.3263 26.561 21.6112 26.3885C22.8675 26.2197 23.5925 25.9022 24.1213 25.3735C24.65 24.8447 24.9675 24.1197 25.1362 22.8622C25.3087 21.5785 25.3113 19.8847 25.3113 17.501V12.501C25.3113 10.1172 25.3087 8.42473 25.1362 7.13848C24.9675 5.88223 24.65 5.15723 24.1213 4.62848C23.5925 4.09973 22.8675 3.78223 21.61 3.61348C20.3263 3.44098 18.6325 3.43848 16.2487 3.43848H13.7487C11.365 3.43848 9.67375 3.44098 8.3875 3.61348ZM9.0625 12.501C9.0625 12.2523 9.16127 12.0139 9.33709 11.8381C9.5129 11.6622 9.75136 11.5635 10 11.5635H20C20.2486 11.5635 20.4871 11.6622 20.6629 11.8381C20.8387 12.0139 20.9375 12.2523 20.9375 12.501C20.9375 12.7496 20.8387 12.9881 20.6629 13.1639C20.4871 13.3397 20.2486 13.4385 20 13.4385H10C9.75136 13.4385 9.5129 13.3397 9.33709 13.1639C9.16127 12.9881 9.0625 12.7496 9.0625 12.501ZM9.0625 17.501C9.0625 17.2523 9.16127 17.0139 9.33709 16.8381C9.5129 16.6622 9.75136 16.5635 10 16.5635H16.25C16.4986 16.5635 16.7371 16.6622 16.9129 16.8381C17.0887 17.0139 17.1875 17.2523 17.1875 17.501C17.1875 17.7496 17.0887 17.9881 16.9129 18.1639C16.7371 18.3397 16.4986 18.4385 16.25 18.4385H10C9.75136 18.4385 9.5129 18.3397 9.33709 18.1639C9.16127 17.9881 9.0625 17.7496 9.0625 17.501Z" fill="url(#paint0_linear_6529_75590)"/>
</g>
<defs>
<linearGradient id="paint0_linear_6529_75590" x1="9.36328" y1="15.001" x2="21.0472" y2="15.0538" gradientUnits="userSpaceOnUse">
<stop stop-color="#583EE7"/>
<stop offset="0.484375" stop-color="#0EA0E6"/>
<stop offset="1" stop-color="#00B6AE"/>
</linearGradient>
</defs>
</svg>
