<svg width="60" height="61" viewBox="0 0 60 61" fill="none" xmlns="http://www.w3.org/2000/svg">
<g id="Frame 1000008785">
<circle id="Ellipse 680" cx="30" cy="30.5" r="30" fill="#F0F6FF"/>
<path id="Vector" d="M40.7075 22.2925L35.7075 17.2925C35.6146 17.1997 35.5042 17.1261 35.3829 17.0759C35.2615 17.0257 35.1314 16.9999 35 17H25C24.4696 17 23.9609 17.2107 23.5858 17.5858C23.2107 17.9609 23 18.4696 23 19V21H21C20.4696 21 19.9609 21.2107 19.5858 21.5858C19.2107 21.9609 19 22.4696 19 23V41C19 41.5304 19.2107 42.0391 19.5858 42.4142C19.9609 42.7893 20.4696 43 21 43H35C35.5304 43 36.0391 42.7893 36.4142 42.4142C36.7893 42.0391 37 41.5304 37 41V39H39C39.5304 39 40.0391 38.7893 40.4142 38.4142C40.7893 38.0391 41 37.5304 41 37V23C41.0001 22.8686 40.9743 22.7385 40.9241 22.6172C40.8739 22.4958 40.8003 22.3854 40.7075 22.2925ZM35 41H21V23H30.5863L35 27.4137V37.98C35 37.9875 35 37.9937 35 38C35 38.0063 35 38.0125 35 38.02V41ZM39 37H37V27C37.0001 26.8686 36.9743 26.7385 36.9241 26.6172C36.8739 26.4958 36.8003 26.3854 36.7075 26.2925L31.7075 21.2925C31.6146 21.1997 31.5042 21.1261 31.3829 21.0759C31.2615 21.0257 31.1314 20.9999 31 21H25V19H34.5863L39 23.4138V37ZM32 33C32 33.2652 31.8946 33.5196 31.7071 33.7071C31.5196 33.8946 31.2652 34 31 34H25C24.7348 34 24.4804 33.8946 24.2929 33.7071C24.1054 33.5196 24 33.2652 24 33C24 32.7348 24.1054 32.4804 24.2929 32.2929C24.4804 32.1054 24.7348 32 25 32H31C31.2652 32 31.5196 32.1054 31.7071 32.2929C31.8946 32.4804 32 32.7348 32 33ZM32 37C32 37.2652 31.8946 37.5196 31.7071 37.7071C31.5196 37.8946 31.2652 38 31 38H25C24.7348 38 24.4804 37.8946 24.2929 37.7071C24.1054 37.5196 24 37.2652 24 37C24 36.7348 24.1054 36.4804 24.2929 36.2929C24.4804 36.1054 24.7348 36 25 36H31C31.2652 36 31.5196 36.1054 31.7071 36.2929C31.8946 36.4804 32 36.7348 32 37Z" fill="url(#paint0_linear_6529_75598)"/>
</g>
<defs>
<linearGradient id="paint0_linear_6529_75598" x1="24.9125" y1="30" x2="35.458" y2="30.0445" gradientUnits="userSpaceOnUse">
<stop stop-color="#583EE7"/>
<stop offset="0.484375" stop-color="#0EA0E6"/>
<stop offset="1" stop-color="#00B6AE"/>
</linearGradient>
</defs>
</svg>
