<svg width="60" height="61" viewBox="0 0 60 61" fill="none" xmlns="http://www.w3.org/2000/svg">
<g id="Frame 1000008785">
<circle id="Ellipse 680" cx="30" cy="30.5" r="30" fill="#F0F6FF"/>
<path id="Vector" d="M43 35H42V23C42 22.2044 41.6839 21.4413 41.1213 20.8787C40.5587 20.3161 39.7956 20 39 20H21C20.2044 20 19.4413 20.3161 18.8787 20.8787C18.3161 21.4413 18 22.2044 18 23V35H17C16.7348 35 16.4804 35.1054 16.2929 35.2929C16.1054 35.4804 16 35.7348 16 36V38C16 38.7956 16.3161 39.5587 16.8787 40.1213C17.4413 40.6839 18.2044 41 19 41H41C41.7956 41 42.5587 40.6839 43.1213 40.1213C43.6839 39.5587 44 38.7956 44 38V36C44 35.7348 43.8946 35.4804 43.7071 35.2929C43.5196 35.1054 43.2652 35 43 35ZM20 23C20 22.7348 20.1054 22.4804 20.2929 22.2929C20.4804 22.1054 20.7348 22 21 22H39C39.2652 22 39.5196 22.1054 39.7071 22.2929C39.8946 22.4804 40 22.7348 40 23V35H20V23ZM42 38C42 38.2652 41.8946 38.5196 41.7071 38.7071C41.5196 38.8946 41.2652 39 41 39H19C18.7348 39 18.4804 38.8946 18.2929 38.7071C18.1054 38.5196 18 38.2652 18 38V37H42V38ZM33 25C33 25.2652 32.8946 25.5196 32.7071 25.7071C32.5196 25.8946 32.2652 26 32 26H28C27.7348 26 27.4804 25.8946 27.2929 25.7071C27.1054 25.5196 27 25.2652 27 25C27 24.7348 27.1054 24.4804 27.2929 24.2929C27.4804 24.1054 27.7348 24 28 24H32C32.2652 24 32.5196 24.1054 32.7071 24.2929C32.8946 24.4804 33 24.7348 33 25Z" fill="url(#paint0_linear_6529_75609)"/>
</g>
<defs>
<linearGradient id="paint0_linear_6529_75609" x1="23.525" y1="30.5" x2="36.9462" y2="30.5892" gradientUnits="userSpaceOnUse">
<stop stop-color="#583EE7"/>
<stop offset="0.484375" stop-color="#0EA0E6"/>
<stop offset="1" stop-color="#00B6AE"/>
</linearGradient>
</defs>
</svg>
