<svg width="60" height="61" viewBox="0 0 60 61" fill="none" xmlns="http://www.w3.org/2000/svg">
<g id="Frame 1000008785">
<circle id="Ellipse 680" cx="30" cy="30.5" r="30" fill="#F0F6FF"/>
<path id="Vector" d="M35.9978 42.0002C35.9978 42.2655 35.8924 42.5198 35.7049 42.7073C35.5174 42.8949 35.263 43.0002 34.9978 43.0002H16.9978C16.7326 43.0002 16.4782 42.8949 16.2907 42.7073C16.1031 42.5198 15.9978 42.2655 15.9978 42.0002C15.9978 41.735 16.1031 41.4807 16.2907 41.2931C16.4782 41.1056 16.7326 41.0002 16.9978 41.0002H34.9978C35.263 41.0002 35.5174 41.1056 35.7049 41.2931C35.8924 41.4807 35.9978 41.735 35.9978 42.0002ZM44.9803 26.644C44.9541 26.7832 44.8987 26.9152 44.8177 27.0314C44.7366 27.1475 44.6319 27.2451 44.5103 27.3177L26.084 38.3177C25.316 38.7682 24.4419 39.0063 23.5515 39.0077C22.2832 39.0063 21.0633 38.5202 20.1415 37.649L20.1265 37.634L15.6228 33.2252C15.3845 32.999 15.2056 32.7174 15.102 32.4056C14.9984 32.0937 14.9732 31.7612 15.0287 31.4373C15.0842 31.1134 15.2186 30.8081 15.4201 30.5486C15.6217 30.289 15.884 30.0831 16.184 29.949L16.559 29.7652C16.7959 29.649 17.069 29.631 17.319 29.7152L20.8515 30.9077L23.3728 29.3827L20.644 26.734C20.3986 26.5079 20.2137 26.224 20.1061 25.9082C19.9985 25.5923 19.9716 25.2546 20.0278 24.9257C20.0841 24.5968 20.2218 24.2872 20.4283 24.0252C20.6349 23.7631 20.9037 23.5569 21.2103 23.4252L21.2503 23.409L22.144 23.0702C22.3694 22.9862 22.6174 22.9862 22.8428 23.0702L29.5853 25.5477L36.0315 21.7002C37.0588 21.0888 38.2718 20.8676 39.4488 21.0769C40.6257 21.2862 41.6881 21.9121 42.4415 22.8402L42.4565 22.859L44.7865 25.8452C44.8736 25.9571 44.9359 26.0861 44.9693 26.2238C45.0027 26.3615 45.0064 26.5047 44.9803 26.644ZM42.5128 26.1815L40.8878 24.0977C40.4355 23.5444 39.7997 23.1718 39.096 23.0475C38.3923 22.9231 37.6673 23.0554 37.0528 23.4202L30.2028 27.5102C30.0745 27.5863 29.9309 27.6329 29.7824 27.6468C29.6339 27.6606 29.4842 27.6413 29.344 27.5902L22.4978 25.0727L21.9978 25.264L22.024 25.289L25.694 28.8502C25.8036 28.9567 25.8874 29.0869 25.9388 29.2308C25.9903 29.3748 26.008 29.5285 25.9908 29.6804C25.9735 29.8322 25.9217 29.9781 25.8392 30.1068C25.7568 30.2355 25.646 30.3436 25.5153 30.4227L21.489 32.859C21.3645 32.9342 21.225 32.9814 21.0804 32.9971C20.9357 33.0129 20.7894 32.9969 20.6515 32.9502L17.0678 31.7415L17.044 31.754L16.9978 31.7752C17.0038 31.7795 17.0093 31.7846 17.014 31.7902L21.514 36.1977C21.9837 36.6391 22.5837 36.9163 23.2241 36.988C23.8646 37.0596 24.511 36.9219 25.0665 36.5952L42.5128 26.1815Z" fill="url(#paint0_linear_6529_75565)"/>
</g>
<defs>
<linearGradient id="paint0_linear_6529_75565" x1="23.0618" y1="32.0001" x2="37.4404" y2="32.0979" gradientUnits="userSpaceOnUse">
<stop stop-color="#583EE7"/>
<stop offset="0.484375" stop-color="#0EA0E6"/>
<stop offset="1" stop-color="#00B6AE"/>
</linearGradient>
</defs>
</svg>
