<svg width="60" height="61" viewBox="0 0 60 61" fill="none" xmlns="http://www.w3.org/2000/svg">
<g id="Frame 1000008785">
<circle id="Ellipse 680" cx="30" cy="30.5" r="30" fill="#F0F6FF"/>
<path id="Vector" d="M41 22H36V21C36 20.2044 35.6839 19.4413 35.1213 18.8787C34.5587 18.3161 33.7956 18 33 18H27C26.2044 18 25.4413 18.3161 24.8787 18.8787C24.3161 19.4413 24 20.2044 24 21V22H19C18.4696 22 17.9609 22.2107 17.5858 22.5858C17.2107 22.9609 17 23.4696 17 24V40C17 40.5304 17.2107 41.0391 17.5858 41.4142C17.9609 41.7893 18.4696 42 19 42H41C41.5304 42 42.0391 41.7893 42.4142 41.4142C42.7893 41.0391 43 40.5304 43 40V24C43 23.4696 42.7893 22.9609 42.4142 22.5858C42.0391 22.2107 41.5304 22 41 22ZM26 21C26 20.7348 26.1054 20.4804 26.2929 20.2929C26.4804 20.1054 26.7348 20 27 20H33C33.2652 20 33.5196 20.1054 33.7071 20.2929C33.8946 20.4804 34 20.7348 34 21V22H26V21ZM41 24V29.2013C37.6247 31.0385 33.8429 32.0007 30 32C26.1573 32.0007 22.3755 31.0389 19 29.2025V24H41ZM41 40H19V31.455C22.4249 33.1302 26.1873 34.0007 30 34C33.8127 34.0001 37.5751 33.1292 41 31.4538V40ZM27 29C27 28.7348 27.1054 28.4804 27.2929 28.2929C27.4804 28.1054 27.7348 28 28 28H32C32.2652 28 32.5196 28.1054 32.7071 28.2929C32.8946 28.4804 33 28.7348 33 29C33 29.2652 32.8946 29.5196 32.7071 29.7071C32.5196 29.8946 32.2652 30 32 30H28C27.7348 30 27.4804 29.8946 27.2929 29.7071C27.1054 29.5196 27 29.2652 27 29Z" fill="url(#paint0_linear_6529_75541)"/>
</g>
<defs>
<linearGradient id="paint0_linear_6529_75541" x1="23.9875" y1="30" x2="36.4502" y2="30.0673" gradientUnits="userSpaceOnUse">
<stop stop-color="#583EE7"/>
<stop offset="0.484375" stop-color="#0EA0E6"/>
<stop offset="1" stop-color="#00B6AE"/>
</linearGradient>
</defs>
</svg>
