<svg width="60" height="60" viewBox="0 0 60 60" fill="none" xmlns="http://www.w3.org/2000/svg">
<g id="Frame 1000008785">
<circle id="Ellipse 680" cx="30" cy="30" r="30" fill="#F0F6FF"/>
<path id="Vector" d="M30 17C27.4288 17 24.9154 17.7624 22.7776 19.1909C20.6398 20.6194 18.9735 22.6497 17.9896 25.0251C17.0056 27.4006 16.7482 30.0144 17.2498 32.5362C17.7514 35.0579 18.9895 37.3743 20.8076 39.1924C22.6257 41.0105 24.9421 42.2486 27.4638 42.7502C29.9856 43.2518 32.5995 42.9944 34.9749 42.0104C37.3503 41.0265 39.3807 39.3603 40.8091 37.2224C42.2376 35.0846 43 32.5712 43 30C42.9964 26.5533 41.6256 23.2488 39.1884 20.8116C36.7512 18.3744 33.4467 17.0036 30 17ZM30 41C27.8244 41 25.6977 40.3549 23.8887 39.1462C22.0798 37.9375 20.6699 36.2195 19.8373 34.2095C19.0048 32.1995 18.7869 29.9878 19.2114 27.854C19.6358 25.7202 20.6835 23.7602 22.2218 22.2218C23.7602 20.6834 25.7202 19.6358 27.854 19.2114C29.9878 18.7869 32.1995 19.0048 34.2095 19.8373C36.2195 20.6699 37.9375 22.0798 39.1462 23.8887C40.3549 25.6977 41 27.8244 41 30C40.9967 32.9164 39.8367 35.7123 37.7745 37.7745C35.7123 39.8367 32.9164 40.9967 30 41ZM35 32.5C35 33.4283 34.6313 34.3185 33.9749 34.9749C33.3185 35.6313 32.4283 36 31.5 36H31V37C31 37.2652 30.8946 37.5196 30.7071 37.7071C30.5196 37.8946 30.2652 38 30 38C29.7348 38 29.4804 37.8946 29.2929 37.7071C29.1054 37.5196 29 37.2652 29 37V36H27C26.7348 36 26.4804 35.8946 26.2929 35.7071C26.1054 35.5196 26 35.2652 26 35C26 34.7348 26.1054 34.4804 26.2929 34.2929C26.4804 34.1054 26.7348 34 27 34H31.5C31.8978 34 32.2794 33.842 32.5607 33.5607C32.842 33.2794 33 32.8978 33 32.5C33 32.1022 32.842 31.7206 32.5607 31.4393C32.2794 31.158 31.8978 31 31.5 31H28.5C27.5717 31 26.6815 30.6313 26.0251 29.9749C25.3688 29.3185 25 28.4283 25 27.5C25 26.5717 25.3688 25.6815 26.0251 25.0251C26.6815 24.3687 27.5717 24 28.5 24H29V23C29 22.7348 29.1054 22.4804 29.2929 22.2929C29.4804 22.1054 29.7348 22 30 22C30.2652 22 30.5196 22.1054 30.7071 22.2929C30.8946 22.4804 31 22.7348 31 23V24H33C33.2652 24 33.5196 24.1054 33.7071 24.2929C33.8946 24.4804 34 24.7348 34 25C34 25.2652 33.8946 25.5196 33.7071 25.7071C33.5196 25.8946 33.2652 26 33 26H28.5C28.1022 26 27.7206 26.158 27.4393 26.4393C27.158 26.7206 27 27.1022 27 27.5C27 27.8978 27.158 28.2794 27.4393 28.5607C27.7206 28.842 28.1022 29 28.5 29H31.5C32.4283 29 33.3185 29.3687 33.9749 30.0251C34.6313 30.6815 35 31.5717 35 32.5Z" fill="url(#paint0_linear_6529_75517)"/>
</g>
<defs>
<linearGradient id="paint0_linear_6529_75517" x1="23.9875" y1="30" x2="36.4503" y2="30.0621" gradientUnits="userSpaceOnUse">
<stop stop-color="#583EE7"/>
<stop offset="0.484375" stop-color="#0EA0E6"/>
<stop offset="1" stop-color="#00B6AE"/>
</linearGradient>
</defs>
</svg>
