<svg width="41" height="41" viewBox="0 0 41 41" fill="none" xmlns="http://www.w3.org/2000/svg">
<g id="Laptop">
<path id="Vector" d="M36.6094 26.4961H35.3594V11.4961C35.3594 10.5015 34.9643 9.5477 34.261 8.84444C33.5578 8.14118 32.6039 7.74609 31.6094 7.74609H9.10938C8.11481 7.74609 7.16099 8.14118 6.45772 8.84444C5.75446 9.5477 5.35938 10.5015 5.35938 11.4961V26.4961H4.10938C3.77785 26.4961 3.45991 26.6278 3.22549 26.8622C2.99107 27.0966 2.85938 27.4146 2.85938 27.7461V30.2461C2.85938 31.2407 3.25446 32.1945 3.95772 32.8977C4.66099 33.601 5.61481 33.9961 6.60938 33.9961H34.1094C35.1039 33.9961 36.0578 33.601 36.761 32.8977C37.4643 32.1945 37.8594 31.2407 37.8594 30.2461V27.7461C37.8594 27.4146 37.7277 27.0966 37.4933 26.8622C37.2588 26.6278 36.9409 26.4961 36.6094 26.4961ZM7.85938 11.4961C7.85938 11.1646 7.99107 10.8466 8.22549 10.6122C8.45991 10.3778 8.77785 10.2461 9.10938 10.2461H31.6094C31.9409 10.2461 32.2588 10.3778 32.4933 10.6122C32.7277 10.8466 32.8594 11.1646 32.8594 11.4961V26.4961H7.85938V11.4961ZM35.3594 30.2461C35.3594 30.5776 35.2277 30.8956 34.9933 31.13C34.7588 31.3644 34.4409 31.4961 34.1094 31.4961H6.60938C6.27785 31.4961 5.95991 31.3644 5.72549 31.13C5.49107 30.8956 5.35938 30.5776 5.35938 30.2461V28.9961H35.3594V30.2461ZM24.1094 13.9961C24.1094 14.3276 23.9777 14.6456 23.7433 14.88C23.5088 15.1144 23.1909 15.2461 22.8594 15.2461H17.8594C17.5279 15.2461 17.2099 15.1144 16.9755 14.88C16.7411 14.6456 16.6094 14.3276 16.6094 13.9961C16.6094 13.6646 16.7411 13.3466 16.9755 13.1122C17.2099 12.8778 17.5279 12.7461 17.8594 12.7461H22.8594C23.1909 12.7461 23.5088 12.8778 23.7433 13.1122C23.9777 13.3466 24.1094 13.6646 24.1094 13.9961Z" fill="url(#paint0_linear_11030_101978)"/>
</g>
<defs>
<linearGradient id="paint0_linear_11030_101978" x1="12.2656" y1="20.8711" x2="29.0421" y2="20.9826" gradientUnits="userSpaceOnUse">
<stop stop-color="#583EE7"/>
<stop offset="0.484375" stop-color="#0EA0E6"/>
<stop offset="1" stop-color="#00B6AE"/>
</linearGradient>
</defs>
</svg>
