<svg width="21" height="21" viewBox="0 0 21 21" fill="none" xmlns="http://www.w3.org/2000/svg">
<g id="MapPin">
<path id="Vector" d="M10.5 5.25C9.85103 5.25 9.21663 5.44244 8.67704 5.80299C8.13744 6.16354 7.71687 6.676 7.46852 7.27557C7.22017 7.87514 7.15519 8.53489 7.2818 9.17139C7.40841 9.80789 7.72091 10.3926 8.17981 10.8514C8.6387 11.3103 9.22336 11.6228 9.85986 11.7495C10.4964 11.8761 11.1561 11.8111 11.7557 11.5627C12.3553 11.3144 12.8677 10.8938 13.2283 10.3542C13.5888 9.81462 13.7812 9.18022 13.7812 8.53125C13.7812 7.66101 13.4355 6.82641 12.8202 6.21106C12.2048 5.5957 11.3702 5.25 10.5 5.25ZM10.5 10.5C10.1106 10.5 9.72998 10.3845 9.40622 10.1682C9.08246 9.95188 8.83012 9.6444 8.68111 9.28466C8.5321 8.92492 8.49311 8.52907 8.56908 8.14717C8.64504 7.76527 8.83255 7.41447 9.10788 7.13913C9.38322 6.8638 9.73402 6.67629 10.1159 6.60033C10.4978 6.52436 10.8937 6.56335 11.2534 6.71236C11.6131 6.86137 11.9206 7.11371 12.137 7.43747C12.3533 7.76123 12.4688 8.14187 12.4688 8.53125C12.4688 9.0534 12.2613 9.55416 11.8921 9.92337C11.5229 10.2926 11.0221 10.5 10.5 10.5ZM10.5 1.3125C8.58613 1.31467 6.75128 2.07591 5.39797 3.42922C4.04466 4.78253 3.28342 6.61739 3.28125 8.53125C3.28125 11.107 4.47152 13.837 6.72656 16.4268C7.73983 17.597 8.88025 18.6507 10.1268 19.5686C10.2371 19.6459 10.3686 19.6873 10.5033 19.6873C10.638 19.6873 10.7695 19.6459 10.8798 19.5686C12.124 18.6504 13.2622 17.5966 14.2734 16.4268C16.5252 13.837 17.7188 11.107 17.7188 8.53125C17.7166 6.61739 16.9553 4.78253 15.602 3.42922C14.2487 2.07591 12.4139 1.31467 10.5 1.3125ZM10.5 18.2109C9.14402 17.1445 4.59375 13.2275 4.59375 8.53125C4.59375 6.96482 5.21601 5.46254 6.32365 4.3549C7.43129 3.24726 8.93357 2.625 10.5 2.625C12.0664 2.625 13.5687 3.24726 14.6763 4.3549C15.784 5.46254 16.4062 6.96482 16.4062 8.53125C16.4062 13.2259 11.856 17.1445 10.5 18.2109Z" fill="url(#paint0_linear_6170_70875)"/>
</g>
<defs>
<linearGradient id="paint0_linear_6170_70875" x1="7.16133" y1="10.4999" x2="14.0818" y2="10.527" gradientUnits="userSpaceOnUse">
<stop stop-color="#583EE7"/>
<stop offset="0.484375" stop-color="#0EA0E6"/>
<stop offset="1" stop-color="#00B6AE"/>
</linearGradient>
</defs>
</svg>
