<svg width="41" height="41" viewBox="0 0 41 41" fill="none" xmlns="http://www.w3.org/2000/svg">
<g id="MapPinLine">
<path id="Vector" d="M31.6816 35.8242H23.9535C25.2517 34.665 26.476 33.4256 27.6191 32.1133C31.9082 27.1805 34.1816 21.9805 34.1816 17.0742C34.1816 13.4275 32.733 9.93013 30.1544 7.3515C27.5757 4.77288 24.0784 3.32422 20.4316 3.32422C16.7849 3.32422 13.2875 4.77288 10.7089 7.3515C8.1303 9.93013 6.68164 13.4275 6.68164 17.0742C6.68164 21.9805 8.94883 27.1805 13.2441 32.1133C14.3873 33.4256 15.6116 34.665 16.9098 35.8242H9.18164C8.85012 35.8242 8.53218 35.9559 8.29776 36.1903C8.06334 36.4248 7.93164 36.7427 7.93164 37.0742C7.93164 37.4057 8.06334 37.7237 8.29776 37.9581C8.53218 38.1925 8.85012 38.3242 9.18164 38.3242H31.6816C32.0132 38.3242 32.3311 38.1925 32.5655 37.9581C32.7999 37.7237 32.9316 37.4057 32.9316 37.0742C32.9316 36.7427 32.7999 36.4248 32.5655 36.1903C32.3311 35.9559 32.0132 35.8242 31.6816 35.8242ZM9.18164 17.0742C9.18164 14.0905 10.3669 11.2291 12.4767 9.11927C14.5865 7.00948 17.448 5.82422 20.4316 5.82422C23.4153 5.82422 26.2768 7.00948 28.3866 9.11927C30.4964 11.2291 31.6816 14.0905 31.6816 17.0742C31.6816 26.0164 23.0145 33.4805 20.4316 35.5117C17.8488 33.4805 9.18164 26.0164 9.18164 17.0742ZM26.6816 17.0742C26.6816 15.8381 26.3151 14.6297 25.6283 13.6019C24.9416 12.5741 23.9655 11.773 22.8234 11.3C21.6814 10.8269 20.4247 10.7032 19.2123 10.9443C17.9999 11.1855 16.8863 11.7807 16.0122 12.6548C15.1381 13.5289 14.5429 14.6425 14.3017 15.8549C14.0606 17.0673 14.1843 18.324 14.6574 19.466C15.1304 20.608 15.9315 21.5841 16.9593 22.2709C17.9871 22.9577 19.1955 23.3242 20.4316 23.3242C22.0892 23.3242 23.679 22.6657 24.8511 21.4936C26.0232 20.3215 26.6816 18.7318 26.6816 17.0742ZM16.6816 17.0742C16.6816 16.3325 16.9016 15.6075 17.3136 14.9908C17.7257 14.3741 18.3114 13.8935 18.9966 13.6097C19.6818 13.3258 20.4358 13.2516 21.1632 13.3963C21.8907 13.541 22.5588 13.8981 23.0833 14.4226C23.6077 14.947 23.9649 15.6152 24.1096 16.3426C24.2543 17.0701 24.18 17.8241 23.8962 18.5093C23.6124 19.1945 23.1317 19.7802 22.515 20.1922C21.8983 20.6043 21.1733 20.8242 20.4316 20.8242C19.4371 20.8242 18.4833 20.4291 17.78 19.7259C17.0767 19.0226 16.6816 18.0688 16.6816 17.0742Z" fill="url(#paint0_linear_11030_101964)"/>
</g>
<defs>
<linearGradient id="paint0_linear_11030_101964" x1="14.0723" y1="20.8242" x2="27.2541" y2="20.8759" gradientUnits="userSpaceOnUse">
<stop stop-color="#583EE7"/>
<stop offset="0.484375" stop-color="#0EA0E6"/>
<stop offset="1" stop-color="#00B6AE"/>
</linearGradient>
</defs>
</svg>
