<svg width="41" height="40" viewBox="0 0 41 40" fill="none" xmlns="http://www.w3.org/2000/svg">
<g id="NotePencil">
<path id="Vector" d="M36.3844 9.11661L31.3844 4.11661C31.2683 4.00039 31.1304 3.90819 30.9787 3.84528C30.8269 3.78238 30.6643 3.75 30.5 3.75C30.3357 3.75 30.1731 3.78238 30.0213 3.84528C29.8696 3.90819 29.7317 4.00039 29.6156 4.11661L14.6156 19.1166C14.4996 19.2328 14.4076 19.3707 14.3448 19.5224C14.2821 19.6742 14.2499 19.8368 14.25 20.001V25.001C14.25 25.3325 14.3817 25.6504 14.6161 25.8849C14.8505 26.1193 15.1685 26.251 15.5 26.251H20.5C20.6642 26.2511 20.8268 26.2189 20.9786 26.1562C21.1303 26.0934 21.2682 26.0014 21.3844 25.8854L36.3844 10.8854C36.5006 10.7693 36.5928 10.6314 36.6557 10.4797C36.7186 10.3279 36.751 10.1653 36.751 10.001C36.751 9.83671 36.7186 9.67406 36.6557 9.52231C36.5928 9.37056 36.5006 9.2327 36.3844 9.11661ZM19.9828 23.751H16.75V20.5182L26.75 10.5182L29.9828 13.751L19.9828 23.751ZM31.75 11.9838L28.5172 8.75098L30.5 6.76817L33.7328 10.001L31.75 11.9838ZM35.5 18.751V32.501C35.5 33.164 35.2366 33.7999 34.7678 34.2687C34.2989 34.7376 33.663 35.001 33 35.001H8C7.33696 35.001 6.70107 34.7376 6.23223 34.2687C5.76339 33.7999 5.5 33.164 5.5 32.501V7.50098C5.5 6.83794 5.76339 6.20206 6.23223 5.73322C6.70107 5.26438 7.33696 5.00098 8 5.00098H21.75C22.0815 5.00098 22.3995 5.13268 22.6339 5.3671C22.8683 5.60152 23 5.91946 23 6.25098C23 6.5825 22.8683 6.90045 22.6339 7.13487C22.3995 7.36929 22.0815 7.50098 21.75 7.50098H8V32.501H33V18.751C33 18.4195 33.1317 18.1015 33.3661 17.8671C33.6005 17.6327 33.9185 17.501 34.25 17.501C34.5815 17.501 34.8995 17.6327 35.1339 17.8671C35.3683 18.1015 35.5 18.4195 35.5 18.751Z" fill="url(#paint0_linear_11032_102014)"/>
</g>
<defs>
<linearGradient id="paint0_linear_11032_102014" x1="13.8987" y1="19.3755" x2="28.8784" y2="19.4502" gradientUnits="userSpaceOnUse">
<stop stop-color="#583EE7"/>
<stop offset="0.484375" stop-color="#0EA0E6"/>
<stop offset="1" stop-color="#00B6AE"/>
</linearGradient>
</defs>
</svg>
