<svg width="23" height="22" viewBox="0 0 23 22" fill="none" xmlns="http://www.w3.org/2000/svg">
<g id="Phone">
<path id="Vector" d="M19.6099 13.6175L15.5614 11.8033L15.5502 11.7982C15.3401 11.7083 15.1108 11.6722 14.8832 11.6932C14.6555 11.7142 14.4367 11.7917 14.2466 11.9185C14.2242 11.9333 14.2027 11.9494 14.1821 11.9666L12.0904 13.7498C10.7652 13.1062 9.39712 11.7483 8.75345 10.4404L10.5392 8.31686C10.5564 8.29537 10.5727 8.27389 10.5882 8.25069C10.7123 8.06102 10.7876 7.84362 10.8074 7.61782C10.8272 7.39202 10.7909 7.16483 10.7016 6.95647V6.94615L8.88235 2.89076C8.76439 2.61857 8.56157 2.39182 8.30415 2.24437C8.04674 2.09693 7.74854 2.03668 7.45407 2.07264C6.28959 2.22587 5.22071 2.79775 4.44706 3.68147C3.67341 4.56519 3.2479 5.70031 3.25001 6.87483C3.25001 13.6983 8.80157 19.2498 15.625 19.2498C16.7995 19.2519 17.9346 18.8264 18.8184 18.0528C19.7021 17.2791 20.274 16.2102 20.4272 15.0458C20.4632 14.7514 20.4031 14.4533 20.2558 14.1959C20.1085 13.9385 19.882 13.7356 19.6099 13.6175ZM15.625 17.8748C12.7086 17.8716 9.91256 16.7117 7.85035 14.6495C5.78814 12.5873 4.62819 9.79123 4.62501 6.87483C4.62177 6.03564 4.92411 5.22396 5.47556 4.59139C6.02701 3.95881 6.78986 3.54859 7.62165 3.43733C7.62131 3.44076 7.62131 3.44421 7.62165 3.44764L9.42634 7.4867L7.65001 9.61279C7.63198 9.63354 7.6156 9.65567 7.60102 9.67897C7.4717 9.87741 7.39583 10.1059 7.38078 10.3423C7.36572 10.5787 7.41199 10.8149 7.51509 11.0282C8.29368 12.6206 9.89813 14.213 11.5077 14.9908C11.7226 15.0929 11.9602 15.1376 12.1974 15.1204C12.4347 15.1032 12.6634 15.0248 12.8613 14.8928C12.8833 14.8779 12.9046 14.8619 12.9249 14.8447L15.014 13.0623L19.0531 14.8713C19.0531 14.8713 19.0599 14.8713 19.0625 14.8713C18.9526 15.7043 18.543 16.4687 17.9103 17.0215C17.2776 17.5743 16.4652 17.8777 15.625 17.8748Z" fill="url(#paint0_linear_6529_76568)"/>
</g>
<defs>
<linearGradient id="paint0_linear_6529_76568" x1="7.86911" y1="10.6562" x2="16.1076" y2="10.6972" gradientUnits="userSpaceOnUse">
<stop stop-color="#583EE7"/>
<stop offset="0.484375" stop-color="#0EA0E6"/>
<stop offset="1" stop-color="#00B6AE"/>
</linearGradient>
</defs>
</svg>
