<svg width="41" height="41" viewBox="0 0 41 41" fill="none" xmlns="http://www.w3.org/2000/svg">
<g id="PhoneCall">
<path id="Vector" d="M24.5676 6.35203C24.61 6.19339 24.6833 6.04467 24.7832 5.91436C24.8832 5.78405 25.0078 5.6747 25.15 5.59258C25.2922 5.51045 25.4492 5.45714 25.612 5.43571C25.7748 5.41427 25.9402 5.42513 26.0988 5.46765C28.4161 6.07226 30.5304 7.28366 32.2238 8.97708C33.9172 10.6705 35.1286 12.7847 35.7332 15.102C35.7757 15.2606 35.7866 15.4261 35.7652 15.5889C35.7437 15.7517 35.6904 15.9087 35.6083 16.0509C35.5262 16.1931 35.4168 16.3177 35.2865 16.4176C35.1562 16.5176 35.0075 16.5908 34.8488 16.6333C34.7433 16.661 34.6346 16.6752 34.5254 16.6755C34.25 16.6755 33.9822 16.5845 33.7638 16.4166C33.5454 16.2488 33.3885 16.0135 33.3176 15.7473C32.8245 13.8557 31.8358 12.1297 30.4535 10.7474C29.0712 9.36505 27.3452 8.37638 25.4535 7.88328C25.2948 7.84101 25.1459 7.76786 25.0154 7.66801C24.8849 7.56815 24.7754 7.44355 24.6931 7.30133C24.6108 7.15911 24.5574 7.00206 24.5358 6.83917C24.5143 6.67628 24.5251 6.51074 24.5676 6.35203ZM24.2035 12.8833C26.3582 13.4583 27.7426 14.8427 28.3176 16.9973C28.3885 17.2635 28.5454 17.4988 28.7638 17.6666C28.9822 17.8345 29.25 17.9255 29.5254 17.9255C29.6346 17.9252 29.7433 17.911 29.8488 17.8833C30.0075 17.8408 30.1562 17.7676 30.2865 17.6676C30.4168 17.5677 30.5262 17.4431 30.6083 17.3009C30.6904 17.1587 30.7437 17.0017 30.7652 16.8389C30.7866 16.6761 30.7757 16.5106 30.7332 16.352C29.9332 13.3583 27.8426 11.2677 24.8488 10.4677C24.6902 10.4253 24.5248 10.4146 24.3621 10.4361C24.1993 10.4577 24.0424 10.5111 23.9003 10.5933C23.7582 10.6755 23.6336 10.7848 23.5338 10.9152C23.4339 11.0455 23.3607 11.1942 23.3184 11.3528C23.276 11.5114 23.2653 11.6768 23.2868 11.8396C23.3084 12.0023 23.3618 12.1592 23.444 12.3014C23.5262 12.4435 23.6356 12.568 23.7659 12.6679C23.8962 12.7677 24.0449 12.8409 24.2035 12.8833ZM37.0067 27.7817C36.7281 29.8989 35.6883 31.8424 34.0815 33.249C32.4747 34.6556 30.4109 35.4293 28.2754 35.4255C15.8692 35.4255 5.7754 25.3317 5.7754 12.9255C5.77158 10.79 6.54523 8.72612 7.95186 7.11936C9.3585 5.5126 11.3019 4.47282 13.4192 4.19422C13.9545 4.12884 14.4967 4.23837 14.9648 4.50646C15.4328 4.77455 15.8016 5.18682 16.016 5.68171L19.316 13.0489V13.0677C19.4802 13.4465 19.548 13.8601 19.5134 14.2715C19.4788 14.683 19.3428 15.0794 19.1176 15.4255C19.0895 15.4677 19.0598 15.5067 19.0285 15.5458L15.7754 19.402C16.9457 21.7802 19.4332 24.2458 21.8426 25.4192L25.6457 22.1833C25.6831 22.1519 25.7222 22.1227 25.7629 22.0958C26.1087 21.8652 26.5065 21.7244 26.9204 21.6862C27.3342 21.648 27.7511 21.7136 28.1332 21.877L28.1535 21.8864L35.5145 25.1848C36.0102 25.3985 36.4235 25.767 36.6925 26.2351C36.9615 26.7032 37.0717 27.2458 37.0067 27.7817ZM34.5254 27.4692C34.5254 27.4692 34.5145 27.4692 34.5082 27.4692L27.1645 24.1802L23.3598 27.4161C23.3229 27.4474 23.2843 27.4766 23.2442 27.5036C22.8844 27.7436 22.4685 27.8862 22.0372 27.9174C21.6059 27.9486 21.1738 27.8674 20.7832 27.6817C17.8567 26.2677 14.9395 23.3723 13.5238 20.477C13.3364 20.0893 13.2523 19.6597 13.2796 19.2299C13.307 18.8001 13.445 18.3847 13.6801 18.0239C13.7066 17.9815 13.7364 17.9413 13.7692 17.9036L17.0254 14.0427L13.7442 6.6989C13.7435 6.69267 13.7435 6.68639 13.7442 6.68015C12.2289 6.87781 10.8377 7.62103 9.83105 8.77064C8.82438 9.92026 8.27131 11.3974 8.2754 12.9255C8.28119 18.228 10.3902 23.3117 14.1397 27.0612C17.8891 30.8107 22.9729 32.9197 28.2754 32.9255C29.8025 32.9307 31.2793 32.3796 32.4296 31.3751C33.5798 30.3706 34.3249 28.9816 34.5254 27.4677V27.4692Z" fill="url(#paint0_linear_11030_101968)"/>
</g>
<defs>
<linearGradient id="paint0_linear_11030_101968" x1="14.1737" y1="19.8006" x2="29.1527" y2="19.8753" gradientUnits="userSpaceOnUse">
<stop stop-color="#583EE7"/>
<stop offset="0.484375" stop-color="#0EA0E6"/>
<stop offset="1" stop-color="#00B6AE"/>
</linearGradient>
</defs>
</svg>
