<svg width="41" height="41" viewBox="0 0 41 41" fill="none" xmlns="http://www.w3.org/2000/svg">
<g id="Question">
<path id="Vector" d="M22.0176 29.0703C22.0176 29.4412 21.9076 29.8037 21.7016 30.112C21.4956 30.4203 21.2027 30.6607 20.8601 30.8026C20.5175 30.9445 20.1405 30.9816 19.7768 30.9093C19.4131 30.8369 19.079 30.6584 18.8168 30.3961C18.5545 30.1339 18.376 29.7998 18.3036 29.4361C18.2313 29.0724 18.2684 28.6954 18.4103 28.3528C18.5522 28.0102 18.7925 27.7173 19.1009 27.5113C19.4092 27.3053 19.7717 27.1953 20.1426 27.1953C20.6399 27.1953 21.1168 27.3929 21.4684 27.7445C21.82 28.0961 22.0176 28.573 22.0176 29.0703ZM20.1426 12.1953C16.6957 12.1953 13.8926 14.7188 13.8926 17.8203V18.4453C13.8926 18.7768 14.0243 19.0948 14.2587 19.3292C14.4931 19.5636 14.8111 19.6953 15.1426 19.6953C15.4741 19.6953 15.792 19.5636 16.0265 19.3292C16.2609 19.0948 16.3926 18.7768 16.3926 18.4453V17.8203C16.3926 16.1016 18.0754 14.6953 20.1426 14.6953C22.2098 14.6953 23.8926 16.1016 23.8926 17.8203C23.8926 19.5391 22.2098 20.9453 20.1426 20.9453C19.8111 20.9453 19.4931 21.077 19.2587 21.3114C19.0243 21.5458 18.8926 21.8638 18.8926 22.1953V23.4453C18.8926 23.7768 19.0243 24.0948 19.2587 24.3292C19.4931 24.5636 19.8111 24.6953 20.1426 24.6953C20.4741 24.6953 20.792 24.5636 21.0265 24.3292C21.2609 24.0948 21.3926 23.7768 21.3926 23.4453V23.3328C24.2426 22.8094 26.3926 20.5359 26.3926 17.8203C26.3926 14.7188 23.5895 12.1953 20.1426 12.1953ZM36.3926 20.9453C36.3926 24.1593 35.4395 27.301 33.654 29.9733C31.8684 32.6456 29.3305 34.7284 26.3612 35.9584C23.3919 37.1883 20.1246 37.5101 16.9724 36.8831C13.8202 36.2561 10.9247 34.7084 8.6521 32.4358C6.3795 30.1632 4.83183 27.2677 4.20482 24.1155C3.57781 20.9633 3.89962 17.696 5.12954 14.7267C6.35947 11.7574 8.44227 9.2195 11.1146 7.43393C13.7869 5.64836 16.9286 4.69531 20.1426 4.69531C24.451 4.69986 28.5816 6.41337 31.628 9.45985C34.6745 12.5063 36.388 16.6369 36.3926 20.9453ZM33.8926 20.9453C33.8926 18.2258 33.0862 15.5674 31.5753 13.3062C30.0644 11.045 27.917 9.28267 25.4045 8.24197C22.892 7.20126 20.1273 6.92897 17.4601 7.45951C14.7929 7.99006 12.3428 9.29962 10.4199 11.2226C8.4969 13.1456 7.18733 15.5956 6.65679 18.2628C6.12624 20.9301 6.39854 23.6947 7.43924 26.2072C8.47995 28.7197 10.2423 30.8672 12.5035 32.378C14.7647 33.8889 17.4231 34.6953 20.1426 34.6953C23.788 34.6912 27.283 33.2412 29.8607 30.6635C32.4385 28.0857 33.8885 24.5908 33.8926 20.9453Z" fill="url(#paint0_linear_11030_102002)"/>
</g>
<defs>
<linearGradient id="paint0_linear_11030_102002" x1="12.627" y1="20.9453" x2="28.2054" y2="21.023" gradientUnits="userSpaceOnUse">
<stop stop-color="#583EE7"/>
<stop offset="0.484375" stop-color="#0EA0E6"/>
<stop offset="1" stop-color="#00B6AE"/>
</linearGradient>
</defs>
</svg>
