<svg width="40" height="40" viewBox="0 0 40 40" fill="none" xmlns="http://www.w3.org/2000/svg">
<g id="Frame">
<path id="Vector" d="M20 3.75C16.7861 3.75 13.6443 4.70305 10.972 6.48862C8.29969 8.27419 6.21689 10.8121 4.98696 13.7814C3.75704 16.7507 3.43524 20.018 4.06225 23.1702C4.68926 26.3224 6.23692 29.2179 8.50952 31.4905C10.7821 33.7631 13.6776 35.3107 16.8298 35.9378C19.982 36.5648 23.2493 36.243 26.2186 35.013C29.1879 33.7831 31.7258 31.7003 33.5114 29.028C35.297 26.3557 36.25 23.2139 36.25 20C36.2455 15.6916 34.5319 11.561 31.4855 8.51454C28.439 5.46806 24.3084 3.75455 20 3.75ZM20 33.75C17.2805 33.75 14.6221 32.9436 12.3609 31.4327C10.0997 29.9218 8.33737 27.7744 7.29666 25.2619C6.25596 22.7494 5.98366 19.9847 6.51421 17.3175C7.04476 14.6503 8.35432 12.2003 10.2773 10.2773C12.2003 8.35431 14.6503 7.04475 17.3175 6.5142C19.9848 5.98366 22.7494 6.25595 25.2619 7.29666C27.7744 8.33736 29.9218 10.0997 31.4327 12.3609C32.9436 14.6221 33.75 17.2805 33.75 20C33.7459 23.6455 32.2959 27.1404 29.7182 29.7182C27.1404 32.2959 23.6455 33.7459 20 33.75ZM16.25 16.875C16.25 17.2458 16.14 17.6084 15.934 17.9167C15.728 18.225 15.4352 18.4654 15.0925 18.6073C14.7499 18.7492 14.3729 18.7863 14.0092 18.714C13.6455 18.6416 13.3114 18.463 13.0492 18.2008C12.787 17.9386 12.6084 17.6045 12.536 17.2408C12.4637 16.8771 12.5008 16.5001 12.6427 16.1575C12.7846 15.8149 13.025 15.522 13.3333 15.316C13.6417 15.11 14.0042 15 14.375 15C14.8723 15 15.3492 15.1975 15.7008 15.5492C16.0525 15.9008 16.25 16.3777 16.25 16.875ZM27.5 16.875C27.5 17.2458 27.39 17.6084 27.184 17.9167C26.978 18.225 26.6851 18.4654 26.3425 18.6073C25.9999 18.7492 25.6229 18.7863 25.2592 18.714C24.8955 18.6416 24.5614 18.463 24.2992 18.2008C24.037 17.9386 23.8584 17.6045 23.786 17.2408C23.7137 16.8771 23.7508 16.5001 23.8927 16.1575C24.0346 15.8149 24.275 15.522 24.5833 15.316C24.8917 15.11 25.2542 15 25.625 15C26.1223 15 26.5992 15.1975 26.9508 15.5492C27.3025 15.9008 27.5 16.3777 27.5 16.875Z" fill="#8189A2"/>
</g>
</svg>
