<svg width="40" height="40" viewBox="0 0 40 40" fill="none" xmlns="http://www.w3.org/2000/svg">
<g id="Smiley">
<path id="Vector" d="M20 3.75C16.7861 3.75 13.6443 4.70305 10.972 6.48862C8.29969 8.27419 6.21689 10.8121 4.98696 13.7814C3.75704 16.7507 3.43524 20.018 4.06225 23.1702C4.68926 26.3224 6.23692 29.2179 8.50952 31.4905C10.7821 33.7631 13.6776 35.3107 16.8298 35.9378C19.982 36.5648 23.2493 36.243 26.2186 35.013C29.1879 33.7831 31.7258 31.7003 33.5114 29.028C35.297 26.3557 36.25 23.2139 36.25 20C36.2455 15.6916 34.5319 11.561 31.4855 8.51454C28.439 5.46806 24.3084 3.75455 20 3.75ZM20 33.75C17.2805 33.75 14.6221 32.9436 12.3609 31.4327C10.0997 29.9218 8.33737 27.7744 7.29666 25.2619C6.25596 22.7494 5.98366 19.9847 6.51421 17.3175C7.04476 14.6503 8.35432 12.2003 10.2773 10.2773C12.2003 8.35431 14.6503 7.04475 17.3175 6.5142C19.9848 5.98366 22.7494 6.25595 25.2619 7.29666C27.7744 8.33736 29.9218 10.0997 31.4327 12.3609C32.9436 14.6221 33.75 17.2805 33.75 20C33.7459 23.6455 32.2959 27.1404 29.7182 29.7182C27.1404 32.2959 23.6455 33.7459 20 33.75ZM12.5 16.875C12.5 16.5042 12.61 16.1416 12.816 15.8333C13.022 15.525 13.3149 15.2846 13.6575 15.1427C14.0001 15.0008 14.3771 14.9637 14.7408 15.036C15.1045 15.1084 15.4386 15.287 15.7008 15.5492C15.9631 15.8114 16.1416 16.1455 16.214 16.5092C16.2863 16.8729 16.2492 17.2499 16.1073 17.5925C15.9654 17.9351 15.725 18.228 15.4167 18.434C15.1084 18.64 14.7458 18.75 14.375 18.75C13.8777 18.75 13.4008 18.5525 13.0492 18.2008C12.6976 17.8492 12.5 17.3723 12.5 16.875ZM27.5 16.875C27.5 17.2458 27.39 17.6084 27.184 17.9167C26.978 18.225 26.6851 18.4654 26.3425 18.6073C25.9999 18.7492 25.6229 18.7863 25.2592 18.714C24.8955 18.6416 24.5614 18.463 24.2992 18.2008C24.037 17.9386 23.8584 17.6045 23.786 17.2408C23.7137 16.8771 23.7508 16.5001 23.8927 16.1575C24.0346 15.8149 24.275 15.522 24.5833 15.316C24.8917 15.11 25.2542 15 25.625 15C26.1223 15 26.5992 15.1975 26.9508 15.5492C27.3025 15.9008 27.5 16.3777 27.5 16.875ZM27.3328 24.375C25.725 27.1547 23.0516 28.75 20 28.75C16.9484 28.75 14.2766 27.1562 12.6688 24.375C12.5783 24.2327 12.5176 24.0736 12.4902 23.9073C12.4629 23.7409 12.4694 23.5708 12.5095 23.407C12.5497 23.2433 12.6225 23.0893 12.7236 22.9545C12.8248 22.8196 12.9521 22.7066 13.0981 22.6222C13.2441 22.5378 13.4056 22.4839 13.5729 22.4635C13.7403 22.4432 13.91 22.4569 14.0719 22.5039C14.2338 22.5509 14.3846 22.6301 14.5151 22.7369C14.6456 22.8436 14.7531 22.9756 14.8313 23.125C15.9984 25.1422 17.8328 26.25 20 26.25C22.1672 26.25 24.0016 25.1406 25.1672 23.125C25.333 22.8378 25.606 22.6283 25.9263 22.5424C26.2466 22.4565 26.5878 22.5014 26.875 22.6672C27.1622 22.8329 27.3718 23.106 27.4576 23.4263C27.5435 23.7466 27.4986 24.0878 27.3328 24.375Z" fill="#8189A2"/>
</g>
</svg>
