<svg width="23" height="23" viewBox="0 0 23 23" fill="none" xmlns="http://www.w3.org/2000/svg">
<g id="ImageSquare">
<path id="Vector" d="M18.3774 2.82812H4.2417C3.8668 2.82813 3.50725 2.97705 3.24215 3.24215C2.97705 3.50725 2.82813 3.8668 2.82812 4.2417V18.3774C2.82813 18.7523 2.97705 19.1119 3.24215 19.377C3.50725 19.6421 3.8668 19.791 4.2417 19.791H18.3774C18.7523 19.791 19.1119 19.6421 19.377 19.377C19.6421 19.1119 19.791 18.7523 19.791 18.3774V4.2417C19.791 3.8668 19.6421 3.50725 19.377 3.24215C19.1119 2.97705 18.7523 2.82813 18.3774 2.82812ZM4.2417 4.2417H18.3774V11.0781L16.1961 8.89589C15.931 8.631 15.5716 8.48219 15.1969 8.48219C14.8222 8.48219 14.4627 8.631 14.1977 8.89589L4.71613 18.3774H4.2417V4.2417ZM18.3774 18.3774H6.71545L15.1969 9.896L18.3774 13.0765V18.3774ZM8.48242 10.6028C8.90179 10.6028 9.31174 10.4784 9.66043 10.2454C10.0091 10.0124 10.2809 9.68129 10.4414 9.29385C10.6019 8.9064 10.6439 8.48007 10.562 8.06876C10.4802 7.65745 10.2783 7.27964 9.98174 6.9831C9.68521 6.68656 9.30739 6.48462 8.89608 6.4028C8.48477 6.32099 8.05844 6.36298 7.67099 6.52346C7.28355 6.68395 6.95239 6.95572 6.71941 7.30441C6.48642 7.6531 6.36206 8.06305 6.36206 8.48242C6.36206 9.04478 6.58545 9.5841 6.9831 9.98174C7.38074 10.3794 7.92007 10.6028 8.48242 10.6028ZM8.48242 7.77563C8.62221 7.77563 8.75886 7.81709 8.87509 7.89475C8.99132 7.97241 9.08191 8.0828 9.13541 8.21195C9.1889 8.34109 9.2029 8.48321 9.17563 8.62031C9.14836 8.75741 9.08104 8.88335 8.9822 8.9822C8.88335 9.08104 8.75741 9.14836 8.62031 9.17563C8.48321 9.2029 8.34109 9.1889 8.21195 9.13541C8.0828 9.08191 7.97241 8.99132 7.89475 8.87509C7.81709 8.75886 7.77563 8.62221 7.77563 8.48242C7.77563 8.29497 7.8501 8.1152 7.98265 7.98265C8.1152 7.8501 8.29497 7.77563 8.48242 7.77563Z" fill="black"/>
</g>
</svg>
