<svg width="41" height="41" viewBox="0 0 41 41" fill="none" xmlns="http://www.w3.org/2000/svg">
<g id="UserCircleGear">
<path id="Vector" d="M35.9145 10.5539L35.1863 10.1336C35.2718 9.68134 35.2718 9.2171 35.1863 8.76484L35.9145 8.34453C36.2016 8.17877 36.4112 7.90572 36.4971 7.58544C36.5829 7.26516 36.538 6.9239 36.3723 6.63672C36.2065 6.34954 35.9335 6.13997 35.6132 6.05411C35.2929 5.96826 34.9516 6.01315 34.6645 6.17891L33.9348 6.60078C33.5856 6.30118 33.1841 6.06864 32.7504 5.91484V5.07422C32.7504 4.7427 32.6187 4.42476 32.3843 4.19034C32.1499 3.95591 31.8319 3.82422 31.5004 3.82422C31.1689 3.82422 30.8509 3.95591 30.6165 4.19034C30.3821 4.42476 30.2504 4.7427 30.2504 5.07422V5.91484C29.8168 6.06864 29.4152 6.30118 29.066 6.60078L28.3363 6.17891C28.1941 6.09683 28.0372 6.04357 27.8744 6.02215C27.7116 6.00074 27.5462 6.0116 27.3876 6.05411C27.229 6.09662 27.0804 6.16996 26.9501 6.26992C26.8199 6.36988 26.7106 6.49452 26.6285 6.63672C26.5465 6.77892 26.4932 6.93589 26.4718 7.09867C26.4504 7.26145 26.4612 7.42686 26.5037 7.58544C26.5462 7.74403 26.6196 7.89268 26.7195 8.02293C26.8195 8.15317 26.9441 8.26245 27.0863 8.34453L27.8145 8.76484C27.7291 9.2171 27.7291 9.68134 27.8145 10.1336L27.0863 10.5539C26.8479 10.6914 26.6615 10.9038 26.5561 11.1581C26.4507 11.4124 26.4322 11.6943 26.5034 11.9602C26.5747 12.2261 26.7317 12.461 26.9501 12.6285C27.1685 12.7961 27.4361 12.8868 27.7113 12.8867C27.9308 12.8874 28.1465 12.8297 28.3363 12.7195L29.066 12.2977C29.4152 12.5973 29.8168 12.8298 30.2504 12.9836V13.8242C30.2504 14.1557 30.3821 14.4737 30.6165 14.7081C30.8509 14.9425 31.1689 15.0742 31.5004 15.0742C31.8319 15.0742 32.1499 14.9425 32.3843 14.7081C32.6187 14.4737 32.7504 14.1557 32.7504 13.8242V12.9836C33.1841 12.8298 33.5856 12.5973 33.9348 12.2977L34.6645 12.7195C34.8543 12.8297 35.07 12.8874 35.2895 12.8867C35.5647 12.8868 35.8323 12.7961 36.0507 12.6285C36.2691 12.461 36.4261 12.2261 36.4974 11.9602C36.5686 11.6943 36.5501 11.4124 36.4447 11.1581C36.3393 10.9038 36.1529 10.6914 35.9145 10.5539ZM30.2504 9.44922C30.2504 9.20199 30.3237 8.96032 30.4611 8.75476C30.5984 8.54919 30.7936 8.38898 31.0221 8.29437C31.2505 8.19976 31.5018 8.17501 31.7443 8.22324C31.9867 8.27147 32.2095 8.39052 32.3843 8.56534C32.5591 8.74015 32.6782 8.96288 32.7264 9.20536C32.7746 9.44783 32.7499 9.69917 32.6553 9.92757C32.5606 10.156 32.4004 10.3512 32.1949 10.4886C31.9893 10.6259 31.7476 10.6992 31.5004 10.6992C31.1689 10.6992 30.8509 10.5675 30.6165 10.3331C30.3821 10.0987 30.2504 9.78074 30.2504 9.44922ZM34.8363 16.9664C34.5094 17.0211 34.2176 17.2035 34.025 17.4733C33.8325 17.7432 33.7551 18.0785 33.8098 18.4055C33.9367 19.1635 34.0005 19.9307 34.0004 20.6992C34.0034 24.0651 32.7663 27.3142 30.5254 29.8258C29.1313 27.8056 27.171 26.2427 24.891 25.3336C26.1157 24.369 27.0094 23.0467 27.4478 21.5506C27.8862 20.0545 27.8474 18.4591 27.337 16.986C26.8265 15.513 25.8698 14.2356 24.5997 13.3315C23.3296 12.4275 21.8094 11.9417 20.2504 11.9417C18.6914 11.9417 17.1712 12.4275 15.9011 13.3315C14.6311 14.2356 13.6743 15.513 13.1638 16.986C12.6534 18.4591 12.6146 20.0545 13.053 21.5506C13.4914 23.0467 14.3851 24.369 15.6098 25.3336C13.3298 26.2427 11.3695 27.8056 9.97541 29.8258C8.21715 27.8445 7.06864 25.3975 6.66797 22.779C6.26731 20.1605 6.63154 17.482 7.71687 15.0656C8.8022 12.6492 10.5624 10.5977 12.7859 9.15782C15.0094 7.71796 17.6014 6.95102 20.2504 6.94922C21.019 6.9491 21.7862 7.01286 22.5442 7.13984C22.8696 7.1912 23.2022 7.11196 23.4696 6.91936C23.737 6.72676 23.9175 6.43637 23.9718 6.11138C24.0262 5.78638 23.9501 5.45306 23.7599 5.18392C23.5698 4.91479 23.2811 4.7316 22.9567 4.67422C19.562 4.10315 16.0738 4.62568 12.9955 6.16637C9.91717 7.70705 7.40816 10.1862 5.8307 13.2458C4.25323 16.3054 3.68893 19.7871 4.21928 23.1884C4.74962 26.5896 6.34717 29.7343 8.78126 32.1684C11.2154 34.6025 14.36 36.2 17.7613 36.7304C21.1625 37.2607 24.6442 36.6964 27.7038 35.1189C30.7635 33.5415 33.2426 31.0325 34.7833 27.9542C36.3239 24.8759 36.8465 21.3876 36.2754 17.993C36.2207 17.666 36.0383 17.3742 35.7685 17.1817C35.4986 16.9892 35.1633 16.9117 34.8363 16.9664ZM15.2504 19.4492C15.2504 18.4603 15.5437 17.4936 16.0931 16.6714C16.6425 15.8491 17.4234 15.2083 18.337 14.8298C19.2506 14.4514 20.256 14.3524 21.2259 14.5453C22.1958 14.7382 23.0867 15.2144 23.7859 15.9137C24.4852 16.6129 24.9614 17.5039 25.1543 18.4738C25.3473 19.4437 25.2482 20.449 24.8698 21.3626C24.4914 22.2763 23.8505 23.0572 23.0283 23.6066C22.206 24.156 21.2393 24.4492 20.2504 24.4492C18.9243 24.4492 17.6526 23.9224 16.7149 22.9848C15.7772 22.0471 15.2504 20.7753 15.2504 19.4492ZM11.8254 31.5586C12.7297 30.1443 13.9754 28.9805 15.4478 28.1743C16.9202 27.3681 18.5718 26.9456 20.2504 26.9456C21.929 26.9456 23.5807 27.3681 25.053 28.1743C26.5254 28.9805 27.7711 30.1443 28.6754 31.5586C26.2666 33.432 23.302 34.4491 20.2504 34.4491C17.1988 34.4491 14.2343 33.432 11.8254 31.5586Z" fill="url(#paint0_linear_11030_101987)"/>
</g>
<defs>
<linearGradient id="paint0_linear_11030_101987" x1="12.7637" y1="20.3742" x2="28.3491" y2="20.4506" gradientUnits="userSpaceOnUse">
<stop stop-color="#583EE7"/>
<stop offset="0.484375" stop-color="#0EA0E6"/>
<stop offset="1" stop-color="#00B6AE"/>
</linearGradient>
</defs>
</svg>
