<svg width="20" height="19" viewBox="0 0 20 19" fill="none" xmlns="http://www.w3.org/2000/svg">
<path d="M0.214379 6.6114C0.0744932 6.74827 -0.00259025 6.93242 6.64639e-05 7.12337C0.00272317 7.31432 0.0849026 7.49645 0.228547 7.62975L4.56645 11.6559L3.5416 17.3411L0.531696 6.93686M0.214379 6.6114L0.531095 6.93744C0.531295 6.93725 0.531496 6.93705 0.531696 6.93686M0.214379 6.6114C0.330088 6.499 0.481218 6.42482 0.646516 6.40234L0.214379 6.6114ZM0.531696 6.93686C0.478675 6.98903 0.453694 7.05422 0.454568 7.11704C0.455446 7.18014 0.482479 7.24528 0.537736 7.29656L0.537766 7.29659L4.87567 11.3228L5.05789 11.4919L5.01379 11.7366L3.98894 17.4218L3.98882 17.4224C3.98079 17.4666 3.98573 17.5124 4.00409 17.5555C4.02254 17.5987 4.05477 17.6394 4.10017 17.6708C4.14574 17.7023 4.20181 17.7224 4.26215 17.7265C4.32251 17.7306 4.38191 17.7184 4.43316 17.6926L4.43385 17.6922L9.7966 15.0081L10 14.9063L10.2035 15.0081L15.5662 17.6922L15.5683 17.6933C15.6257 17.7224 15.6974 17.7339 15.7679 17.7222L15.7685 17.7221C15.9503 17.6923 16.033 17.5425 16.0112 17.4221L16.0112 17.4218L14.9863 11.7366L14.9422 11.4919L15.1244 11.3228L19.4615 7.29739C19.4616 7.29726 19.4618 7.29712 19.4619 7.29699C19.5082 7.25367 19.534 7.20195 19.5416 7.15091L19.5424 7.14564L19.5425 7.14565C19.5613 7.0292 19.4776 6.87918 19.2904 6.85247C19.2903 6.85245 19.2901 6.85243 19.2899 6.8524L13.2957 6.02308L13.0626 5.99083L12.9544 5.78194L10.2742 0.60927L10.274 0.608868C10.2483 0.559173 10.2035 0.514377 10.1425 0.485815L10.142 0.485573C9.97986 0.409356 9.79415 0.480549 9.72517 0.610692C9.72503 0.610965 9.72488 0.611238 9.72474 0.611512L7.04571 5.78194L6.93747 5.99083L6.70442 6.02308L0.708811 6.85259L0.707769 6.85274C0.63843 6.86216 0.577231 6.89288 0.531696 6.93686Z" fill="url(#paint0_linear_18427_4280)" stroke="#FAC817" stroke-width="0.909091"/>
<defs>
<linearGradient id="paint0_linear_18427_4280" x1="14.5344" y1="9.01544" x2="125.363" y2="9.01545" gradientUnits="userSpaceOnUse">
<stop stop-color="#FAC817"/>
<stop offset="0.807292" stop-color="#FAC817"/>
<stop offset="0.848958" stop-color="#FAC817" stop-opacity="0"/>
</linearGradient>
</defs>
</svg>
