<svg width="33" height="32" viewBox="0 0 33 32" fill="none" xmlns="http://www.w3.org/2000/svg">
<g id="WhatsappLogo">
<path id="Vector" d="M23.9464 18.105L19.9464 16.105C19.789 16.0265 19.6136 15.991 19.438 16.002C19.2625 16.0129 19.0929 16.07 18.9464 16.1675L17.1102 17.3925C16.2672 16.9291 15.5736 16.2354 15.1102 15.3925L16.3352 13.5562C16.4326 13.4098 16.4897 13.2402 16.5007 13.0646C16.5117 12.8891 16.4761 12.7137 16.3977 12.5562L14.3977 8.55625C14.3148 8.38884 14.1867 8.248 14.0278 8.14968C13.869 8.05137 13.6857 7.99952 13.4989 8C12.1728 8 10.9011 8.52678 9.9634 9.46447C9.02572 10.4021 8.49893 11.6739 8.49893 13C8.50224 15.9164 9.66223 18.7123 11.7244 20.7745C13.7866 22.8367 16.5826 23.9967 19.4989 24C20.1555 24 20.8057 23.8707 21.4123 23.6194C22.019 23.3681 22.5702 22.9998 23.0345 22.5355C23.4988 22.0712 23.8671 21.52 24.1183 20.9134C24.3696 20.3068 24.4989 19.6566 24.4989 19C24.4991 18.8142 24.4474 18.6321 24.3499 18.474C24.2523 18.3159 24.1126 18.1881 23.9464 18.105ZM19.4989 22C17.1128 21.9974 14.8251 21.0483 13.1379 19.361C11.4506 17.6738 10.5016 15.3861 10.4989 13C10.4987 12.3064 10.7389 11.6342 11.1785 11.0977C11.6181 10.5612 12.2301 10.1936 12.9102 10.0575L14.3452 12.9325L13.1239 14.75C13.0327 14.8869 12.9766 15.0442 12.9607 15.2079C12.9448 15.3717 12.9695 15.5368 13.0327 15.6888C13.7482 17.3892 15.101 18.742 16.8014 19.4575C16.9538 19.5235 17.1202 19.5505 17.2856 19.5361C17.451 19.5217 17.6103 19.4663 17.7489 19.375L19.5752 18.1575L22.4502 19.5925C22.313 20.2734 21.9438 20.8856 21.4056 21.3247C20.8674 21.7637 20.1935 22.0024 19.4989 22ZM16.4989 3C14.2545 2.99951 12.0482 3.58011 10.0947 4.68529C8.14129 5.79046 6.50724 7.38256 5.35165 9.30662C4.19605 11.2307 3.55828 13.4212 3.50042 15.6648C3.44255 17.9085 3.96656 20.1289 5.02143 22.11L3.60268 26.3662C3.48516 26.7186 3.46811 27.0968 3.55343 27.4583C3.63875 27.8199 3.82308 28.1505 4.08575 28.4132C4.34842 28.6759 4.67905 28.8602 5.04059 28.9455C5.40213 29.0308 5.78029 29.0138 6.13268 28.8962L10.3889 27.4775C12.1324 28.4048 14.0642 28.9228 16.0377 28.992C18.0112 29.0613 19.9746 28.68 21.7788 27.8772C23.5829 27.0743 25.1805 25.871 26.4502 24.3586C27.7199 22.8462 28.6283 21.0644 29.1066 19.1484C29.5848 17.2325 29.6203 15.2328 29.2103 13.301C28.8004 11.3693 27.9557 9.55642 26.7405 7.9999C25.5252 6.44337 23.9714 5.18415 22.1968 4.31782C20.4223 3.45149 18.4737 3.00081 16.4989 3ZM16.4989 27C14.5652 27.0013 12.6653 26.4921 10.9914 25.5238C10.8689 25.4527 10.7326 25.4085 10.5917 25.394C10.4507 25.3796 10.3084 25.3953 10.1739 25.44L5.49893 27L7.05768 22.325C7.10261 22.1907 7.11849 22.0483 7.10427 21.9074C7.09005 21.7665 7.04605 21.6301 6.97518 21.5075C5.76265 19.4111 5.27582 16.9732 5.59022 14.572C5.90462 12.1707 7.00267 9.94027 8.71404 8.22674C10.4254 6.51321 12.6544 5.41234 15.0553 5.0949C17.4562 4.77747 19.8947 5.26122 21.9926 6.47111C24.0905 7.68099 25.7305 9.54939 26.6581 11.7864C27.5858 14.0235 27.7493 16.5042 27.1232 18.8436C26.4972 21.1831 25.1166 23.2505 23.1956 24.7253C21.2747 26.2 18.9207 26.9996 16.4989 27Z" fill="url(#paint0_linear_5813_79140)"/>
</g>
<defs>
<linearGradient id="paint0_linear_5813_79140" x1="10.4829" y1="16" x2="22.9445" y2="16.0621" gradientUnits="userSpaceOnUse">
<stop stop-color="#583EE7"/>
<stop offset="0.484375" stop-color="#0EA0E6"/>
<stop offset="1" stop-color="#00B6AE"/>
</linearGradient>
</defs>
</svg>
