<svg width="22" height="22" viewBox="0 0 22 22" fill="none" xmlns="http://www.w3.org/2000/svg">
<g id="WhatsappLogo">
<path id="Vector" d="M16.1182 12.4472L13.3682 11.0722C13.26 11.0182 13.1394 10.9938 13.0187 11.0014C12.898 11.0089 12.7814 11.0482 12.6807 11.1152L11.4183 11.9573C10.8388 11.6388 10.3619 11.1619 10.0433 10.5823L10.8855 9.31992C10.9525 9.21923 10.9917 9.10265 10.9993 8.98194C11.0068 8.86123 10.9824 8.74067 10.9284 8.63242L9.55344 5.88242C9.49644 5.76733 9.40835 5.6705 9.29914 5.60291C9.18993 5.53532 9.06398 5.49967 8.93554 5.5C8.02386 5.5 7.14952 5.86216 6.50487 6.50682C5.86021 7.15148 5.49804 8.02582 5.49804 8.9375C5.50032 10.9425 6.29781 12.8647 7.71556 14.2825C9.13331 15.7002 11.0555 16.4977 13.0605 16.5C13.512 16.5 13.959 16.4111 14.376 16.2383C14.7931 16.0656 15.172 15.8124 15.4912 15.4932C15.8104 15.174 16.0636 14.795 16.2364 14.378C16.4091 13.9609 16.498 13.5139 16.498 13.0625C16.4981 12.9348 16.4626 12.8096 16.3956 12.7009C16.3285 12.5922 16.2324 12.5043 16.1182 12.4472ZM13.0605 15.125C11.4201 15.1232 9.84732 14.4707 8.68733 13.3107C7.52734 12.1507 6.87486 10.578 6.87304 8.9375C6.87291 8.46065 7.03801 7.99848 7.34025 7.62965C7.6425 7.26082 8.0632 7.00811 8.53078 6.91453L9.51734 8.89109L8.67773 10.1406C8.61499 10.2347 8.57644 10.3429 8.5655 10.4555C8.55455 10.568 8.57156 10.6816 8.615 10.786C9.10689 11.9551 10.0369 12.8851 11.206 13.377C11.3108 13.4224 11.4252 13.441 11.5389 13.4311C11.6526 13.4212 11.7621 13.3831 11.8574 13.3203L13.113 12.4833L15.0895 13.4698C14.9952 13.938 14.7414 14.3589 14.3714 14.6607C14.0014 14.9625 13.5381 15.1266 13.0605 15.125ZM10.998 2.0625C9.45501 2.06216 7.93817 2.46133 6.59517 3.22113C5.25217 3.98094 4.12876 5.07551 3.33429 6.3983C2.53982 7.7211 2.10135 9.22704 2.06157 10.7696C2.02178 12.3121 2.38204 13.8386 3.10726 15.2006L2.13187 18.1268C2.05108 18.3691 2.03935 18.6291 2.09801 18.8776C2.15667 19.1262 2.28339 19.3535 2.46398 19.5341C2.64456 19.7147 2.87188 19.8414 3.12043 19.9C3.36899 19.9587 3.62898 19.947 3.87125 19.8662L6.79742 18.8908C7.99605 19.5283 9.32417 19.8844 10.681 19.932C12.0378 19.9796 13.3876 19.7175 14.6279 19.1656C15.8683 18.6136 16.9666 17.7863 17.8395 16.7465C18.7125 15.7067 19.337 14.4817 19.6658 13.1645C19.9946 11.8473 20.019 10.4725 19.7371 9.14447C19.4553 7.81642 18.8746 6.57004 18.0391 5.49993C17.2036 4.42982 16.1353 3.5641 14.9153 2.9685C13.6953 2.3729 12.3557 2.06306 10.998 2.0625ZM10.998 18.5625C9.66857 18.5634 8.36243 18.2133 7.21164 17.5476C7.12738 17.4987 7.0337 17.4683 6.93681 17.4584C6.83992 17.4485 6.74202 17.4592 6.64961 17.49L3.43554 18.5625L4.50719 15.3484C4.53808 15.2561 4.54899 15.1582 4.53922 15.0613C4.52944 14.9644 4.49919 14.8707 4.45047 14.7864C3.61685 13.3452 3.28215 11.6691 3.4983 10.0182C3.71445 8.36734 4.46937 6.83394 5.64593 5.65588C6.8225 4.47783 8.35495 3.72098 10.0055 3.50275C11.6561 3.28451 13.3326 3.61709 14.7749 4.44888C16.2172 5.28068 17.3447 6.5652 17.9825 8.10318C18.6203 9.64115 18.7327 11.3466 18.3022 12.955C17.8718 14.5634 16.9227 15.9847 15.602 16.9986C14.2814 18.0125 12.663 18.5622 10.998 18.5625Z" fill="url(#paint0_linear_5910_65749)"/>
</g>
<defs>
<linearGradient id="paint0_linear_5910_65749" x1="6.86204" y1="11" x2="15.4294" y2="11.0427" gradientUnits="userSpaceOnUse">
<stop stop-color="#583EE7"/>
<stop offset="0.484375" stop-color="#0EA0E6"/>
<stop offset="1" stop-color="#00B6AE"/>
</linearGradient>
</defs>
</svg>
