<svg width="32" height="33" viewBox="0 0 32 33" fill="none" xmlns="http://www.w3.org/2000/svg">
<g id="Briefcase">
<path id="Vector" d="M27 7.5H22V6.5C22 5.70435 21.6839 4.94129 21.1213 4.37868C20.5587 3.81607 19.7956 3.5 19 3.5H13C12.2044 3.5 11.4413 3.81607 10.8787 4.37868C10.3161 4.94129 10 5.70435 10 6.5V7.5H5C4.46957 7.5 3.96086 7.71071 3.58579 8.08579C3.21071 8.46086 3 8.96957 3 9.5V25.5C3 26.0304 3.21071 26.5391 3.58579 26.9142C3.96086 27.2893 4.46957 27.5 5 27.5H27C27.5304 27.5 28.0391 27.2893 28.4142 26.9142C28.7893 26.5391 29 26.0304 29 25.5V9.5C29 8.96957 28.7893 8.46086 28.4142 8.08579C28.0391 7.71071 27.5304 7.5 27 7.5ZM12 6.5C12 6.23478 12.1054 5.98043 12.2929 5.79289C12.4804 5.60536 12.7348 5.5 13 5.5H19C19.2652 5.5 19.5196 5.60536 19.7071 5.79289C19.8946 5.98043 20 6.23478 20 6.5V7.5H12V6.5ZM27 9.5V14.7013C23.6247 16.5385 19.8429 17.5007 16 17.5C12.1573 17.5007 8.37553 16.5389 5 14.7025V9.5H27ZM27 25.5H5V16.955C8.42491 18.6302 12.1873 19.5007 16 19.5C19.8127 19.5001 23.5751 18.6292 27 16.9538V25.5ZM13 14.5C13 14.2348 13.1054 13.9804 13.2929 13.7929C13.4804 13.6054 13.7348 13.5 14 13.5H18C18.2652 13.5 18.5196 13.6054 18.7071 13.7929C18.8946 13.9804 19 14.2348 19 14.5C19 14.7652 18.8946 15.0196 18.7071 15.2071C18.5196 15.3946 18.2652 15.5 18 15.5H14C13.7348 15.5 13.4804 15.3946 13.2929 15.2071C13.1054 15.0196 13 14.7652 13 14.5Z" fill="url(#paint0_linear_14425_156610)"/>
</g>
<defs>
<linearGradient id="paint0_linear_14425_156610" x1="9.9875" y1="15.5" x2="22.4502" y2="15.5673" gradientUnits="userSpaceOnUse">
<stop stop-color="#583EE7"/>
<stop offset="0.484375" stop-color="#0EA0E6"/>
<stop offset="1" stop-color="#00B6AE"/>
</linearGradient>
</defs>
</svg>
