<svg width="40" height="41" viewBox="0 0 40 41" fill="none" xmlns="http://www.w3.org/2000/svg">
<g id="Laptop">
<path id="Vector" d="M36.25 26.75H35V11.75C35 10.7554 34.6049 9.80161 33.9017 9.09835C33.1984 8.39509 32.2446 8 31.25 8H8.75C7.75544 8 6.80161 8.39509 6.09835 9.09835C5.39509 9.80161 5 10.7554 5 11.75V26.75H3.75C3.41848 26.75 3.10054 26.8817 2.86612 27.1161C2.6317 27.3505 2.5 27.6685 2.5 28V30.5C2.5 31.4946 2.89509 32.4484 3.59835 33.1517C4.30161 33.8549 5.25544 34.25 6.25 34.25H33.75C34.7446 34.25 35.6984 33.8549 36.4016 33.1517C37.1049 32.4484 37.5 31.4946 37.5 30.5V28C37.5 27.6685 37.3683 27.3505 37.1339 27.1161C36.8995 26.8817 36.5815 26.75 36.25 26.75ZM7.5 11.75C7.5 11.4185 7.6317 11.1005 7.86612 10.8661C8.10054 10.6317 8.41848 10.5 8.75 10.5H31.25C31.5815 10.5 31.8995 10.6317 32.1339 10.8661C32.3683 11.1005 32.5 11.4185 32.5 11.75V26.75H7.5V11.75ZM35 30.5C35 30.8315 34.8683 31.1495 34.6339 31.3839C34.3995 31.6183 34.0815 31.75 33.75 31.75H6.25C5.91848 31.75 5.60054 31.6183 5.36612 31.3839C5.1317 31.1495 5 30.8315 5 30.5V29.25H35V30.5ZM23.75 14.25C23.75 14.5815 23.6183 14.8995 23.3839 15.1339C23.1495 15.3683 22.8315 15.5 22.5 15.5H17.5C17.1685 15.5 16.8505 15.3683 16.6161 15.1339C16.3817 14.8995 16.25 14.5815 16.25 14.25C16.25 13.9185 16.3817 13.6005 16.6161 13.3661C16.8505 13.1317 17.1685 13 17.5 13H22.5C22.8315 13 23.1495 13.1317 23.3839 13.3661C23.6183 13.6005 23.75 13.9185 23.75 14.25Z" fill="url(#paint0_linear_10205_84416)"/>
</g>
<defs>
<linearGradient id="paint0_linear_10205_84416" x1="11.9062" y1="21.125" x2="28.6827" y2="21.2365" gradientUnits="userSpaceOnUse">
<stop stop-color="#583EE7"/>
<stop offset="0.484375" stop-color="#0EA0E6"/>
<stop offset="1" stop-color="#00B6AE"/>
</linearGradient>
</defs>
</svg>
