<svg width="19" height="24" viewBox="0 0 19 24" fill="none" xmlns="http://www.w3.org/2000/svg">
<path id="Vector" d="M9.42867 5.14291C8.58102 5.14291 7.75242 5.39426 7.04763 5.86519C6.34284 6.33611 5.79352 7.00546 5.46914 7.78858C5.14476 8.5717 5.05989 9.43342 5.22526 10.2648C5.39062 11.0961 5.7988 11.8598 6.39818 12.4592C6.99755 13.0585 7.7612 13.4667 8.59256 13.6321C9.42391 13.7974 10.2856 13.7126 11.0688 13.3882C11.8519 13.0638 12.5212 12.5145 12.9921 11.8097C13.4631 11.1049 13.7144 10.2763 13.7144 9.42867C13.7144 8.29201 13.2629 7.20191 12.4592 6.39818C11.6554 5.59444 10.5653 5.14291 9.42867 5.14291ZM9.42867 12.0001C8.92008 12.0001 8.42292 11.8493 8.00004 11.5668C7.57717 11.2842 7.24758 10.8826 7.05295 10.4127C6.85832 9.94285 6.8074 9.42581 6.90662 8.927C7.00584 8.42819 7.25075 7.97 7.61037 7.61037C7.97 7.25075 8.42819 7.00584 8.927 6.90662C9.42581 6.8074 9.94285 6.85832 10.4127 7.05295C10.8826 7.24758 11.2842 7.57717 11.5668 8.00004C11.8493 8.42292 12.0001 8.92008 12.0001 9.42867C12.0001 10.1107 11.7292 10.7647 11.247 11.247C10.7647 11.7292 10.1107 12.0001 9.42867 12.0001ZM9.42867 0C6.9289 0.00283581 4.53233 0.997121 2.76472 2.76472C0.997121 4.53233 0.00283581 6.9289 0 9.42867C0 12.793 1.55466 16.3587 4.50005 19.7413C5.82351 21.2697 7.31306 22.6461 8.94116 23.8449C9.08528 23.9458 9.25698 24 9.43295 24C9.60892 24 9.78062 23.9458 9.92474 23.8449C11.5498 22.6456 13.0365 21.2693 14.3573 19.7413C17.2984 16.3587 18.8573 12.793 18.8573 9.42867C18.8545 6.9289 17.8602 4.53233 16.0926 2.76472C14.325 0.997121 11.9284 0.00283581 9.42867 0ZM9.42867 22.0716C7.65758 20.6788 1.7143 15.5627 1.7143 9.42867C1.7143 7.38269 2.52706 5.42051 3.97379 3.97379C5.42051 2.52706 7.38269 1.7143 9.42867 1.7143C11.4746 1.7143 13.4368 2.52706 14.8835 3.97379C16.3303 5.42051 17.143 7.38269 17.143 9.42867C17.143 15.5605 11.1998 20.6788 9.42867 22.0716Z" fill="#3769FF"/>
</svg>
