<svg width="32" height="22" viewBox="0 0 32 22" fill="none" xmlns="http://www.w3.org/2000/svg">
<path id="Vector" d="M14.6282 21.2461C14.5741 21.4624 14.4493 21.6545 14.2736 21.7917C14.0978 21.929 13.8812 22.0035 13.6582 22.0036C13.574 22.004 13.49 21.9939 13.4082 21.9736L9.40822 20.9736C9.29686 20.9456 9.19115 20.8987 9.09572 20.8348L6.09572 18.8348C5.87509 18.6876 5.72198 18.4588 5.67005 18.1987C5.61813 17.9386 5.67165 17.6686 5.81885 17.4479C5.96604 17.2273 6.19485 17.0742 6.45494 17.0223C6.71503 16.9703 6.98509 17.0239 7.20572 17.1711L10.0607 19.0748L13.8932 20.0336C14.0213 20.0646 14.1419 20.1206 14.2482 20.1985C14.3546 20.2763 14.4445 20.3743 14.5128 20.487C14.5811 20.5997 14.6264 20.7248 14.6462 20.855C14.6661 20.9853 14.6599 21.1182 14.6282 21.2461ZM31.2145 9.18856C31.1324 9.43778 31.0018 9.66828 30.8302 9.86674C30.6585 10.0652 30.4493 10.2277 30.2145 10.3448L27.2545 11.8248L20.3695 18.7111C20.2473 18.8331 20.0955 18.9215 19.9291 18.9675C19.7626 19.0135 19.587 19.0156 19.4195 18.9736L11.4195 16.9736C11.2978 16.943 11.1829 16.89 11.0807 16.8173L4.14072 11.8623L1.10572 10.3448C0.63139 10.1077 0.270647 9.6919 0.102812 9.18886C-0.0650228 8.68583 -0.0262085 8.13673 0.21072 7.66231L3.31697 1.45106C3.55409 0.976726 3.96988 0.615982 4.47291 0.448147C4.97595 0.280313 5.52505 0.319127 5.99947 0.556056L8.75697 1.93106L15.382 0.0385558C15.5617 -0.0128519 15.7522 -0.0128519 15.932 0.0385558L22.557 1.93106L25.3145 0.556056C25.7889 0.319127 26.338 0.280313 26.841 0.448147C27.3441 0.615982 27.7599 0.976726 27.997 1.45106L31.1032 7.66231C31.2217 7.89673 31.2925 8.15232 31.3116 8.4143C31.3307 8.67627 31.2977 8.93943 31.2145 9.18856ZM25.442 10.8061L22.0407 4.00356H18.0632L12.6582 9.25356C14.2407 10.2648 16.722 10.5436 18.9482 8.29981C19.1221 8.12455 19.3546 8.01981 19.6011 8.00573C19.8476 7.99165 20.0905 8.06924 20.2832 8.22356L24.5845 11.6698L25.442 10.8061ZM1.99947 8.55606L4.21072 9.66231L7.31697 3.45106L5.10572 2.34481L1.99947 8.55606ZM23.1582 13.0861L19.6945 10.3123C17.252 12.3123 14.1507 12.5761 11.5807 10.9373C11.3279 10.7765 11.1145 10.5609 10.9562 10.3066C10.7978 10.0522 10.6987 9.7655 10.6661 9.46766C10.6334 9.16983 10.6681 8.86847 10.7676 8.58584C10.8671 8.30322 11.0287 8.04655 11.2407 7.83481C11.2437 7.83117 11.2471 7.82782 11.2507 7.82481L16.8582 2.38606L15.6582 2.04356L9.35572 3.84481L5.93447 10.6861L12.0845 15.0798L19.352 16.8961L23.1582 13.0861ZM29.3132 8.55606L26.2107 2.34481L23.9995 3.45106L27.1057 9.66231L29.3132 8.55606Z" fill="#3769FF"/>
</svg>
