<svg width="41" height="40" viewBox="0 0 41 40" fill="none" xmlns="http://www.w3.org/2000/svg">
<g id="bx:world">
<path id="Vector" d="M20.6672 3.33325C11.4772 3.33325 4.00049 10.8099 4.00049 19.9999C4.00049 29.1899 11.4772 36.6666 20.6672 36.6666C29.8572 36.6666 37.3338 29.1899 37.3338 19.9999C37.3338 10.8099 29.8572 3.33325 20.6672 3.33325ZM7.33382 19.9999C7.33382 18.5016 7.59382 17.0633 8.05216 15.7183L10.6672 18.3333L14.0005 21.6666V24.9999L17.3338 28.3333L19.0005 29.9999V33.2183C12.4355 32.3933 7.33382 26.7866 7.33382 19.9999ZM31.2172 28.1216C30.1288 27.2449 28.4788 26.6666 27.3338 26.6666V24.9999C27.3338 24.1159 26.9826 23.268 26.3575 22.6429C25.7324 22.0178 24.8845 21.6666 24.0005 21.6666H17.3338V16.6666C18.2179 16.6666 19.0657 16.3154 19.6908 15.6903C20.316 15.0652 20.6672 14.2173 20.6672 13.3333V11.6666H22.3338C23.2179 11.6666 24.0657 11.3154 24.6908 10.6903C25.316 10.0652 25.6672 9.21731 25.6672 8.33325V7.64825C30.5472 9.62992 34.0005 14.4166 34.0005 19.9999C34.0002 22.9411 33.0209 25.7985 31.2172 28.1216Z" fill="url(#paint0_linear_2439_20135)"/>
</g>
<defs>
<linearGradient id="paint0_linear_2439_20135" x1="12.9588" y1="19.9999" x2="28.9367" y2="20.0796" gradientUnits="userSpaceOnUse">
<stop stop-color="#583EE7"/>
<stop offset="0.484375" stop-color="#0EA0E6"/>
<stop offset="1" stop-color="#00B6AE"/>
</linearGradient>
</defs>
</svg>
