<svg width="20" height="20" viewBox="0 0 20 20" fill="none" xmlns="http://www.w3.org/2000/svg">
<g id="mdi:calendar-outline">
<path id="Vector" d="M10 9.99992H14.1667V14.1666H10V9.99992ZM15.8333 2.49992H15V0.833252H13.3333V2.49992H6.66667V0.833252H5V2.49992H4.16667C3.25 2.49992 2.5 3.24992 2.5 4.16658V15.8332C2.5 16.7499 3.25 17.4999 4.16667 17.4999H15.8333C16.75 17.4999 17.5 16.7499 17.5 15.8332V4.16658C17.5 3.24992 16.75 2.49992 15.8333 2.49992ZM15.8333 4.16658V5.83325H4.16667V4.16658H15.8333ZM4.16667 15.8332V7.49992H15.8333V15.8332H4.16667Z" fill="url(#paint0_linear_2439_21918)"/>
</g>
<defs>
<linearGradient id="paint0_linear_2439_21918" x1="6.53125" y1="9.16658" x2="13.7213" y2="9.19885" gradientUnits="userSpaceOnUse">
<stop stop-color="#583EE7"/>
<stop offset="0.484375" stop-color="#0EA0E6"/>
<stop offset="1" stop-color="#00B6AE"/>
</linearGradient>
</defs>
</svg>
