<svg width="19" height="18" viewBox="0 0 19 18" fill="none" xmlns="http://www.w3.org/2000/svg">
<g id="ic:round-compare-arrows">
<path id="Vector" d="M6.76726 10.4999H2.25977C1.84727 10.4999 1.50977 10.8374 1.50977 11.2499C1.50977 11.6624 1.84727 11.9999 2.25977 11.9999H6.76726V13.3424C6.76726 13.6799 7.17226 13.8449 7.40476 13.6049L9.48976 11.5124C9.63226 11.3624 9.63226 11.1299 9.48976 10.9799L7.40476 8.8874C7.17226 8.6474 6.76726 8.8199 6.76726 9.1499V10.4999ZM11.2523 8.8424V7.4999H15.7598C16.1723 7.4999 16.5098 7.1624 16.5098 6.7499C16.5098 6.3374 16.1723 5.9999 15.7598 5.9999H11.2523V4.6574C11.2523 4.3199 10.8473 4.1549 10.6148 4.3949L8.52976 6.4874C8.38726 6.6374 8.38726 6.8699 8.52976 7.0199L10.6148 9.1124C10.6676 9.16423 10.7347 9.19924 10.8074 9.21304C10.8801 9.22683 10.9553 9.21878 11.0235 9.18991C11.0917 9.16103 11.1498 9.11263 11.1905 9.05079C11.2312 8.98894 11.2527 8.91644 11.2523 8.8424Z" fill="#3769FF"/>
</g>
</svg>
