<svg width="26" height="26" viewBox="0 0 26 26" fill="none" xmlns="http://www.w3.org/2000/svg">
<g id="ph:download">
<path id="Vector" d="M24.2735 13.7121V20.0351C24.2735 20.4543 24.107 20.8564 23.8106 21.1528C23.5141 21.4493 23.112 21.6158 22.6928 21.6158H3.72381C3.30457 21.6158 2.9025 21.4493 2.60606 21.1528C2.30961 20.8564 2.14307 20.4543 2.14307 20.0351V13.7121C2.14307 13.2928 2.30961 12.8907 2.60606 12.5943C2.9025 12.2979 3.30457 12.1313 3.72381 12.1313H7.67569C7.88531 12.1313 8.08634 12.2146 8.23457 12.3628C8.38279 12.511 8.46606 12.7121 8.46606 12.9217C8.46606 13.1313 8.38279 13.3323 8.23457 13.4806C8.08634 13.6288 7.88531 13.7121 7.67569 13.7121H3.72381V20.0351H22.6928V13.7121H18.7409C18.5313 13.7121 18.3303 13.6288 18.182 13.4806C18.0338 13.3323 17.9506 13.1313 17.9506 12.9217C17.9506 12.7121 18.0338 12.511 18.182 12.3628C18.3303 12.2146 18.5313 12.1313 18.7409 12.1313H22.6928C23.112 12.1313 23.5141 12.2979 23.8106 12.5943C24.107 12.8907 24.2735 13.2928 24.2735 13.7121ZM12.6491 13.4809C12.7225 13.5544 12.8097 13.6127 12.9056 13.6524C13.0016 13.6922 13.1044 13.7127 13.2083 13.7127C13.3122 13.7127 13.415 13.6922 13.511 13.6524C13.6069 13.6127 13.6941 13.5544 13.7675 13.4809L18.5097 8.73863C18.658 8.59032 18.7414 8.38918 18.7414 8.17944C18.7414 7.9697 18.658 7.76856 18.5097 7.62025C18.3614 7.47194 18.1603 7.38863 17.9506 7.38863C17.7408 7.38863 17.5397 7.47194 17.3914 7.62025L13.9987 11.0139V2.64682C13.9987 2.4372 13.9154 2.23616 13.7672 2.08794C13.619 1.93972 13.4179 1.85645 13.2083 1.85645C12.9987 1.85645 12.7977 1.93972 12.6494 2.08794C12.5012 2.23616 12.4179 2.4372 12.4179 2.64682V11.0139L9.02525 7.62025C8.87694 7.47194 8.6758 7.38863 8.46606 7.38863C8.25632 7.38863 8.05518 7.47194 7.90687 7.62025C7.75856 7.76856 7.67525 7.9697 7.67525 8.17944C7.67525 8.38918 7.75856 8.59032 7.90687 8.73863L12.6491 13.4809ZM20.3217 16.8736C20.3217 16.6391 20.2521 16.4099 20.1219 16.2149C19.9916 16.0199 19.8064 15.868 19.5898 15.7782C19.3732 15.6885 19.1348 15.665 18.9048 15.7108C18.6748 15.7565 18.4636 15.8694 18.2978 16.0352C18.132 16.201 18.0191 16.4123 17.9733 16.6423C17.9276 16.8722 17.9511 17.1106 18.0408 17.3273C18.1305 17.5439 18.2825 17.729 18.4775 17.8593C18.6724 17.9896 18.9016 18.0591 19.1361 18.0591C19.4505 18.0591 19.7521 17.9342 19.9744 17.7119C20.1968 17.4895 20.3217 17.188 20.3217 16.8736Z" fill="#3769FF"/>
</g>
</svg>
