<svg width="41" height="40" viewBox="0 0 41 40" fill="none" xmlns="http://www.w3.org/2000/svg">
<g id="heroicons:currency-rupee-solid">
<path id="Vector" fill-rule="evenodd" clip-rule="evenodd" d="M20.5 3.75C11.525 3.75 4.25 11.025 4.25 20C4.25 28.975 11.525 36.25 20.5 36.25C29.475 36.25 36.75 28.975 36.75 20C36.75 11.025 29.475 3.75 20.5 3.75ZM15.5 12.5C15.1685 12.5 14.8505 12.6317 14.6161 12.8661C14.3817 13.1005 14.25 13.4185 14.25 13.75C14.25 14.0815 14.3817 14.3995 14.6161 14.6339C14.8505 14.8683 15.1685 15 15.5 15H18C19.6333 15 21.0217 16.0433 21.5367 17.5H15.5C15.1685 17.5 14.8505 17.6317 14.6161 17.8661C14.3817 18.1005 14.25 18.4185 14.25 18.75C14.25 19.0815 14.3817 19.3995 14.6161 19.6339C14.8505 19.8683 15.1685 20 15.5 20H21.5367C21.2779 20.7312 20.7989 21.3642 20.1655 21.8119C19.5322 22.2596 18.7756 22.5 18 22.5H15.5C15.2529 22.5002 15.0115 22.5736 14.8061 22.711C14.6008 22.8484 14.4407 23.0435 14.3462 23.2718C14.2517 23.5001 14.2269 23.7512 14.2751 23.9936C14.3232 24.2359 14.4421 24.4585 14.6167 24.6333L19.6167 29.6333C19.7311 29.7561 19.8691 29.8546 20.0224 29.923C20.1758 29.9913 20.3413 30.028 20.5091 30.031C20.677 30.0339 20.8437 30.0031 20.9993 29.9402C21.155 29.8773 21.2964 29.7838 21.4151 29.6651C21.5338 29.5464 21.6273 29.405 21.6902 29.2493C21.7531 29.0937 21.7839 28.927 21.781 28.7591C21.778 28.5913 21.7413 28.4258 21.673 28.2724C21.6046 28.1191 21.5061 27.9811 21.3833 27.8667L18.5 24.98C19.8505 24.8713 21.1293 24.327 22.1437 23.4289C23.1582 22.5307 23.8535 21.3274 24.125 20H25.5C25.8315 20 26.1495 19.8683 26.3839 19.6339C26.6183 19.3995 26.75 19.0815 26.75 18.75C26.75 18.4185 26.6183 18.1005 26.3839 17.8661C26.1495 17.6317 25.8315 17.5 25.5 17.5H24.125C23.9405 16.5934 23.5562 15.7393 23 15H25.5C25.8315 15 26.1495 14.8683 26.3839 14.6339C26.6183 14.3995 26.75 14.0815 26.75 13.75C26.75 13.4185 26.6183 13.1005 26.3839 12.8661C26.1495 12.6317 25.8315 12.5 25.5 12.5H15.5Z" fill="url(#paint0_linear_2439_20131)"/>
</g>
<defs>
<linearGradient id="paint0_linear_2439_20131" x1="12.9844" y1="20" x2="28.5628" y2="20.0777" gradientUnits="userSpaceOnUse">
<stop stop-color="#583EE7"/>
<stop offset="0.484375" stop-color="#0EA0E6"/>
<stop offset="1" stop-color="#00B6AE"/>
</linearGradient>
</defs>
</svg>
