<svg width="22" height="22" viewBox="0 0 22 22" fill="none" xmlns="http://www.w3.org/2000/svg">
<g id="groups_FILL0_wght400_GRAD0_opsz48 (1) 1" clip-path="url(#clip0_2439_22865)">
<path id="Vector" d="M0.000488281 16.5003V15.2857C0.000488281 14.6899 0.321321 14.2086 0.962986 13.8419C1.60465 13.4753 2.42965 13.2919 3.43798 13.2919C3.63659 13.2919 3.81992 13.2958 3.98798 13.3034C4.15603 13.311 4.32409 13.3301 4.49214 13.3607C4.36992 13.6204 4.27825 13.8839 4.21714 14.1513C4.15603 14.4187 4.12548 14.7051 4.12548 15.0107V16.5003H0.000488281ZM5.50047 16.5003V15.0107C5.50047 14.0176 6.00846 13.2155 7.02443 12.6044C8.0404 11.9933 9.36574 11.6878 11.0005 11.6878C12.6505 11.6878 13.9796 11.9933 14.9879 12.6044C15.9963 13.2155 16.5004 14.0176 16.5004 15.0107V16.5003H5.50047ZM17.8754 16.5003V15.0107C17.8754 14.7051 17.8487 14.4187 17.7952 14.1513C17.7418 13.8839 17.6539 13.6204 17.5317 13.3607C17.6997 13.3301 17.8678 13.311 18.0359 13.3034C18.2039 13.2958 18.3796 13.2919 18.5629 13.2919C19.6018 13.2919 20.4345 13.4753 21.0609 13.8419C21.6872 14.2086 22.0004 14.6899 22.0004 15.2857V16.5003H17.8754ZM11.0005 13.0628C9.77824 13.0628 8.78519 13.2461 8.0213 13.6128C7.25741 13.9794 6.87547 14.4454 6.87547 15.0107V15.1253H15.1254V14.9878C15.1254 14.4378 14.7473 13.9794 13.9911 13.6128C13.2348 13.2461 12.238 13.0628 11.0005 13.0628ZM3.43798 12.6044C2.99493 12.6044 2.6168 12.4478 2.30361 12.1346C1.99041 11.8214 1.83382 11.4433 1.83382 11.0003C1.83382 10.5572 1.99041 10.1791 2.30361 9.86588C2.6168 9.55269 2.99493 9.39609 3.43798 9.39609C3.88103 9.39609 4.25916 9.55269 4.57235 9.86588C4.88555 10.1791 5.04214 10.5572 5.04214 11.0003C5.04214 11.4433 4.88555 11.8214 4.57235 12.1346C4.25916 12.4478 3.88103 12.6044 3.43798 12.6044ZM18.5629 12.6044C18.1199 12.6044 17.7418 12.4478 17.4286 12.1346C17.1154 11.8214 16.9588 11.4433 16.9588 11.0003C16.9588 10.5572 17.1154 10.1791 17.4286 9.86588C17.7418 9.55269 18.1199 9.39609 18.5629 9.39609C19.006 9.39609 19.3841 9.55269 19.6973 9.86588C20.0105 10.1791 20.1671 10.5572 20.1671 11.0003C20.1671 11.4433 20.0105 11.8214 19.6973 12.1346C19.3841 12.4478 19.006 12.6044 18.5629 12.6044ZM11.0005 11.0003C10.2366 11.0003 9.58727 10.7329 9.05255 10.1982C8.51783 9.66345 8.25047 9.01414 8.25047 8.25025C8.25047 7.47108 8.51783 6.81796 9.05255 6.29087C9.58727 5.76379 10.2366 5.50024 11.0005 5.50024C11.7796 5.50024 12.4327 5.76379 12.9598 6.29087C13.4869 6.81796 13.7505 7.47108 13.7505 8.25025C13.7505 9.01414 13.4869 9.66345 12.9598 10.1982C12.4327 10.7329 11.7796 11.0003 11.0005 11.0003ZM11.0005 6.87525C10.6185 6.87525 10.2939 7.00511 10.0265 7.26483C9.75914 7.52456 9.62546 7.85303 9.62546 8.25025C9.62546 8.6322 9.75914 8.95685 10.0265 9.22421C10.2939 9.49158 10.6185 9.62526 11.0005 9.62526C11.3977 9.62526 11.7262 9.49158 11.9859 9.22421C12.2456 8.95685 12.3755 8.6322 12.3755 8.25025C12.3755 7.85303 12.2456 7.52456 11.9859 7.26483C11.7262 7.00511 11.3977 6.87525 11.0005 6.87525Z" fill="url(#paint0_linear_2439_22865)"/>
</g>
<defs>
<linearGradient id="paint0_linear_2439_22865" x1="5.91297" y1="11.0003" x2="16.4576" y2="11.1054" gradientUnits="userSpaceOnUse">
<stop stop-color="#583EE7"/>
<stop offset="0.484375" stop-color="#0EA0E6"/>
<stop offset="1" stop-color="#00B6AE"/>
</linearGradient>
<clipPath id="clip0_2439_22865">
<rect width="21.9999" height="22.0001" fill="white"/>
</clipPath>
</defs>
</svg>
