<svg width="15" height="16" viewBox="0 0 15 16" fill="none" xmlns="http://www.w3.org/2000/svg">
<path d="M13.4565 13.2931L10.5227 10.3599C11.3731 9.33905 11.7971 8.02964 11.7066 6.7041C11.6161 5.37856 11.018 4.13894 10.0368 3.24311C9.05566 2.34728 7.76687 1.86421 6.43858 1.8944C5.1103 1.92459 3.84479 2.46571 2.90531 3.40519C1.96583 4.34467 1.42471 5.61018 1.39452 6.93846C1.36434 8.26675 1.8474 9.55553 2.74323 10.5367C3.63906 11.5179 4.87869 12.116 6.20423 12.2065C7.52977 12.297 8.83917 11.8729 9.86005 11.0226L12.7932 13.9564C12.8368 14 12.8885 14.0345 12.9454 14.0581C13.0023 14.0816 13.0633 14.0938 13.1249 14.0938C13.1865 14.0938 13.2475 14.0816 13.3044 14.0581C13.3613 14.0345 13.413 14 13.4565 13.9564C13.5001 13.9129 13.5346 13.8612 13.5582 13.8043C13.5818 13.7473 13.5939 13.6864 13.5939 13.6248C13.5939 13.5632 13.5818 13.5022 13.5582 13.4453C13.5346 13.3884 13.5001 13.3367 13.4565 13.2931ZM2.34364 7.06227C2.34364 6.22788 2.59106 5.41223 3.05463 4.71846C3.51819 4.02469 4.17707 3.48396 4.94794 3.16465C5.71882 2.84534 6.56707 2.7618 7.38543 2.92458C8.20378 3.08736 8.95549 3.48916 9.5455 4.07916C10.1355 4.66916 10.5373 5.42087 10.7001 6.23923C10.8629 7.05759 10.7793 7.90584 10.46 8.67671C10.1407 9.44759 9.59997 10.1065 8.9062 10.57C8.21243 11.0336 7.39678 11.281 6.56239 11.281C5.44389 11.2798 4.37155 10.8349 3.58065 10.044C2.78975 9.2531 2.34488 8.18077 2.34364 7.06227Z" fill="white"/>
</svg>
