<svg width="13" height="16" viewBox="0 0 13 16" fill="none" xmlns="http://www.w3.org/2000/svg">
<g id="Frame 1000006555">
<path id="Vector" d="M9.56452 1.66699H3.45286C2.80555 1.66906 2.18534 1.92713 1.72762 2.38485C1.2699 2.84257 1.01184 3.46277 1.00977 4.11009V13.0341C1.00977 14.1731 1.82675 14.6602 2.82441 14.1024L5.91167 12.382C6.2416 12.2014 6.77578 12.2014 7.09786 12.382L10.1851 14.1024C11.1828 14.6602 11.9998 14.1731 11.9998 13.0341V4.11009C12.0003 3.78977 11.9377 3.47249 11.8156 3.17636C11.6935 2.88023 11.5143 2.61105 11.2881 2.38418C11.062 2.15732 10.7934 1.97722 10.4977 1.85417C10.2019 1.73111 9.88484 1.66751 9.56452 1.66699Z" stroke="#3769FF" stroke-width="1.5" stroke-linecap="round" stroke-linejoin="round"/>
</g>
</svg>
