<svg width="8" height="12" viewBox="0 0 8 12" fill="none" xmlns="http://www.w3.org/2000/svg">
<path id="Vector" d="M5.3415 11.75L0.965115 7.21389V6.15972H3.0415C3.64845 6.15972 4.18086 5.96273 4.63873 5.56875C5.0966 5.17477 5.3628 4.62639 5.43734 3.92361H0.166504V2.96528H5.35748C5.21905 2.45417 4.93421 2.03356 4.50296 1.70347C4.07171 1.37338 3.58456 1.20833 3.0415 1.20833H0.166504V0.25H7.83317V1.20833H5.37345C5.61836 1.4213 5.82599 1.69282 5.99636 2.02292C6.16674 2.35301 6.28919 2.66713 6.36373 2.96528H7.83317V3.92361H6.39567C6.31048 4.89259 5.95111 5.66725 5.31755 6.24757C4.68398 6.82789 3.9253 7.11806 3.0415 7.11806H2.21095L6.6672 11.75H5.3415Z" fill="url(#paint0_linear_2439_22862)"/>
<defs>
<linearGradient id="paint0_linear_2439_22862" x1="2.22692" y1="6" x2="5.90188" y2="6.01221" gradientUnits="userSpaceOnUse">
<stop stop-color="#583EE7"/>
<stop offset="0.484375" stop-color="#0EA0E6"/>
<stop offset="1" stop-color="#00B6AE"/>
</linearGradient>
</defs>
</svg>
