<svg width="12" height="18" viewBox="0 0 12 18" fill="none" xmlns="http://www.w3.org/2000/svg">
<path id="Vector" d="M12 4.66394C12 4.84075 11.9298 5.01032 11.8047 5.13534C11.6797 5.26037 11.5101 5.33061 11.3333 5.33061H8.65417C8.66167 5.44061 8.66667 5.55144 8.66667 5.66394C8.66512 6.98955 8.13784 8.26042 7.2005 9.19777C6.26315 10.1351 4.99228 10.6624 3.66667 10.6639H2.39083L8.44833 16.1706C8.51433 16.2292 8.56805 16.3002 8.60638 16.3797C8.6447 16.4591 8.66688 16.5454 8.67162 16.6335C8.67636 16.7216 8.66357 16.8098 8.63398 16.8929C8.6044 16.976 8.55862 17.0524 8.49928 17.1177C8.43995 17.183 8.36825 17.2358 8.28834 17.2732C8.20842 17.3106 8.12189 17.3317 8.03374 17.3354C7.9456 17.3391 7.8576 17.3252 7.77485 17.2947C7.6921 17.2641 7.61624 17.2174 7.55167 17.1573L0.218334 10.4906C0.118762 10.4001 0.0489068 10.2816 0.017952 10.1506C-0.0130028 10.0197 -0.00360855 9.88245 0.0448996 9.75694C0.0934078 9.63143 0.17876 9.52354 0.289734 9.44744C0.400708 9.37135 0.532111 9.33062 0.666667 9.33061H3.66667C4.63879 9.3295 5.57078 8.94284 6.25817 8.25545C6.94557 7.56805 7.33223 6.63606 7.33333 5.66394C7.33333 5.55144 7.3275 5.44061 7.3175 5.33061H0.666667C0.489856 5.33061 0.320287 5.26037 0.195262 5.13534C0.070238 5.01032 0 4.84075 0 4.66394C0 4.48713 0.070238 4.31756 0.195262 4.19254C0.320287 4.06751 0.489856 3.99727 0.666667 3.99727H6.93083C6.62378 3.39557 6.15647 2.89039 5.58048 2.53747C5.00448 2.18455 4.34219 1.99761 3.66667 1.99727H0.666667C0.489856 1.99727 0.320287 1.92704 0.195262 1.80201C0.070238 1.67699 0 1.50742 0 1.33061C0 1.1538 0.070238 0.984227 0.195262 0.859203C0.320287 0.734178 0.489856 0.66394 0.666667 0.66394H11.3333C11.5101 0.66394 11.6797 0.734178 11.8047 0.859203C11.9298 0.984227 12 1.1538 12 1.33061C12 1.50742 11.9298 1.67699 11.8047 1.80201C11.6797 1.92704 11.5101 1.99727 11.3333 1.99727H7.06167C7.65634 2.54755 8.10871 3.23383 8.38 3.99727H11.3333C11.5101 3.99727 11.6797 4.06751 11.8047 4.19254C11.9298 4.31756 12 4.48713 12 4.66394Z" fill="#3C425D"/>
</svg>
