<svg width="26" height="26" viewBox="0 0 26 26" fill="none" xmlns="http://www.w3.org/2000/svg">
<g id="uit:print">
<path id="Vector" d="M7.67883 10.2875C7.47124 10.2875 7.26569 10.3284 7.0739 10.4079C6.88212 10.4873 6.70786 10.6037 6.56107 10.7505C6.41429 10.8973 6.29785 11.0716 6.21841 11.2634C6.13897 11.4551 6.09808 11.6607 6.09808 11.8683C6.09808 12.0759 6.13897 12.2814 6.21841 12.4732C6.29785 12.665 6.41429 12.8393 6.56107 12.986C6.70786 13.1328 6.88212 13.2493 7.0739 13.3287C7.26569 13.4081 7.47124 13.449 7.67883 13.449C8.09807 13.449 8.50014 13.2825 8.79659 12.986C9.09304 12.6896 9.25958 12.2875 9.25958 11.8683C9.25958 11.449 9.09304 11.047 8.79659 10.7505C8.50014 10.4541 8.09807 10.2875 7.67883 10.2875ZM7.67883 12.3952C7.53908 12.3952 7.40506 12.3397 7.30624 12.2409C7.20743 12.1421 7.15191 12.008 7.15191 11.8683C7.15191 11.7285 7.20743 11.5945 7.30624 11.4957C7.40506 11.3969 7.53908 11.3414 7.67883 11.3414C7.81858 11.3414 7.9526 11.3969 8.05142 11.4957C8.15023 11.5945 8.20575 11.7285 8.20575 11.8683C8.20575 12.008 8.15023 12.1421 8.05142 12.2409C7.9526 12.3397 7.81858 12.3952 7.67883 12.3952ZM20.8517 6.59912H19.271V2.91071C19.271 2.77096 19.2155 2.63694 19.1167 2.53812C19.0178 2.4393 18.8838 2.38379 18.7441 2.38379H7.15191C7.01217 2.38379 6.87814 2.4393 6.77933 2.53812C6.68051 2.63694 6.625 2.77096 6.625 2.91071V6.59912H5.04425C4.34569 6.59968 3.67589 6.87743 3.18194 7.37139C2.68798 7.86535 2.41023 8.53514 2.40967 9.2337V16.0836C2.4105 16.9218 2.74386 17.7255 3.33657 18.3182C3.92929 18.9109 4.73294 19.2443 5.57117 19.2451H6.625V22.9335C6.625 23.0733 6.68051 23.2073 6.77933 23.3061C6.87814 23.4049 7.01217 23.4604 7.15191 23.4604H18.7441C18.8838 23.4604 19.0178 23.4049 19.1167 23.3061C19.2155 23.2073 19.271 23.0733 19.271 22.9335V19.2451H20.3248C21.163 19.2443 21.9667 18.9109 22.5594 18.3182C23.1521 17.7255 23.4855 16.9218 23.4863 16.0836V9.2337C23.4858 8.53514 23.208 7.86535 22.7141 7.37139C22.2201 6.87743 21.5503 6.59968 20.8517 6.59912ZM7.67883 3.43762H18.2172V6.59912H7.67883V3.43762ZM18.2172 22.4066H7.67883V16.0836H18.2172V22.4066ZM22.4325 16.0836C22.4317 16.6423 22.2093 17.178 21.8142 17.573C21.4192 17.9681 20.8836 18.1904 20.3248 18.1913H19.271V15.5567C19.271 15.4169 19.2155 15.2829 19.1167 15.1841C19.0178 15.0853 18.8838 15.0298 18.7441 15.0298H7.15191C7.01217 15.0298 6.87814 15.0853 6.77933 15.1841C6.68051 15.2829 6.625 15.4169 6.625 15.5567V18.1913H5.57117C5.01243 18.1904 4.47683 17.9681 4.08174 17.573C3.68666 17.178 3.46434 16.6423 3.4635 16.0836V9.2337C3.4635 8.81446 3.63004 8.41239 3.92649 8.11594C4.22294 7.81949 4.62501 7.65295 5.04425 7.65295H20.8517C21.271 7.65295 21.673 7.81949 21.9695 8.11594C22.2659 8.41239 22.4325 8.81446 22.4325 9.2337V16.0836Z" fill="#3769FF"/>
</g>
</svg>
