<svg width="16" height="17" viewBox="0 0 16 17" fill="none" xmlns="http://www.w3.org/2000/svg">
<g id="Iconsax/Linear/searchnormal1">
<path id="Vector" d="M14.6693 15.1693L13.3359 13.8359M7.66927 14.5026C8.50098 14.5026 9.32454 14.3388 10.0929 14.0205C10.8613 13.7022 11.5595 13.2357 12.1476 12.6476C12.7357 12.0595 13.2022 11.3613 13.5205 10.5929C13.8388 9.82454 14.0026 9.00098 14.0026 8.16927C14.0026 7.33757 13.8388 6.514 13.5205 5.74561C13.2022 4.97721 12.7357 4.27903 12.1476 3.69093C11.5595 3.10282 10.8613 2.63631 10.0929 2.31803C9.32454 1.99975 8.50098 1.83594 7.66927 1.83594C5.98957 1.83594 4.37866 2.5032 3.19093 3.69093C2.0032 4.87866 1.33594 6.48957 1.33594 8.16927C1.33594 9.84897 2.0032 11.4599 3.19093 12.6476C4.37866 13.8353 5.98957 14.5026 7.66927 14.5026Z" stroke="#8189A2" stroke-linecap="round" stroke-linejoin="round"/>
</g>
</svg>
