<svg width="15" height="16" viewBox="0 0 15 16" fill="none" xmlns="http://www.w3.org/2000/svg">
<g id="MagnifyingGlass">
<path id="Vector" d="M13.4567 13.2926L10.5229 10.3594C11.3732 9.33856 11.7972 8.02916 11.7067 6.70362C11.6162 5.37807 11.0182 4.13845 10.037 3.24262C9.05578 2.34679 7.76699 1.86372 6.43871 1.89391C5.11042 1.9241 3.84491 2.46522 2.90543 3.4047C1.96595 4.34418 1.42483 5.60969 1.39464 6.93797C1.36446 8.26626 1.84752 9.55505 2.74335 10.5362C3.63918 11.5174 4.87881 12.1155 6.20435 12.206C7.52989 12.2965 8.83929 11.8725 9.86017 11.0221L12.7934 13.9559C12.8369 13.9995 12.8886 14.034 12.9455 14.0576C13.0024 14.0812 13.0634 14.0933 13.125 14.0933C13.1866 14.0933 13.2476 14.0812 13.3045 14.0576C13.3614 14.034 13.4131 13.9995 13.4567 13.9559C13.5002 13.9124 13.5348 13.8607 13.5583 13.8038C13.5819 13.7469 13.594 13.6859 13.594 13.6243C13.594 13.5627 13.5819 13.5017 13.5583 13.4448C13.5348 13.3879 13.5002 13.3362 13.4567 13.2926ZM2.34376 7.06178C2.34376 6.22739 2.59119 5.41174 3.05475 4.71797C3.51831 4.0242 4.17719 3.48347 4.94807 3.16416C5.71894 2.84486 6.56719 2.76131 7.38555 2.92409C8.20391 3.08687 8.95562 3.48867 9.54562 4.07867C10.1356 4.66868 10.5374 5.42038 10.7002 6.23874C10.863 7.0571 10.7794 7.90535 10.4601 8.67622C10.1408 9.4471 9.60009 10.106 8.90632 10.5695C8.21255 11.0331 7.3969 11.2805 6.56251 11.2805C5.44401 11.2793 4.37168 10.8344 3.58078 10.0435C2.78987 9.25262 2.345 8.18028 2.34376 7.06178Z" fill="black"/>
</g>
</svg>
