<svg width="10" height="11" viewBox="0 0 10 11" fill="none" xmlns="http://www.w3.org/2000/svg">
<path d="M5 0.921814C2.245 0.921814 0 3.16681 0 5.92181C0 8.67681 2.245 10.9218 5 10.9218C7.755 10.9218 10 8.67681 10 5.92181C10 3.16681 7.755 0.921814 5 0.921814ZM7.39 4.77181L4.555 7.60681C4.48469 7.67704 4.38938 7.71648 4.29 7.71648C4.19062 7.71648 4.09531 7.67704 4.025 7.60681L2.61 6.19181C2.54026 6.12124 2.50115 6.02603 2.50115 5.92681C2.50115 5.8276 2.54026 5.73238 2.61 5.66181C2.755 5.51681 2.995 5.51681 3.14 5.66181L4.29 6.81181L6.86 4.24181C7.005 4.09681 7.245 4.09681 7.39 4.24181C7.535 4.38681 7.535 4.62181 7.39 4.77181Z" fill="white"/>
</svg>
