<svg width="12" height="14" viewBox="0 0 12 14" fill="none" xmlns="http://www.w3.org/2000/svg">
<path d="M8.90893 1.08472H3.25866C2.66021 1.08663 2.08683 1.32521 1.66366 1.74837C1.24049 2.17153 1.00192 2.74491 1 3.34335V11.5935C1 12.6466 1.75531 13.0968 2.67765 12.5812L5.53184 10.9907C5.83687 10.8237 6.33072 10.8237 6.62849 10.9907L9.48267 12.5812C10.405 13.0968 11.1603 12.6466 11.1603 11.5935V3.34335C11.1608 3.04721 11.1029 2.75389 10.9901 2.48012C10.8772 2.20635 10.7115 1.95749 10.5024 1.74776C10.2934 1.53802 10.045 1.37152 9.77162 1.25776C9.49821 1.14399 9.20507 1.08519 8.90893 1.08472Z" stroke="#595A6C" stroke-width="1.28662" stroke-linecap="round" stroke-linejoin="round"/>
</svg>
