<svg width="16" height="10" viewBox="0 0 16 10" fill="none" xmlns="http://www.w3.org/2000/svg">
<path d="M5.7575 6.50039H1.25C0.8375 6.50039 0.5 6.83789 0.5 7.25039C0.5 7.66289 0.8375 8.00039 1.25 8.00039H5.7575V9.34289C5.7575 9.68039 6.1625 9.84539 6.395 9.60539L8.48 7.51289C8.6225 7.36289 8.6225 7.13039 8.48 6.98039L6.395 4.88789C6.1625 4.64789 5.7575 4.82039 5.7575 5.15039V6.50039ZM10.2425 4.84289V3.50039H14.75C15.1625 3.50039 15.5 3.16289 15.5 2.75039C15.5 2.33789 15.1625 2.00039 14.75 2.00039H10.2425V0.657889C10.2425 0.320389 9.8375 0.155389 9.605 0.395389L7.52 2.48789C7.3775 2.63789 7.3775 2.87039 7.52 3.02039L9.605 5.11289C9.65787 5.16472 9.7249 5.19973 9.79764 5.21353C9.87038 5.22732 9.94558 5.21927 10.0138 5.1904C10.0819 5.16152 10.14 5.11312 10.1807 5.05127C10.2214 4.98943 10.2429 4.91692 10.2425 4.84289Z" fill="#595A6C"/>
</svg>
