<svg width="25" height="24" viewBox="0 0 25 24" fill="none" xmlns="http://www.w3.org/2000/svg">
<g id="material-symbols:keyboard-arrow-down-rounded">
<path id="Vector" d="M12.5 14.9748C12.3667 14.9748 12.2374 14.9498 12.112 14.8998C11.9867 14.8498 11.8827 14.7831 11.8 14.6998L7.20005 10.0998C7.01672 9.91647 6.92505 9.68314 6.92505 9.3998C6.92505 9.11647 7.01672 8.88314 7.20005 8.6998C7.38338 8.51647 7.61672 8.4248 7.90005 8.4248C8.18338 8.4248 8.41672 8.51647 8.60005 8.6998L12.5 12.5998L16.4 8.6998C16.5834 8.51647 16.8167 8.4248 17.1 8.4248C17.3834 8.4248 17.6167 8.51647 17.8 8.6998C17.9834 8.88314 18.075 9.11647 18.075 9.3998C18.075 9.68314 17.9834 9.91647 17.8 10.0998L13.2 14.6998C13.1 14.7998 12.9917 14.8708 12.875 14.9128C12.7584 14.9548 12.6334 14.9755 12.5 14.9748Z" fill="#3C425D"/>
</g>
</svg>
