<svg width="24" height="25" viewBox="0 0 24 25" fill="none" xmlns="http://www.w3.org/2000/svg">
<path d="M18.988 2.51172L21.988 5.51172L19.701 7.79972L16.701 4.79972L18.988 2.51172ZM8 16.4997H11L18.287 9.21272L15.287 6.21272L8 13.4997V16.4997Z" fill="#3769FF"/>
<path d="M19 19.5H8.158C8.132 19.5 8.105 19.51 8.079 19.51C8.046 19.51 8.013 19.501 7.979 19.5H5V5.5H11.847L13.847 3.5H5C3.897 3.5 3 4.396 3 5.5V19.5C3 20.604 3.897 21.5 5 21.5H19C19.5304 21.5 20.0391 21.2893 20.4142 20.9142C20.7893 20.5391 21 20.0304 21 19.5V10.832L19 12.832V19.5Z" fill="#3769FF"/>
</svg>
