<svg width="24" height="24" viewBox="0 0 24 24" fill="none" xmlns="http://www.w3.org/2000/svg">
<g clip-path="url(#clip0_19654_170508)">
<path d="M7.25 20.25C7.66421 20.25 8 19.9142 8 19.5C8 19.0858 7.66421 18.75 7.25 18.75C6.83579 18.75 6.5 19.0858 6.5 19.5C6.5 19.9142 6.83579 20.25 7.25 20.25Z" stroke="#3769FF" stroke-width="1.5" stroke-linecap="round" stroke-linejoin="round"/>
<path d="M17.75 20.25C18.1642 20.25 18.5 19.9142 18.5 19.5C18.5 19.0858 18.1642 18.75 17.75 18.75C17.3358 18.75 17 19.0858 17 19.5C17 19.9142 17.3358 20.25 17.75 20.25Z" stroke="#3769FF" stroke-width="1.5" stroke-linecap="round" stroke-linejoin="round"/>
<path d="M1.25 3.75H4.25L6.5 16.5H18.5" stroke="#3769FF" stroke-width="1.5" stroke-linecap="round" stroke-linejoin="round"/>
<path d="M6.5 13.5H18.1925C18.2792 13.5001 18.3633 13.4701 18.4304 13.4151C18.4975 13.3601 18.5434 13.2836 18.5605 13.1986L19.9105 6.44859C19.9214 6.39417 19.92 6.338 19.9066 6.28414C19.8931 6.23029 19.8679 6.18009 19.8327 6.13717C19.7975 6.09426 19.7532 6.05969 19.703 6.03597C19.6528 6.01225 19.598 5.99996 19.5425 6H5" fill="#3769FF"/>
<path d="M6.5 13.5H18.1925C18.2792 13.5001 18.3633 13.4701 18.4304 13.4151C18.4975 13.3601 18.5434 13.2836 18.5605 13.1986L19.9105 6.44859C19.9214 6.39417 19.92 6.338 19.9066 6.28414C19.8931 6.23029 19.8679 6.18009 19.8327 6.13717C19.7975 6.09426 19.7532 6.05969 19.703 6.03597C19.6528 6.01225 19.598 5.99996 19.5425 6H5" stroke="#3769FF" stroke-width="1.5" stroke-linecap="round" stroke-linejoin="round"/>
</g>
<defs>
<clipPath id="clip0_19654_170508">
<rect width="24" height="24" fill="white"/>
</clipPath>
</defs>
</svg>
