<svg width="28" height="29" viewBox="0 0 28 29" fill="none" xmlns="http://www.w3.org/2000/svg">
<g id="Component 533">
<path id="Vector" d="M10.5116 16.8336H3.49992C2.85825 16.8336 2.33325 17.3586 2.33325 18.0003C2.33325 18.6419 2.85825 19.1669 3.49992 19.1669H10.5116V21.2553C10.5116 21.7803 11.1416 22.0369 11.5033 21.6636L14.7466 18.4086C14.9683 18.1753 14.9683 17.8136 14.7466 17.5803L11.5033 14.3253C11.1416 13.9519 10.5116 14.2203 10.5116 14.7336V16.8336ZM17.4883 14.2553V12.1669H24.4999C25.1416 12.1669 25.6666 11.6419 25.6666 11.0003C25.6666 10.3586 25.1416 9.83361 24.4999 9.83361H17.4883V7.74528C17.4883 7.22028 16.8583 6.96361 16.4966 7.33695L13.2533 10.5919C13.0316 10.8253 13.0316 11.1869 13.2533 11.4203L16.4966 14.6753C16.5788 14.7559 16.6831 14.8104 16.7963 14.8318C16.9094 14.8533 17.0264 14.8408 17.1324 14.7958C17.2385 14.7509 17.3289 14.6756 17.3922 14.5794C17.4555 14.4832 17.4889 14.3704 17.4883 14.2553Z" fill="#3769FF"/>
</g>
</svg>
