<svg width="20" height="20" viewBox="0 0 20 20" fill="none" xmlns="http://www.w3.org/2000/svg">
<g id="Frame 1000007435">
<rect width="20" height="20" fill="white"/>
<path id="Vector" d="M8.2575 11.2187H3.75C3.3375 11.2187 3 11.5562 3 11.9687C3 12.3812 3.3375 12.7187 3.75 12.7187H8.2575V14.0612C8.2575 14.3987 8.6625 14.5637 8.895 14.3237L10.98 12.2312C11.1225 12.0812 11.1225 11.8487 10.98 11.6987L8.895 9.60615C8.6625 9.36615 8.2575 9.53865 8.2575 9.86865V11.2187ZM12.7425 9.56115V8.21865H17.25C17.6625 8.21865 18 7.88115 18 7.46865C18 7.05615 17.6625 6.71865 17.25 6.71865H12.7425V5.37615C12.7425 5.03865 12.3375 4.87365 12.105 5.11365L10.02 7.20615C9.8775 7.35615 9.8775 7.58865 10.02 7.73865L12.105 9.83115C12.1579 9.88298 12.2249 9.91799 12.2976 9.93179C12.3704 9.94558 12.4456 9.93753 12.5138 9.90866C12.5819 9.87979 12.64 9.83138 12.6807 9.76954C12.7214 9.70769 12.7429 9.63519 12.7425 9.56115Z" fill="#3C425D"/>
</g>
</svg>
