<svg width="23" height="23" viewBox="0 0 23 23" fill="none" xmlns="http://www.w3.org/2000/svg">
<g id="FacebookLogo">
<path id="Vector" d="M11.5 2.15625C9.65198 2.15625 7.84547 2.70425 6.30889 3.73096C4.77232 4.75766 3.57471 6.21695 2.8675 7.9243C2.1603 9.63165 1.97526 11.5104 2.33579 13.3229C2.69632 15.1354 3.58623 16.8003 4.89298 18.107C6.19972 19.4138 7.86462 20.3037 9.67713 20.6642C11.4896 21.0247 13.3684 20.8397 15.0757 20.1325C16.783 19.4253 18.2423 18.2277 19.269 16.6911C20.2958 15.1545 20.8438 13.348 20.8438 11.5C20.8411 9.02269 19.8559 6.64759 18.1041 4.89586C16.3524 3.14413 13.9773 2.15887 11.5 2.15625ZM12.2188 19.373V13.6562H14.375C14.5656 13.6562 14.7484 13.5805 14.8832 13.4457C15.018 13.3109 15.0938 13.1281 15.0938 12.9375C15.0938 12.7469 15.018 12.5641 14.8832 12.4293C14.7484 12.2945 14.5656 12.2188 14.375 12.2188H12.2188V10.0625C12.2188 9.68125 12.3702 9.31562 12.6398 9.04603C12.9094 8.77645 13.275 8.625 13.6563 8.625H15.0938C15.2844 8.625 15.4672 8.54927 15.602 8.41448C15.7368 8.27969 15.8125 8.09687 15.8125 7.90625C15.8125 7.71563 15.7368 7.53281 15.602 7.39802C15.4672 7.26323 15.2844 7.1875 15.0938 7.1875H13.6563C12.8938 7.1875 12.1625 7.4904 11.6233 8.02957C11.0842 8.56874 10.7813 9.3 10.7813 10.0625V12.2188H8.625C8.43438 12.2188 8.25156 12.2945 8.11677 12.4293C7.98198 12.5641 7.90625 12.7469 7.90625 12.9375C7.90625 13.1281 7.98198 13.3109 8.11677 13.4457C8.25156 13.5805 8.43438 13.6562 8.625 13.6562H10.7813V19.373C8.75509 19.188 6.87823 18.2291 5.54106 16.6956C4.20389 15.1622 3.50937 13.1722 3.60194 11.1397C3.69452 9.10727 4.56708 7.18872 6.03811 5.78316C7.50915 4.3776 9.46542 3.59325 11.5 3.59325C13.5346 3.59325 15.4909 4.3776 16.9619 5.78316C18.4329 7.18872 19.3055 9.10727 19.3981 11.1397C19.4906 13.1722 18.7961 15.1622 17.4589 16.6956C16.1218 18.2291 14.2449 19.188 12.2188 19.373Z" fill="#616161"/>
</g>
</svg>
