<svg width="19" height="19" viewBox="0 0 19 19" fill="none" xmlns="http://www.w3.org/2000/svg">
<g id="logos:facebook" clip-path="url(#clip0_3424_62894)">
<path id="Vector" d="M18.5 9.625C18.5 4.7235 14.5265 0.75 9.625 0.75C4.7235 0.75 0.75 4.72343 0.75 9.625C0.75 14.0547 3.99548 17.7264 8.23828 18.3922V12.1904H5.98486V9.625H8.23828V7.66973C8.23828 5.44543 9.56329 4.2168 11.5905 4.2168C12.5615 4.2168 13.5771 4.39014 13.5771 4.39014V6.57422H12.4581C11.3555 6.57422 11.0117 7.25836 11.0117 7.96024V9.625H13.4731L13.0797 12.1904H11.0117V18.3922C15.2545 17.7264 18.5 14.0548 18.5 9.625Z" fill="#1877F2"/>
<path id="Vector_2" d="M13.0792 12.1904L13.4727 9.625H11.0112V7.96024C11.0112 7.25829 11.3551 6.57422 12.4576 6.57422H13.5767V4.39014C13.5767 4.39014 12.561 4.2168 11.59 4.2168C9.5628 4.2168 8.23779 5.44543 8.23779 7.66973V9.625H5.98438V12.1904H8.23779V18.3922C8.69653 18.4641 9.16017 18.5001 9.62451 18.5C10.0889 18.5001 10.5525 18.4641 11.0112 18.3922V12.1904H13.0792Z" fill="white"/>
</g>
<defs>
<clipPath id="clip0_3424_62894">
<rect width="17.75" height="17.75" fill="white" transform="translate(0.75 0.75)"/>
</clipPath>
</defs>
</svg>
