<svg width="24" height="25" viewBox="0 0 24 25" fill="none" xmlns="http://www.w3.org/2000/svg">
<g id="ph:instagram-logo-fill">
<path id="Vector" d="M15 12.0952C15 12.6886 14.8241 13.2686 14.4944 13.7619C14.1648 14.2553 13.6962 14.6398 13.1481 14.8669C12.5999 15.0939 11.9967 15.1533 11.4147 15.0376C10.8328 14.9218 10.2982 14.6361 9.87868 14.2165C9.45912 13.797 9.1734 13.2624 9.05764 12.6805C8.94189 12.0985 9.0013 11.4953 9.22836 10.9472C9.45542 10.399 9.83994 9.93045 10.3333 9.60081C10.8266 9.27116 11.4067 9.09521 12 9.09521C12.7949 9.09769 13.5565 9.41455 14.1186 9.97663C14.6807 10.5387 14.9975 11.3003 15 12.0952ZM21.375 7.97021V16.2202C21.375 17.6126 20.8219 18.948 19.8373 19.9325C18.8527 20.9171 17.5174 21.4702 16.125 21.4702H7.875C6.48261 21.4702 5.14726 20.9171 4.16269 19.9325C3.17812 18.948 2.625 17.6126 2.625 16.2202V7.97021C2.625 6.57783 3.17812 5.24247 4.16269 4.2579C5.14726 3.27334 6.48261 2.72021 7.875 2.72021H16.125C17.5174 2.72021 18.8527 3.27334 19.8373 4.2579C20.8219 5.24247 21.375 6.57783 21.375 7.97021ZM16.5 12.0952C16.5 11.2052 16.2361 10.3352 15.7416 9.59515C15.2471 8.85513 14.5443 8.27835 13.7221 7.93776C12.8998 7.59716 11.995 7.50805 11.1221 7.68168C10.2492 7.85531 9.44736 8.2839 8.81802 8.91323C8.18868 9.54257 7.7601 10.3444 7.58647 11.2173C7.41283 12.0902 7.50195 12.995 7.84254 13.8173C8.18314 14.6396 8.75991 15.3424 9.49993 15.8368C10.24 16.3313 11.11 16.5952 12 16.5952C13.1935 16.5952 14.3381 16.1211 15.182 15.2772C16.0259 14.4333 16.5 13.2887 16.5 12.0952ZM18 7.22021C18 6.99771 17.934 6.7802 17.8104 6.5952C17.6868 6.41019 17.5111 6.266 17.3055 6.18085C17.1 6.0957 16.8738 6.07342 16.6555 6.11683C16.4373 6.16024 16.2368 6.26739 16.0795 6.42472C15.9222 6.58205 15.815 6.78251 15.7716 7.00074C15.7282 7.21897 15.7505 7.44517 15.8356 7.65073C15.9208 7.8563 16.065 8.032 16.25 8.15562C16.435 8.27923 16.6525 8.34521 16.875 8.34521C17.1734 8.34521 17.4595 8.22669 17.6705 8.01571C17.8815 7.80473 18 7.51858 18 7.22021Z" fill="#51A484"/>
<path id="Vector_2" d="M15 12.0952C15 12.6886 14.8241 13.2686 14.4944 13.7619C14.1648 14.2553 13.6962 14.6398 13.1481 14.8669C12.5999 15.0939 11.9967 15.1533 11.4147 15.0376C10.8328 14.9218 10.2982 14.6361 9.87868 14.2165C9.45912 13.797 9.1734 13.2624 9.05764 12.6805C8.94189 12.0985 9.0013 11.4953 9.22836 10.9472C9.45542 10.399 9.83994 9.93045 10.3333 9.60081C10.8266 9.27116 11.4067 9.09521 12 9.09521C12.7949 9.09769 13.5565 9.41455 14.1186 9.97663C14.6807 10.5387 14.9975 11.3003 15 12.0952ZM21.375 7.97021V16.2202C21.375 17.6126 20.8219 18.948 19.8373 19.9325C18.8527 20.9171 17.5174 21.4702 16.125 21.4702H7.875C6.48261 21.4702 5.14726 20.9171 4.16269 19.9325C3.17812 18.948 2.625 17.6126 2.625 16.2202V7.97021C2.625 6.57783 3.17812 5.24247 4.16269 4.2579C5.14726 3.27334 6.48261 2.72021 7.875 2.72021H16.125C17.5174 2.72021 18.8527 3.27334 19.8373 4.2579C20.8219 5.24247 21.375 6.57783 21.375 7.97021ZM16.5 12.0952C16.5 11.2052 16.2361 10.3352 15.7416 9.59515C15.2471 8.85513 14.5443 8.27835 13.7221 7.93776C12.8998 7.59716 11.995 7.50805 11.1221 7.68168C10.2492 7.85531 9.44736 8.2839 8.81802 8.91323C8.18868 9.54257 7.7601 10.3444 7.58647 11.2173C7.41283 12.0902 7.50195 12.995 7.84254 13.8173C8.18314 14.6396 8.75991 15.3424 9.49993 15.8368C10.24 16.3313 11.11 16.5952 12 16.5952C13.1935 16.5952 14.3381 16.1211 15.182 15.2772C16.0259 14.4333 16.5 13.2887 16.5 12.0952ZM18 7.22021C18 6.99771 17.934 6.7802 17.8104 6.5952C17.6868 6.41019 17.5111 6.266 17.3055 6.18085C17.1 6.0957 16.8738 6.07342 16.6555 6.11683C16.4373 6.16024 16.2368 6.26739 16.0795 6.42472C15.9222 6.58205 15.815 6.78251 15.7716 7.00074C15.7282 7.21897 15.7505 7.44517 15.8356 7.65073C15.9208 7.8563 16.065 8.032 16.25 8.15562C16.435 8.27923 16.6525 8.34521 16.875 8.34521C17.1734 8.34521 17.4595 8.22669 17.6705 8.01571C17.8815 7.80473 18 7.51858 18 7.22021Z" fill="white"/>
</g>
</svg>
