<svg width="24" height="25" viewBox="0 0 24 25" fill="none" xmlns="http://www.w3.org/2000/svg">
<g id="entypo-social:linkedin-with-circle">
<path id="Vector" d="M12.0002 2.1499C6.50737 2.1499 2.05469 6.60259 2.05469 12.0954C2.05469 17.5882 6.50737 22.0409 12.0002 22.0409C17.493 22.0409 21.9457 17.5882 21.9457 12.0954C21.9457 6.60259 17.493 2.1499 12.0002 2.1499ZM9.56562 16.2176H7.55165V9.73646H9.56562V16.2176ZM8.5462 8.94082C7.9101 8.94082 7.49882 8.49016 7.49882 7.9328C7.49882 7.36404 7.92254 6.92685 8.5721 6.92685C9.22167 6.92685 9.61949 7.36404 9.63192 7.9328C9.63192 8.49016 9.22167 8.94082 8.5462 8.94082ZM16.9211 16.2176H14.9072V12.6258C14.9072 11.7898 14.615 11.2221 13.8867 11.2221C13.3304 11.2221 12.9999 11.6064 12.8539 11.9763C12.8 12.1078 12.7865 12.2943 12.7865 12.4798V16.2166H10.7715V11.8033C10.7715 10.9942 10.7456 10.3176 10.7187 9.73542H12.4685L12.5607 10.6357H12.6011C12.8663 10.213 13.5158 9.58935 14.6026 9.58935C15.9276 9.58935 16.9211 10.4772 16.9211 12.3855V16.2176Z" fill="white"/>
</g>
</svg>
