<svg width="12" height="14" viewBox="0 0 12 14" fill="none" xmlns="http://www.w3.org/2000/svg">
<path d="M8.90893 1H3.25866C2.66021 1.00192 2.08683 1.24049 1.66366 1.66365C1.24049 2.08681 1.00192 2.66019 1 3.25863V11.5088C1 12.5619 1.75531 13.0121 2.67765 12.4965L5.53184 10.906C5.83687 10.739 6.33072 10.739 6.62849 10.906L9.48267 12.4965C10.405 13.0121 11.1603 12.5619 11.1603 11.5088V3.25863C11.1608 2.9625 11.1029 2.66917 10.9901 2.3954C10.8772 2.12163 10.7115 1.87277 10.5024 1.66304C10.2934 1.45331 10.045 1.28681 9.77162 1.17304C9.49821 1.05928 9.20506 1.00048 8.90893 1Z" fill="#3769FF" stroke="#3769FF" stroke-width="1.28662" stroke-linecap="round" stroke-linejoin="round"/>
</svg>
