<svg width="29" height="28" viewBox="0 0 29 28" fill="none" xmlns="http://www.w3.org/2000/svg">
<g clip-path="url(#clip0_3804_83761)">
<path d="M0.5 21.0002C0.5 21.8253 0.827777 22.6167 1.41122 23.2001C1.99467 23.7836 2.78599 24.1113 3.61111 24.1113H25.3889C26.214 24.1113 27.0053 23.7836 27.5888 23.2001C28.1722 22.6167 28.5 21.8253 28.5 21.0002V17.1113H0.5V21.0002Z" fill="#138808"/>
<path d="M28.5 10.8887V6.99978C28.5 6.17466 28.1722 5.38334 27.5888 4.7999C27.0053 4.21645 26.214 3.88867 25.3889 3.88867H3.61111C2.78599 3.88867 1.99467 4.21645 1.41122 4.7999C0.827777 5.38334 0.5 6.17466 0.5 6.99978L0.5 10.8887H28.5Z" fill="#FF9933"/>
<path d="M0.5 10.6299H28.5V17.3709H0.5V10.6299Z" fill="#F7F7F7"/>
<path d="M14.5017 17.1109C16.22 17.1109 17.6128 15.718 17.6128 13.9998C17.6128 12.2816 16.22 10.8887 14.5017 10.8887C12.7835 10.8887 11.3906 12.2816 11.3906 13.9998C11.3906 15.718 12.7835 17.1109 14.5017 17.1109Z" fill="#000080"/>
<path d="M14.5 16.625C15.9497 16.625 17.125 15.4497 17.125 14C17.125 12.5503 15.9497 11.375 14.5 11.375C13.0503 11.375 11.875 12.5503 11.875 14C11.875 15.4497 13.0503 16.625 14.5 16.625Z" fill="#F7F7F7"/>
<path d="M14.5745 13.0274L14.4967 13.533L14.4189 13.0274L14.4967 11.5107L14.5745 13.0274ZM13.8527 11.5955L14.17 13.0803L14.3761 13.5485L14.3201 13.0406L13.8527 11.5955ZM13.2523 11.8444L13.9429 13.1962L14.2634 13.5952L14.0783 13.1184L13.2523 11.8444ZM12.7366 12.2395L13.7539 13.3673L14.1669 13.6699L13.8644 13.2569L12.7366 12.2395ZM12.3415 12.7552L13.6155 13.5812L14.0923 13.7663L13.6933 13.4459L12.3415 12.7552ZM12.0926 13.3556L13.5377 13.8231L14.0456 13.8791L13.5774 13.673L12.0926 13.3556ZM12.0078 13.9996L13.5245 14.0774L14.03 13.9996L13.5245 13.9219L12.0078 13.9996ZM12.0926 14.6436L13.5774 14.3263L14.0456 14.1202L13.5377 14.1762L12.0926 14.6436ZM12.3415 15.2441L13.6933 14.5534L14.0923 14.233L13.6155 14.4181L12.3415 15.2441ZM12.7366 15.7597L13.8644 14.7424L14.1669 14.3294L13.7539 14.632L12.7366 15.7597ZM13.2523 16.1549L14.0783 14.8809L14.2634 14.4041L13.9429 14.8031L13.2523 16.1549ZM13.8527 16.4037L14.3201 14.9586L14.3761 14.4507L14.17 14.919L13.8527 16.4037ZM14.4967 16.4885L14.5745 14.9719L14.4967 14.4663L14.4189 14.9719L14.4967 16.4885ZM15.1407 16.4037L14.8234 14.919L14.6173 14.4507L14.6733 14.9586L15.1407 16.4037ZM15.7411 16.1549L15.0505 14.8031L14.73 14.4041L14.9151 14.8809L15.7411 16.1549ZM16.2568 15.7597L15.2395 14.632L14.8265 14.3294L15.129 14.7424L16.2568 15.7597ZM16.6519 15.2441L15.3779 14.4181L14.9011 14.233L15.3001 14.5534L16.6519 15.2441ZM16.9008 14.6436L15.4557 14.1762L14.9478 14.1202L15.416 14.3263L16.9008 14.6436ZM16.9856 13.9996L15.4689 13.9219L14.9634 13.9996L15.4689 14.0774L16.9856 13.9996ZM16.9008 13.3556L15.416 13.673L14.9478 13.8791L15.4557 13.8231L16.9008 13.3556ZM16.6519 12.7552L15.3001 13.4459L14.9011 13.7663L15.3779 13.5812L16.6519 12.7552ZM16.2568 12.2395L15.129 13.2569L14.8265 13.6699L15.2395 13.3673L16.2568 12.2395ZM15.7411 11.8444L14.9151 13.1184L14.73 13.5952L15.0505 13.1962L15.7411 11.8444ZM15.1407 11.5955L14.6733 13.0406L14.6173 13.5485L14.8234 13.0803L15.1407 11.5955Z" fill="#6666B3"/>
<path d="M14.1556 11.5572C14.2415 11.5572 14.3111 11.4876 14.3111 11.4016C14.3111 11.3157 14.2415 11.2461 14.1556 11.2461C14.0696 11.2461 14 11.3157 14 11.4016C14 11.4876 14.0696 11.5572 14.1556 11.5572Z" fill="#000080"/>
<path d="M13.4915 11.7349C13.5774 11.7349 13.647 11.6653 13.647 11.5794C13.647 11.4935 13.5774 11.4238 13.4915 11.4238C13.4056 11.4238 13.3359 11.4935 13.3359 11.5794C13.3359 11.6653 13.4056 11.7349 13.4915 11.7349Z" fill="#000080"/>
<path d="M12.8977 12.0758C12.9837 12.0758 13.0533 12.0061 13.0533 11.9202C13.0533 11.8343 12.9837 11.7646 12.8977 11.7646C12.8118 11.7646 12.7422 11.8343 12.7422 11.9202C12.7422 12.0061 12.8118 12.0758 12.8977 12.0758Z" fill="#000080"/>
<path d="M12.4134 12.5592C12.4993 12.5592 12.5689 12.4895 12.5689 12.4036C12.5689 12.3177 12.4993 12.248 12.4134 12.248C12.3275 12.248 12.2578 12.3177 12.2578 12.4036C12.2578 12.4895 12.3275 12.5592 12.4134 12.5592Z" fill="#000080"/>
<path d="M12.0774 13.1519C12.1633 13.1519 12.233 13.0823 12.233 12.9964C12.233 12.9105 12.1633 12.8408 12.0774 12.8408C11.9915 12.8408 11.9219 12.9105 11.9219 12.9964C11.9219 13.0823 11.9915 13.1519 12.0774 13.1519Z" fill="#000080"/>
<path d="M11.8977 13.8131C11.9837 13.8131 12.0533 13.7434 12.0533 13.6575C12.0533 13.5716 11.9837 13.502 11.8977 13.502C11.8118 13.502 11.7422 13.5716 11.7422 13.6575C11.7422 13.7434 11.8118 13.8131 11.8977 13.8131Z" fill="#000080"/>
<path d="M11.8977 14.4976C11.9837 14.4976 12.0533 14.428 12.0533 14.3421C12.0533 14.2562 11.9837 14.1865 11.8977 14.1865C11.8118 14.1865 11.7422 14.2562 11.7422 14.3421C11.7422 14.428 11.8118 14.4976 11.8977 14.4976Z" fill="#000080"/>
<path d="M12.0774 15.1588C12.1633 15.1588 12.233 15.0891 12.233 15.0032C12.233 14.9173 12.1633 14.8477 12.0774 14.8477C11.9915 14.8477 11.9219 14.9173 11.9219 15.0032C11.9219 15.0891 11.9915 15.1588 12.0774 15.1588Z" fill="#000080"/>
<path d="M12.4134 15.7515C12.4993 15.7515 12.5689 15.6819 12.5689 15.596C12.5689 15.5101 12.4993 15.4404 12.4134 15.4404C12.3275 15.4404 12.2578 15.5101 12.2578 15.596C12.2578 15.6819 12.3275 15.7515 12.4134 15.7515Z" fill="#000080"/>
<path d="M12.8977 16.2349C12.9837 16.2349 13.0533 16.1653 13.0533 16.0794C13.0533 15.9935 12.9837 15.9238 12.8977 15.9238C12.8118 15.9238 12.7422 15.9935 12.7422 16.0794C12.7422 16.1653 12.8118 16.2349 12.8977 16.2349Z" fill="#000080"/>
<path d="M13.4915 16.5767C13.5774 16.5767 13.647 16.5071 13.647 16.4212C13.647 16.3353 13.5774 16.2656 13.4915 16.2656C13.4056 16.2656 13.3359 16.3353 13.3359 16.4212C13.3359 16.5071 13.4056 16.5767 13.4915 16.5767Z" fill="#000080"/>
<path d="M14.1556 16.7545C14.2415 16.7545 14.3111 16.6848 14.3111 16.5989C14.3111 16.513 14.2415 16.4434 14.1556 16.4434C14.0696 16.4434 14 16.513 14 16.5989C14 16.6848 14.0696 16.7545 14.1556 16.7545Z" fill="#000080"/>
<path d="M14.8352 16.7545C14.9212 16.7545 14.9908 16.6848 14.9908 16.5989C14.9908 16.513 14.9212 16.4434 14.8352 16.4434C14.7493 16.4434 14.6797 16.513 14.6797 16.5989C14.6797 16.6848 14.7493 16.7545 14.8352 16.7545Z" fill="#000080"/>
<path d="M15.4993 16.5767C15.5852 16.5767 15.6549 16.5071 15.6549 16.4212C15.6549 16.3353 15.5852 16.2656 15.4993 16.2656C15.4134 16.2656 15.3438 16.3353 15.3438 16.4212C15.3438 16.5071 15.4134 16.5767 15.4993 16.5767Z" fill="#000080"/>
<path d="M16.0931 16.2349C16.179 16.2349 16.2486 16.1653 16.2486 16.0794C16.2486 15.9935 16.179 15.9238 16.0931 15.9238C16.0071 15.9238 15.9375 15.9935 15.9375 16.0794C15.9375 16.1653 16.0071 16.2349 16.0931 16.2349Z" fill="#000080"/>
<path d="M16.5774 15.7515C16.6633 15.7515 16.733 15.6819 16.733 15.596C16.733 15.5101 16.6633 15.4404 16.5774 15.4404C16.4915 15.4404 16.4219 15.5101 16.4219 15.596C16.4219 15.6819 16.4915 15.7515 16.5774 15.7515Z" fill="#000080"/>
<path d="M16.9212 15.1588C17.0071 15.1588 17.0767 15.0891 17.0767 15.0032C17.0767 14.9173 17.0071 14.8477 16.9212 14.8477C16.8353 14.8477 16.7656 14.9173 16.7656 15.0032C16.7656 15.0891 16.8353 15.1588 16.9212 15.1588Z" fill="#000080"/>
<path d="M17.0931 14.4976C17.179 14.4976 17.2486 14.428 17.2486 14.3421C17.2486 14.2562 17.179 14.1865 17.0931 14.1865C17.0071 14.1865 16.9375 14.2562 16.9375 14.3421C16.9375 14.428 17.0071 14.4976 17.0931 14.4976Z" fill="#000080"/>
<path d="M17.0931 13.8131C17.179 13.8131 17.2486 13.7434 17.2486 13.6575C17.2486 13.5716 17.179 13.502 17.0931 13.502C17.0071 13.502 16.9375 13.5716 16.9375 13.6575C16.9375 13.7434 17.0071 13.8131 17.0931 13.8131Z" fill="#000080"/>
<path d="M16.9212 13.1519C17.0071 13.1519 17.0767 13.0823 17.0767 12.9964C17.0767 12.9105 17.0071 12.8408 16.9212 12.8408C16.8353 12.8408 16.7656 12.9105 16.7656 12.9964C16.7656 13.0823 16.8353 13.1519 16.9212 13.1519Z" fill="#000080"/>
<path d="M16.5774 12.5592C16.6633 12.5592 16.733 12.4895 16.733 12.4036C16.733 12.3177 16.6633 12.248 16.5774 12.248C16.4915 12.248 16.4219 12.3177 16.4219 12.4036C16.4219 12.4895 16.4915 12.5592 16.5774 12.5592Z" fill="#000080"/>
<path d="M16.0931 12.0758C16.179 12.0758 16.2486 12.0061 16.2486 11.9202C16.2486 11.8343 16.179 11.7646 16.0931 11.7646C16.0071 11.7646 15.9375 11.8343 15.9375 11.9202C15.9375 12.0061 16.0071 12.0758 16.0931 12.0758Z" fill="#000080"/>
<path d="M15.4993 11.734C15.5852 11.734 15.6549 11.6643 15.6549 11.5784C15.6549 11.4925 15.5852 11.4229 15.4993 11.4229C15.4134 11.4229 15.3438 11.4925 15.3438 11.5784C15.3438 11.6643 15.4134 11.734 15.4993 11.734Z" fill="#000080"/>
<path d="M14.8352 11.5572C14.9212 11.5572 14.9908 11.4876 14.9908 11.4016C14.9908 11.3157 14.9212 11.2461 14.8352 11.2461C14.7493 11.2461 14.6797 11.3157 14.6797 11.4016C14.6797 11.4876 14.7493 11.5572 14.8352 11.5572Z" fill="#000080"/>
<path d="M14.4969 14.7008C14.8835 14.7008 15.1969 14.3874 15.1969 14.0008C15.1969 13.6142 14.8835 13.3008 14.4969 13.3008C14.1103 13.3008 13.7969 13.6142 13.7969 14.0008C13.7969 14.3874 14.1103 14.7008 14.4969 14.7008Z" fill="#000080"/>
</g>
<defs>
<clipPath id="clip0_3804_83761">
<rect width="28" height="28" fill="white" transform="translate(0.5)"/>
</clipPath>
</defs>
</svg>
