<svg width="24" height="24" viewBox="0 0 24 24" fill="none" xmlns="http://www.w3.org/2000/svg">
<path d="M14.975 11.9998C14.975 11.8665 14.95 11.7371 14.9 11.6118C14.85 11.4865 14.7834 11.3825 14.7 11.2998L10.1 6.6998C9.91672 6.51647 9.68338 6.4248 9.40005 6.4248C9.11671 6.4248 8.88338 6.51647 8.70005 6.6998C8.51672 6.88314 8.42505 7.11647 8.42505 7.3998C8.42505 7.68314 8.51672 7.91647 8.70005 8.0998L12.6 11.9998L8.70005 15.8998C8.51671 16.0831 8.42505 16.3165 8.42505 16.5998C8.42505 16.8831 8.51671 17.1165 8.70005 17.2998C8.88338 17.4831 9.11671 17.5748 9.40005 17.5748C9.68338 17.5748 9.91672 17.4831 10.1 17.2998L14.7 12.6998C14.8 12.5998 14.871 12.4915 14.913 12.3748C14.955 12.2581 14.9757 12.1331 14.975 11.9998Z" fill="#595A6C"/>
</svg>
