<svg width="23" height="23" viewBox="0 0 23 23" fill="none" xmlns="http://www.w3.org/2000/svg">
<g id="LinkedinLogo">
<path id="Vector" d="M19.4062 2.15625H3.59375C3.2125 2.15625 2.84687 2.3077 2.57728 2.57728C2.3077 2.84687 2.15625 3.2125 2.15625 3.59375V19.4062C2.15625 19.7875 2.3077 20.1531 2.57728 20.4227C2.84687 20.6923 3.2125 20.8438 3.59375 20.8438H19.4062C19.7875 20.8438 20.1531 20.6923 20.4227 20.4227C20.6923 20.1531 20.8438 19.7875 20.8438 19.4062V3.59375C20.8438 3.2125 20.6923 2.84687 20.4227 2.57728C20.1531 2.3077 19.7875 2.15625 19.4062 2.15625ZM19.4062 19.4062H3.59375V3.59375H19.4062V19.4062ZM8.625 10.0625V15.8125C8.625 16.0031 8.54927 16.1859 8.41448 16.3207C8.27969 16.4555 8.09687 16.5312 7.90625 16.5312C7.71563 16.5312 7.53281 16.4555 7.39802 16.3207C7.26323 16.1859 7.1875 16.0031 7.1875 15.8125V10.0625C7.1875 9.87188 7.26323 9.68906 7.39802 9.55427C7.53281 9.41948 7.71563 9.34375 7.90625 9.34375C8.09687 9.34375 8.27969 9.41948 8.41448 9.55427C8.54927 9.68906 8.625 9.87188 8.625 10.0625ZM16.5312 12.5781V15.8125C16.5312 16.0031 16.4555 16.1859 16.3207 16.3207C16.1859 16.4555 16.0031 16.5312 15.8125 16.5312C15.6219 16.5312 15.4391 16.4555 15.3043 16.3207C15.1695 16.1859 15.0938 16.0031 15.0938 15.8125V12.5781C15.0938 12.1016 14.9044 11.6445 14.5675 11.3075C14.2305 10.9706 13.7734 10.7812 13.2969 10.7812C12.8203 10.7812 12.3633 10.9706 12.0263 11.3075C11.6893 11.6445 11.5 12.1016 11.5 12.5781V15.8125C11.5 16.0031 11.4243 16.1859 11.2895 16.3207C11.1547 16.4555 10.9719 16.5312 10.7812 16.5312C10.5906 16.5312 10.4078 16.4555 10.273 16.3207C10.1382 16.1859 10.0625 16.0031 10.0625 15.8125V10.0625C10.0634 9.88645 10.1289 9.71684 10.2465 9.58586C10.3642 9.45488 10.5258 9.37164 10.7007 9.35191C10.8757 9.33219 11.0518 9.37737 11.1956 9.47887C11.3395 9.58037 11.4411 9.73114 11.4811 9.90258C11.9674 9.57274 12.5342 9.38157 13.1209 9.34961C13.7076 9.31764 14.2919 9.44609 14.8111 9.72115C15.3302 9.99621 15.7647 10.4075 16.0678 10.9108C16.3708 11.4142 16.5311 11.9906 16.5312 12.5781ZM8.98438 7.54688C8.98438 7.76011 8.92114 7.96855 8.80268 8.14585C8.68421 8.32315 8.51583 8.46133 8.31883 8.54293C8.12183 8.62453 7.90505 8.64588 7.69592 8.60428C7.48678 8.56268 7.29468 8.46 7.1439 8.30922C6.99312 8.15845 6.89044 7.96634 6.84884 7.75721C6.80724 7.54807 6.82859 7.3313 6.91019 7.13429C6.99179 6.93729 7.12998 6.76891 7.30728 6.65045C7.48457 6.53198 7.69302 6.46875 7.90625 6.46875C8.19219 6.46875 8.46641 6.58234 8.6686 6.78453C8.87079 6.98671 8.98438 7.26094 8.98438 7.54688Z" fill="#616161"/>
</g>
</svg>
