<svg width="23" height="23" viewBox="0 0 23 23" fill="none" xmlns="http://www.w3.org/2000/svg">
<g id="Link">
<path id="Vector" d="M12.3572 16.7432C12.4919 16.878 12.5676 17.0607 12.5676 17.2513C12.5676 17.4418 12.4919 17.6246 12.3572 17.7593L11.4642 18.6578C10.5197 19.6016 9.23907 20.1316 7.90387 20.1312C6.56867 20.1308 5.28833 19.6 4.3445 18.6555C3.40067 17.7111 2.87067 16.4304 2.87109 15.0952C2.87152 13.76 3.40232 12.4797 4.34675 11.5359L6.51378 9.36884C7.42092 8.46097 8.64071 7.93409 9.92355 7.89601C11.2064 7.85793 12.4553 8.31153 13.4147 9.16399C13.4855 9.22676 13.5432 9.30286 13.5846 9.38794C13.626 9.47302 13.6502 9.56541 13.6559 9.65985C13.6615 9.75429 13.6485 9.84893 13.6176 9.93835C13.5867 10.0278 13.5385 10.1102 13.4758 10.181C13.413 10.2518 13.3369 10.3095 13.2518 10.3509C13.1667 10.3923 13.0743 10.4165 12.9799 10.4222C12.8855 10.4279 12.7908 10.4149 12.7014 10.384C12.612 10.3531 12.5295 10.3049 12.4587 10.2421C11.7735 9.63361 10.8817 9.30986 9.9657 9.33709C9.0497 9.36431 8.17869 9.74044 7.53081 10.3886L5.36378 12.5529C4.68968 13.227 4.31098 14.1413 4.31098 15.0946C4.31098 16.0479 4.68968 16.9622 5.36378 17.6363C6.03788 18.3104 6.95214 18.6891 7.90546 18.6891C8.85877 18.6891 9.77304 18.3104 10.4471 17.6363L11.3402 16.7432C11.4069 16.6764 11.4862 16.6234 11.5735 16.5872C11.6607 16.551 11.7542 16.5324 11.8487 16.5324C11.9432 16.5324 12.0367 16.551 12.1239 16.5872C12.2112 16.6234 12.2905 16.6764 12.3572 16.7432ZM18.6535 4.34477C17.7089 3.40233 16.4291 2.87305 15.0948 2.87305C13.7604 2.87305 12.4806 3.40233 11.536 4.34477L10.643 5.23872C10.5083 5.37359 10.4326 5.55646 10.4327 5.7471C10.4328 5.93775 10.5086 6.12055 10.6434 6.2553C10.7783 6.39005 10.9612 6.4657 11.1518 6.46562C11.3425 6.46553 11.5253 6.38972 11.66 6.25485L12.5531 5.3618C13.2272 4.68771 14.1414 4.30901 15.0948 4.30901C16.0481 4.30901 16.9623 4.68771 17.6364 5.3618C18.3105 6.0359 18.6892 6.95017 18.6892 7.90348C18.6892 8.8568 18.3105 9.77107 17.6364 10.4452L15.4694 12.614C14.8212 13.2617 13.95 13.6374 13.034 13.6641C12.118 13.6908 11.2264 13.3666 10.5415 12.7577C10.4707 12.695 10.3882 12.6468 10.2988 12.6159C10.2094 12.585 10.1147 12.572 10.0203 12.5777C9.82958 12.5891 9.65121 12.6759 9.52444 12.8188C9.46168 12.8896 9.41347 12.9721 9.38257 13.0615C9.35167 13.1509 9.33868 13.2456 9.34436 13.34C9.35581 13.5307 9.44257 13.7091 9.58554 13.8359C10.5447 14.6886 11.7935 15.1425 13.0763 15.1047C14.3591 15.067 15.5791 14.5404 16.4864 13.6328L18.6535 11.4658C19.5965 10.5212 20.1261 9.24094 20.1261 7.90618C20.1261 6.57142 19.5965 5.29121 18.6535 4.34657V4.34477Z" fill="#616161"/>
</g>
</svg>
