<svg width="20" height="20" viewBox="0 0 20 20" fill="none" xmlns="http://www.w3.org/2000/svg">
<g id="ic:round-email">
<path id="Vector" d="M16.2852 3.47559H3.46571C2.58438 3.47559 1.87129 4.19668 1.87129 5.07802L1.86328 14.6926C1.86328 15.5739 2.58438 16.295 3.46571 16.295H16.2852C17.1665 16.295 17.8876 15.5739 17.8876 14.6926V5.07802C17.8876 4.19668 17.1665 3.47559 16.2852 3.47559ZM15.9647 6.88075L10.3001 10.4221C10.0437 10.5824 9.70718 10.5824 9.45079 10.4221L3.7862 6.88075C3.70586 6.83565 3.6355 6.77472 3.5794 6.70164C3.52329 6.62857 3.48259 6.54486 3.45976 6.4556C3.43694 6.36634 3.43246 6.27338 3.44661 6.18234C3.46075 6.0913 3.49322 6.00407 3.54205 5.92594C3.59088 5.84781 3.65506 5.78041 3.73069 5.7278C3.80633 5.67519 3.89186 5.63848 3.98209 5.61988C4.07233 5.60128 4.1654 5.60118 4.25567 5.6196C4.34595 5.63801 4.43155 5.67455 4.50729 5.727L9.87543 9.08409L15.2436 5.727C15.3193 5.67455 15.4049 5.63801 15.4952 5.6196C15.5855 5.60118 15.6785 5.60128 15.7688 5.61988C15.859 5.63848 15.9445 5.67519 16.0202 5.7278C16.0958 5.78041 16.16 5.84781 16.2088 5.92594C16.2576 6.00407 16.2901 6.0913 16.3043 6.18234C16.3184 6.27338 16.3139 6.36634 16.2911 6.4556C16.2683 6.54486 16.2276 6.62857 16.1715 6.70164C16.1154 6.77472 16.045 6.83565 15.9647 6.88075Z" fill="#3769FF"/>
</g>
</svg>
