<svg width="16" height="19" viewBox="0 0 16 19" fill="none" xmlns="http://www.w3.org/2000/svg">
<g id="Frame 1000006555">
<path id="Vector" d="M11.9 1.4375H4.12001C3.296 1.44014 2.50649 1.76864 1.92382 2.35131C1.34115 2.93398 1.01265 3.72349 1.01001 4.5475V15.9075C1.01001 17.3575 2.05001 17.9775 3.32001 17.2675L7.25001 15.0775C7.67001 14.8475 8.35001 14.8475 8.76001 15.0775L12.69 17.2675C13.96 17.9775 15 17.3575 15 15.9075V4.5475C15.0007 4.13975 14.921 3.73585 14.7656 3.35889C14.6101 2.98192 14.382 2.63926 14.0941 2.35047C13.8063 2.06168 13.4643 1.83241 13.0879 1.67577C12.7114 1.51912 12.3078 1.43816 11.9 1.4375Z" stroke="#3769FF" stroke-width="1.5" stroke-linecap="round" stroke-linejoin="round"/>
</g>
</svg>
