<svg width="25" height="24" viewBox="0 0 25 24" fill="none" xmlns="http://www.w3.org/2000/svg">
<path d="M12.4998 14.9748C12.3665 14.9748 12.2371 14.9498 12.1118 14.8998C11.9865 14.8498 11.8825 14.7831 11.7998 14.6998L7.1998 10.0998C7.01647 9.91647 6.9248 9.68314 6.9248 9.3998C6.9248 9.11647 7.01647 8.88314 7.1998 8.6998C7.38314 8.51647 7.61647 8.4248 7.8998 8.4248C8.18314 8.4248 8.41647 8.51647 8.5998 8.6998L12.4998 12.5998L16.3998 8.6998C16.5831 8.51647 16.8165 8.4248 17.0998 8.4248C17.3831 8.4248 17.6165 8.51647 17.7998 8.6998C17.9831 8.88314 18.0748 9.11647 18.0748 9.3998C18.0748 9.68314 17.9831 9.91647 17.7998 10.0998L13.1998 14.6998C13.0998 14.7998 12.9915 14.8708 12.8748 14.9128C12.7581 14.9548 12.6331 14.9755 12.4998 14.9748Z" fill="white"/>
</svg>
