<svg width="25" height="24" viewBox="0 0 25 24" fill="none" xmlns="http://www.w3.org/2000/svg">
<path d="M12.5002 9.0252C12.6335 9.0252 12.7629 9.0502 12.8882 9.1002C13.0135 9.1502 13.1175 9.21686 13.2002 9.3002L17.8002 13.9002C17.9835 14.0835 18.0752 14.3169 18.0752 14.6002C18.0752 14.8835 17.9835 15.1169 17.8002 15.3002C17.6169 15.4835 17.3835 15.5752 17.1002 15.5752C16.8169 15.5752 16.5835 15.4835 16.4002 15.3002L12.5002 11.4002L8.6002 15.3002C8.41686 15.4835 8.18353 15.5752 7.9002 15.5752C7.61686 15.5752 7.38353 15.4835 7.2002 15.3002C7.01686 15.1169 6.92519 14.8835 6.92519 14.6002C6.92519 14.3169 7.01686 14.0835 7.2002 13.9002L11.8002 9.3002C11.9002 9.2002 12.0085 9.1292 12.1252 9.0872C12.2419 9.0452 12.3669 9.02453 12.5002 9.0252Z" fill="white"/>
</svg>
