<svg width="21" height="22" viewBox="0 0 21 22" fill="none" xmlns="http://www.w3.org/2000/svg">
<circle cx="10.2308" cy="10.2308" r="10.2308" transform="matrix(-1 0 0 1 20.6924 0.769531)" fill="url(#paint0_linear_19058_126567)"/>
<path d="M16.7161 12.7489C16.3198 14.0425 15.5256 15.1782 14.4465 15.9944C13.4991 16.7074 12.3717 17.1423 11.1909 17.2502C10.01 17.3581 8.82247 17.1348 7.76151 16.6052C6.70055 16.0757 5.80817 15.261 5.18454 14.2524C4.5609 13.2439 4.2307 12.0816 4.23099 10.8958C4.22672 9.51175 4.67666 8.16454 5.51176 7.06083C6.32791 5.98174 7.46361 5.18754 8.75725 4.79126C8.84251 4.76501 8.93331 4.76249 9.0199 4.78399C9.10648 4.80549 9.18556 4.85018 9.24865 4.91326C9.31173 4.97634 9.35642 5.05543 9.37792 5.14201C9.39941 5.22859 9.3969 5.3194 9.37064 5.40466C9.08777 6.34035 9.06405 7.33526 9.30202 8.28337C9.53998 9.23148 10.0307 10.0973 10.7219 10.7885C11.4131 11.4797 12.2789 11.9704 13.227 12.2084C14.1751 12.4464 15.1701 12.4226 16.1057 12.1398C16.191 12.1135 16.2818 12.111 16.3684 12.1325C16.455 12.154 16.5341 12.1987 16.5971 12.2618C16.6602 12.3248 16.7049 12.4039 16.7264 12.4905C16.7479 12.5771 16.7454 12.6679 16.7191 12.7532L16.7161 12.7489Z" fill="white"/>
<defs>
<linearGradient id="paint0_linear_19058_126567" x1="5.49904" y1="10.2308" x2="15.307" y2="10.2797" gradientUnits="userSpaceOnUse">
<stop stop-color="#583EE7"/>
<stop offset="0.484375" stop-color="#0EA0E6"/>
<stop offset="1" stop-color="#00B6AE"/>
</linearGradient>
</defs>
</svg>
