<svg width="21" height="22" viewBox="0 0 21 22" fill="none" xmlns="http://www.w3.org/2000/svg">
<circle cx="10.2308" cy="10.2308" r="10.2308" transform="matrix(-1 0 0 1 20.8462 0.769531)" fill="url(#paint0_linear_19058_126568)"/>
<path d="M9.44608 6.17572V4.86034C9.44608 4.74405 9.49227 4.63252 9.5745 4.5503C9.65673 4.46807 9.76825 4.42188 9.88454 4.42188C10.0008 4.42188 10.1124 4.46807 10.1946 4.5503C10.2768 4.63252 10.323 4.74405 10.323 4.86034V6.17572C10.323 6.29201 10.2768 6.40353 10.1946 6.48576C10.1124 6.56799 10.0008 6.61418 9.88454 6.61418C9.76825 6.61418 9.65673 6.56799 9.5745 6.48576C9.49227 6.40353 9.44608 6.29201 9.44608 6.17572ZM9.88454 7.49111C9.19078 7.49111 8.51261 7.69683 7.93577 8.08226C7.35893 8.46769 6.90934 9.01552 6.64386 9.65646C6.37837 10.2974 6.3089 11.0027 6.44425 11.6831C6.57959 12.3635 6.91367 12.9886 7.40423 13.4791C7.89479 13.9697 8.5198 14.3037 9.20022 14.4391C9.88065 14.5744 10.5859 14.505 11.2269 14.2395C11.8678 13.974 12.4156 13.5244 12.8011 12.9476C13.1865 12.3707 13.3922 11.6926 13.3922 10.9988C13.3912 10.0688 13.0213 9.17721 12.3637 8.51961C11.7061 7.86201 10.8145 7.49212 9.88454 7.49111ZM6.06664 7.80132C6.14891 7.88359 6.2605 7.92981 6.37685 7.92981C6.4932 7.92981 6.60479 7.88359 6.68706 7.80132C6.76933 7.71904 6.81555 7.60746 6.81555 7.49111C6.81555 7.37475 6.76933 7.26317 6.68706 7.18089L5.81014 6.30397C5.72786 6.2217 5.61628 6.17548 5.49992 6.17548C5.38357 6.17548 5.27199 6.2217 5.18971 6.30397C5.10744 6.38624 5.06122 6.49783 5.06122 6.61418C5.06122 6.73053 5.10744 6.84212 5.18971 6.92439L6.06664 7.80132ZM6.06664 14.1963L5.18971 15.0732C5.10744 15.1555 5.06122 15.2671 5.06122 15.3834C5.06122 15.4998 5.10744 15.6114 5.18971 15.6936C5.27199 15.7759 5.38357 15.8221 5.49992 15.8221C5.61628 15.8221 5.72786 15.7759 5.81014 15.6936L6.68706 14.8167C6.7278 14.776 6.76011 14.7276 6.78216 14.6744C6.80421 14.6211 6.81555 14.5641 6.81555 14.5065C6.81555 14.4489 6.80421 14.3918 6.78216 14.3386C6.76011 14.2854 6.7278 14.237 6.68706 14.1963C6.64632 14.1555 6.59796 14.1232 6.54473 14.1012C6.49151 14.0791 6.43446 14.0678 6.37685 14.0678C6.31924 14.0678 6.26219 14.0791 6.20896 14.1012C6.15574 14.1232 6.10737 14.1555 6.06664 14.1963ZM13.3922 7.92957C13.4498 7.92961 13.5069 7.91831 13.5601 7.8963C13.6133 7.8743 13.6617 7.84202 13.7024 7.80132L14.5794 6.92439C14.6616 6.84212 14.7079 6.73053 14.7079 6.61418C14.7079 6.49783 14.6616 6.38624 14.5794 6.30397C14.4971 6.2217 14.3855 6.17548 14.2692 6.17548C14.1528 6.17548 14.0412 6.2217 13.9589 6.30397L13.082 7.18089C13.0206 7.24222 12.9788 7.32037 12.9619 7.40547C12.9449 7.49057 12.9536 7.57878 12.9868 7.65894C13.02 7.73911 13.0763 7.80761 13.1485 7.85578C13.2206 7.90396 13.3055 7.92964 13.3922 7.92957ZM13.7024 14.1963C13.6202 14.114 13.5086 14.0678 13.3922 14.0678C13.2759 14.0678 13.1643 14.114 13.082 14.1963C12.9997 14.2786 12.9535 14.3901 12.9535 14.5065C12.9535 14.6228 12.9997 14.7344 13.082 14.8167L13.9589 15.6936C13.9997 15.7344 14.048 15.7667 14.1013 15.7887C14.1545 15.8108 14.2115 15.8221 14.2692 15.8221C14.3268 15.8221 14.3838 15.8108 14.437 15.7887C14.4903 15.7667 14.5386 15.7344 14.5794 15.6936C14.6201 15.6529 14.6524 15.6045 14.6745 15.5513C14.6965 15.4981 14.7079 15.441 14.7079 15.3834C14.7079 15.3258 14.6965 15.2688 14.6745 15.2155C14.6524 15.1623 14.6201 15.1139 14.5794 15.0732L13.7024 14.1963ZM5.49992 10.9988C5.49992 10.8825 5.45373 10.771 5.3715 10.6888C5.28927 10.6065 5.17775 10.5603 5.06146 10.5603H3.74608C3.62979 10.5603 3.51827 10.6065 3.43604 10.6888C3.35381 10.771 3.30762 10.8825 3.30762 10.9988C3.30762 11.1151 3.35381 11.2266 3.43604 11.3088C3.51827 11.3911 3.62979 11.4373 3.74608 11.4373H5.06146C5.17775 11.4373 5.28927 11.3911 5.3715 11.3088C5.45373 11.2266 5.49992 11.1151 5.49992 10.9988ZM9.88454 15.3834C9.76825 15.3834 9.65673 15.4296 9.5745 15.5118C9.49227 15.5941 9.44608 15.7056 9.44608 15.8219V17.1373C9.44608 17.2535 9.49227 17.3651 9.5745 17.4473C9.65673 17.5295 9.76825 17.5757 9.88454 17.5757C10.0008 17.5757 10.1124 17.5295 10.1946 17.4473C10.2768 17.3651 10.323 17.2535 10.323 17.1373V15.8219C10.323 15.7056 10.2768 15.5941 10.1946 15.5118C10.1124 15.4296 10.0008 15.3834 9.88454 15.3834ZM16.023 10.5603H14.7076C14.5913 10.5603 14.4798 10.6065 14.3976 10.6888C14.3153 10.771 14.2692 10.8825 14.2692 10.9988C14.2692 11.1151 14.3153 11.2266 14.3976 11.3088C14.4798 11.3911 14.5913 11.4373 14.7076 11.4373H16.023C16.1393 11.4373 16.2508 11.3911 16.333 11.3088C16.4153 11.2266 16.4615 11.1151 16.4615 10.9988C16.4615 10.8825 16.4153 10.771 16.333 10.6888C16.2508 10.6065 16.1393 10.5603 16.023 10.5603Z" fill="white"/>
<defs>
<linearGradient id="paint0_linear_19058_126568" x1="5.49904" y1="10.2308" x2="15.307" y2="10.2797" gradientUnits="userSpaceOnUse">
<stop stop-color="#583EE7"/>
<stop offset="0.484375" stop-color="#0EA0E6"/>
<stop offset="1" stop-color="#00B6AE"/>
</linearGradient>
</defs>
</svg>
