<svg width="14" height="14" viewBox="0 0 14 14" fill="none" xmlns="http://www.w3.org/2000/svg">
<path d="M6.44608 2.17767V0.86229C6.44608 0.746002 6.49227 0.634478 6.5745 0.552251C6.65673 0.470023 6.76825 0.423828 6.88454 0.423828C7.00083 0.423828 7.11235 0.470023 7.19458 0.552251C7.27681 0.634478 7.323 0.746002 7.323 0.86229V2.17767C7.323 2.29396 7.27681 2.40549 7.19458 2.48771C7.11235 2.56994 7.00083 2.61614 6.88454 2.61614C6.76825 2.61614 6.65673 2.56994 6.5745 2.48771C6.49227 2.40549 6.44608 2.29396 6.44608 2.17767ZM6.88454 3.49306C6.19078 3.49306 5.51261 3.69878 4.93577 4.08421C4.35893 4.46964 3.90934 5.01747 3.64386 5.65842C3.37837 6.29936 3.3089 7.00464 3.44425 7.68507C3.57959 8.36549 3.91367 8.9905 4.40423 9.48106C4.89479 9.97162 5.5198 10.3057 6.20022 10.441C6.88065 10.5764 7.58593 10.5069 8.22688 10.2414C8.86782 9.97595 9.41565 9.52636 9.80108 8.94952C10.1865 8.37268 10.3922 7.69451 10.3922 7.00075C10.3912 6.07077 10.0213 5.17916 9.36373 4.52156C8.70613 3.86396 7.81453 3.49407 6.88454 3.49306ZM3.06664 3.80327C3.14891 3.88554 3.2605 3.93176 3.37685 3.93176C3.4932 3.93176 3.60479 3.88554 3.68706 3.80327C3.76933 3.721 3.81555 3.60941 3.81555 3.49306C3.81555 3.37671 3.76933 3.26512 3.68706 3.18285L2.81014 2.30592C2.72786 2.22365 2.61628 2.17743 2.49992 2.17743C2.38357 2.17743 2.27199 2.22365 2.18971 2.30592C2.10744 2.3882 2.06122 2.49978 2.06122 2.61614C2.06122 2.73249 2.10744 2.84407 2.18971 2.92635L3.06664 3.80327ZM3.06664 10.1982L2.18971 11.0752C2.10744 11.1574 2.06122 11.269 2.06122 11.3854C2.06122 11.5017 2.10744 11.6133 2.18971 11.6956C2.27199 11.7779 2.38357 11.8241 2.49992 11.8241C2.61628 11.8241 2.72786 11.7779 2.81014 11.6956L3.68706 10.8187C3.7278 10.7779 3.76011 10.7296 3.78216 10.6763C3.80421 10.6231 3.81555 10.5661 3.81555 10.5084C3.81555 10.4508 3.80421 10.3938 3.78216 10.3406C3.76011 10.2873 3.7278 10.239 3.68706 10.1982C3.64632 10.1575 3.59796 10.1252 3.54473 10.1031C3.49151 10.0811 3.43446 10.0697 3.37685 10.0697C3.31924 10.0697 3.26219 10.0811 3.20896 10.1031C3.15574 10.1252 3.10737 10.1575 3.06664 10.1982ZM10.3922 3.93152C10.4498 3.93157 10.5069 3.92026 10.5601 3.89826C10.6133 3.87625 10.6617 3.84397 10.7024 3.80327L11.5794 2.92635C11.6616 2.84407 11.7079 2.73249 11.7079 2.61614C11.7079 2.49978 11.6616 2.3882 11.5794 2.30592C11.4971 2.22365 11.3855 2.17743 11.2692 2.17743C11.1528 2.17743 11.0412 2.22365 10.9589 2.30592L10.082 3.18285C10.0206 3.24417 9.97882 3.32233 9.96187 3.40742C9.94492 3.49252 9.95361 3.58074 9.98682 3.6609C10.02 3.74106 10.0763 3.80956 10.1485 3.85774C10.2206 3.90591 10.3055 3.93159 10.3922 3.93152ZM10.7024 10.1982C10.6202 10.116 10.5086 10.0697 10.3922 10.0697C10.2759 10.0697 10.1643 10.116 10.082 10.1982C9.99975 10.2805 9.95353 10.3921 9.95353 10.5084C9.95353 10.6248 9.99975 10.7364 10.082 10.8187L10.9589 11.6956C10.9997 11.7363 11.048 11.7686 11.1013 11.7907C11.1545 11.8127 11.2115 11.8241 11.2692 11.8241C11.3268 11.8241 11.3838 11.8127 11.437 11.7907C11.4903 11.7686 11.5386 11.7363 11.5794 11.6956C11.6201 11.6548 11.6524 11.6065 11.6745 11.5533C11.6965 11.5 11.7079 11.443 11.7079 11.3854C11.7079 11.3278 11.6965 11.2707 11.6745 11.2175C11.6524 11.1643 11.6201 11.1159 11.5794 11.0752L10.7024 10.1982ZM2.49992 7.00075C2.49992 6.88446 2.45373 6.77294 2.3715 6.69071C2.28927 6.60848 2.17775 6.56229 2.06146 6.56229H0.746079C0.629791 6.56229 0.518267 6.60848 0.43604 6.69071C0.353812 6.77294 0.307617 6.88446 0.307617 7.00075C0.307617 7.11704 0.353812 7.22856 0.43604 7.31079C0.518267 7.39302 0.629791 7.43921 0.746079 7.43921H2.06146C2.17775 7.43921 2.28927 7.39302 2.3715 7.31079C2.45373 7.22856 2.49992 7.11704 2.49992 7.00075ZM6.88454 11.3854C6.76825 11.3854 6.65673 11.4316 6.5745 11.5138C6.49227 11.596 6.44608 11.7075 6.44608 11.8238V13.1392C6.44608 13.2555 6.49227 13.367 6.5745 13.4493C6.65673 13.5315 6.76825 13.5777 6.88454 13.5777C7.00083 13.5777 7.11235 13.5315 7.19458 13.4493C7.27681 13.367 7.323 13.2555 7.323 13.1392V11.8238C7.323 11.7075 7.27681 11.596 7.19458 11.5138C7.11235 11.4316 7.00083 11.3854 6.88454 11.3854ZM13.023 6.56229H11.7076C11.5913 6.56229 11.4798 6.60848 11.3976 6.69071C11.3153 6.77294 11.2692 6.88446 11.2692 7.00075C11.2692 7.11704 11.3153 7.22856 11.3976 7.31079C11.4798 7.39302 11.5913 7.43921 11.7076 7.43921H13.023C13.1393 7.43921 13.2508 7.39302 13.333 7.31079C13.4153 7.22856 13.4615 7.11704 13.4615 7.00075C13.4615 6.88446 13.4153 6.77294 13.333 6.69071C13.2508 6.60848 13.1393 6.56229 13.023 6.56229Z" fill="#B7B7B7"/>
</svg>
