<svg width="17" height="16" viewBox="0 0 17 16" fill="none" xmlns="http://www.w3.org/2000/svg">
<g clip-path="url(#clip0_19058_129840)">
<path d="M16.2041 9.94368C15.7789 11.3316 14.9269 12.5501 13.7691 13.4257C12.7527 14.1907 11.5431 14.6573 10.2762 14.7731C9.00932 14.8888 7.73522 14.6492 6.59694 14.0811C5.45866 13.513 4.50124 12.6389 3.83216 11.5568C3.16308 10.4748 2.80881 9.22773 2.80911 7.95555C2.80454 6.47065 3.28726 5.02525 4.18323 3.8411C5.05886 2.68336 6.27733 1.83129 7.66524 1.40613C7.75672 1.37796 7.85414 1.37526 7.94703 1.39832C8.03993 1.42139 8.12478 1.46934 8.19246 1.53702C8.26014 1.60469 8.30808 1.68954 8.33115 1.78244C8.35421 1.87533 8.35151 1.97275 8.32335 2.06423C8.01986 3.06811 7.99441 4.13553 8.24972 5.15274C8.50503 6.16995 9.03153 7.09883 9.77311 7.84042C10.5147 8.582 11.4436 9.1085 12.4608 9.36381C13.478 9.61911 14.5454 9.59367 15.5493 9.29018C15.6408 9.26201 15.7382 9.25932 15.8311 9.28238C15.924 9.30544 16.0088 9.35339 16.0765 9.42107C16.1442 9.48875 16.1921 9.5736 16.2152 9.66649C16.2383 9.75938 16.2356 9.85681 16.2074 9.94828L16.2041 9.94368Z" fill="#B7B7B7"/>
</g>
<defs>
<clipPath id="clip0_19058_129840">
<rect width="15.703" height="15.703" fill="white" transform="translate(0.846191 0.148438)"/>
</clipPath>
</defs>
</svg>
