<svg width="28" height="28" viewBox="0 0 28 28" fill="none" xmlns="http://www.w3.org/2000/svg">
<g id="ph:link">
<path id="Vector" d="M15.0437 20.3835C15.2077 20.5475 15.2998 20.77 15.2998 21.002C15.2998 21.2339 15.2077 21.4564 15.0437 21.6205L13.9565 22.7142C12.8068 23.8633 11.2477 24.5085 9.62222 24.508C7.99676 24.5074 6.43809 23.8612 5.28908 22.7115C4.14007 21.5618 3.49485 20.0027 3.49536 18.3772C3.49587 16.7518 4.14208 15.1931 5.29181 14.0441L7.92994 11.406C9.03428 10.3007 10.5192 9.65932 12.081 9.61296C13.6427 9.5666 15.1631 10.1188 16.331 11.1566C16.4172 11.233 16.4875 11.3256 16.5379 11.4292C16.5883 11.5328 16.6177 11.6453 16.6246 11.7602C16.6315 11.8752 16.6157 11.9904 16.5781 12.0993C16.5405 12.2081 16.4818 12.3085 16.4054 12.3947C16.329 12.4809 16.2364 12.5512 16.1328 12.6016C16.0292 12.6519 15.9167 12.6814 15.8017 12.6883C15.6868 12.6952 15.5716 12.6794 15.4627 12.6418C15.3538 12.6042 15.2535 12.5455 15.1673 12.4691C14.3331 11.7283 13.2474 11.3342 12.1323 11.3673C11.0171 11.4004 9.95678 11.8583 9.16806 12.6474L6.52994 15.2822C5.7093 16.1028 5.24827 17.2159 5.24827 18.3764C5.24827 19.537 5.7093 20.65 6.52994 21.4706C7.35057 22.2913 8.4636 22.7523 9.62415 22.7523C10.7847 22.7523 11.8977 22.2913 12.7184 21.4706L13.8056 20.3835C13.8868 20.3021 13.9833 20.2376 14.0896 20.1935C14.1958 20.1495 14.3096 20.1268 14.4246 20.1268C14.5396 20.1268 14.6535 20.1495 14.7597 20.1935C14.8659 20.2376 14.9624 20.3021 15.0437 20.3835ZM22.7087 5.28971C21.5588 4.14239 20.0007 3.49805 18.3763 3.49805C16.752 3.49805 15.1939 4.14239 14.044 5.28971L12.9568 6.37799C12.7928 6.54218 12.7007 6.76481 12.7008 6.9969C12.7009 7.22899 12.7932 7.45153 12.9574 7.61557C13.1215 7.77961 13.3442 7.87171 13.5763 7.87161C13.8084 7.87151 14.0309 7.77921 14.1949 7.61503L15.2821 6.52784C16.1028 5.7072 17.2158 5.24617 18.3763 5.24617C19.5369 5.24617 20.6499 5.7072 21.4706 6.52784C22.2912 7.34848 22.7522 8.4615 22.7522 9.62206C22.7522 10.7826 22.2912 11.8956 21.4706 12.7163L18.8324 15.3566C18.0433 16.1451 16.9827 16.6025 15.8676 16.635C14.7524 16.6675 13.667 16.2728 12.8332 15.5316C12.6592 15.3773 12.4309 15.2984 12.1988 15.3123C11.9666 15.3263 11.7494 15.4319 11.5951 15.606C11.4408 15.78 11.3619 16.0082 11.3759 16.2404C11.3898 16.4726 11.4954 16.6898 11.6695 16.8441C12.8372 17.8821 14.3574 18.4347 15.9191 18.3888C17.4808 18.3428 18.9659 17.7018 20.0706 16.5969L22.7087 13.9588C23.8567 12.8088 24.5014 11.2503 24.5014 9.62534C24.5014 8.00042 23.8567 6.44189 22.7087 5.2919V5.28971Z" fill="black"/>
</g>
</svg>
