<svg width="24" height="24" viewBox="0 0 24 24" fill="none" xmlns="http://www.w3.org/2000/svg">
<path d="M15.89 3H8.11C7.28599 3.00264 6.49648 3.33114 5.91381 3.91381C5.33114 4.49648 5.00264 5.28599 5 6.11V17.47C5 18.92 6.04 19.54 7.31 18.83L11.24 16.64C11.66 16.41 12.34 16.41 12.75 16.64L16.68 18.83C17.95 19.54 18.99 18.92 18.99 17.47V6.11C18.9907 5.70225 18.911 5.29835 18.7556 4.92139C18.6001 4.54442 18.372 4.20176 18.0841 3.91297C17.7962 3.62418 17.4543 3.39491 17.0779 3.23827C16.7014 3.08162 16.2978 3.00066 15.89 3Z" stroke="#3C425D" stroke-width="1.5" stroke-linecap="round" stroke-linejoin="round"/>
</svg>
