<svg width="24" height="25" viewBox="0 0 24 25" fill="none" xmlns="http://www.w3.org/2000/svg">
<g id="ph:share-fat-light">
<path id="Vector" d="M22.1475 10.603L14.6475 3.10298C14.5689 3.02441 14.4687 2.97092 14.3596 2.94926C14.2506 2.92759 14.1376 2.93873 14.0349 2.98127C13.9321 3.0238 13.8443 3.09582 13.7825 3.18823C13.7207 3.28064 13.6876 3.3893 13.6875 3.50048V7.45673C8.58005 7.79329 2.40098 12.613 1.69411 18.7686C1.67115 18.9646 1.71064 19.1629 1.80694 19.3351C1.90324 19.5074 2.05144 19.6449 2.23044 19.728C2.40944 19.8111 2.61009 19.8356 2.80383 19.798C2.99757 19.7604 3.1745 19.6626 3.30942 19.5186C4.36505 18.3927 8.1563 14.8067 13.6875 14.5752V18.5005C13.6876 18.6117 13.7207 18.7203 13.7825 18.8127C13.8443 18.9051 13.9321 18.9772 14.0349 19.0197C14.1376 19.0622 14.2506 19.0734 14.3596 19.0517C14.4687 19.03 14.5689 18.9765 14.6475 18.898L22.1475 11.398C22.2529 11.2925 22.3121 11.1495 22.3121 11.0005C22.3121 10.8514 22.2529 10.7085 22.1475 10.603ZM14.8125 17.143V14.0005C14.8125 13.8513 14.7533 13.7082 14.6478 13.6027C14.5423 13.4972 14.3992 13.438 14.25 13.438C11.6504 13.438 9.1163 14.1177 6.72005 15.4583C5.32339 16.2429 4.03687 17.2091 2.89411 18.3317C3.33474 15.8417 4.78411 13.4567 7.01911 11.5564C9.23161 9.68236 11.9335 8.56298 14.25 8.56298C14.3992 8.56298 14.5423 8.50372 14.6478 8.39823C14.7533 8.29274 14.8125 8.14967 14.8125 8.00048V4.85892L20.9541 11.0005L14.8125 17.143Z" fill="#3769FF"/>
</g>
</svg>
