<svg width="20" height="20" viewBox="0 0 20 20" fill="none" xmlns="http://www.w3.org/2000/svg">
<g id="Frame 1000007437">
<rect width="20" height="20" fill="white"/>
<path id="Vector" d="M16.8537 9.14664L11.8537 4.14664C11.7838 4.07668 11.6948 4.029 11.5978 4.00966C11.5008 3.99031 11.4002 4.00016 11.3089 4.03796C11.2175 4.07576 11.1393 4.13981 11.0844 4.22201C11.0294 4.30421 11 4.40087 11 4.49977V7.02164C9.37871 7.16039 7.58809 7.95414 6.11496 9.20352C4.34121 10.7085 3.23684 12.6479 3.00496 14.6641C2.98684 14.8209 3.01863 14.9794 3.09579 15.117C3.17295 15.2547 3.29157 15.3645 3.43475 15.4308C3.57793 15.4971 3.73838 15.5166 3.89328 15.4865C4.04817 15.4563 4.18961 15.3781 4.29746 15.2629C4.98496 14.531 7.43121 12.2166 11 12.0129V14.4998C11 14.5987 11.0294 14.6953 11.0844 14.7775C11.1393 14.8597 11.2175 14.9238 11.3089 14.9616C11.4002 14.9994 11.5008 15.0092 11.5978 14.9899C11.6948 14.9705 11.7838 14.9229 11.8537 14.8529L16.8537 9.85289C16.9472 9.75916 16.9997 9.63217 16.9997 9.49977C16.9997 9.36737 16.9472 9.24038 16.8537 9.14664ZM12 13.2929V11.4998C12 11.3672 11.9473 11.24 11.8535 11.1462C11.7597 11.0524 11.6326 10.9998 11.5 10.9998C9.74496 10.9998 8.03559 11.4579 6.41934 12.3623C5.59618 12.8249 4.82922 13.3811 4.13371 14.0198C4.49621 12.5298 5.40996 11.1129 6.76184 9.96602C8.21309 8.73539 9.98434 7.99977 11.5 7.99977C11.6326 7.99977 11.7597 7.94709 11.8535 7.85332C11.9473 7.75955 12 7.63238 12 7.49977V5.70727L15.7931 9.49977L12 13.2929Z" fill="#3C425D"/>
</g>
</svg>
