<svg width="19" height="19" viewBox="0 0 19 19" fill="none" xmlns="http://www.w3.org/2000/svg">
<g id="devicon:twitter" clip-path="url(#clip0_3424_62901)">
<path id="Vector" d="M16.4328 6.00358C16.4437 6.16015 16.4437 6.31657 16.4437 6.47451C16.4437 11.2864 12.7804 16.8361 6.0821 16.8361V16.8333C4.10326 16.8361 2.16544 16.2693 0.5 15.2006C0.787744 15.2352 1.07688 15.2526 1.3667 15.2533C3.00679 15.2546 4.5997 14.7045 5.88948 13.6914C5.12956 13.6771 4.39311 13.4256 3.78312 12.9722C3.17312 12.5187 2.72007 11.886 2.48731 11.1625C3.03326 11.2678 3.59571 11.2461 4.13154 11.0996C2.43253 10.7564 1.21028 9.26376 1.21028 7.53022V7.48405C1.71675 7.7662 2.2836 7.92253 2.86311 7.93986C1.2627 6.87042 0.769717 4.74167 1.73598 3.07747C2.65023 4.20247 3.7909 5.12257 5.08391 5.77801C6.37692 6.43344 7.79334 6.80956 9.24118 6.88193C9.09687 6.26051 9.11823 5.61209 9.30313 5.00152C9.48803 4.39094 9.82999 3.83961 10.2948 3.40266C11.7615 2.02384 14.0683 2.09456 15.447 3.5606C16.2626 3.39957 17.0447 3.10055 17.7597 2.67643C17.4878 3.51965 16.9189 4.23543 16.1588 4.69064C16.8807 4.60553 17.5857 4.41222 18.25 4.11723C17.7613 4.84909 17.1459 5.48788 16.4328 6.00358Z" fill="#1D9BF0"/>
</g>
<defs>
<clipPath id="clip0_3424_62901">
<rect width="17.75" height="17.75" fill="white" transform="translate(0.5 0.75)"/>
</clipPath>
</defs>
</svg>
