<svg width="33" height="33" viewBox="0 0 33 33" fill="none" xmlns="http://www.w3.org/2000/svg">
<path d="M26.9983 26.4794L19.1733 14.1819L26.8945 5.68813C27.0692 5.49128 27.1592 5.23354 27.145 4.97078C27.1309 4.70802 27.0138 4.46142 26.819 4.28444C26.6243 4.10747 26.3677 4.01439 26.1047 4.02537C25.8418 4.03635 25.5938 4.15052 25.4145 4.34312L18.0595 12.4331L12.9983 4.47938C12.908 4.33732 12.7834 4.22034 12.6359 4.13927C12.4884 4.05821 12.3229 4.01568 12.1545 4.01563H6.15455C5.97525 4.01554 5.79923 4.06366 5.64491 4.15495C5.49059 4.24624 5.36365 4.37734 5.27739 4.53453C5.19113 4.69171 5.14872 4.8692 5.1546 5.0484C5.16048 5.2276 5.21443 5.40193 5.3108 5.55313L13.1358 17.8494L5.41455 26.3494C5.32438 26.4462 5.25434 26.56 5.20847 26.6842C5.16261 26.8083 5.14183 26.9403 5.14736 27.0725C5.15288 27.2047 5.18459 27.3345 5.24065 27.4544C5.29671 27.5743 5.376 27.6818 5.47394 27.7708C5.57187 27.8598 5.68649 27.9285 5.81116 27.9729C5.93583 28.0172 6.06807 28.0364 6.2002 28.0293C6.33234 28.0222 6.46176 27.9889 6.58095 27.9314C6.70014 27.8739 6.80673 27.7934 6.89455 27.6944L14.2495 19.6044L19.3108 27.5581C19.4018 27.699 19.5268 27.8148 19.6742 27.8947C19.8216 27.9747 19.9868 28.0162 20.1545 28.0156H26.1545C26.3337 28.0156 26.5095 27.9674 26.6636 27.8762C26.8177 27.785 26.9445 27.654 27.0307 27.497C27.117 27.34 27.1594 27.1628 27.1537 26.9838C27.148 26.8047 27.0943 26.6306 26.9983 26.4794ZM20.7033 26.0156L7.9758 6.01562H11.6008L24.3333 26.0156H20.7033Z" fill="black"/>
</svg>

