<svg width="23" height="23" viewBox="0 0 23 23" fill="none" xmlns="http://www.w3.org/2000/svg">
<g id="TwitterLogo">
<path id="Vector" d="M22.2277 6.1937C22.1733 6.06236 22.0812 5.95009 21.963 5.87109C21.8449 5.79209 21.7059 5.7499 21.5638 5.74987H18.8298C18.4476 5.09957 17.9036 4.55923 17.2507 4.18139C16.5978 3.80355 15.8583 3.60106 15.104 3.59362C14.542 3.58625 13.9843 3.69135 13.4635 3.90273C12.9428 4.11411 12.4696 4.42751 12.0718 4.82448C11.6623 5.22629 11.3373 5.70589 11.1159 6.23511C10.8945 6.76432 10.7812 7.33246 10.7825 7.90612V8.45327C7.16539 7.49913 4.20684 4.55675 4.17539 4.5253C4.07896 4.42802 3.95675 4.36032 3.82313 4.33017C3.68951 4.30002 3.55007 4.30868 3.42121 4.35512C3.29235 4.40157 3.17944 4.48387 3.09579 4.59233C3.01213 4.7008 2.96121 4.8309 2.94902 4.96734C2.5618 9.26097 3.80883 12.1342 4.92559 13.7882C5.47011 14.6059 6.13253 15.3385 6.89137 15.9624C5.52305 17.5374 3.36859 18.3648 3.34524 18.3738C3.24381 18.4118 3.15229 18.4722 3.0775 18.5506C3.00271 18.6289 2.94658 18.7231 2.91332 18.8262C2.88006 18.9292 2.87052 19.0385 2.88541 19.1458C2.90031 19.253 2.93925 19.3555 2.99934 19.4457C3.06672 19.5463 3.33625 19.8994 3.99481 20.2291C4.80879 20.637 5.88422 20.8436 7.18875 20.8436C13.538 20.8436 18.8433 15.9543 19.385 9.66347L22.0723 6.97714C22.1728 6.87657 22.2412 6.74845 22.2688 6.609C22.2965 6.46955 22.2822 6.32502 22.2277 6.1937ZM18.1847 8.83601C18.0615 8.95954 17.9874 9.12367 17.9763 9.2978C17.6106 14.966 12.8741 19.4061 7.18875 19.4061C6.24 19.4061 5.57156 19.2803 5.10258 19.1294C6.13668 18.5679 7.57867 17.6021 8.50586 16.2113C8.56028 16.1295 8.59736 16.0374 8.6148 15.9408C8.63225 15.8441 8.6297 15.7449 8.6073 15.6492C8.58491 15.5536 8.54315 15.4636 8.48459 15.3847C8.42604 15.3058 8.35194 15.2398 8.26688 15.1907C8.22465 15.1664 4.32184 12.8242 4.31375 6.56566C5.75125 7.73362 8.37918 9.54577 11.3818 10.0507C11.4847 10.068 11.5901 10.0628 11.6908 10.0353C11.7914 10.0077 11.8849 9.95863 11.9647 9.89135C12.0444 9.82406 12.1086 9.74021 12.1527 9.64562C12.1968 9.55104 12.2198 9.44798 12.22 9.34362V7.90612C12.2192 7.52272 12.2951 7.14302 12.4432 6.78938C12.5913 6.43573 12.8087 6.11529 13.0825 5.84691C13.345 5.58393 13.6575 5.37625 14.0016 5.23613C14.3458 5.09601 14.7145 5.0263 15.086 5.03112C16.2234 5.0455 17.2863 5.73909 17.731 6.75702C17.7871 6.885 17.8792 6.99387 17.9962 7.0703C18.1131 7.14673 18.2499 7.18741 18.3896 7.18737H19.8271L18.1847 8.83601Z" fill="#616161"/>
</g>
</svg>
