<svg width="30" height="19" viewBox="0 0 30 19" fill="none" xmlns="http://www.w3.org/2000/svg">
<g id="very-high.svg" clip-path="url(#clip0_2407_25749)">
<path id="Vector" d="M29.303 16.5766C29.303 14.3061 28.7731 12.0679 27.7565 10.0449L22.8833 12.5627C23.508 13.8059 23.8336 15.1813 23.8336 16.5766H29.303Z" fill="#EF0200"/>
<path id="Vector_2" d="M27.3335 9.26339C26.1954 7.3081 24.6171 5.65375 22.7276 4.43555L19.793 9.11547C20.9541 9.86407 21.924 10.8807 22.6234 12.0823L27.3335 9.26339Z" fill="#FF7800"/>
<path id="Vector_3" d="M22.0344 4.01673C20.0797 2.90939 17.8942 2.28693 15.6567 2.2002L15.4478 7.74199C16.8227 7.79531 18.1657 8.17784 19.367 8.85832L22.0344 4.01673Z" fill="#ECB004"/>
<path id="Vector_4" d="M14.7697 2.19434C12.5312 2.24954 10.3375 2.84105 8.36768 3.92061L10.9683 8.79943C12.1788 8.13598 13.5269 7.77248 14.9025 7.7386L14.7697 2.19434Z" fill="#D2EB00"/>
<path id="Vector_5" d="M7.54909 4.40527C5.65483 5.61579 4.06993 7.26373 2.92407 9.21433L7.62299 12.0524C8.32715 10.8537 9.30112 9.84102 10.4652 9.09712L7.54909 4.40527Z" fill="#8AD400"/>
<path id="Vector_6" d="M2.47229 10.0459C1.45581 12.0689 0.92591 14.3071 0.926025 16.5775L6.39535 16.5774C6.39529 15.1821 6.72094 13.8066 7.34558 12.5635L2.47223 10.0459H2.47229Z" fill="#00D42F"/>
<path id="Vector_7" d="M15.1142 18.2211C16.0098 18.2211 16.7358 17.4849 16.7358 16.5769C16.7358 15.6688 16.0098 14.9326 15.1142 14.9326C14.2187 14.9326 13.4927 15.6688 13.4927 16.5769C13.4927 17.4849 14.2187 18.2211 15.1142 18.2211Z" fill="#19B38D"/>
</g>
<defs>
<clipPath id="clip0_2407_25749">
<rect width="29.565" height="17.52" fill="white" transform="translate(0 0.740234)"/>
</clipPath>
</defs>
</svg>
