<svg width="12" height="14" viewBox="0 0 12 14" fill="none" xmlns="http://www.w3.org/2000/svg">
<path d="M8.78413 1H3.22302C2.63402 1.00189 2.06968 1.23672 1.65319 1.65326C1.2367 2.06979 1.00188 2.63418 1 3.22324V11.3442C1 12.3807 1.74339 12.8239 2.65118 12.3164L5.46033 10.7508C5.76054 10.5864 6.2466 10.5864 6.53967 10.7508L9.34882 12.3164C10.2566 12.8239 11 12.3807 11 11.3442V3.22324C11.0005 2.93175 10.9435 2.64302 10.8324 2.37354C10.7213 2.10406 10.5582 1.8591 10.3525 1.65265C10.1467 1.44621 9.9023 1.28231 9.6332 1.17033C9.36411 1.05835 9.07559 1.00047 8.78413 1Z" fill="#3769FF" stroke="#3769FF" stroke-width="1.07225" stroke-linecap="round" stroke-linejoin="round"/>
</svg>
