<svg width="22" height="22" viewBox="0 0 22 22" fill="none" xmlns="http://www.w3.org/2000/svg">
<g id="logos:whatsapp-icon" clip-path="url(#clip0_3424_62907)">
<path id="Vector" d="M1.21222 10.8299C1.21174 12.5834 1.66991 14.2956 2.54112 15.8047L1.12891 20.9609L6.40565 19.5773C7.86512 20.3719 9.50036 20.7882 11.1621 20.7883H11.1665C16.6521 20.7883 21.1176 16.3244 21.12 10.8378C21.121 8.17908 20.0866 5.67904 18.2071 3.79814C16.328 1.9174 13.8289 0.881096 11.1661 0.879883C5.67972 0.879883 1.21457 5.3435 1.21231 10.8299" fill="url(#paint0_linear_3424_62907)"/>
<path id="Vector_2" d="M0.857062 10.8265C0.856496 12.643 1.33109 14.4164 2.23336 15.9796L0.770508 21.3206L6.23646 19.8875C7.7425 20.7086 9.43816 21.1416 11.1636 21.1422H11.168C16.8505 21.1422 21.4764 16.5178 21.4788 10.8347C21.4798 8.0805 20.4082 5.49058 18.4616 3.5423C16.5147 1.59426 13.9262 0.520664 11.168 0.519531C5.48457 0.519531 0.859327 5.14331 0.857062 10.8265ZM4.11215 15.7104L3.90806 15.3864C3.05012 14.0223 2.59729 12.4458 2.59794 10.8271C2.5998 6.10342 6.44411 2.26033 11.1713 2.26033C13.4605 2.2613 15.6119 3.1537 17.2301 4.77283C18.8482 6.39212 19.7385 8.54466 19.738 10.8341C19.7359 15.5577 15.8915 19.4013 11.168 19.4013H11.1646C9.62664 19.4005 8.11825 18.9875 6.80278 18.207L6.48973 18.0213L3.24612 18.8717L4.11215 15.7103V15.7104Z" fill="url(#paint1_linear_3424_62907)"/>
<path id="Vector_3" d="M8.59086 6.51755C8.39786 6.08858 8.19474 6.07992 8.01119 6.0724C7.8609 6.06593 7.68908 6.06641 7.51743 6.06641C7.34561 6.06641 7.06646 6.13105 6.83049 6.38869C6.59429 6.64657 5.92871 7.26976 5.92871 8.53726C5.92871 9.80483 6.85193 11.0298 6.98063 11.2018C7.10949 11.3736 8.76292 14.0579 11.3816 15.0906C13.5579 15.9487 14.0008 15.7781 14.4731 15.735C14.9455 15.6921 15.9974 15.112 16.212 14.5104C16.4268 13.9089 16.4268 13.3933 16.3624 13.2855C16.298 13.1782 16.1262 13.1137 15.8685 12.9849C15.6108 12.8561 14.3442 12.2328 14.1081 12.1468C13.8719 12.0609 13.7002 12.018 13.5283 12.276C13.3565 12.5336 12.8632 13.1137 12.7128 13.2855C12.5626 13.4578 12.4122 13.4792 12.1546 13.3503C11.8968 13.2211 11.0671 12.9493 10.0828 12.0717C9.31687 11.3889 8.79981 10.5456 8.64951 10.2876C8.49921 10.03 8.63341 9.89042 8.7626 9.76204C8.87835 9.64661 9.02032 9.46121 9.14926 9.31083C9.27772 9.16037 9.32059 9.05302 9.4065 8.88121C9.49249 8.70923 9.44945 8.55878 9.38514 8.42991C9.32059 8.30105 8.81995 7.02693 8.59086 6.51755Z" fill="white"/>
</g>
<defs>
<linearGradient id="paint0_linear_3424_62907" x1="1000.68" y1="2008.98" x2="1000.68" y2="0.879883" gradientUnits="userSpaceOnUse">
<stop stop-color="#1FAF38"/>
<stop offset="1" stop-color="#60D669"/>
</linearGradient>
<linearGradient id="paint1_linear_3424_62907" x1="1036.19" y1="2080.63" x2="1036.19" y2="0.519531" gradientUnits="userSpaceOnUse">
<stop stop-color="#F9F9F9"/>
<stop offset="1" stop-color="white"/>
</linearGradient>
<clipPath id="clip0_3424_62907">
<rect width="20.7083" height="20.8701" fill="white" transform="translate(0.770508 0.519531)"/>
</clipPath>
</defs>
</svg>
