<svg width="517" height="516" viewBox="0 0 517 516" fill="none" xmlns="http://www.w3.org/2000/svg">
<g clip-path="url(#clip0_8328_85289)">
<path d="M52.2019 411.246H86.3838V411.504H52.2019V411.246Z" fill="#EBEBEB"/>
<path d="M174.681 414.047H183.652V414.305H174.681V414.047Z" fill="#EBEBEB"/>
<path d="M87.4175 401.664H107.224V401.922H87.4175V401.664Z" fill="#EBEBEB"/>
<path d="M417.787 403.398H462.362V403.656H417.787V403.398Z" fill="#EBEBEB"/>
<path d="M402.063 403.398H408.599V403.656H402.063V403.398Z" fill="#EBEBEB"/>
<path d="M284.149 407.754H380.822V408.012H284.149V407.754Z" fill="#EBEBEB"/>
<path d="M271.901 348.61H471.18C474.427 348.61 477.07 345.967 477.07 342.719V62.6016C477.07 59.3539 474.427 56.7109 471.18 56.7109H271.901C268.655 56.7109 266.012 59.3539 266.012 62.6016V342.719C266.012 345.967 268.655 348.61 271.901 348.61ZM471.18 56.97C474.286 56.97 476.812 59.4963 476.812 62.6026V342.72C476.812 345.827 474.286 348.353 471.18 348.353H271.901C268.796 348.353 266.27 345.827 266.27 342.72V62.6016C266.27 59.4963 268.796 56.9689 271.901 56.9689L471.18 56.97Z" fill="#EBEBEB"/>
<path d="M48.6838 348.61H247.961C251.209 348.61 253.851 345.967 253.851 342.719V62.6016C253.851 59.3539 251.208 56.7109 247.961 56.7109H48.6838C45.4351 56.7109 42.7932 59.3539 42.7932 62.6016V342.719C42.7921 345.967 45.4351 348.61 48.6838 348.61ZM247.961 56.97C251.066 56.97 253.593 59.4963 253.593 62.6026V342.72C253.593 345.827 251.066 348.353 247.961 348.353H48.6838C45.5775 348.353 43.0512 345.827 43.0512 342.72V62.6016C43.0512 59.4963 45.5775 56.9689 48.6838 56.9689L247.961 56.97Z" fill="#EBEBEB"/>
<path d="M0.5 394.637H516.5V394.895H0.5V394.637Z" fill="#EBEBEB"/>
<path d="M71.8619 145.242H159.147V365.156H71.8619V145.242Z" fill="#E0E0E0"/>
<path d="M71.8613 143.312V367.084H55.7797V143.312H71.8613Z" fill="#E6E6E6"/>
<path d="M174.458 143.312V367.084H158.376V143.312H174.458Z" fill="#E6E6E6"/>
<path d="M177.188 143.312V367.084H69.9327V143.312H177.188ZM73.7904 147.171V187.295H173.33V147.171H73.7904ZM173.33 275.261V235.137H73.7904V275.261H173.33ZM73.7904 279.119V319.243H173.33V279.119H73.7904ZM173.33 231.278V191.153H73.7904V231.278H173.33ZM173.33 363.227V323.102H73.7904V363.227H173.33Z" fill="#F5F5F5"/>
<path d="M108.566 187.66H104.855V156.526H108.566V187.66Z" fill="#E6E6E6"/>
<path d="M104.856 187.66H101.146V156.526H104.856V187.66Z" fill="#E0E0E0"/>
<path d="M115.986 187.66H108.565V158.714H115.986V187.66Z" fill="#E6E6E6"/>
<path d="M124.49 187.66H119.695V156.526H124.49V187.66Z" fill="#F0F0F0"/>
<path d="M119.695 187.66H115.985V156.526H119.695V187.66Z" fill="#EBEBEB"/>
<path d="M152.63 187.66H147.835V156.526H152.63V187.66Z" fill="#E6E6E6"/>
<path d="M147.835 187.66H144.125V156.526H147.835V187.66Z" fill="#EBEBEB"/>
<path d="M136.705 187.66H131.91V156.526H136.705V187.66Z" fill="#E6E6E6"/>
<path d="M131.91 187.66H128.2V156.526H131.91V187.66Z" fill="#E0E0E0"/>
<path d="M160.05 187.664H152.63V157.268H160.05V187.664Z" fill="#EBEBEB"/>
<path d="M163.76 187.664H160.05V157.268H163.76V187.664Z" fill="#E0E0E0"/>
<path d="M141.65 187.664H136.704V157.268H141.65V187.664Z" fill="#E0E0E0"/>
<path d="M144.125 187.664H141.651V157.268H144.125V187.664Z" fill="#F0F0F0"/>
<path d="M131.91 187.66H124.49V158.714H131.91V187.66Z" fill="#F5F5F5"/>
<path d="M90.0144 187.66H85.2197V156.526H90.0144V187.66Z" fill="#EBEBEB"/>
<path d="M85.2208 187.66H81.5107V156.526H85.2208V187.66Z" fill="#E6E6E6"/>
<path d="M97.4357 187.664H90.0156V157.268H97.4357V187.664Z" fill="#E0E0E0"/>
<path d="M101.146 187.664H97.4355V157.268H101.146V187.664Z" fill="#EBEBEB"/>
<path d="M79.0372 187.664H74.0908V157.268H79.0372V187.664Z" fill="#EBEBEB"/>
<path d="M81.5108 187.664H79.0371V157.268H81.5108V187.664Z" fill="#FAFAFA"/>
<path d="M129.284 200.129H132.994V231.263H129.284V200.129Z" fill="#E6E6E6"/>
<path d="M132.994 200.129H136.704V231.263H132.994V200.129Z" fill="#E0E0E0"/>
<path d="M121.865 202.316H129.285V231.263H121.865V202.316Z" fill="#E6E6E6"/>
<path d="M113.36 200.129H118.154V231.263H113.36V200.129Z" fill="#F0F0F0"/>
<path d="M118.155 200.129H121.865V231.263H118.155V200.129Z" fill="#EBEBEB"/>
<path d="M85.221 200.129H90.0156V231.263H85.221V200.129Z" fill="#E6E6E6"/>
<path d="M90.0155 200.129H93.7256V231.263H90.0155V200.129Z" fill="#EBEBEB"/>
<path d="M101.146 200.129H105.94V231.263H101.146V200.129Z" fill="#E6E6E6"/>
<path d="M105.939 200.129H109.649V231.263H105.939V200.129Z" fill="#E0E0E0"/>
<path d="M77.8006 200.867H85.2207V231.264H77.8006V200.867Z" fill="#EBEBEB"/>
<path d="M74.0907 200.867H77.8008V231.264H74.0907V200.867Z" fill="#E0E0E0"/>
<path d="M96.1982 200.867H101.145V231.264H96.1982V200.867Z" fill="#E0E0E0"/>
<path d="M93.7246 200.867H96.1982V231.264H93.7246V200.867Z" fill="#F0F0F0"/>
<path d="M105.939 202.316H113.359V231.263H105.939V202.316Z" fill="#F5F5F5"/>
<path d="M147.835 200.129H152.63V231.263H147.835V200.129Z" fill="#EBEBEB"/>
<path d="M152.629 200.129H156.339V231.263H152.629V200.129Z" fill="#E6E6E6"/>
<path d="M140.414 200.867H147.834V231.264H140.414V200.867Z" fill="#E0E0E0"/>
<path d="M136.704 200.867H140.414V231.264H136.704V200.867Z" fill="#EBEBEB"/>
<path d="M158.812 200.867H163.759V231.264H158.812V200.867Z" fill="#EBEBEB"/>
<path d="M156.339 200.867H158.812V231.264H156.339V200.867Z" fill="#FAFAFA"/>
<path d="M129.284 244.496H132.994V275.631H129.284V244.496Z" fill="#E6E6E6"/>
<path d="M132.994 244.496H136.704V275.631H132.994V244.496Z" fill="#E0E0E0"/>
<path d="M121.865 246.684H129.285V275.63H121.865V246.684Z" fill="#E6E6E6"/>
<path d="M113.36 244.496H118.154V275.631H113.36V244.496Z" fill="#F0F0F0"/>
<path d="M118.155 244.496H121.865V275.631H118.155V244.496Z" fill="#EBEBEB"/>
<path d="M85.221 244.496H90.0156V275.631H85.221V244.496Z" fill="#E6E6E6"/>
<path d="M90.0155 244.496H93.7256V275.631H90.0155V244.496Z" fill="#EBEBEB"/>
<path d="M101.146 244.496H105.94V275.631H101.146V244.496Z" fill="#E6E6E6"/>
<path d="M105.939 244.496H109.649V275.631H105.939V244.496Z" fill="#E0E0E0"/>
<path d="M77.8006 245.234H85.2207V275.631H77.8006V245.234Z" fill="#EBEBEB"/>
<path d="M74.0907 245.234H77.8008V275.631H74.0907V245.234Z" fill="#E0E0E0"/>
<path d="M96.1982 245.234H101.145V275.631H96.1982V245.234Z" fill="#E0E0E0"/>
<path d="M93.7246 245.234H96.1982V275.631H93.7246V245.234Z" fill="#F0F0F0"/>
<path d="M105.939 246.684H113.359V275.63H105.939V246.684Z" fill="#F5F5F5"/>
<path d="M147.835 244.496H152.63V275.631H147.835V244.496Z" fill="#EBEBEB"/>
<path d="M152.629 244.496H156.339V275.631H152.629V244.496Z" fill="#E6E6E6"/>
<path d="M140.414 245.234H147.834V275.631H140.414V245.234Z" fill="#E0E0E0"/>
<path d="M136.704 245.234H140.414V275.631H136.704V245.234Z" fill="#EBEBEB"/>
<path d="M158.812 245.234H163.759V275.631H158.812V245.234Z" fill="#EBEBEB"/>
<path d="M156.339 245.234H158.812V275.631H156.339V245.234Z" fill="#FAFAFA"/>
<path d="M108.566 319.996H104.855V288.862H108.566V319.996Z" fill="#E6E6E6"/>
<path d="M104.856 319.996H101.146V288.862H104.856V319.996Z" fill="#E0E0E0"/>
<path d="M115.986 317.809H108.565V288.862H115.986V317.809Z" fill="#E6E6E6"/>
<path d="M124.49 319.996H119.695V288.862H124.49V319.996Z" fill="#F0F0F0"/>
<path d="M119.695 319.996H115.985V288.862H119.695V319.996Z" fill="#EBEBEB"/>
<path d="M152.63 319.996H147.835V288.862H152.63V319.996Z" fill="#E6E6E6"/>
<path d="M147.835 319.996H144.125V288.862H147.835V319.996Z" fill="#EBEBEB"/>
<path d="M136.705 319.996H131.91V288.862H136.705V319.996Z" fill="#E6E6E6"/>
<path d="M131.91 319.996H128.2V288.862H131.91V319.996Z" fill="#E0E0E0"/>
<path d="M160.05 319.262H152.63V288.865H160.05V319.262Z" fill="#EBEBEB"/>
<path d="M163.76 319.262H160.05V288.865H163.76V319.262Z" fill="#E0E0E0"/>
<path d="M141.65 319.262H136.704V288.865H141.65V319.262Z" fill="#E0E0E0"/>
<path d="M144.125 319.262H141.651V288.865H144.125V319.262Z" fill="#F0F0F0"/>
<path d="M131.91 317.809H124.49V288.862H131.91V317.809Z" fill="#F5F5F5"/>
<path d="M90.0144 319.996H85.2197V288.862H90.0144V319.996Z" fill="#EBEBEB"/>
<path d="M85.2208 319.996H81.5107V288.862H85.2208V319.996Z" fill="#E6E6E6"/>
<path d="M97.4357 319.262H90.0156V288.865H97.4357V319.262Z" fill="#E0E0E0"/>
<path d="M101.146 319.262H97.4355V288.865H101.146V319.262Z" fill="#EBEBEB"/>
<path d="M79.0372 319.262H74.0908V288.865H79.0372V319.262Z" fill="#EBEBEB"/>
<path d="M81.5108 319.262H79.0371V288.865H81.5108V319.262Z" fill="#FAFAFA"/>
<path d="M129.284 333.234H132.994V364.369H129.284V333.234Z" fill="#E6E6E6"/>
<path d="M132.994 333.234H136.704V364.369H132.994V333.234Z" fill="#E0E0E0"/>
<path d="M121.865 333.234H129.285V362.181H121.865V333.234Z" fill="#E6E6E6"/>
<path d="M113.36 333.234H118.154V364.369H113.36V333.234Z" fill="#F0F0F0"/>
<path d="M118.155 333.234H121.865V364.369H118.155V333.234Z" fill="#EBEBEB"/>
<path d="M85.221 333.234H90.0156V364.369H85.221V333.234Z" fill="#E6E6E6"/>
<path d="M90.0155 333.234H93.7256V364.369H90.0155V333.234Z" fill="#EBEBEB"/>
<path d="M101.146 333.234H105.94V364.369H101.146V333.234Z" fill="#E6E6E6"/>
<path d="M105.939 333.234H109.649V364.369H105.939V333.234Z" fill="#E0E0E0"/>
<path d="M77.8006 333.234H85.2207V363.631H77.8006V333.234Z" fill="#EBEBEB"/>
<path d="M74.0907 333.234H77.8008V363.631H74.0907V333.234Z" fill="#E0E0E0"/>
<path d="M96.1982 333.234H101.145V363.631H96.1982V333.234Z" fill="#E0E0E0"/>
<path d="M93.7246 333.234H96.1982V363.631H93.7246V333.234Z" fill="#F0F0F0"/>
<path d="M105.939 333.234H113.359V362.181H105.939V333.234Z" fill="#F5F5F5"/>
<path d="M147.835 333.234H152.63V364.369H147.835V333.234Z" fill="#EBEBEB"/>
<path d="M152.629 333.234H156.339V364.369H152.629V333.234Z" fill="#E6E6E6"/>
<path d="M140.414 333.234H147.834V363.631H140.414V333.234Z" fill="#E0E0E0"/>
<path d="M136.704 333.234H140.414V363.631H136.704V333.234Z" fill="#EBEBEB"/>
<path d="M158.812 333.234H163.759V363.631H158.812V333.234Z" fill="#EBEBEB"/>
<path d="M156.339 333.234H158.812V363.631H156.339V333.234Z" fill="#FAFAFA"/>
<path d="M73.9895 103.816H139.14V125.382H73.9895V103.816Z" fill="#E6E6E6"/>
<path d="M138.043 56.9688H139.075V103.817H138.043V56.9688Z" fill="#E6E6E6"/>
<path d="M74.0901 56.9688H75.1221V103.817H74.0901V56.9688Z" fill="#E6E6E6"/>
<path d="M178.535 133.488H278.48V385.297H178.535V133.488Z" fill="#E0E0E0"/>
<path d="M178.534 131.277V387.503H160.12V131.277H178.534Z" fill="#E6E6E6"/>
<path d="M296.011 131.277V387.503H277.597V131.277H296.011Z" fill="#E6E6E6"/>
<path d="M299.138 131.277V387.503H176.326V131.277H299.138ZM180.744 135.695V181.639H294.72V135.695H180.744ZM294.72 282.363V236.42H180.743V282.363H294.72ZM180.744 286.78V332.725H294.72V286.78H180.744ZM294.72 232.002V186.057H180.743V232.002H294.72ZM294.72 383.086V337.142H180.743V383.086H294.72Z" fill="#F5F5F5"/>
<path d="M220.561 182.062H216.313V146.413H220.561V182.062Z" fill="#E6E6E6"/>
<path d="M216.313 182.062H212.065V146.413H216.313V182.062Z" fill="#E0E0E0"/>
<path d="M229.058 182.062H220.562V148.918H229.058V182.062Z" fill="#E6E6E6"/>
<path d="M238.797 182.062H233.307V146.413H238.797V182.062Z" fill="#F0F0F0"/>
<path d="M233.306 182.062H229.059V146.413H233.306V182.062Z" fill="#EBEBEB"/>
<path d="M271.017 182.062H265.526V146.413H271.017V182.062Z" fill="#E6E6E6"/>
<path d="M265.526 182.062H261.278V146.413H265.526V182.062Z" fill="#EBEBEB"/>
<path d="M252.782 182.062H247.292V146.413H252.782V182.062Z" fill="#E6E6E6"/>
<path d="M247.292 182.062H243.044V146.413H247.292V182.062Z" fill="#E0E0E0"/>
<path d="M279.514 182.062H271.018V147.257H279.514V182.062Z" fill="#EBEBEB"/>
<path d="M283.76 182.062H279.513V147.257H283.76V182.062Z" fill="#E0E0E0"/>
<path d="M258.448 182.062H252.783V147.257H258.448V182.062Z" fill="#E0E0E0"/>
<path d="M261.278 182.062H258.446V147.257H261.278V182.062Z" fill="#F0F0F0"/>
<path d="M247.292 182.062H238.796V148.918H247.292V182.062Z" fill="#F5F5F5"/>
<path d="M199.321 182.062H193.831V146.413H199.321V182.062Z" fill="#EBEBEB"/>
<path d="M193.831 182.062H189.583V146.413H193.831V182.062Z" fill="#E6E6E6"/>
<path d="M207.818 182.062H199.321V147.257H207.818V182.062Z" fill="#E0E0E0"/>
<path d="M212.066 182.062H207.818V147.257H212.066V182.062Z" fill="#EBEBEB"/>
<path d="M186.752 182.062H181.087V147.257H186.752V182.062Z" fill="#EBEBEB"/>
<path d="M189.584 182.062H186.752V147.257H189.584V182.062Z" fill="#FAFAFA"/>
<path d="M244.286 196.332H248.534V231.981H244.286V196.332Z" fill="#E6E6E6"/>
<path d="M248.535 196.332H252.782V231.981H248.535V196.332Z" fill="#E0E0E0"/>
<path d="M235.79 198.836H244.286V231.981H235.79V198.836Z" fill="#E6E6E6"/>
<path d="M226.052 196.332H231.542V231.981H226.052V196.332Z" fill="#F0F0F0"/>
<path d="M231.541 196.332H235.789V231.981H231.541V196.332Z" fill="#EBEBEB"/>
<path d="M193.831 196.332H199.321V231.981H193.831V196.332Z" fill="#E6E6E6"/>
<path d="M199.322 196.332H203.569V231.981H199.322V196.332Z" fill="#EBEBEB"/>
<path d="M212.065 196.332H217.556V231.981H212.065V196.332Z" fill="#E6E6E6"/>
<path d="M217.556 196.332H221.804V231.981H217.556V196.332Z" fill="#E0E0E0"/>
<path d="M185.334 197.176H193.83V231.981H185.334V197.176Z" fill="#EBEBEB"/>
<path d="M181.087 197.176H185.335V231.981H181.087V197.176Z" fill="#E0E0E0"/>
<path d="M206.401 197.176H212.064V231.981H206.401V197.176Z" fill="#E0E0E0"/>
<path d="M203.57 197.176H206.401V231.981H203.57V197.176Z" fill="#F0F0F0"/>
<path d="M217.555 198.836H226.052V231.981H217.555V198.836Z" fill="#F5F5F5"/>
<path d="M265.526 196.332H271.017V231.981H265.526V196.332Z" fill="#EBEBEB"/>
<path d="M271.017 196.332H275.265V231.981H271.017V196.332Z" fill="#E6E6E6"/>
<path d="M257.03 197.176H265.526V231.981H257.03V197.176Z" fill="#E0E0E0"/>
<path d="M252.783 197.176H257.03V231.981H252.783V197.176Z" fill="#EBEBEB"/>
<path d="M278.096 197.176H283.761V231.981H278.096V197.176Z" fill="#EBEBEB"/>
<path d="M275.264 197.176H278.096V231.981H275.264V197.176Z" fill="#FAFAFA"/>
<path d="M244.286 247.137H248.534V282.786H244.286V247.137Z" fill="#E6E6E6"/>
<path d="M248.535 247.137H252.782V282.786H248.535V247.137Z" fill="#E0E0E0"/>
<path d="M235.79 249.641H244.286V282.785H235.79V249.641Z" fill="#E6E6E6"/>
<path d="M226.052 247.137H231.542V282.786H226.052V247.137Z" fill="#F0F0F0"/>
<path d="M231.541 247.137H235.789V282.786H231.541V247.137Z" fill="#EBEBEB"/>
<path d="M193.831 247.137H199.321V282.786H193.831V247.137Z" fill="#E6E6E6"/>
<path d="M199.322 247.137H203.569V282.786H199.322V247.137Z" fill="#EBEBEB"/>
<path d="M212.065 247.137H217.556V282.786H212.065V247.137Z" fill="#E6E6E6"/>
<path d="M217.556 247.137H221.804V282.786H217.556V247.137Z" fill="#E0E0E0"/>
<path d="M185.334 247.98H193.83V282.786H185.334V247.98Z" fill="#EBEBEB"/>
<path d="M181.087 247.98H185.335V282.786H181.087V247.98Z" fill="#E0E0E0"/>
<path d="M206.401 247.98H212.064V282.786H206.401V247.98Z" fill="#E0E0E0"/>
<path d="M203.57 247.98H206.401V282.786H203.57V247.98Z" fill="#F0F0F0"/>
<path d="M217.555 249.641H226.052V282.785H217.555V249.641Z" fill="#F5F5F5"/>
<path d="M265.526 247.137H271.017V282.786H265.526V247.137Z" fill="#EBEBEB"/>
<path d="M271.017 247.137H275.265V282.786H271.017V247.137Z" fill="#E6E6E6"/>
<path d="M257.03 247.98H265.526V282.786H257.03V247.98Z" fill="#E0E0E0"/>
<path d="M252.783 247.98H257.03V282.786H252.783V247.98Z" fill="#EBEBEB"/>
<path d="M278.096 247.98H283.761V282.786H278.096V247.98Z" fill="#EBEBEB"/>
<path d="M275.264 247.98H278.096V282.786H275.264V247.98Z" fill="#FAFAFA"/>
<path d="M220.561 333.586H216.313V297.937H220.561V333.586Z" fill="#E6E6E6"/>
<path d="M216.313 333.586H212.065V297.937H216.313V333.586Z" fill="#E0E0E0"/>
<path d="M229.058 331.082H220.562V297.937H229.058V331.082Z" fill="#E6E6E6"/>
<path d="M238.797 333.586H233.307V297.937H238.797V333.586Z" fill="#F0F0F0"/>
<path d="M233.306 333.586H229.059V297.937H233.306V333.586Z" fill="#EBEBEB"/>
<path d="M271.017 333.586H265.526V297.937H271.017V333.586Z" fill="#E6E6E6"/>
<path d="M265.526 333.586H261.278V297.937H265.526V333.586Z" fill="#EBEBEB"/>
<path d="M252.782 333.586H247.292V297.937H252.782V333.586Z" fill="#E6E6E6"/>
<path d="M247.292 333.586H243.044V297.937H247.292V333.586Z" fill="#E0E0E0"/>
<path d="M279.514 332.742H271.018V297.937H279.514V332.742Z" fill="#EBEBEB"/>
<path d="M283.76 332.742H279.513V297.937H283.76V332.742Z" fill="#E0E0E0"/>
<path d="M258.448 332.742H252.783V297.937H258.448V332.742Z" fill="#E0E0E0"/>
<path d="M261.278 332.742H258.446V297.937H261.278V332.742Z" fill="#F0F0F0"/>
<path d="M247.292 331.082H238.796V297.937H247.292V331.082Z" fill="#F5F5F5"/>
<path d="M199.321 333.586H193.831V297.937H199.321V333.586Z" fill="#EBEBEB"/>
<path d="M193.831 333.586H189.583V297.937H193.831V333.586Z" fill="#E6E6E6"/>
<path d="M207.818 332.742H199.321V297.937H207.818V332.742Z" fill="#E0E0E0"/>
<path d="M212.066 332.742H207.818V297.937H212.066V332.742Z" fill="#EBEBEB"/>
<path d="M186.752 332.742H181.087V297.937H186.752V332.742Z" fill="#EBEBEB"/>
<path d="M189.584 332.742H186.752V297.937H189.584V332.742Z" fill="#FAFAFA"/>
<path d="M244.286 348.742H248.534V384.392H244.286V348.742Z" fill="#E6E6E6"/>
<path d="M248.535 348.742H252.782V384.392H248.535V348.742Z" fill="#E0E0E0"/>
<path d="M235.79 348.742H244.286V381.887H235.79V348.742Z" fill="#E6E6E6"/>
<path d="M226.052 348.742H231.542V384.392H226.052V348.742Z" fill="#F0F0F0"/>
<path d="M231.541 348.742H235.789V384.392H231.541V348.742Z" fill="#EBEBEB"/>
<path d="M193.831 348.742H199.321V384.392H193.831V348.742Z" fill="#E6E6E6"/>
<path d="M199.322 348.742H203.569V384.392H199.322V348.742Z" fill="#EBEBEB"/>
<path d="M212.065 348.742H217.556V384.392H212.065V348.742Z" fill="#E6E6E6"/>
<path d="M217.556 348.742H221.804V384.392H217.556V348.742Z" fill="#E0E0E0"/>
<path d="M185.334 348.742H193.83V383.547H185.334V348.742Z" fill="#EBEBEB"/>
<path d="M181.087 348.742H185.335V383.547H181.087V348.742Z" fill="#E0E0E0"/>
<path d="M206.401 348.742H212.064V383.547H206.401V348.742Z" fill="#E0E0E0"/>
<path d="M203.57 348.742H206.401V383.547H203.57V348.742Z" fill="#F0F0F0"/>
<path d="M217.555 348.742H226.052V381.887H217.555V348.742Z" fill="#F5F5F5"/>
<path d="M265.526 348.742H271.017V384.392H265.526V348.742Z" fill="#EBEBEB"/>
<path d="M271.017 348.742H275.265V384.392H271.017V348.742Z" fill="#E6E6E6"/>
<path d="M257.03 348.742H265.526V383.547H257.03V348.742Z" fill="#E0E0E0"/>
<path d="M252.783 348.742H257.03V383.547H252.783V348.742Z" fill="#EBEBEB"/>
<path d="M278.096 348.742H283.761V383.547H278.096V348.742Z" fill="#EBEBEB"/>
<path d="M275.264 348.742H278.096V383.547H275.264V348.742Z" fill="#FAFAFA"/>
<path d="M196.505 86.0547H271.104V110.747H196.505V86.0547Z" fill="#E6E6E6"/>
<path d="M269.923 56.9688H270.955V86.0546H269.923V56.9688Z" fill="#E6E6E6"/>
<path d="M196.619 56.7109H197.651V86.0548H196.619V56.7109Z" fill="#E6E6E6"/>
<path d="M263.476 437.273C152.967 437.273 63.3824 432.041 63.3824 425.588C63.3824 419.134 152.967 413.902 263.476 413.902C373.984 413.902 463.569 419.134 463.569 425.588C463.569 432.041 373.984 437.273 263.476 437.273Z" fill="#F5F5F5"/>
<path d="M87.667 351.648H81.8775L71.9393 419.138C71.6844 420.868 73.025 421.551 74.7732 421.551C76.1943 421.551 77.3996 421.379 77.6071 419.973L87.667 351.648Z" fill="#263238"/>
<path opacity="0.2" d="M87.667 351.648H81.8775L71.9393 419.138C71.6844 420.868 73.025 421.551 74.7732 421.551C76.1943 421.551 77.3996 421.379 77.6071 419.973L87.667 351.648Z" fill="white"/>
<path d="M106.008 351.648H100.218L95.2358 419.321C95.113 420.994 96.437 421.551 98.1151 421.551C99.6269 421.551 100.883 421.253 100.994 419.745L106.008 351.648Z" fill="#263238"/>
<path opacity="0.2" d="M106.008 351.648H100.218L95.2358 419.321C95.113 420.994 96.437 421.551 98.1151 421.551C99.6269 421.551 100.883 421.253 100.994 419.745L106.008 351.648Z" fill="white"/>
<path d="M119.737 351.648H125.526L130.509 419.321C130.632 420.994 129.307 421.551 127.629 421.551C126.117 421.551 124.861 421.253 124.75 419.745L119.737 351.648Z" fill="#263238"/>
<path opacity="0.2" d="M119.737 351.648H125.526L130.509 419.321C130.632 420.994 129.307 421.551 127.629 421.551C126.117 421.551 124.861 421.253 124.75 419.745L119.737 351.648Z" fill="white"/>
<path d="M138.077 351.648H143.867L153.805 419.138C154.06 420.868 152.719 421.551 150.971 421.551C149.551 421.551 148.344 421.379 148.138 419.973L138.077 351.648Z" fill="#263238"/>
<path opacity="0.2" d="M138.077 351.648H143.867L153.805 419.138C154.06 420.868 152.719 421.551 150.971 421.551C149.551 421.551 148.344 421.379 148.138 419.973L138.077 351.648Z" fill="white"/>
<path d="M97.3659 273.765L121.495 347.36H68.7145L59.5958 269.816H91.9159C94.3958 269.817 96.594 271.41 97.3659 273.765Z" fill="#263238"/>
<path opacity="0.2" d="M97.3659 273.765L121.495 347.36H68.7145L59.5958 269.816H91.9159C94.3958 269.817 96.594 271.41 97.3659 273.765Z" fill="white"/>
<path d="M105.625 341.465H157.897C160.311 341.465 162.268 343.422 162.268 345.836V348.885C162.268 351.299 160.311 353.255 157.897 353.255H105.625V341.465Z" fill="#263238"/>
<path opacity="0.1" d="M105.625 341.465H157.897C160.311 341.465 162.268 343.422 162.268 345.836V348.885C162.268 351.299 160.311 353.255 157.897 353.255H105.625V341.465Z" fill="white"/>
<path d="M64.0003 274.124L70.8084 333.244C71.3481 337.928 75.3141 341.464 80.0293 341.464H116.452C118.866 341.464 120.823 343.421 120.823 345.836V348.884C120.823 351.298 118.867 353.255 116.452 353.255H72.3482C67.5751 353.255 63.5803 349.635 63.1107 344.886L55.6875 269.816H59.1685C61.6401 269.817 63.7175 271.67 64.0003 274.124Z" fill="#263238"/>
<path opacity="0.3" d="M64.0003 274.124L70.8084 333.244C71.3481 337.928 75.3141 341.464 80.0293 341.464H116.452C118.866 341.464 120.823 343.421 120.823 345.836V348.884C120.823 351.298 118.867 353.255 116.452 353.255H72.3482C67.5751 353.255 63.5803 349.635 63.1107 344.886L55.6875 269.816H59.1685C61.6401 269.817 63.7175 271.67 64.0003 274.124Z" fill="white"/>
<path d="M148.827 398.484L148.089 412.304L155.813 412.897L157.748 399.777L148.827 398.484Z" fill="#FF8B7B"/>
<path d="M159.155 413.666C160.157 413.73 161.204 413.612 161.563 413.202C161.75 412.962 161.766 412.628 161.601 412.371C161.48 412.141 161.275 411.968 161.028 411.886C159.706 411.431 156.794 412.859 156.666 412.922C156.594 412.958 156.551 413.035 156.561 413.115C156.571 413.195 156.628 413.26 156.705 413.282C157.509 413.482 158.328 413.611 159.155 413.666ZM160.535 412.18C160.659 412.186 160.78 412.21 160.897 412.251C161.055 412.288 161.186 412.395 161.255 412.542C161.382 412.788 161.324 412.9 161.266 412.962C160.86 413.462 158.827 413.347 157.339 413.067C158.339 412.571 159.423 412.271 160.535 412.18Z" fill="#407BFF"/>
<path d="M156.735 413.282C156.761 413.291 156.79 413.29 156.816 413.28C157.806 412.914 159.853 411.289 159.739 410.372C159.732 410.152 159.586 409.875 159.063 409.79C158.682 409.725 158.291 409.819 157.98 410.049C156.901 410.828 156.549 412.987 156.531 413.087C156.522 413.155 156.55 413.224 156.605 413.265C156.645 413.287 156.691 413.293 156.735 413.282ZM158.912 410.144L159.022 410.141C159.364 410.191 159.377 410.33 159.389 410.381C159.403 410.931 158.048 412.217 157.012 412.744C157.165 411.837 157.593 410.998 158.238 410.342C158.43 410.196 158.67 410.126 158.912 410.144Z" fill="#407BFF"/>
<path d="M155.954 412.104L147.159 411.548C146.828 411.528 146.526 411.739 146.433 412.057L144.39 419.112C144.205 419.736 144.561 420.393 145.185 420.578C145.265 420.602 145.348 420.617 145.431 420.624C148.604 420.769 151.435 420.773 155.381 421.028C160.039 421.324 158.822 421.806 164.292 422.231C167.589 422.482 168.43 418.77 167.043 418.498C160.691 417.287 160.148 415.312 157.823 412.864C157.314 412.389 156.648 412.119 155.954 412.104Z" fill="#263238"/>
<path opacity="0.2" d="M157.747 399.777L156.782 406.321L148.44 405.716L148.827 398.485V398.484L157.747 399.777Z" fill="#263238"/>
<path d="M116.593 312.249C116.593 312.249 160.206 318.604 166.057 332.906C171.907 347.207 159.231 400.655 159.231 400.655L147.299 399.68C147.299 399.68 147.39 366.807 149.805 342.331L116.593 340.705L86.1008 309.648L116.593 312.249Z" fill="#407BFF"/>
<path opacity="0.5" d="M116.593 312.249C116.593 312.249 160.206 318.604 166.057 332.906C171.907 347.207 159.231 400.655 159.231 400.655L147.299 399.68C147.299 399.68 147.39 366.807 149.805 342.331L116.593 340.705L86.1008 309.648L116.593 312.249Z" fill="black"/>
<path d="M160.043 399.967L146.548 398.484V402.192L159.302 403.304L160.043 399.967Z" fill="#407BFF"/>
<path d="M119.187 400.031L118.448 413.85L126.172 414.444L128.107 401.324L119.187 400.031Z" fill="#FF8B7B"/>
<path d="M129.515 415.213C130.517 415.276 131.564 415.159 131.923 414.749C132.111 414.508 132.126 414.175 131.961 413.918C131.84 413.688 131.635 413.515 131.388 413.433C130.066 412.978 127.154 414.406 127.026 414.469C126.954 414.505 126.912 414.582 126.921 414.662C126.931 414.742 126.988 414.807 127.065 414.828C127.868 415.029 128.689 415.158 129.515 415.213ZM130.895 413.727C131.019 413.732 131.141 413.757 131.257 413.797C131.415 413.835 131.546 413.942 131.615 414.087C131.742 414.334 131.685 414.445 131.627 414.507C131.22 415.008 129.187 414.892 127.699 414.613C128.699 414.117 129.784 413.818 130.895 413.727Z" fill="#407BFF"/>
<path d="M127.095 414.829C127.121 414.838 127.15 414.837 127.175 414.827C128.165 414.46 130.212 412.836 130.098 411.919C130.092 411.699 129.944 411.422 129.422 411.337C129.041 411.272 128.65 411.365 128.339 411.596C127.26 412.374 126.908 414.534 126.89 414.634C126.881 414.702 126.91 414.77 126.965 414.811C127.005 414.834 127.051 414.84 127.095 414.829ZM129.271 411.691L129.382 411.687C129.723 411.738 129.737 411.878 129.748 411.928C129.763 412.478 128.408 413.764 127.371 414.291C127.524 413.384 127.952 412.545 128.597 411.889C128.79 411.743 129.03 411.673 129.271 411.691Z" fill="#407BFF"/>
<path d="M126.313 413.65L117.519 413.095C117.187 413.074 116.885 413.286 116.792 413.604L114.75 420.659C114.564 421.283 114.92 421.94 115.544 422.125C115.625 422.149 115.707 422.164 115.79 422.171C118.963 422.316 121.794 422.32 125.74 422.575C130.398 422.871 129.181 423.353 134.652 423.777C137.948 424.029 138.789 420.317 137.402 420.045C131.05 418.834 130.507 416.859 128.182 414.411C127.674 413.937 127.009 413.666 126.313 413.65Z" fill="#263238"/>
<path opacity="0.2" d="M118.776 407.706L119.187 400.032V400.031L128.107 401.324L127.084 408.266L118.776 407.706Z" fill="#263238"/>
<path d="M74.7255 311.598C74.7255 311.598 65.6254 341.175 83.8257 341.825C102.027 342.475 126.079 341.825 126.079 341.825C126.079 341.825 117.599 365.148 117.569 402.605L129.005 403.58C129.005 403.58 148.233 340.228 143.63 331.75C137.455 320.374 94.5513 311.598 94.5513 311.598H74.7255Z" fill="#407BFF"/>
<path opacity="0.4" d="M74.7255 311.598C74.7255 311.598 65.6254 341.175 83.8257 341.825C102.027 342.475 126.079 341.825 126.079 341.825C126.079 341.825 117.599 365.148 117.569 402.605L129.005 403.58C129.005 403.58 148.233 340.228 143.63 331.75C137.455 320.374 94.5513 311.598 94.5513 311.598H74.7255Z" fill="black"/>
<path d="M130.337 402.037L129.418 405.686L116.647 404.616V401.098L130.337 402.037Z" fill="#407BFF"/>
<path d="M103.339 240.879C103.339 240.879 114.465 238.449 119.59 255.343C122.639 265.395 122.132 279.163 122.132 279.163L140.535 279.528L142.811 287.003C142.811 287.003 119.073 287.324 112.898 286.512C106.723 285.699 103.339 240.879 103.339 240.879Z" fill="#407BFF"/>
<path d="M115.678 311.962C115.678 311.962 121.529 238.469 103.652 238.469C85.776 238.469 84.1505 238.469 77.9751 238.469C71.7996 238.469 68.2247 246.92 69.524 262.195C70.8233 277.471 72.1246 315.174 72.1246 315.174L115.678 311.962Z" fill="#407BFF"/>
<path opacity="0.2" d="M115.678 311.962C115.678 311.962 121.529 238.469 103.652 238.469C85.776 238.469 84.1505 238.469 77.9751 238.469C71.7996 238.469 68.2247 246.92 69.524 262.195C70.8233 277.471 72.1246 315.174 72.1246 315.174L115.678 311.962Z" fill="white"/>
<path d="M143.662 277.919L141.554 278.186C140.641 278.302 139.831 278.83 139.357 279.62L136.45 284.464C135.982 285.243 135.845 286.177 136.07 287.058L136.536 288.885C137.051 290.903 139.239 291.992 141.16 291.184L144.554 289.755C145.802 289.23 146.781 288.217 147.264 286.953L148.104 284.758C148.397 283.99 148.413 283.144 148.148 282.366L147.433 280.272C146.895 278.693 145.318 277.708 143.662 277.919Z" fill="#CE7A63"/>
<path d="M142.15 279.216L135.813 293.843L126.062 297.58L113.061 291.08L113.132 276.293L119.827 275.316L125.371 278.03L128.372 280.922L132.319 275.925L137.437 275.316L140.728 276.779L142.15 279.216Z" fill="#407BFF"/>
<path opacity="0.1" d="M142.15 279.216L135.813 293.843L126.062 297.58L113.061 291.08L113.132 276.293L119.827 275.316L125.371 278.03L128.372 280.922L132.319 275.925L137.437 275.316L140.728 276.779L142.15 279.216Z" fill="black"/>
<path opacity="0.2" d="M124.263 296.681L126.287 278.912L128.372 280.923L131.097 277.473L127.804 296.912L126.062 297.58L124.263 296.681Z" fill="black"/>
<path d="M142.639 276.78C142.639 276.78 133.701 267.68 128.175 279.217C128.175 279.217 118.89 268.333 113.132 276.294L113.874 279.217C113.874 279.217 116.87 272.026 128.372 282.691C128.372 282.691 134.188 271.416 142.151 279.217L142.639 276.78Z" fill="#407BFF"/>
<path opacity="0.8" d="M142.639 276.78C142.639 276.78 133.701 267.68 128.175 279.217C128.175 279.217 118.89 268.333 113.132 276.294L113.874 279.217C113.874 279.217 116.87 272.026 128.372 282.691C128.372 282.691 134.188 271.416 142.151 279.217L142.639 276.78Z" fill="white"/>
<path d="M96.298 280.513H106.113L108.689 278.117C109.786 277.097 111.307 276.67 112.775 276.97L113.964 277.214C114.768 277.379 115.6 277.327 116.378 277.064C118.256 276.43 120.33 277.061 121.537 278.635L121.72 278.874C122.919 280.439 122.997 282.591 121.913 284.238L119.44 287.997C118.355 289.645 116.347 290.426 114.434 289.942L107.513 288.19L95.6901 289.774L96.298 280.513Z" fill="#CE7A63"/>
<path d="M79.6006 256.345C80.3632 251.73 83.5005 238.469 75.0505 238.469C66.6005 238.469 65.2186 251.47 64.7305 259.514C64.2434 267.559 62.7542 292.138 68.3734 292.159C73.9937 292.179 98.126 290.229 98.126 290.229L97.8824 279.503L76.6748 277.797C76.6748 277.797 78.6346 262.196 79.6006 256.345Z" fill="#407BFF"/>
<path opacity="0.3" d="M79.6006 256.345C80.3632 251.73 83.5005 238.469 75.0505 238.469C66.6005 238.469 65.2186 251.47 64.7305 259.514C64.2434 267.559 62.7542 292.138 68.3734 292.159C73.9937 292.179 98.126 290.229 98.126 290.229L97.8824 279.503L76.6748 277.797C76.6748 277.797 78.6346 262.196 79.6006 256.345Z" fill="white"/>
<path d="M102.038 238.86L101.886 239.521L96.5128 242.93L86.0937 238.996L85.9636 238.897C89.9843 234.828 88.4776 227.37 87.1381 221.352L92.1412 225.503L98.9606 231.202C98.7501 232.115 98.5974 233.041 98.5035 233.973C98.1835 236.92 98.9885 237.927 102.038 238.86Z" fill="#CE7A63"/>
<path d="M108.227 209.34C108.227 209.34 114.035 213.247 112.603 215.624C110.282 219.474 106.998 213.007 106.998 213.007L108.227 209.34Z" fill="#263238"/>
<path opacity="0.2" d="M89.6923 230.99C89.5117 229.795 89.4777 228.582 89.5891 227.379L98.6759 232.669C98.6067 233.101 98.5469 233.536 98.5025 233.972C98.3776 235.126 98.4241 235.982 98.71 236.653C95.3673 236.315 90.6841 234.307 89.6923 230.99Z" fill="black"/>
<path d="M87.6468 212.121C86.6086 220.311 85.5704 225.034 88.8924 230.057C93.812 237.603 104.389 236.025 107.804 228.366C110.917 221.485 112.017 209.247 104.783 204.347C99.8698 200.87 93.0679 202.033 89.5911 206.947C88.5085 208.475 87.8388 210.257 87.6468 212.121Z" fill="#CE7A63"/>
<path d="M99.4786 219.191C99.3537 219.856 99.6034 220.457 100.029 220.55C100.455 220.644 100.901 220.187 101.067 219.512C101.233 218.837 100.942 218.246 100.517 218.152C100.092 218.06 99.6034 218.537 99.4786 219.191Z" fill="#263238"/>
<path d="M107.159 220.654C107.034 221.308 107.284 221.92 107.709 222.004C108.134 222.086 108.581 221.64 108.747 220.965C108.914 220.291 108.623 219.699 108.197 219.605C107.772 219.512 107.284 219.99 107.159 220.654Z" fill="#263238"/>
<path d="M104.149 218.484C104.51 220.352 105.081 222.174 105.851 223.913C104.939 224.321 103.897 224.321 102.986 223.913L104.149 218.484Z" fill="#BA4D3C"/>
<path d="M97.7718 214.351C97.7088 214.346 97.6479 214.324 97.5953 214.289C97.4219 214.167 97.3796 213.928 97.5014 213.754C97.5055 213.749 97.5086 213.744 97.5128 213.739C98.2207 212.718 99.3848 212.109 100.626 212.109C100.838 212.125 100.997 212.31 100.98 212.521C100.98 212.525 100.979 212.53 100.979 212.535C100.963 212.748 100.778 212.91 100.564 212.898C99.5757 212.893 98.65 213.379 98.0938 214.195C98.0215 214.3 97.8998 214.359 97.7718 214.351Z" fill="#263238"/>
<path d="M110.739 216.043C110.61 216.03 110.495 215.957 110.427 215.846C109.95 214.951 109.082 214.333 108.081 214.175C107.864 214.159 107.702 213.969 107.718 213.752V213.75C107.74 213.539 107.921 213.381 108.133 213.387C109.396 213.559 110.499 214.333 111.091 215.463C111.202 215.65 111.141 215.891 110.956 216.003C110.888 216.033 110.813 216.047 110.739 216.043Z" fill="#263238"/>
<path d="M98.2355 225.76C97.9248 225.452 97.6421 225.115 97.3913 224.755C97.318 224.653 97.3418 224.51 97.4439 224.436C97.446 224.435 97.4481 224.433 97.4501 224.432C97.5513 224.361 97.6927 224.384 97.7659 224.484C98.865 226.117 100.672 227.136 102.639 227.229C102.767 227.223 102.875 227.322 102.882 227.449C102.888 227.577 102.789 227.685 102.662 227.691C100.991 227.645 99.4047 226.952 98.2355 225.76Z" fill="#263238"/>
<path d="M90.9764 200.175C90.9764 200.175 89.2973 190.882 93.2344 191.265C97.1714 191.65 90.9764 200.175 90.9764 200.175Z" fill="#263238"/>
<path d="M96.252 215.498C96.9651 214.629 98.0332 214.061 99.2427 214.061C101.241 214.061 102.871 215.583 103.083 217.525L105.199 218.041C105.755 216.575 107.162 215.524 108.821 215.524C110.961 215.524 112.703 217.266 112.703 219.407C112.703 221.547 110.961 223.289 108.821 223.289C106.68 223.289 104.938 221.547 104.938 219.407C104.938 219.286 104.963 219.173 104.974 219.055L103.061 218.588C102.752 220.421 101.163 221.826 99.2438 221.826C97.1034 221.826 95.3614 220.084 95.3614 217.943C95.3614 217.391 95.4811 216.868 95.6896 216.391C91.7793 214.866 86.2457 213.159 85.1972 213.824L84.643 212.945C86.4717 211.791 93.9981 214.61 96.252 215.498ZM108.821 222.252C110.389 222.252 111.666 220.975 111.666 219.408C111.666 217.839 110.389 216.563 108.821 216.563C107.252 216.563 105.976 217.839 105.976 219.408C105.976 220.975 107.252 222.252 108.821 222.252ZM99.2427 220.788C100.811 220.788 102.088 219.511 102.088 217.942C102.088 216.374 100.811 215.098 99.2427 215.098C97.6741 215.098 96.3975 216.375 96.3975 217.942C96.3975 219.512 97.6741 220.788 99.2427 220.788Z" fill="#263238"/>
<path opacity="0.2" d="M96.252 215.498C96.9651 214.629 98.0332 214.061 99.2427 214.061C101.241 214.061 102.871 215.583 103.083 217.525L105.199 218.041C105.755 216.575 107.162 215.524 108.821 215.524C110.961 215.524 112.703 217.266 112.703 219.407C112.703 221.547 110.961 223.289 108.821 223.289C106.68 223.289 104.938 221.547 104.938 219.407C104.938 219.286 104.963 219.173 104.974 219.055L103.061 218.588C102.752 220.421 101.163 221.826 99.2438 221.826C97.1034 221.826 95.3614 220.084 95.3614 217.943C95.3614 217.391 95.4811 216.868 95.6896 216.391C91.7793 214.866 86.2457 213.159 85.1972 213.824L84.643 212.945C86.4717 211.791 93.9981 214.61 96.252 215.498ZM108.821 222.252C110.389 222.252 111.666 220.975 111.666 219.408C111.666 217.839 110.389 216.563 108.821 216.563C107.252 216.563 105.976 217.839 105.976 219.408C105.976 220.975 107.252 222.252 108.821 222.252ZM99.2427 220.788C100.811 220.788 102.088 219.511 102.088 217.942C102.088 216.374 100.811 215.098 99.2427 215.098C97.6741 215.098 96.3975 216.375 96.3975 217.942C96.3975 219.512 97.6741 220.788 99.2427 220.788Z" fill="white"/>
<path d="M98.4205 205.799C98.4205 205.799 111.387 214.968 114.154 211.163C116.922 207.357 111.147 207.011 111.147 207.011C111.147 207.011 116.057 203.551 113.463 200.783C110.869 198.015 107.717 200.783 107.717 200.783C107.717 200.783 95.8054 190.403 91.7466 198.188C91.7466 198.188 82.7207 196.392 82.0902 203.691C81.4596 210.99 82.0902 212.112 82.0902 212.112C82.0902 212.112 77.3079 212.703 77.9993 214.355C78.6918 216.007 82.0902 214.718 82.0902 214.718C82.0902 214.718 76.442 218.996 79.0375 219.577C81.632 220.159 88.2336 218.763 89.8632 213.233C91.4927 207.703 89.5907 206.948 89.5907 206.948C89.5907 206.948 105.094 213.412 98.4205 205.799Z" fill="#263238"/>
<path d="M83.1309 219.014C83.5809 221.004 84.7119 222.772 86.328 224.017C88.4044 225.542 89.971 223.695 89.8575 221.09C89.7533 218.745 88.5499 215.122 86.2558 214.644C83.9616 214.167 82.5705 216.512 83.1309 219.014Z" fill="#CE7A63"/>
<path d="M100.911 238.466C100.911 238.466 101.889 241.15 96.4176 241.232C90.947 241.313 85.8809 237.982 85.8809 237.982C85.8809 237.982 83.6796 237.245 83.0068 238.467C83.0068 238.467 88.6446 243.914 96.4176 243.752C104.192 243.589 102.987 238.367 102.987 238.367C102.987 238.367 101.571 237.981 100.911 238.466Z" fill="#407BFF"/>
<path d="M279.533 107.137H405.466V424.421H279.533V107.137Z" fill="#407BFF"/>
<path opacity="0.2" d="M279.533 107.137H405.466V424.421H279.533V107.137Z" fill="white"/>
<path d="M279.532 104.352V427.201H256.33V104.352H279.532Z" fill="#407BFF"/>
<path opacity="0.3" d="M279.532 104.352V427.201H256.33V104.352H279.532Z" fill="white"/>
<path d="M427.555 104.352V427.201H404.352V104.352H427.555Z" fill="#407BFF"/>
<path opacity="0.4" d="M427.555 104.352V427.201H404.352V104.352H427.555Z" fill="white"/>
<path d="M431.495 104.352V427.201H276.75V104.352H431.495ZM282.315 109.918V167.808H425.929V109.918H282.315ZM425.929 294.722V236.831H282.315V294.722H425.929ZM282.315 300.288V358.178H425.929V300.288H282.315ZM425.929 231.265V173.375H282.315V231.265H425.929ZM425.929 421.636V363.746H282.315V421.636H425.929Z" fill="#407BFF"/>
<path opacity="0.6" d="M431.495 104.352V427.201H276.75V104.352H431.495ZM282.315 109.918V167.808H425.929V109.918H282.315ZM425.929 294.722V236.831H282.315V294.722H425.929ZM282.315 300.288V358.178H425.929V300.288H282.315ZM425.929 231.265V173.375H282.315V231.265H425.929ZM425.929 421.636V363.746H282.315V421.636H425.929Z" fill="white"/>
<path d="M335.069 167.809H329.716V122.89H335.069V167.809Z" fill="#407BFF"/>
<path opacity="0.1" d="M335.069 167.809H329.716V122.89H335.069V167.809Z" fill="white"/>
<path d="M329.715 167.809H324.362V122.89H329.715V167.809Z" fill="#407BFF"/>
<path opacity="0.4" d="M329.715 167.809H324.362V122.89H329.715V167.809Z" fill="white"/>
<path d="M345.772 167.809H335.067V126.047H345.772V167.809Z" fill="#407BFF"/>
<path opacity="0.6" d="M345.772 167.809H335.067V126.047H345.772V167.809Z" fill="white"/>
<path d="M358.042 167.809H351.125V122.89H358.042V167.809Z" fill="#407BFF"/>
<path d="M351.126 167.809H345.773V122.89H351.126V167.809Z" fill="#407BFF"/>
<path opacity="0.7" d="M351.126 167.809H345.773V122.89H351.126V167.809Z" fill="white"/>
<path d="M398.642 167.809H391.724V122.89H398.642V167.809Z" fill="#407BFF"/>
<path opacity="0.7" d="M398.642 167.809H391.724V122.89H398.642V167.809Z" fill="white"/>
<path d="M391.724 167.809H386.372V122.89H391.724V167.809Z" fill="#407BFF"/>
<path opacity="0.6" d="M391.724 167.809H386.372V122.89H391.724V167.809Z" fill="white"/>
<path d="M375.666 167.809H368.748V122.89H375.666V167.809Z" fill="#407BFF"/>
<path opacity="0.6" d="M375.666 167.809H368.748V122.89H375.666V167.809Z" fill="white"/>
<path d="M368.749 167.809H363.396V122.89H368.749V167.809Z" fill="#407BFF"/>
<path opacity="0.1" d="M368.749 167.809H363.396V122.89H368.749V167.809Z" fill="black"/>
<path d="M409.348 167.809H398.643V123.954H409.348V167.809Z" fill="#407BFF"/>
<path opacity="0.1" d="M409.348 167.809H398.643V123.954H409.348V167.809Z" fill="white"/>
<path d="M414.701 167.809H409.348V123.954H414.701V167.809Z" fill="#407BFF"/>
<path opacity="0.6" d="M414.701 167.809H409.348V123.954H414.701V167.809Z" fill="white"/>
<path d="M382.803 167.809H375.666V123.954H382.803V167.809Z" fill="#407BFF"/>
<path opacity="0.1" d="M382.803 167.809H375.666V123.954H382.803V167.809Z" fill="white"/>
<path d="M386.372 167.809H382.804V123.954H386.372V167.809Z" fill="#407BFF"/>
<path opacity="0.3" d="M386.372 167.809H382.804V123.954H386.372V167.809Z" fill="white"/>
<path d="M368.749 167.809H358.044V126.047H368.749V167.809Z" fill="#407BFF"/>
<path opacity="0.1" d="M368.749 167.809H358.044V126.047H368.749V167.809Z" fill="white"/>
<path d="M308.303 167.809H301.386V122.89H308.303V167.809Z" fill="#407BFF"/>
<path opacity="0.3" d="M308.303 167.809H301.386V122.89H308.303V167.809Z" fill="white"/>
<path d="M301.386 167.809H296.033V122.89H301.386V167.809Z" fill="#407BFF"/>
<path opacity="0.2" d="M301.386 167.809H296.033V122.89H301.386V167.809Z" fill="white"/>
<path d="M319.01 167.809H308.305V123.954H319.01V167.809Z" fill="#407BFF"/>
<path opacity="0.1" d="M319.01 167.809H308.305V123.954H319.01V167.809Z" fill="white"/>
<path d="M324.364 167.809H319.011V123.954H324.364V167.809Z" fill="#407BFF"/>
<path opacity="0.6" d="M324.364 167.809H319.011V123.954H324.364V167.809Z" fill="white"/>
<path d="M292.465 167.809H285.328V123.954H292.465V167.809Z" fill="#407BFF"/>
<path opacity="0.1" d="M292.465 167.809H285.328V123.954H292.465V167.809Z" fill="white"/>
<path d="M296.035 167.809H292.467V123.954H296.035V167.809Z" fill="#407BFF"/>
<path opacity="0.6" d="M296.035 167.809H292.467V123.954H296.035V167.809Z" fill="white"/>
<path d="M363.124 186.496H368.35V231.282H363.124V186.496Z" fill="#407BFF"/>
<path opacity="0.1" d="M363.124 186.496H368.35V231.282H363.124V186.496Z" fill="white"/>
<path d="M368.349 186.496H373.575V231.282H368.349V186.496Z" fill="#407BFF"/>
<path opacity="0.4" d="M368.349 186.496H373.575V231.282H368.349V186.496Z" fill="white"/>
<path d="M352.671 189.645H363.123V231.284H352.671V189.645Z" fill="#407BFF"/>
<path opacity="0.6" d="M352.671 189.645H363.123V231.284H352.671V189.645Z" fill="white"/>
<path d="M340.692 186.496H347.445V231.282H340.692V186.496Z" fill="#407BFF"/>
<path d="M347.445 186.496H352.671V231.282H347.445V186.496Z" fill="#407BFF"/>
<path opacity="0.1" d="M347.445 186.496H352.671V231.282H347.445V186.496Z" fill="black"/>
<path d="M301.055 186.496H307.81V231.282H301.055V186.496Z" fill="#407BFF"/>
<path opacity="0.1" d="M301.055 186.496H307.81V231.282H301.055V186.496Z" fill="black"/>
<path d="M307.808 186.496H313.034V231.282H307.808V186.496Z" fill="#407BFF"/>
<path opacity="0.6" d="M307.808 186.496H313.034V231.282H307.808V186.496Z" fill="white"/>
<path d="M323.487 186.496H330.241V231.282H323.487V186.496Z" fill="#407BFF"/>
<path opacity="0.6" d="M323.487 186.496H330.241V231.282H323.487V186.496Z" fill="white"/>
<path d="M330.24 186.496H335.466V231.282H330.24V186.496Z" fill="#407BFF"/>
<path opacity="0.1" d="M330.24 186.496H335.466V231.282H330.24V186.496Z" fill="black"/>
<path d="M290.603 187.559H301.055V231.283H290.603V187.559Z" fill="#407BFF"/>
<path opacity="0.1" d="M290.603 187.559H301.055V231.283H290.603V187.559Z" fill="white"/>
<path d="M285.376 187.559H290.603V231.283H285.376V187.559Z" fill="#407BFF"/>
<path opacity="0.6" d="M285.376 187.559H290.603V231.283H285.376V187.559Z" fill="white"/>
<path d="M316.518 187.559H323.486V231.283H316.518V187.559Z" fill="#407BFF"/>
<path opacity="0.1" d="M316.518 187.559H323.486V231.283H316.518V187.559Z" fill="white"/>
<path d="M313.035 187.559H316.519V231.283H313.035V187.559Z" fill="#407BFF"/>
<path opacity="0.3" d="M313.035 187.559H316.519V231.283H313.035V187.559Z" fill="white"/>
<path d="M330.239 189.645H340.691V231.284H330.239V189.645Z" fill="#407BFF"/>
<path opacity="0.1" d="M330.239 189.645H340.691V231.284H330.239V189.645Z" fill="white"/>
<path d="M389.252 186.496H396.007V231.282H389.252V186.496Z" fill="#407BFF"/>
<path opacity="0.1" d="M389.252 186.496H396.007V231.282H389.252V186.496Z" fill="white"/>
<path d="M396.006 186.496H401.232V231.282H396.006V186.496Z" fill="#407BFF"/>
<path opacity="0.2" d="M396.006 186.496H401.232V231.282H396.006V186.496Z" fill="white"/>
<path d="M378.8 187.559H389.252V231.283H378.8V187.559Z" fill="#407BFF"/>
<path opacity="0.1" d="M378.8 187.559H389.252V231.283H378.8V187.559Z" fill="white"/>
<path d="M373.574 187.559H378.8V231.283H373.574V187.559Z" fill="#407BFF"/>
<path opacity="0.6" d="M373.574 187.559H378.8V231.283H373.574V187.559Z" fill="white"/>
<path d="M404.716 187.559H411.684V231.283H404.716V187.559Z" fill="#407BFF"/>
<path opacity="0.1" d="M404.716 187.559H411.684V231.283H404.716V187.559Z" fill="white"/>
<path d="M401.232 187.559H404.716V231.283H401.232V187.559Z" fill="#407BFF"/>
<path opacity="0.6" d="M401.232 187.559H404.716V231.283H401.232V187.559Z" fill="white"/>
<path d="M333.973 358.184H328.747V313.833H333.973V358.184Z" fill="#407BFF"/>
<path opacity="0.1" d="M333.973 358.184H328.747V313.833H333.973V358.184Z" fill="white"/>
<path d="M328.747 358.184H323.521V313.833H328.747V358.184Z" fill="#407BFF"/>
<path opacity="0.4" d="M328.747 358.184H323.521V313.833H328.747V358.184Z" fill="white"/>
<path d="M344.424 358.184H333.972V316.95H344.424V358.184Z" fill="#407BFF"/>
<path opacity="0.6" d="M344.424 358.184H333.972V316.95H344.424V358.184Z" fill="white"/>
<path d="M356.404 358.184H349.65V313.833H356.404V358.184Z" fill="#407BFF"/>
<path d="M349.65 358.184H344.424V313.833H349.65V358.184Z" fill="#407BFF"/>
<path opacity="0.6" d="M349.65 358.184H344.424V313.833H349.65V358.184Z" fill="white"/>
<path d="M396.041 358.184H389.286V313.833H396.041V358.184Z" fill="#407BFF"/>
<path opacity="0.3" d="M396.041 358.184H389.286V313.833H396.041V358.184Z" fill="white"/>
<path d="M389.288 358.184H384.062V313.833H389.288V358.184Z" fill="#407BFF"/>
<path opacity="0.6" d="M389.288 358.184H384.062V313.833H389.288V358.184Z" fill="white"/>
<path d="M373.609 358.184H366.854V313.833H373.609V358.184Z" fill="#407BFF"/>
<path opacity="0.6" d="M373.609 358.184H366.854V313.833H373.609V358.184Z" fill="white"/>
<path d="M366.855 358.184H361.629V313.833H366.855V358.184Z" fill="#407BFF"/>
<path opacity="0.1" d="M366.855 358.184H361.629V313.833H366.855V358.184Z" fill="black"/>
<path d="M406.492 358.184H396.04V314.884H406.492V358.184Z" fill="#407BFF"/>
<path opacity="0.1" d="M406.492 358.184H396.04V314.884H406.492V358.184Z" fill="white"/>
<path d="M411.719 358.184H406.493V314.884H411.719V358.184Z" fill="#407BFF"/>
<path opacity="0.6" d="M411.719 358.184H406.493V314.884H411.719V358.184Z" fill="white"/>
<path d="M380.577 358.184H373.609V314.884H380.577V358.184Z" fill="#407BFF"/>
<path opacity="0.1" d="M380.577 358.184H373.609V314.884H380.577V358.184Z" fill="white"/>
<path d="M384.06 358.184H380.576V314.884H384.06V358.184Z" fill="#407BFF"/>
<path opacity="0.3" d="M384.06 358.184H380.576V314.884H384.06V358.184Z" fill="white"/>
<path d="M366.855 358.184H356.403V316.95H366.855V358.184Z" fill="#407BFF"/>
<path opacity="0.1" d="M366.855 358.184H356.403V316.95H366.855V358.184Z" fill="white"/>
<path d="M307.842 358.184H301.088V313.833H307.842V358.184Z" fill="#407BFF"/>
<path opacity="0.1" d="M307.842 358.184H301.088V313.833H307.842V358.184Z" fill="black"/>
<path d="M301.089 358.184H295.863V313.833H301.089V358.184Z" fill="#407BFF"/>
<path opacity="0.2" d="M301.089 358.184H295.863V313.833H301.089V358.184Z" fill="white"/>
<path d="M318.294 358.184H307.842V314.884H318.294V358.184Z" fill="#407BFF"/>
<path opacity="0.1" d="M318.294 358.184H307.842V314.884H318.294V358.184Z" fill="white"/>
<path d="M323.52 358.184H318.294V314.884H323.52V358.184Z" fill="#407BFF"/>
<path opacity="0.6" d="M323.52 358.184H318.294V314.884H323.52V358.184Z" fill="white"/>
<path d="M292.38 358.184H285.412V314.884H292.38V358.184Z" fill="#407BFF"/>
<path opacity="0.1" d="M292.38 358.184H285.412V314.884H292.38V358.184Z" fill="white"/>
<path d="M295.863 358.184H292.379V314.884H295.863V358.184Z" fill="#407BFF"/>
<path opacity="0.6" d="M295.863 358.184H292.379V314.884H295.863V358.184Z" fill="white"/>
<path d="M333.938 421.656H328.712V377.863H333.938V421.656Z" fill="#407BFF"/>
<path opacity="0.1" d="M333.938 421.656H328.712V377.863H333.938V421.656Z" fill="white"/>
<path d="M328.71 421.656H323.484V377.863H328.71V421.656Z" fill="#407BFF"/>
<path opacity="0.4" d="M328.71 421.656H323.484V377.863H328.71V421.656Z" fill="white"/>
<path d="M344.39 421.656H333.938V380.941H344.39V421.656Z" fill="#407BFF"/>
<path opacity="0.6" d="M344.39 421.656H333.938V380.941H344.39V421.656Z" fill="white"/>
<path d="M356.369 421.656H349.614V377.863H356.369V421.656Z" fill="#407BFF"/>
<path d="M349.616 421.656H344.39V377.863H349.616V421.656Z" fill="#407BFF"/>
<path opacity="0.1" d="M349.616 421.656H344.39V377.863H349.616V421.656Z" fill="black"/>
<path d="M396.006 421.656H389.252V377.863H396.006V421.656Z" fill="#407BFF"/>
<path opacity="0.4" d="M396.006 421.656H389.252V377.863H396.006V421.656Z" fill="white"/>
<path d="M389.252 421.656H384.026V377.863H389.252V421.656Z" fill="#407BFF"/>
<path opacity="0.6" d="M389.252 421.656H384.026V377.863H389.252V421.656Z" fill="white"/>
<path d="M373.574 421.656H366.819V377.863H373.574V421.656Z" fill="#407BFF"/>
<path opacity="0.6" d="M373.574 421.656H366.819V377.863H373.574V421.656Z" fill="white"/>
<path d="M366.821 421.656H361.595V377.863H366.821V421.656Z" fill="#407BFF"/>
<path opacity="0.1" d="M366.821 421.656H361.595V377.863H366.821V421.656Z" fill="black"/>
<path d="M406.458 421.652H396.006V378.897H406.458V421.652Z" fill="#407BFF"/>
<path opacity="0.1" d="M406.458 421.652H396.006V378.897H406.458V421.652Z" fill="white"/>
<path d="M411.684 421.652H406.458V378.897H411.684V421.652Z" fill="#407BFF"/>
<path opacity="0.6" d="M411.684 421.652H406.458V378.897H411.684V421.652Z" fill="white"/>
<path d="M380.543 421.652H373.575V378.897H380.543V421.652Z" fill="#407BFF"/>
<path opacity="0.1" d="M380.543 421.652H373.575V378.897H380.543V421.652Z" fill="white"/>
<path d="M384.026 421.652H380.542V378.897H384.026V421.652Z" fill="#407BFF"/>
<path opacity="0.3" d="M384.026 421.652H380.542V378.897H384.026V421.652Z" fill="white"/>
<path d="M366.821 421.656H356.369V380.941H366.821V421.656Z" fill="#407BFF"/>
<path opacity="0.1" d="M366.821 421.656H356.369V380.941H366.821V421.656Z" fill="white"/>
<path d="M307.808 421.656H301.054V377.863H307.808V421.656Z" fill="#407BFF"/>
<path opacity="0.1" d="M307.808 421.656H301.054V377.863H307.808V421.656Z" fill="black"/>
<path d="M301.054 421.656H295.828V377.863H301.054V421.656Z" fill="#407BFF"/>
<path opacity="0.2" d="M301.054 421.656H295.828V377.863H301.054V421.656Z" fill="white"/>
<path d="M318.26 421.652H307.808V378.897H318.26V421.652Z" fill="#407BFF"/>
<path opacity="0.1" d="M318.26 421.652H307.808V378.897H318.26V421.652Z" fill="white"/>
<path d="M323.486 421.652H318.26V378.897H323.486V421.652Z" fill="#407BFF"/>
<path opacity="0.6" d="M323.486 421.652H318.26V378.897H323.486V421.652Z" fill="white"/>
<path d="M292.346 421.652H285.378V378.897H292.346V421.652Z" fill="#407BFF"/>
<path opacity="0.1" d="M292.346 421.652H285.378V378.897H292.346V421.652Z" fill="white"/>
<path d="M295.829 421.652H292.345V378.897H295.829V421.652Z" fill="#407BFF"/>
<path opacity="0.6" d="M295.829 421.652H292.345V378.897H295.829V421.652Z" fill="white"/>
<path d="M365.752 249.199H371.154V294.724H365.752V249.199Z" fill="#407BFF"/>
<path opacity="0.1" d="M365.752 249.199H371.154V294.724H365.752V249.199Z" fill="white"/>
<path d="M371.154 249.199H376.557V294.724H371.154V249.199Z" fill="#407BFF"/>
<path opacity="0.4" d="M371.154 249.199H376.557V294.724H371.154V249.199Z" fill="white"/>
<path d="M354.947 252.398H365.752V294.724H354.947V252.398Z" fill="#407BFF"/>
<path opacity="0.6" d="M354.947 252.398H365.752V294.724H354.947V252.398Z" fill="white"/>
<path d="M342.561 249.199H349.544V294.724H342.561V249.199Z" fill="#407BFF"/>
<path d="M349.544 249.199H354.946V294.724H349.544V249.199Z" fill="#407BFF"/>
<path opacity="0.1" d="M349.544 249.199H354.946V294.724H349.544V249.199Z" fill="black"/>
<path d="M301.585 249.199H308.567V294.724H301.585V249.199Z" fill="#407BFF"/>
<path opacity="0.1" d="M301.585 249.199H308.567V294.724H301.585V249.199Z" fill="black"/>
<path d="M308.566 249.199H313.969V294.724H308.566V249.199Z" fill="#407BFF"/>
<path opacity="0.6" d="M308.566 249.199H313.969V294.724H308.566V249.199Z" fill="white"/>
<path d="M324.774 249.199H331.757V294.724H324.774V249.199Z" fill="#407BFF"/>
<path opacity="0.6" d="M324.774 249.199H331.757V294.724H324.774V249.199Z" fill="white"/>
<path d="M331.757 249.199H337.159V294.724H331.757V249.199Z" fill="#407BFF"/>
<path opacity="0.1" d="M331.757 249.199H337.159V294.724H331.757V249.199Z" fill="black"/>
<path d="M290.78 250.277H301.585V294.724H290.78V250.277Z" fill="#407BFF"/>
<path opacity="0.1" d="M290.78 250.277H301.585V294.724H290.78V250.277Z" fill="white"/>
<path d="M285.378 250.277H290.78V294.724H285.378V250.277Z" fill="#407BFF"/>
<path opacity="0.6" d="M285.378 250.277H290.78V294.724H285.378V250.277Z" fill="white"/>
<path d="M317.571 250.277H324.774V294.724H317.571V250.277Z" fill="#407BFF"/>
<path opacity="0.1" d="M317.571 250.277H324.774V294.724H317.571V250.277Z" fill="white"/>
<path d="M313.97 250.277H317.571V294.724H313.97V250.277Z" fill="#407BFF"/>
<path opacity="0.3" d="M313.97 250.277H317.571V294.724H313.97V250.277Z" fill="white"/>
<path d="M331.756 252.398H342.562V294.724H331.756V252.398Z" fill="#407BFF"/>
<path opacity="0.1" d="M331.756 252.398H342.562V294.724H331.756V252.398Z" fill="white"/>
<path d="M392.765 249.199H399.747V294.724H392.765V249.199Z" fill="#407BFF"/>
<path opacity="0.2" d="M392.765 249.199H399.747V294.724H392.765V249.199Z" fill="white"/>
<path d="M399.747 249.199H405.149V294.724H399.747V249.199Z" fill="#407BFF"/>
<path opacity="0.2" d="M399.747 249.199H405.149V294.724H399.747V249.199Z" fill="white"/>
<path d="M381.959 250.277H392.764V294.724H381.959V250.277Z" fill="#407BFF"/>
<path opacity="0.1" d="M381.959 250.277H392.764V294.724H381.959V250.277Z" fill="white"/>
<path d="M376.556 250.277H381.959V294.724H376.556V250.277Z" fill="#407BFF"/>
<path opacity="0.6" d="M376.556 250.277H381.959V294.724H376.556V250.277Z" fill="white"/>
<path d="M408.751 250.277H415.954V294.724H408.751V250.277Z" fill="#407BFF"/>
<path opacity="0.1" d="M408.751 250.277H415.954V294.724H408.751V250.277Z" fill="white"/>
<path d="M405.149 250.277H408.751V294.724H405.149V250.277Z" fill="#407BFF"/>
<path opacity="0.6" d="M405.149 250.277H408.751V294.724H405.149V250.277Z" fill="white"/>
<path d="M318.119 70.8984H401.653V98.5499H318.119V70.8984Z" fill="#407BFF"/>
<path d="M399.073 56.7109H400.105V70.8999H399.073V56.7109Z" fill="#407BFF"/>
<path d="M318.517 56.7109H319.549V70.8999H318.517V56.7109Z" fill="#407BFF"/>
<g opacity="0.7">
<path d="M319.783 70.8984H401.653V96.7304H319.783V70.8984Z" fill="white"/>
</g>
<path d="M329.373 75.8867H387.518V80.9136H329.373V75.8867Z" fill="#407BFF"/>
<path d="M329.374 84.7227H341.837V86.6845H329.374V84.7227Z" fill="#407BFF"/>
<path d="M329.374 90.4961H354.387V92.4579H329.374V90.4961Z" fill="#407BFF"/>
<path opacity="0.2" d="M419.843 427.155C418.037 427.456 416.579 426.278 416.587 424.524L416.612 419.424H350.085L350.065 423.436C350.057 425.189 348.585 426.854 346.779 427.155C344.973 427.456 343.515 426.278 343.523 424.524L344.763 171.574C344.771 169.821 346.243 168.156 348.049 167.856C349.856 167.554 351.313 168.733 351.305 170.486L351.285 174.529H417.812L417.826 171.575C417.835 169.822 419.306 168.157 421.112 167.857C422.919 167.555 424.376 168.734 424.368 170.487L423.129 423.438C423.119 425.189 421.649 426.854 419.843 427.155ZM350.346 366.323H416.873L417.082 323.527H350.555L350.346 366.323ZM417.552 227.63H351.025L350.815 270.426H417.342L417.552 227.63ZM350.79 275.579L350.58 318.373H417.107L417.316 275.579H350.79ZM351.259 179.681L351.05 222.475H417.577L417.786 179.681H351.259ZM416.637 414.27L416.847 371.476H350.32L350.111 414.27H416.637Z" fill="black"/>
<path d="M464.731 427.155C462.978 427.456 461.312 426.278 461.012 424.524L460.137 419.424H393.611L394.299 423.436C394.599 425.189 393.422 426.854 391.668 427.155C389.915 427.456 388.249 426.278 387.949 424.524L344.587 171.574C344.286 169.821 345.464 168.156 347.216 167.856C348.969 167.554 350.635 168.733 350.935 170.486L351.628 174.529H418.155L417.648 171.575C417.348 169.822 418.525 168.157 420.278 167.857C422.031 167.555 423.697 168.734 423.997 170.487L467.36 423.437C467.661 425.189 466.484 426.854 464.731 427.155ZM384.507 366.323H451.034L443.698 323.527H377.171L384.507 366.323ZM427.258 227.63H360.731L368.068 270.426H434.594L427.258 227.63ZM368.951 275.579L376.287 318.373H442.814L435.478 275.579H368.951ZM352.511 179.681L359.848 222.475H426.375L419.038 179.681H352.511ZM459.254 414.27L451.918 371.476H385.391L392.727 414.27H459.254Z" fill="#263238"/>
<path opacity="0.2" d="M464.731 427.155C462.978 427.456 461.312 426.278 461.012 424.524L460.137 419.424H393.611L394.299 423.436C394.599 425.189 393.422 426.854 391.668 427.155C389.915 427.456 388.249 426.278 387.949 424.524L344.587 171.574C344.286 169.821 345.464 168.156 347.216 167.856C348.969 167.554 350.635 168.733 350.935 170.486L351.628 174.529H418.155L417.648 171.575C417.348 169.822 418.525 168.157 420.278 167.857C422.031 167.555 423.697 168.734 423.997 170.487L467.36 423.437C467.661 425.189 466.484 426.854 464.731 427.155ZM384.507 366.323H451.034L443.698 323.527H377.171L384.507 366.323ZM427.258 227.63H360.731L368.068 270.426H434.594L427.258 227.63ZM368.951 275.579L376.287 318.373H442.814L435.478 275.579H368.951ZM352.511 179.681L359.848 222.475H426.375L419.038 179.681H352.511ZM459.254 414.27L451.918 371.476H385.391L392.727 414.27H459.254Z" fill="white"/>
<path d="M334.639 189.627H356.889C358.039 189.627 358.971 188.695 358.971 187.545V159.867C358.971 161.017 358.039 161.949 356.889 161.949H334.639V189.627Z" fill="#407BFF"/>
<path opacity="0.3" d="M334.639 189.627H356.889C358.039 189.627 358.971 188.695 358.971 187.545V159.867C358.971 161.017 358.039 161.949 356.889 161.949H334.639V189.627Z" fill="black"/>
<path d="M334.639 161.948H356.889C358.039 161.948 358.971 161.016 358.971 159.867C358.971 158.717 358.039 157.785 356.889 157.785H334.639V161.948Z" fill="#263238"/>
<path opacity="0.5" d="M334.639 161.948H356.889C358.039 161.948 358.971 161.016 358.971 159.867C358.971 158.717 358.039 157.785 356.889 157.785H334.639V161.948Z" fill="white"/>
<path d="M358.971 159.867C358.971 161.016 358.039 161.948 356.889 161.948H334.639V161.226H356.889C357.638 161.226 358.248 160.616 358.248 159.867C358.248 159.117 357.639 158.509 356.889 158.509H334.639V157.785H356.889C358.039 157.785 358.971 158.717 358.971 159.867Z" fill="#407BFF"/>
<path d="M339.576 167.902H354.034V177.059H339.576V167.902Z" fill="#407BFF"/>
<path opacity="0.5" d="M339.576 167.902H354.034V177.059H339.576V167.902Z" fill="white"/>
<path d="M465.815 330.758L470.838 344.691L463.105 347.685L457.072 334.836L465.815 330.758Z" fill="#FF8B7B"/>
<path d="M462.31 348.356C462.382 348.309 462.42 348.226 462.407 348.141C462.391 348.056 462.325 347.989 462.239 347.976C462.089 347.95 458.663 347.387 457.449 348.261C457.221 348.42 457.064 348.661 457.011 348.935C456.921 349.249 457.04 349.586 457.306 349.775C457.801 350.083 458.91 349.881 459.917 349.507C460.747 349.193 461.548 348.808 462.31 348.356ZM461.593 348.329C460.156 349.075 458.107 349.821 457.537 349.434C457.458 349.389 457.365 349.293 457.419 349.001C457.444 348.829 457.546 348.68 457.695 348.592C457.803 348.513 457.919 348.453 458.044 348.408C459.211 348.159 460.416 348.131 461.593 348.329Z" fill="#407BFF"/>
<path d="M462.408 348.306C462.452 348.247 462.461 348.167 462.43 348.1C462.381 348.002 461.353 345.898 460.007 345.434C459.618 345.293 459.187 345.318 458.817 345.503C458.308 345.751 458.242 346.081 458.304 346.308C458.469 347.283 461.069 348.316 462.196 348.385C462.225 348.388 462.255 348.38 462.279 348.362C462.328 348.361 462.374 348.341 462.408 348.306ZM459.081 345.82C459.322 345.727 459.591 345.725 459.833 345.814C460.697 346.288 461.395 347.016 461.831 347.898C460.606 347.677 458.82 346.777 458.666 346.21C458.662 346.155 458.633 346.007 458.967 345.851L459.081 345.82Z" fill="#407BFF"/>
<path d="M462.716 346.914L471.558 343.63C471.891 343.506 472.266 343.63 472.46 343.928L476.73 350.528C477.113 351.111 476.951 351.893 476.369 352.276C476.294 352.325 476.214 352.366 476.13 352.399C472.923 353.528 470.024 354.406 466.058 355.885C461.376 357.626 462.772 357.744 457.296 359.868C453.996 361.145 451.988 357.6 453.325 356.892C459.462 353.691 459.408 351.499 461.035 348.272C461.41 347.627 462.008 347.145 462.716 346.914Z" fill="#263238"/>
<path opacity="0.2" d="M468.224 337.438L460.114 341.313L457.073 334.836L465.816 330.758L468.224 337.438Z" fill="#263238"/>
<path d="M419.566 344.094L418.228 358.845L409.954 358.288L409.919 344.094H419.566Z" fill="#FF8B7B"/>
<path d="M408.529 358.041C408.614 358.027 408.681 357.963 408.7 357.879C408.719 357.794 408.682 357.708 408.61 357.662C408.479 357.582 405.529 355.753 404.073 356.098C403.801 356.158 403.564 356.322 403.411 356.554C403.208 356.81 403.189 357.166 403.364 357.443C403.702 357.916 404.806 358.153 405.879 358.191C406.764 358.22 407.651 358.169 408.529 358.041ZM407.876 357.743C406.262 357.884 404.084 357.792 403.704 357.217C403.649 357.144 403.6 357.021 403.761 356.771C403.85 356.622 404.002 356.522 404.173 356.499C404.301 356.468 404.434 356.455 404.566 356.463C405.74 356.677 406.863 357.111 407.876 357.743Z" fill="#407BFF"/>
<path d="M408.637 358.035C408.7 357.997 408.738 357.928 408.735 357.853C408.727 357.745 408.58 355.407 407.513 354.464C407.207 354.186 406.8 354.045 406.387 354.074C405.822 354.11 405.636 354.389 405.606 354.622C405.387 355.587 407.396 357.533 408.411 358.028C408.437 358.042 408.468 358.045 408.496 358.038C408.542 358.055 408.593 358.054 408.637 358.035ZM406.51 354.467C406.769 354.473 407.017 354.575 407.208 354.75C407.825 355.517 408.192 356.456 408.26 357.438C407.213 356.768 405.904 355.254 405.979 354.671C405.996 354.619 406.025 354.471 406.395 354.454L406.51 354.467Z" fill="#407BFF"/>
<path d="M409.454 356.864L418.879 357.202C419.234 357.214 419.533 357.471 419.598 357.821L421.028 365.55C421.16 366.234 420.711 366.896 420.027 367.027C419.939 367.044 419.849 367.052 419.76 367.05C416.365 366.87 413.351 366.575 409.119 366.43C404.128 366.252 405.372 366.895 399.501 366.769C395.964 366.69 395.46 362.648 396.967 362.503C403.86 361.885 404.647 359.839 407.382 357.476C407.974 357.025 408.711 356.808 409.454 356.864Z" fill="#263238"/>
<path opacity="0.2" d="M409.919 344.094H419.566L418.867 351.8L409.938 351.548L409.919 344.094Z" fill="#263238"/>
<path d="M426.664 207.441C426.664 207.441 441.463 217.182 439.043 245.849L441.505 278.312C441.505 278.312 456.185 288.154 467.874 333.52C467.874 333.52 463.956 336.952 457.576 338.529L422.274 284.535L409.209 228.315L407.681 209.598L426.664 207.441Z" fill="#263238"/>
<path opacity="0.4" d="M415.751 256.464L421.08 235.827L429.562 231.652C429.562 231.652 429.574 271.896 425.758 289.86L422.275 284.532L415.751 256.464Z" fill="black"/>
<path d="M434.335 172.652C434.335 172.652 444.979 186.012 442.092 191.718C439.206 197.423 430.113 197.98 430.113 197.98C430.113 197.98 429.465 199.789 426.682 200.345L424.887 192.134C424.887 192.134 426.644 190.992 428.89 192.259L434.852 188.656L426.649 177.789L434.335 172.652Z" fill="#FF8B7B"/>
<path d="M419.138 163.441C419.138 163.441 427.379 163.743 431.832 167.5C436.285 171.258 436.98 173.484 436.98 173.484C436.98 173.484 434.046 177.76 425.285 180.075L419.138 163.441Z" fill="#407BFF"/>
<path opacity="0.1" d="M425.285 180.075L421.966 171.095L425.526 167.438C425.526 167.438 428.881 172.136 429.562 178.63C428.323 179.152 426.905 179.647 425.285 180.075Z" fill="black"/>
<path d="M423.145 207.441C423.145 207.441 435.356 220.801 427.886 246.963L422.643 279.804C422.643 279.804 429.324 311.086 421.115 348.27C421.115 348.27 414.743 349.291 408.661 347.992L401.032 277.979L397.211 211.059L423.145 207.441Z" fill="#263238"/>
<path d="M414.885 162.969C414.885 162.969 410.381 162.506 410.453 154.219C410.453 154.219 406.294 152.318 403.599 154.767C400.903 157.216 406.029 162.936 402.681 165.342C402.681 165.342 405.622 167.319 414.885 162.969Z" fill="#FF8B7B"/>
<path d="M395.166 142.59C395.125 142.034 394.798 141.607 394.435 141.634C394.072 141.661 393.811 142.132 393.853 142.688C393.894 143.243 394.222 143.67 394.584 143.643C394.948 143.616 395.209 143.145 395.166 142.59Z" fill="#263238"/>
<path d="M394.788 143.594L391.86 147.463C391.86 147.463 393.133 148.571 395.082 148.046L394.788 143.594Z" fill="#FF5652"/>
<path d="M414.345 141.72C414.008 148.738 414.017 151.721 410.524 155.367C405.16 159.104 396.709 158.907 394.945 151.925C393.353 145.642 394.171 135.245 401.005 132.324C405.877 130.243 411.512 132.507 413.593 137.378C414.176 138.748 414.434 140.234 414.345 141.72Z" fill="#FF8B7B"/>
<path d="M396.206 140.948C396.101 140.976 395.988 140.951 395.905 140.883C395.296 140.32 394.454 140.083 393.641 140.25C393.469 140.297 393.293 140.198 393.243 140.027C393.197 139.855 393.295 139.676 393.465 139.623C394.488 139.397 395.557 139.682 396.332 140.386C396.47 140.493 396.496 140.692 396.389 140.83C396.386 140.834 396.383 140.839 396.378 140.843C396.336 140.898 396.275 140.936 396.206 140.948Z" fill="#263238"/>
<path d="M394.57 141.66L393.042 141.438C393.042 141.438 393.956 142.481 394.57 141.66Z" fill="#263238"/>
<path opacity="0.2" d="M407.236 157.039C406.77 157.808 405.609 159.401 403.485 160.463C403.258 159.551 402.995 158.63 402.87 157.771C404.312 157.786 405.807 157.538 407.236 157.039Z" fill="black"/>
<path d="M401.811 145.794C401.811 145.794 397.592 141.274 399.298 136.8C399.298 136.8 394.484 137.375 394.787 133.676C395.09 129.978 400.112 131.077 400.112 131.077C400.112 131.077 397.392 126.745 399.625 125.557C401.858 124.368 405.833 127.908 405.833 127.908C405.833 127.908 415.645 126.403 418.606 137.581C421.566 148.76 428.064 142.118 428.534 146.98C429.056 152.363 421.297 151.636 421.297 151.636C421.297 151.636 422.531 155.372 418.413 156.571C414.294 157.769 412.134 154.959 412.134 154.959C412.134 154.959 412.399 158.759 408.001 158.304C402.869 157.773 403.955 154.409 403.516 152.662C403.085 150.946 401.03 149.168 401.811 145.794Z" fill="#263238"/>
<path d="M405.747 128.831C405.747 128.831 407.649 123.232 404.323 122.921C400.998 122.609 405.868 124.742 405.747 128.831Z" fill="#263238"/>
<path d="M401.866 144.105C400.802 145.067 400.165 146.415 400.097 147.85C400.02 149.753 401.835 150.282 403.404 149.402C404.826 148.605 406.562 146.658 405.891 144.912C405.221 143.165 403.18 142.942 401.866 144.105Z" fill="#FF8B7B"/>
<path d="M417.048 164.161C417.048 164.161 418.611 157.481 408.591 160.404C398.571 163.326 399.406 169.031 399.406 169.031L417.048 164.161Z" fill="#407BFF"/>
<path opacity="0.5" d="M417.048 164.161C417.048 164.161 418.611 157.481 408.591 160.404C398.571 163.326 399.406 169.031 399.406 169.031L417.048 164.161Z" fill="white"/>
<path d="M430.448 210.78C430.448 210.78 425.783 194.725 426.189 184.314C426.596 173.903 430.319 161.517 413.096 163.466C395.873 165.414 392.193 171.398 392.193 180.861C392.193 190.324 397.032 217.181 397.032 217.181C397.032 217.181 414.54 221.774 430.448 210.78Z" fill="#407BFF"/>
<path opacity="0.1" d="M392.192 180.862C392.192 178.596 392.407 176.532 392.965 174.673L398.686 172.008L401.926 176.789C401.926 176.789 397.284 187.228 393.066 191.495C392.548 187.262 392.192 183.423 392.192 180.862Z" fill="black"/>
<path d="M386.249 176.775C386.249 176.775 380.654 182.341 378.376 184.585L360.998 179.799L359.501 175.299L356.892 175.155L348.977 172.789L346.034 175.691L348.896 181.844L358.271 183.685C358.271 183.685 373.554 192.124 379.159 191.596C384.763 191.069 392.126 184.33 392.126 184.33L386.249 176.775Z" fill="#FF8B7B"/>
<path d="M400.209 166.651C395.398 167.355 390.482 171.181 382.847 177.937C382.847 177.937 385.352 183.712 390.918 187.261C390.918 187.261 395.371 185.313 400.672 178.569C407.084 170.409 403.159 166.22 400.209 166.651Z" fill="#407BFF"/>
<path d="M210.329 427.2C211.963 427.2 213.274 426.716 213.221 425.084L209.842 318.668H204.053L207.438 425.267C207.487 426.828 208.767 427.2 210.329 427.2Z" fill="#263238"/>
<path opacity="0.2" d="M210.329 427.2C211.963 427.2 213.274 426.716 213.221 425.084L209.842 318.668H204.053L207.438 425.267C207.487 426.828 208.767 427.2 210.329 427.2Z" fill="white"/>
<path d="M153.34 318.668H225.476V333.849H153.34V318.668Z" fill="#263238"/>
<path opacity="0.2" d="M153.34 318.668H225.476V333.849H153.34V318.668Z" fill="white"/>
<path d="M134.831 318.668H153.339V333.849H134.831V318.668Z" fill="#407BFF"/>
<path d="M134.831 318.668H153.339V333.849H134.831V318.668Z" fill="#263238"/>
<path opacity="0.2" d="M134.831 318.668H153.339V333.849H134.831V318.668Z" fill="white"/>
<path d="M128.947 427.201C127.288 427.201 125.969 426.676 126.062 425.019L131.972 318.668H137.762L131.834 425.339C131.748 426.871 130.481 427.201 128.947 427.201Z" fill="#263238"/>
<path opacity="0.2" d="M128.947 427.201C127.288 427.201 125.969 426.676 126.062 425.019L131.972 318.668H137.762L131.834 425.339C131.748 426.871 130.481 427.201 128.947 427.201Z" fill="white"/>
<path d="M150.01 427.2C148.377 427.2 147.067 426.716 147.119 425.084L150.498 318.668H156.287L152.902 425.267C152.854 426.828 151.573 427.2 150.01 427.2Z" fill="#263238"/>
<path opacity="0.2" d="M150.01 427.2C148.377 427.2 147.067 426.716 147.119 425.084L150.498 318.668H156.287L152.902 425.267C152.854 426.828 151.573 427.2 150.01 427.2Z" fill="white"/>
<path d="M231.394 427.201C233.054 427.201 234.372 426.676 234.281 425.019L228.37 318.668H222.581L228.509 425.339C228.593 426.871 229.86 427.201 231.394 427.201Z" fill="#263238"/>
<path opacity="0.2" d="M231.394 427.201C233.054 427.201 234.372 426.676 234.281 425.019L228.37 318.668H222.581L228.509 425.339C228.593 426.871 229.86 427.201 231.394 427.201Z" fill="white"/>
<path d="M111.178 323.453H249.163C250.693 323.453 251.934 322.212 251.934 320.682V316.654C251.934 315.123 250.693 313.883 249.163 313.883H111.178C109.648 313.883 108.407 315.123 108.407 316.654V320.682C108.407 322.212 109.648 323.453 111.178 323.453Z" fill="#263238"/>
<path opacity="0.5" d="M111.178 323.453H249.163C250.693 323.453 251.934 322.212 251.934 320.682V316.654C251.934 315.123 250.693 313.883 249.163 313.883H111.178C109.648 313.883 108.407 315.123 108.407 316.654V320.682C108.407 322.212 109.648 323.453 111.178 323.453Z" fill="white"/>
<path d="M173.992 284.243V291.873C173.052 291.873 173.05 293.334 173.992 293.334C176.9 293.334 179.81 293.354 182.721 293.372V282.781C179.811 282.781 176.901 282.781 173.992 282.781C173.052 282.781 173.05 284.243 173.992 284.243Z" fill="#407BFF"/>
<path opacity="0.3" d="M173.992 284.243V291.873C173.052 291.873 173.05 293.334 173.992 293.334C176.9 293.334 179.81 293.354 182.721 293.372V282.781C179.811 282.781 176.901 282.781 173.992 282.781C173.052 282.781 173.05 284.243 173.992 284.243Z" fill="white"/>
<path d="M173.992 284.254H180.772V291.874H173.992V284.254Z" fill="#407BFF"/>
<path opacity="0.6" d="M173.992 284.254H180.772V291.874H173.992V284.254Z" fill="white"/>
<path d="M179.35 283.512H216.781C218.397 283.512 219.707 285.547 219.707 288.058C219.707 290.569 218.397 292.604 216.781 292.604H179.35V283.512Z" fill="#407BFF"/>
<path opacity="0.9" d="M179.35 283.512H216.781C218.397 283.512 219.707 285.547 219.707 288.058C219.707 290.569 218.397 292.604 216.781 292.604H179.35V283.512Z" fill="white"/>
<path d="M179.35 293.335C187.046 293.335 208.679 293.474 216.374 293.335C221.645 293.24 221.928 283.136 216.758 282.782C213.154 282.534 209.446 282.782 205.836 282.782C201.649 282.782 183.538 282.782 179.35 282.782C178.41 282.782 178.407 284.243 179.35 284.243C186.644 284.243 207.863 284.243 215.157 284.243C216.845 284.243 218.053 284.262 218.705 286.254C219.27 287.977 219.092 291.494 216.781 291.874C216.533 291.915 216.24 291.874 215.99 291.874C212.013 291.874 208.035 291.874 204.059 291.874C200.464 291.874 182.945 291.874 179.351 291.874C178.409 291.874 178.407 293.335 179.35 293.335Z" fill="#407BFF"/>
<g opacity="0.2">
<path d="M179.35 293.335C187.046 293.335 208.679 293.474 216.374 293.335C221.645 293.24 221.928 283.136 216.758 282.782C213.154 282.534 209.446 282.782 205.836 282.782C201.649 282.782 183.538 282.782 179.35 282.782C178.41 282.782 178.407 284.243 179.35 284.243C186.644 284.243 207.863 284.243 215.157 284.243C216.845 284.243 218.053 284.262 218.705 286.254C219.27 287.977 219.092 291.494 216.781 291.874C216.533 291.915 216.24 291.874 215.99 291.874C212.013 291.874 208.035 291.874 204.059 291.874C200.464 291.874 182.945 291.874 179.351 291.874C178.409 291.874 178.407 293.335 179.35 293.335Z" fill="white"/>
</g>
<path d="M175.293 294.541V301.609C174.422 301.609 174.421 302.962 175.293 302.962C177.987 302.962 180.682 302.98 183.377 302.996V293.188C180.682 293.188 177.988 293.188 175.293 293.188C174.422 293.189 174.421 294.541 175.293 294.541Z" fill="#407BFF"/>
<path opacity="0.3" d="M175.293 294.541V301.609C174.422 301.609 174.421 302.962 175.293 302.962C177.987 302.962 180.682 302.98 183.377 302.996V293.188C180.682 293.188 177.988 293.188 175.293 293.188C174.422 293.189 174.421 294.541 175.293 294.541Z" fill="white"/>
<path d="M175.293 294.551H181.573V301.608H175.293V294.551Z" fill="#407BFF"/>
<path opacity="0.6" d="M175.293 294.551H181.573V301.608H175.293V294.551Z" fill="white"/>
<path d="M180.255 293.863H214.921C216.417 293.863 217.631 295.748 217.631 298.074C217.631 300.4 216.417 302.284 214.921 302.284H180.255V293.863Z" fill="#407BFF"/>
<path opacity="0.9" d="M180.255 293.863H214.921C216.417 293.863 217.631 295.748 217.631 298.074C217.631 300.4 216.417 302.284 214.921 302.284H180.255V293.863Z" fill="white"/>
<path d="M180.255 302.962C187.383 302.962 207.417 303.091 214.543 302.962C219.424 302.874 219.687 293.517 214.899 293.188C211.562 292.959 208.128 293.188 204.783 293.188C200.905 293.188 184.132 293.188 180.254 293.188C179.383 293.188 179.382 294.541 180.254 294.541C187.009 294.541 206.66 294.541 213.416 294.541C214.98 294.541 216.098 294.558 216.702 296.402C217.225 297.998 217.06 301.255 214.92 301.608C214.69 301.646 214.418 301.608 214.186 301.608C210.503 301.608 206.82 301.608 203.136 301.608C199.807 301.608 183.583 301.608 180.254 301.608C179.384 301.609 179.383 302.962 180.255 302.962Z" fill="#407BFF"/>
<path d="M171.264 304.449V312.86C170.228 312.86 170.226 314.471 171.264 314.471C174.47 314.471 177.677 314.492 180.885 314.512V302.84C177.677 302.84 174.471 302.84 171.264 302.84C170.227 302.838 170.226 304.449 171.264 304.449Z" fill="#407BFF"/>
<path opacity="0.3" d="M171.264 304.449V312.86C170.228 312.86 170.226 314.471 171.264 314.471C174.47 314.471 177.677 314.492 180.885 314.512V302.84C177.677 302.84 174.471 302.84 171.264 302.84C170.227 302.838 170.226 304.449 171.264 304.449Z" fill="white"/>
<path d="M171.265 304.461H178.737V312.859H171.265V304.461Z" fill="#407BFF"/>
<path opacity="0.6" d="M171.265 304.461H178.737V312.859H171.265V304.461Z" fill="white"/>
<path d="M177.168 303.641H218.422C220.204 303.641 221.647 305.884 221.647 308.651C221.647 311.418 220.204 313.661 218.422 313.661H177.168V303.641Z" fill="#407BFF"/>
<path opacity="0.9" d="M177.168 303.641H218.422C220.204 303.641 221.647 305.884 221.647 308.651C221.647 311.418 220.204 313.661 218.422 313.661H177.168V303.641Z" fill="white"/>
<path d="M177.168 314.468C185.65 314.468 209.492 314.62 217.973 314.468C223.783 314.362 224.095 303.227 218.397 302.836C214.424 302.563 210.339 302.836 206.359 302.836C201.744 302.836 181.783 302.836 177.168 302.836C176.132 302.836 176.13 304.446 177.168 304.446C185.207 304.446 208.593 304.446 216.632 304.446C218.493 304.446 219.823 304.466 220.542 306.662C221.164 308.561 220.968 312.437 218.421 312.857C218.147 312.902 217.824 312.857 217.548 312.857C213.165 312.857 208.781 312.857 204.399 312.857C200.437 312.857 181.129 312.857 177.167 312.857C176.132 312.857 176.131 314.468 177.168 314.468Z" fill="#407BFF"/>
<g opacity="0.2">
<path d="M177.168 314.468C185.65 314.468 209.492 314.62 217.973 314.468C223.783 314.362 224.095 303.227 218.397 302.836C214.424 302.563 210.339 302.836 206.359 302.836C201.744 302.836 181.783 302.836 177.168 302.836C176.132 302.836 176.13 304.446 177.168 304.446C185.207 304.446 208.593 304.446 216.632 304.446C218.493 304.446 219.823 304.466 220.542 306.662C221.164 308.561 220.968 312.437 218.421 312.857C218.147 312.902 217.824 312.857 217.548 312.857C213.165 312.857 208.781 312.857 204.399 312.857C200.437 312.857 181.129 312.857 177.167 312.857C176.132 312.857 176.131 314.468 177.168 314.468Z" fill="black"/>
</g>
</g>
<defs>
<clipPath id="clip0_8328_85289">
<rect width="516" height="516" fill="white" transform="matrix(-1 0 0 1 516.5 0)"/>
</clipPath>
</defs>
</svg>
