<svg width="19" height="19" viewBox="0 0 19 19" fill="none" xmlns="http://www.w3.org/2000/svg">
<g id="Books">
<path id="Vector" d="M16.7879 14.1787L14.4542 3.08339C14.424 2.93829 14.3655 2.80059 14.2819 2.67819C14.1984 2.55579 14.0914 2.45111 13.9673 2.37016C13.8432 2.28921 13.7043 2.23358 13.5585 2.20648C13.4128 2.17937 13.2632 2.18132 13.1183 2.21221L9.82695 2.91956C9.53582 2.9833 9.28164 3.15942 9.11968 3.4096C8.95772 3.65978 8.90109 3.96378 8.96211 4.2555L11.2958 15.3508C11.3478 15.6039 11.4854 15.8315 11.6854 15.9951C11.8854 16.1588 12.1356 16.2486 12.3941 16.2494C12.4739 16.2493 12.5536 16.2408 12.6317 16.2241L15.923 15.5167C16.2145 15.4529 16.469 15.2764 16.6309 15.0258C16.7929 14.7752 16.8493 14.4707 16.7879 14.1787ZM10.0625 4.02557C10.0625 4.02136 10.0625 4.01925 10.0625 4.01925L13.3531 3.31612L13.5873 4.43198L10.2966 5.14003L10.0625 4.02557ZM10.528 6.23831L13.82 5.53167L14.0548 6.64964L10.7656 7.35698L10.528 6.23831ZM10.9948 8.45807L14.2869 7.75073L15.222 12.1973L11.93 12.9046L10.9948 8.45807ZM15.6875 14.4171L12.3969 15.1202L12.1627 14.0043L15.4534 13.2963L15.6875 14.4107C15.6875 14.4149 15.6875 14.4171 15.6875 14.4171ZM7.8125 2.7494H4.4375C4.13913 2.7494 3.85298 2.86793 3.642 3.07891C3.43103 3.28989 3.3125 3.57603 3.3125 3.8744V15.1244C3.3125 15.4228 3.43103 15.7089 3.642 15.9199C3.85298 16.1309 4.13913 16.2494 4.4375 16.2494H7.8125C8.11087 16.2494 8.39702 16.1309 8.608 15.9199C8.81897 15.7089 8.9375 15.4228 8.9375 15.1244V3.8744C8.9375 3.57603 8.81897 3.28989 8.608 3.07891C8.39702 2.86793 8.11087 2.7494 7.8125 2.7494ZM4.4375 3.8744H7.8125V4.9994H4.4375V3.8744ZM4.4375 6.1244H7.8125V12.8744H4.4375V6.1244ZM7.8125 15.1244H4.4375V13.9994H7.8125V15.1244Z" fill="#3769FF"/>
</g>
</svg>
