<svg width="19" height="19" viewBox="0 0 19 19" fill="none" xmlns="http://www.w3.org/2000/svg">
<g id="Briefcase">
<path id="Vector" d="M15.6875 4.4375H12.875V3.875C12.875 3.42745 12.6972 2.99822 12.3807 2.68176C12.0643 2.36529 11.6351 2.1875 11.1875 2.1875H7.8125C7.36495 2.1875 6.93572 2.36529 6.61926 2.68176C6.30279 2.99822 6.125 3.42745 6.125 3.875V4.4375H3.3125C3.01413 4.4375 2.72798 4.55603 2.517 4.767C2.30603 4.97798 2.1875 5.26413 2.1875 5.5625V14.5625C2.1875 14.8609 2.30603 15.147 2.517 15.358C2.72798 15.569 3.01413 15.6875 3.3125 15.6875H15.6875C15.9859 15.6875 16.272 15.569 16.483 15.358C16.694 15.147 16.8125 14.8609 16.8125 14.5625V5.5625C16.8125 5.26413 16.694 4.97798 16.483 4.767C16.272 4.55603 15.9859 4.4375 15.6875 4.4375ZM7.25 3.875C7.25 3.72582 7.30926 3.58274 7.41475 3.47725C7.52024 3.37176 7.66332 3.3125 7.8125 3.3125H11.1875C11.3367 3.3125 11.4798 3.37176 11.5852 3.47725C11.6907 3.58274 11.75 3.72582 11.75 3.875V4.4375H7.25V3.875ZM15.6875 5.5625V8.4882C13.7889 9.52164 11.6616 10.0629 9.5 10.0625C7.33846 10.0629 5.21123 9.5219 3.3125 8.48891V5.5625H15.6875ZM15.6875 14.5625H3.3125V9.75594C5.23901 10.6983 7.35537 11.1879 9.5 11.1875C11.6447 11.1875 13.761 10.6977 15.6875 9.75523V14.5625ZM7.8125 8.375C7.8125 8.22582 7.87176 8.08274 7.97725 7.97725C8.08274 7.87176 8.22582 7.8125 8.375 7.8125H10.625C10.7742 7.8125 10.9173 7.87176 11.0227 7.97725C11.1282 8.08274 11.1875 8.22582 11.1875 8.375C11.1875 8.52418 11.1282 8.66726 11.0227 8.77275C10.9173 8.87824 10.7742 8.9375 10.625 8.9375H8.375C8.22582 8.9375 8.08274 8.87824 7.97725 8.77275C7.87176 8.66726 7.8125 8.52418 7.8125 8.375Z" fill="#3769FF"/>
</g>
</svg>
