<svg width="21" height="21" viewBox="0 0 21 21" fill="none" xmlns="http://www.w3.org/2000/svg">
<g id="ChartPieSlice">
<path id="Vector" d="M8.03536 9.18702C8.13097 9.13181 8.21036 9.05241 8.26555 8.95679C8.32074 8.86118 8.34979 8.75271 8.34976 8.64231V2.983C8.3492 2.88274 8.32468 2.78408 8.27824 2.69523C8.2318 2.60638 8.16478 2.52992 8.08279 2.47224C8.0008 2.41455 7.9062 2.3773 7.80688 2.3636C7.70757 2.3499 7.60642 2.36015 7.51187 2.39348C5.67651 3.04306 4.13304 4.32602 3.15893 6.01173C2.18482 7.69744 1.84396 9.67533 2.19762 11.5899C2.21595 11.6889 2.25779 11.782 2.31961 11.8615C2.38144 11.941 2.46144 12.0044 2.5529 12.0465C2.63532 12.0851 2.72523 12.1049 2.81621 12.1047C2.92658 12.1047 3.03501 12.0757 3.13062 12.0206L8.03536 9.18702ZM7.09214 3.93565V8.27917L3.3287 10.4509C3.31926 10.3322 3.31926 10.2128 3.31926 10.0964C3.32038 8.8218 3.6732 7.5722 4.33888 6.4852C5.00456 5.3982 5.95727 4.51597 7.09214 3.93565ZM17.3371 6.05003C17.33 6.03588 17.3229 6.02095 17.3143 6.0068C17.3056 5.99265 17.2985 5.98086 17.2899 5.96828C16.5692 4.73723 15.539 3.7161 14.3016 3.00627C13.0642 2.29644 11.6627 1.9226 10.2362 1.92188C10.0694 1.92187 9.90949 1.98812 9.79156 2.10605C9.67364 2.22398 9.60739 2.38392 9.60739 2.55069V9.76867L3.4128 13.3765C3.34092 13.4181 3.278 13.4737 3.2277 13.5398C3.17739 13.6059 3.14069 13.6814 3.11971 13.7617C3.09874 13.8421 3.0939 13.9259 3.10549 14.0082C3.11707 14.0905 3.14485 14.1696 3.18721 14.2411C4.09606 15.7887 5.48898 16.9943 7.15103 17.6716C8.81307 18.349 10.6518 18.4606 12.3836 17.9891C14.1153 17.5176 15.6438 16.4893 16.7331 15.0629C17.8223 13.6365 18.4119 11.8912 18.4108 10.0964C18.4126 8.67699 18.0424 7.28185 17.3371 6.05003ZM10.865 3.2078C11.8623 3.29959 12.8278 3.60674 13.6948 4.10804C14.5618 4.60934 15.3097 5.29283 15.8869 6.11134L10.865 9.0361V3.2078ZM10.2362 17.0134C9.13846 17.0106 8.05699 16.7478 7.08031 16.2467C6.10362 15.7456 5.25948 15.0203 4.61697 14.1303L10.5435 10.6789L10.5608 10.6679L16.5165 7.19918C17.0026 8.25303 17.2157 9.41225 17.1362 10.5701C17.0568 11.7279 16.6872 12.8471 16.0617 13.8247C15.4362 14.8022 14.5747 15.6067 13.5567 16.1639C12.5386 16.7211 11.3968 17.0133 10.2362 17.0134Z" fill="#3769FF"/>
</g>
</svg>
