<svg width="19" height="19" viewBox="0 0 19 19" fill="none" xmlns="http://www.w3.org/2000/svg">
<g id="Coins">
<path id="Vector" d="M13.4375 6.79789V6.40625C13.4375 4.64281 10.7776 3.3125 7.25 3.3125C3.72242 3.3125 1.0625 4.64281 1.0625 6.40625V9.21875C1.0625 10.6876 2.9082 11.8548 5.5625 12.2042V12.5938C5.5625 14.3572 8.22242 15.6875 11.75 15.6875C15.2776 15.6875 17.9375 14.3572 17.9375 12.5938V9.78125C17.9375 8.32578 16.1502 7.15719 13.4375 6.79789ZM16.8125 9.78125C16.8125 10.7108 14.6476 11.75 11.75 11.75C11.4877 11.75 11.2276 11.7409 10.9709 11.724C12.4876 11.1713 13.4375 10.2734 13.4375 9.21875V7.93484C15.5377 8.24773 16.8125 9.09711 16.8125 9.78125ZM5.5625 11.0645V9.39172C6.12203 9.46463 6.68574 9.5008 7.25 9.5C7.81426 9.5008 8.37797 9.46463 8.9375 9.39172V11.0645C8.3788 11.147 7.81476 11.1881 7.25 11.1875C6.68524 11.1881 6.1212 11.147 5.5625 11.0645ZM12.3125 8.22945V9.21875C12.3125 9.80867 11.4399 10.4422 10.0625 10.8268V9.18359C10.9702 8.96352 11.7388 8.63586 12.3125 8.22945ZM7.25 4.4375C10.1476 4.4375 12.3125 5.47672 12.3125 6.40625C12.3125 7.33578 10.1476 8.375 7.25 8.375C4.35242 8.375 2.1875 7.33578 2.1875 6.40625C2.1875 5.47672 4.35242 4.4375 7.25 4.4375ZM2.1875 9.21875V8.22945C2.76125 8.63586 3.52977 8.96352 4.4375 9.18359V10.8268C3.06008 10.4422 2.1875 9.80867 2.1875 9.21875ZM6.6875 12.5938V12.3005C6.87242 12.3076 7.05945 12.3125 7.25 12.3125C7.52281 12.3125 7.7893 12.3034 8.05086 12.2879C8.34143 12.3919 8.63741 12.4802 8.9375 12.5523V14.2018C7.56008 13.8172 6.6875 13.1837 6.6875 12.5938ZM10.0625 14.4395V12.7625C10.6219 12.8377 11.1856 12.8753 11.75 12.875C12.3143 12.8758 12.878 12.8396 13.4375 12.7667V14.4395C12.3185 14.6035 11.1815 14.6035 10.0625 14.4395ZM14.5625 14.2018V12.5586C15.4702 12.3385 16.2388 12.0109 16.8125 11.6045V12.5938C16.8125 13.1837 15.9399 13.8172 14.5625 14.2018Z" fill="#3769FF"/>
</g>
</svg>
