<svg width="32" height="40" viewBox="0 0 32 40" fill="none" xmlns="http://www.w3.org/2000/svg">
<path id="Vector" d="M19.5833 0H3.91667C2.8779 0 1.88168 0.412647 1.14716 1.14716C0.412647 1.88168 0 2.8779 0 3.91667V35.25C0 36.2888 0.412647 37.285 1.14716 38.0195C1.88168 38.754 2.8779 39.1667 3.91667 39.1667H27.4167C28.4554 39.1667 29.4517 38.754 30.1862 38.0195C30.9207 37.285 31.3333 36.2888 31.3333 35.25V11.75L19.5833 0ZM10.7669 27.7888C10.1618 28.3567 9.26879 28.6113 8.22892 28.6113C8.02729 28.6134 7.82575 28.6017 7.62575 28.576V31.3686H5.875V23.6606C6.6651 23.5427 7.46344 23.489 8.26221 23.5C9.353 23.5 10.1285 23.7076 10.6514 24.1247C11.1488 24.5203 11.4856 25.1685 11.4856 25.9322C11.4837 26.6999 11.2291 27.3481 10.7669 27.7888ZM18.2223 30.4423C17.3998 31.1258 16.1484 31.4508 14.619 31.4508C13.7025 31.4508 13.0542 31.3921 12.6136 31.3333V23.6625C13.404 23.5472 14.2021 23.4928 15.0008 23.5C16.4833 23.5 17.4468 23.7663 18.1988 24.3342C19.0115 24.9374 19.5207 25.899 19.5207 27.2796C19.5207 28.7738 18.9743 29.8058 18.2223 30.4423ZM25.4583 25.0079H22.4582V26.792H25.2625V28.2294H22.4582V31.3705H20.6839V23.5588H25.4583V25.0079ZM19.5833 13.7083H17.625V3.91667L27.4167 13.7083H19.5833Z" fill="#E24100"/>
</svg>
