<svg width="19" height="19" viewBox="0 0 19 19" fill="none" xmlns="http://www.w3.org/2000/svg">
<g id="Files">
<path id="Vector" d="M15.523 5.16453L12.7105 2.35203C12.6582 2.29981 12.5961 2.2584 12.5279 2.23017C12.4596 2.20194 12.3864 2.18744 12.3125 2.1875H6.6875C6.38913 2.1875 6.10298 2.30603 5.892 2.517C5.68103 2.72798 5.5625 3.01413 5.5625 3.3125V4.4375H4.4375C4.13913 4.4375 3.85298 4.55603 3.642 4.767C3.43103 4.97798 3.3125 5.26413 3.3125 5.5625V15.6875C3.3125 15.9859 3.43103 16.272 3.642 16.483C3.85298 16.694 4.13913 16.8125 4.4375 16.8125H12.3125C12.6109 16.8125 12.897 16.694 13.108 16.483C13.319 16.272 13.4375 15.9859 13.4375 15.6875V14.5625H14.5625C14.8609 14.5625 15.147 14.444 15.358 14.233C15.569 14.022 15.6875 13.7359 15.6875 13.4375V5.5625C15.6876 5.48861 15.6731 5.41543 15.6448 5.34715C15.6166 5.27886 15.5752 5.21681 15.523 5.16453ZM12.3125 15.6875H4.4375V5.5625H9.82977L12.3125 8.04523V13.9887C12.3125 13.993 12.3125 13.9965 12.3125 14C12.3125 14.0035 12.3125 14.007 12.3125 14.0113V15.6875ZM14.5625 13.4375H13.4375V7.8125C13.4376 7.73861 13.4231 7.66543 13.3948 7.59715C13.3666 7.52886 13.3252 7.46681 13.273 7.41453L10.4605 4.60203C10.4082 4.54981 10.3461 4.5084 10.2779 4.48017C10.2096 4.45194 10.1364 4.43744 10.0625 4.4375H6.6875V3.3125H12.0798L14.5625 5.79523V13.4375ZM10.625 11.1875C10.625 11.3367 10.5657 11.4798 10.4602 11.5852C10.3548 11.6907 10.2117 11.75 10.0625 11.75H6.6875C6.53832 11.75 6.39524 11.6907 6.28975 11.5852C6.18426 11.4798 6.125 11.3367 6.125 11.1875C6.125 11.0383 6.18426 10.8952 6.28975 10.7898C6.39524 10.6843 6.53832 10.625 6.6875 10.625H10.0625C10.2117 10.625 10.3548 10.6843 10.4602 10.7898C10.5657 10.8952 10.625 11.0383 10.625 11.1875ZM10.625 13.4375C10.625 13.5867 10.5657 13.7298 10.4602 13.8352C10.3548 13.9407 10.2117 14 10.0625 14H6.6875C6.53832 14 6.39524 13.9407 6.28975 13.8352C6.18426 13.7298 6.125 13.5867 6.125 13.4375C6.125 13.2883 6.18426 13.1452 6.28975 13.0398C6.39524 12.9343 6.53832 12.875 6.6875 12.875H10.0625C10.2117 12.875 10.3548 12.9343 10.4602 13.0398C10.5657 13.1452 10.625 13.2883 10.625 13.4375Z" fill="#3769FF"/>
</g>
</svg>
