<svg width="17" height="17" viewBox="0 0 17 17" fill="none" xmlns="http://www.w3.org/2000/svg">
<mask id="path-1-inside-1_10752_131218" fill="white">
<path d="M14.8885 7.25327L9.96202 2.32681C9.91034 2.2752 9.84454 2.24006 9.77291 2.22583C9.70128 2.2116 9.62704 2.21892 9.55956 2.24686C9.49209 2.2748 9.4344 2.3221 9.3938 2.38281C9.3532 2.44351 9.33149 2.51488 9.33143 2.58791V5.18662C5.97651 5.40769 1.91772 8.57356 1.4534 12.617C1.43832 12.7457 1.46426 12.8759 1.52751 12.9891C1.59077 13.1022 1.68812 13.1925 1.80569 13.2471C1.92327 13.3017 2.05508 13.3178 2.18233 13.2931C2.30959 13.2684 2.42581 13.2042 2.51444 13.1096C3.20784 12.37 5.69816 10.0146 9.33143 9.86245V12.4408C9.33149 12.5139 9.3532 12.5852 9.3938 12.6459C9.4344 12.7066 9.49209 12.7539 9.55956 12.7819C9.62704 12.8098 9.70128 12.8171 9.77291 12.8029C9.84454 12.7887 9.91034 12.7535 9.96202 12.7019L14.8885 7.77547C14.9577 7.70619 14.9965 7.61229 14.9965 7.51437C14.9965 7.41646 14.9577 7.32255 14.8885 7.25327ZM10.0704 11.5491V9.48496C10.0704 9.38696 10.0315 9.29298 9.96218 9.22369C9.89289 9.1544 9.79891 9.11547 9.70091 9.11547C7.99328 9.11547 6.32875 9.56193 4.75475 10.4425C3.83733 10.9579 2.99227 11.5926 2.24163 12.33C2.53106 10.6944 3.4831 9.12779 4.95119 7.87955C6.40449 6.64855 8.17925 5.91327 9.70091 5.91327C9.79891 5.91327 9.89289 5.87434 9.96218 5.80505C10.0315 5.73576 10.0704 5.64178 10.0704 5.54379V3.48022L14.1046 7.51437L10.0704 11.5491Z"/>
</mask>
<path d="M14.8885 7.25327L9.96202 2.32681C9.91034 2.2752 9.84454 2.24006 9.77291 2.22583C9.70128 2.2116 9.62704 2.21892 9.55956 2.24686C9.49209 2.2748 9.4344 2.3221 9.3938 2.38281C9.3532 2.44351 9.33149 2.51488 9.33143 2.58791V5.18662C5.97651 5.40769 1.91772 8.57356 1.4534 12.617C1.43832 12.7457 1.46426 12.8759 1.52751 12.9891C1.59077 13.1022 1.68812 13.1925 1.80569 13.2471C1.92327 13.3017 2.05508 13.3178 2.18233 13.2931C2.30959 13.2684 2.42581 13.2042 2.51444 13.1096C3.20784 12.37 5.69816 10.0146 9.33143 9.86245V12.4408C9.33149 12.5139 9.3532 12.5852 9.3938 12.6459C9.4344 12.7066 9.49209 12.7539 9.55956 12.7819C9.62704 12.8098 9.70128 12.8171 9.77291 12.8029C9.84454 12.7887 9.91034 12.7535 9.96202 12.7019L14.8885 7.77547C14.9577 7.70619 14.9965 7.61229 14.9965 7.51437C14.9965 7.41646 14.9577 7.32255 14.8885 7.25327ZM10.0704 11.5491V9.48496C10.0704 9.38696 10.0315 9.29298 9.96218 9.22369C9.89289 9.1544 9.79891 9.11547 9.70091 9.11547C7.99328 9.11547 6.32875 9.56193 4.75475 10.4425C3.83733 10.9579 2.99227 11.5926 2.24163 12.33C2.53106 10.6944 3.4831 9.12779 4.95119 7.87955C6.40449 6.64855 8.17925 5.91327 9.70091 5.91327C9.79891 5.91327 9.89289 5.87434 9.96218 5.80505C10.0315 5.73576 10.0704 5.64178 10.0704 5.54379V3.48022L14.1046 7.51437L10.0704 11.5491Z" fill="#3769FF"/>
<path d="M14.8885 7.25327L20.9184 1.23081L20.9147 1.22706L14.8885 7.25327ZM9.96202 2.32681L15.9882 -3.6994L15.9845 -3.70315L9.96202 2.32681ZM9.33143 2.58791L0.809081 2.58041V2.58791H9.33143ZM9.33143 5.18662L9.8918 13.6905L17.8538 13.1659V5.18662H9.33143ZM1.4534 12.617L9.91789 13.6083L9.91901 13.5988L9.9201 13.5892L1.4534 12.617ZM2.51444 13.1096L-3.70277 7.28064L-3.70508 7.28311L2.51444 13.1096ZM9.33143 9.86245H17.8538V0.975852L8.97496 1.34756L9.33143 9.86245ZM9.33143 12.4408H0.809078L0.809084 12.4483L9.33143 12.4408ZM9.96202 12.7019L15.9845 18.7319L15.9882 18.7281L9.96202 12.7019ZM14.8885 7.77547L20.9147 13.8017L20.9184 13.7979L14.8885 7.77547ZM10.0704 11.5491H1.54805V32.1261L16.0971 17.5749L10.0704 11.5491ZM4.75475 10.4425L0.593711 3.00505L0.587259 3.00866L0.580813 3.01228L4.75475 10.4425ZM2.24163 12.33L-6.15033 10.845L-10.7932 37.0821L8.21408 18.4095L2.24163 12.33ZM4.95119 7.87955L-0.55709 1.37653L-0.563172 1.38168L-0.569245 1.38684L4.95119 7.87955ZM10.0704 3.48022L16.0966 -2.54599L1.54805 -17.0946V3.48022H10.0704ZM14.1046 7.51437L20.1312 13.5401L26.1565 7.51391L20.1308 1.48816L14.1046 7.51437ZM20.9147 1.22706L15.9882 -3.6994L3.93581 8.35302L8.86227 13.2795L20.9147 1.22706ZM15.9845 -3.70315C14.7409 -4.94514 13.1573 -5.79073 11.4335 -6.13317L8.11234 10.5848C6.53181 10.2709 5.07974 9.49553 3.93955 8.35676L15.9845 -3.70315ZM11.4335 -6.13317C9.70966 -6.47562 7.92302 -6.29954 6.29921 -5.62718L12.8199 10.1209C11.331 10.7374 9.69289 10.8988 8.11234 10.5848L11.4335 -6.13317ZM6.29921 -5.62718C4.67539 -4.95482 3.28726 -3.81633 2.31012 -2.35553L16.4775 7.12114C15.5816 8.46053 14.3088 9.50441 12.8199 10.1209L6.29921 -5.62718ZM2.31012 -2.35553C1.33299 -0.89475 0.81063 0.822869 0.809084 2.58041L17.8538 2.59541C17.8524 4.20689 17.3734 5.78176 16.4775 7.12114L2.31012 -2.35553ZM0.809081 2.58791V5.18662H17.8538V2.58791H0.809081ZM8.77106 -3.31729C4.84941 -3.05887 1.26638 -1.22691 -1.34923 1.09494C-4.01709 3.46317 -6.4878 7.06852 -7.0133 11.6447L9.9201 13.5892C9.90482 13.7223 9.87731 13.8279 9.85206 13.9018C9.82727 13.9743 9.80585 14.0131 9.80153 14.0207C9.79747 14.0277 9.80676 14.0104 9.83658 13.9743C9.8664 13.9382 9.9095 13.8921 9.96611 13.8419C10.0227 13.7916 10.0836 13.7454 10.1437 13.7062C10.2042 13.6667 10.252 13.6421 10.2797 13.6295C10.3083 13.6165 10.2996 13.6234 10.2475 13.6373C10.2203 13.6446 10.1779 13.6546 10.1203 13.6644C10.0627 13.6742 9.98633 13.6843 9.8918 13.6905L8.77106 -3.31729ZM-7.01109 11.6256C-7.23486 13.5362 -6.84999 15.4686 -5.91132 17.1477L8.96635 8.83046C9.77851 10.2832 10.1115 11.9553 9.91789 13.6083L-7.01109 11.6256ZM-5.91132 17.1477C-4.97265 18.8268 -3.52805 20.1668 -1.78329 20.9769L5.39468 5.51734C6.90428 6.21826 8.15419 7.37769 8.96635 8.83046L-5.91132 17.1477ZM-1.78329 20.9769C-0.0385516 21.787 1.91735 22.0259 3.80577 21.6594L0.558896 4.92683C2.19281 4.60978 3.88509 4.81643 5.39468 5.51734L-1.78329 20.9769ZM3.80577 21.6594C5.69419 21.293 7.41881 20.3399 8.73395 18.9361L-3.70508 7.28311C-2.56719 6.06846 -1.07501 5.24388 0.558896 4.92683L3.80577 21.6594ZM8.73164 18.9386C8.71235 18.9591 8.75862 18.9082 8.85744 18.8248C8.95723 18.7406 9.08092 18.6484 9.2157 18.5673C9.50095 18.3955 9.65253 18.3788 9.6879 18.3773L8.97496 1.34756C1.92797 1.64258 -2.55133 6.05251 -3.70277 7.28064L8.73164 18.9386ZM0.809081 9.86245V12.4408H17.8538V9.86245H0.809081ZM0.809084 12.4483C0.81063 14.2059 1.33299 15.9235 2.31012 17.3843L16.4775 7.9076C17.3734 9.24698 17.8524 10.8218 17.8538 12.4333L0.809084 12.4483ZM2.31012 17.3843C3.28724 18.845 4.67537 19.9836 6.29921 20.6559L12.8199 4.90784C14.3088 5.52434 15.5816 6.56823 16.4775 7.9076L2.31012 17.3843ZM6.29921 20.6559C7.92307 21.3283 9.70971 21.5043 11.4335 21.1619L8.11234 4.44391C9.69284 4.12993 11.331 4.29134 12.8199 4.90784L6.29921 20.6559ZM11.4335 21.1619C13.1572 20.8195 14.7409 19.9739 15.9845 18.7319L3.93955 6.67198C5.07979 5.53317 6.53187 4.75788 8.11234 4.44391L11.4335 21.1619ZM15.9882 18.7281L20.9147 13.8017L8.86227 1.74926L3.93581 6.67573L15.9882 18.7281ZM20.9184 13.7979C22.5836 12.1307 23.5189 9.8707 23.5189 7.51437H6.47419C6.47419 5.35387 7.33174 3.28169 8.85852 1.75302L20.9184 13.7979ZM23.5189 7.51437C23.5189 5.15804 22.5836 2.89804 20.9184 1.23081L8.85852 13.2757C7.33174 11.7471 6.47419 9.67487 6.47419 7.51437H23.5189ZM18.5927 11.5491V9.48496H1.54805V11.5491H18.5927ZM18.5927 9.48496C18.5927 7.12672 17.6559 4.86504 15.9884 3.19748L3.93597 15.2499C2.40699 13.7209 1.54805 11.6472 1.54805 9.48496H18.5927ZM15.9884 3.19748C14.3208 1.52992 12.0591 0.593125 9.70091 0.593125V17.6378C7.53866 17.6378 5.46494 16.7789 3.93597 15.2499L15.9884 3.19748ZM9.70091 0.593125C6.45447 0.593125 3.36578 1.45417 0.593711 3.00505L8.91578 17.88C9.29172 17.6697 9.53209 17.6378 9.70091 17.6378V0.593125ZM0.580813 3.01228C-0.99315 3.89645 -2.44298 4.98534 -3.73081 6.25049L8.21408 18.4095C8.42752 18.1998 8.66781 18.0193 8.92868 17.8728L0.580813 3.01228ZM10.6336 13.815C10.5796 14.1203 10.4829 14.3106 10.4347 14.3898C10.3874 14.4676 10.3817 14.4487 10.4716 14.3722L-0.569245 1.38684C-3.29986 3.70855 -5.46263 6.9587 -6.15033 10.845L10.6336 13.815ZM10.4595 14.3826C10.5355 14.3182 10.5885 14.2973 10.5608 14.3088C10.5406 14.3172 10.4695 14.3451 10.3423 14.3729C10.2172 14.4003 10.0006 14.4356 9.70091 14.4356V-2.60908C5.69172 -2.60908 2.03385 -0.818092 -0.55709 1.37653L10.4595 14.3826ZM9.70091 14.4356C12.0592 14.4356 14.3208 13.4988 15.9884 11.8313L3.93597 -0.221158C5.46492 -1.75011 7.53864 -2.60908 9.70091 -2.60908V14.4356ZM15.9884 11.8313C17.6559 10.1637 18.5927 7.90203 18.5927 5.54379H1.54805C1.54805 3.38153 2.407 1.30781 3.93597 -0.221158L15.9884 11.8313ZM18.5927 5.54379V3.48022H1.54805V5.54379H18.5927ZM4.04419 9.50642L8.07834 13.5406L20.1308 1.48816L16.0966 -2.54599L4.04419 9.50642ZM8.07788 1.48862L4.04373 5.52339L16.0971 17.5749L20.1312 13.5401L8.07788 1.48862Z" fill="#3769FF" mask="url(#path-1-inside-1_10752_131218)"/>
</svg>
