<svg width="16" height="15" viewBox="0 0 16 15" fill="none" xmlns="http://www.w3.org/2000/svg">
<path d="M7.71947 2.8695C9.16284 1.56365 11.3933 1.607 12.7836 3.01122C14.174 4.41543 14.2217 6.65258 12.9286 8.1117L7.71879 13.3709L2.50905 8.1117C1.21602 6.65258 1.26435 4.4119 2.65405 3.01122C4.04533 1.60895 6.27191 1.56171 7.71947 2.8695ZM11.9138 3.88615C10.9927 2.95584 9.50547 2.9181 8.54039 3.79125L7.72002 4.53343L6.89922 3.79184C5.93137 2.91746 4.44687 2.95592 3.52303 3.88706C2.60764 4.80969 2.56169 6.28737 3.40528 7.26336L7.71879 11.6178L12.0325 7.26336C12.8764 6.287 12.8306 4.81213 11.9138 3.88615Z" fill="#3769FF"/>
</svg>
