<svg width="12" height="13" viewBox="0 0 12 13" fill="none" xmlns="http://www.w3.org/2000/svg">
<path d="M9.06976 0.59375H3.37156C2.76804 0.595681 2.18979 0.836304 1.76304 1.26309C1.33628 1.68988 1.09568 2.26818 1.09375 2.87175V11.1927C1.09375 12.2548 1.85546 12.7089 2.78563 12.1888L5.66402 10.5847C5.97164 10.4163 6.46968 10.4163 6.76997 10.5847L9.64837 12.1888C10.5785 12.7089 11.3402 12.2548 11.3402 11.1927V2.87175C11.3407 2.57308 11.2824 2.27724 11.1685 2.00112C11.0547 1.725 10.8876 1.47401 10.6768 1.26248C10.4659 1.05094 10.2155 0.883015 9.93976 0.768274C9.66403 0.653534 9.3684 0.594231 9.06976 0.59375Z" stroke="#3769FF" stroke-width="1.09867" stroke-linecap="round" stroke-linejoin="round"/>
</svg>
