<svg width="16" height="16" viewBox="0 0 16 16" fill="none" xmlns="http://www.w3.org/2000/svg">
<path d="M15.0002 6.12535C15.0012 6.60151 14.9079 7.07315 14.7255 7.51299C14.5431 7.95284 14.2753 8.35216 13.9377 8.68785L8.35641 14.3516C8.30988 14.3988 8.25442 14.4364 8.19326 14.462C8.1321 14.4876 8.06646 14.5008 8.00016 14.5008C7.93385 14.5008 7.86821 14.4876 7.80705 14.462C7.74589 14.4364 7.69043 14.3988 7.64391 14.3516L2.06266 8.68785C1.38221 8.00823 0.99961 7.08615 0.999024 6.12444C0.998438 5.16273 1.37991 4.24017 2.05953 3.55973C2.73915 2.87928 3.66124 2.49668 4.62295 2.49609C5.58466 2.49551 6.50721 2.87698 7.18766 3.5566L8.00016 4.31598L8.81828 3.5541C9.32606 3.04884 9.97215 2.70535 10.675 2.567C11.3778 2.42864 12.1059 2.50161 12.7673 2.77671C13.4287 3.05181 13.9938 3.51669 14.3912 4.11268C14.7886 4.70866 15.0005 5.40902 15.0002 6.12535Z" fill="#3769FF"/>
</svg>
