<svg width="41" height="42" viewBox="0 0 41 42" fill="none" xmlns="http://www.w3.org/2000/svg">
<path fill-rule="evenodd" clip-rule="evenodd" d="M20.5 39.1133C30.4416 39.1133 38.5 31.0549 38.5 21.1133C38.5 11.1717 30.4416 3.11328 20.5 3.11328C10.5584 3.11328 2.5 11.1717 2.5 21.1133C2.5 31.0549 10.5584 39.1133 20.5 39.1133ZM20.5 41.3633C31.6836 41.3633 40.75 32.2969 40.75 21.1133C40.75 9.92966 31.6836 0.863281 20.5 0.863281C9.31637 0.863281 0.25 9.92966 0.25 21.1133C0.25 32.2969 9.31637 41.3633 20.5 41.3633Z" fill="url(#paint0_linear_9276_54976)"/>
<path fill-rule="evenodd" clip-rule="evenodd" d="M13.1875 23.3633C14.74 23.3633 16 21.3495 16 18.8633C16 16.377 14.74 14.3633 13.1875 14.3633C11.635 14.3633 10.375 16.377 10.375 18.8633C10.375 21.3495 11.635 23.3633 13.1875 23.3633ZM27.8125 23.3633C29.365 23.3633 30.625 21.3495 30.625 18.8633C30.625 16.377 29.365 14.3633 27.8125 14.3633C26.26 14.3633 25 16.377 25 18.8633C25 21.3495 26.26 23.3633 27.8125 23.3633ZM17.485 32.9415L17.4355 32.9809C17.2037 33.1689 16.9067 33.2571 16.6098 33.226C16.313 33.195 16.0406 33.0474 15.8526 32.8155C15.6647 32.5837 15.5765 32.2867 15.6075 31.9898C15.6385 31.693 15.7862 31.4206 16.018 31.2327L16.1687 31.1112C17.5007 30.0312 18.8811 28.9118 20.977 28.3448C23.1392 27.7598 25.9371 27.789 30.139 28.7082C30.2833 28.7398 30.42 28.7995 30.5413 28.884C30.6625 28.9684 30.766 29.0759 30.8457 29.2003C30.9254 29.3247 30.9798 29.4636 31.0058 29.6091C31.0319 29.7545 31.029 29.9037 30.9974 30.048C30.9658 30.1924 30.906 30.3291 30.8216 30.4503C30.7371 30.5716 30.6296 30.675 30.5052 30.7547C30.3808 30.8344 30.2419 30.8888 30.0964 30.9149C29.951 30.9409 29.8018 30.938 29.6575 30.9064C25.6165 30.0222 23.2281 30.0672 21.5654 30.5172C19.9341 30.9582 18.88 31.8109 17.485 32.9415Z" fill="url(#paint1_linear_9276_54976)"/>
<defs>
<linearGradient id="paint0_linear_9276_54976" x1="11.1344" y1="21.1133" x2="30.5475" y2="21.2101" gradientUnits="userSpaceOnUse">
<stop stop-color="#583EE7"/>
<stop offset="0.484375" stop-color="#0EA0E6"/>
<stop offset="1" stop-color="#00B6AE"/>
</linearGradient>
<linearGradient id="paint1_linear_9276_54976" x1="15.9243" y1="23.7977" x2="25.8218" y2="23.8517" gradientUnits="userSpaceOnUse">
<stop stop-color="#583EE7"/>
<stop offset="0.484375" stop-color="#0EA0E6"/>
<stop offset="1" stop-color="#00B6AE"/>
</linearGradient>
</defs>
</svg>
