<svg width="12" height="13" viewBox="0 0 12 13" fill="none" xmlns="http://www.w3.org/2000/svg">
<g id="zondicons:exclamation-solid" clip-path="url(#clip0_8613_102357)">
<path id="Vector" d="M1.75751 10.7425C1.18445 10.189 0.727356 9.52694 0.412902 8.79491C0.0984481 8.06289 -0.0670693 7.27557 -0.0739922 6.47889C-0.0809151 5.68222 0.0708951 4.89214 0.37258 4.15476C0.674266 3.41738 1.11978 2.74747 1.68314 2.18412C2.2465 1.62076 2.91641 1.17524 3.65379 0.873557C4.39116 0.571872 5.18124 0.420061 5.97792 0.426984C6.77459 0.433907 7.56191 0.599425 8.29394 0.913879C9.02596 1.22833 9.68803 1.68543 10.2415 2.25849C11.3345 3.3901 11.9392 4.90571 11.9256 6.47889C11.9119 8.05208 11.2809 9.55695 10.1684 10.6694C9.05597 11.7818 7.5511 12.4129 5.97792 12.4265C4.40474 12.4402 2.88912 11.8354 1.75751 10.7425ZM5.39951 3.50049V7.10049H6.59951V3.50049H5.39951ZM5.39951 8.30049V9.50049H6.59951V8.30049H5.39951Z" fill="#B7B7B7"/>
</g>
<defs>
<clipPath id="clip0_8613_102357">
<rect width="12" height="12" fill="white" transform="translate(0 0.5)"/>
</clipPath>
</defs>
</svg>
