<svg width="19" height="19" viewBox="0 0 19 19" fill="none" xmlns="http://www.w3.org/2000/svg">
<g id="Laptop">
<path id="Vector" d="M16.8125 12.3125H16.25V5.5625C16.25 5.11495 16.0722 4.68572 15.7557 4.36926C15.4393 4.05279 15.0101 3.875 14.5625 3.875H4.4375C3.98995 3.875 3.56072 4.05279 3.24426 4.36926C2.92779 4.68572 2.75 5.11495 2.75 5.5625V12.3125H2.1875C2.03832 12.3125 1.89524 12.3718 1.78975 12.4773C1.68426 12.5827 1.625 12.7258 1.625 12.875V14C1.625 14.4476 1.80279 14.8768 2.11926 15.1932C2.43572 15.5097 2.86495 15.6875 3.3125 15.6875H15.6875C16.1351 15.6875 16.5643 15.5097 16.8807 15.1932C17.1972 14.8768 17.375 14.4476 17.375 14V12.875C17.375 12.7258 17.3157 12.5827 17.2102 12.4773C17.1048 12.3718 16.9617 12.3125 16.8125 12.3125ZM3.875 5.5625C3.875 5.41332 3.93426 5.27024 4.03975 5.16475C4.14524 5.05926 4.28832 5 4.4375 5H14.5625C14.7117 5 14.8548 5.05926 14.9602 5.16475C15.0657 5.27024 15.125 5.41332 15.125 5.5625V12.3125H3.875V5.5625ZM16.25 14C16.25 14.1492 16.1907 14.2923 16.0852 14.3977C15.9798 14.5032 15.8367 14.5625 15.6875 14.5625H3.3125C3.16332 14.5625 3.02024 14.5032 2.91475 14.3977C2.80926 14.2923 2.75 14.1492 2.75 14V13.4375H16.25V14ZM11.1875 6.6875C11.1875 6.83668 11.1282 6.97976 11.0227 7.08525C10.9173 7.19074 10.7742 7.25 10.625 7.25H8.375C8.22582 7.25 8.08274 7.19074 7.97725 7.08525C7.87176 6.97976 7.8125 6.83668 7.8125 6.6875C7.8125 6.53832 7.87176 6.39524 7.97725 6.28975C8.08274 6.18426 8.22582 6.125 8.375 6.125H10.625C10.7742 6.125 10.9173 6.18426 11.0227 6.28975C11.1282 6.39524 11.1875 6.53832 11.1875 6.6875Z" fill="#3769FF"/>
</g>
</svg>
