<svg width="19" height="19" viewBox="0 0 19 19" fill="none" xmlns="http://www.w3.org/2000/svg">
<g id="LinkedinLogo">
<path id="Vector" d="M15.6875 2.1875H3.3125C3.01413 2.1875 2.72798 2.30603 2.517 2.517C2.30603 2.72798 2.1875 3.01413 2.1875 3.3125V15.6875C2.1875 15.9859 2.30603 16.272 2.517 16.483C2.72798 16.694 3.01413 16.8125 3.3125 16.8125H15.6875C15.9859 16.8125 16.272 16.694 16.483 16.483C16.694 16.272 16.8125 15.9859 16.8125 15.6875V3.3125C16.8125 3.01413 16.694 2.72798 16.483 2.517C16.272 2.30603 15.9859 2.1875 15.6875 2.1875ZM15.6875 15.6875H3.3125V3.3125H15.6875V15.6875ZM7.25 8.375V12.875C7.25 13.0242 7.19074 13.1673 7.08525 13.2727C6.97976 13.3782 6.83668 13.4375 6.6875 13.4375C6.53832 13.4375 6.39524 13.3782 6.28975 13.2727C6.18426 13.1673 6.125 13.0242 6.125 12.875V8.375C6.125 8.22582 6.18426 8.08274 6.28975 7.97725C6.39524 7.87176 6.53832 7.8125 6.6875 7.8125C6.83668 7.8125 6.97976 7.87176 7.08525 7.97725C7.19074 8.08274 7.25 8.22582 7.25 8.375ZM13.4375 10.3438V12.875C13.4375 13.0242 13.3782 13.1673 13.2727 13.2727C13.1673 13.3782 13.0242 13.4375 12.875 13.4375C12.7258 13.4375 12.5827 13.3782 12.4773 13.2727C12.3718 13.1673 12.3125 13.0242 12.3125 12.875V10.3438C12.3125 9.97079 12.1643 9.6131 11.9006 9.34938C11.6369 9.08566 11.2792 8.9375 10.9062 8.9375C10.5333 8.9375 10.1756 9.08566 9.91188 9.34938C9.64816 9.6131 9.5 9.97079 9.5 10.3438V12.875C9.5 13.0242 9.44074 13.1673 9.33525 13.2727C9.22976 13.3782 9.08668 13.4375 8.9375 13.4375C8.78832 13.4375 8.64524 13.3782 8.53975 13.2727C8.43426 13.1673 8.375 13.0242 8.375 12.875V8.375C8.3757 8.23722 8.42694 8.10449 8.51901 8.00198C8.61108 7.89947 8.73757 7.83432 8.87448 7.81889C9.0114 7.80346 9.14922 7.83881 9.26179 7.91825C9.37437 7.99768 9.45388 8.11568 9.48523 8.24984C9.86576 7.99171 10.3094 7.8421 10.7685 7.81708C11.2277 7.79207 11.685 7.89259 12.0913 8.10786C12.4976 8.32312 12.8376 8.645 13.0748 9.03892C13.3119 9.43284 13.4373 9.88393 13.4375 10.3438ZM7.53125 6.40625C7.53125 6.57313 7.48177 6.73626 7.38905 6.87501C7.29634 7.01377 7.16456 7.12191 7.01039 7.18577C6.85621 7.24963 6.68656 7.26634 6.52289 7.23379C6.35922 7.20123 6.20888 7.12087 6.09088 7.00287C5.97288 6.88487 5.89252 6.73453 5.85996 6.57086C5.82741 6.40719 5.84412 6.23754 5.90798 6.08336C5.97184 5.92919 6.07998 5.79741 6.21874 5.7047C6.35749 5.61198 6.52062 5.5625 6.6875 5.5625C6.91128 5.5625 7.12589 5.65139 7.28412 5.80963C7.44236 5.96786 7.53125 6.18247 7.53125 6.40625Z" fill="#3769FF"/>
</g>
</svg>
