<svg width="27" height="27" viewBox="0 0 27 27" fill="none" xmlns="http://www.w3.org/2000/svg">
<g id="Component 2263">
<path id="Vector" d="M24.5109 12.0756L9.315 2.77963C9.0588 2.62275 8.76537 2.5371 8.465 2.53154C8.16464 2.52598 7.86824 2.6007 7.60641 2.74799C7.34707 2.89299 7.13103 3.10445 6.98052 3.36063C6.83 3.6168 6.75043 3.90844 6.75 4.20557V22.7955C6.75195 23.2412 6.93081 23.6679 7.24725 23.9817C7.56368 24.2956 7.99181 24.471 8.4375 24.4693C8.74858 24.4691 9.05363 24.3834 9.31922 24.2214L24.5109 14.9254C24.7551 14.7766 24.9569 14.5674 25.097 14.3181C25.237 14.0687 25.3106 13.7876 25.3106 13.5016C25.3106 13.2156 25.237 12.9344 25.097 12.6851C24.9569 12.4357 24.7551 12.2266 24.5109 12.0778V12.0756ZM8.4375 22.7754V4.21928L23.6071 13.5005L8.4375 22.7754Z" fill="#3C425D"/>
</g>
</svg>
