<svg width="18" height="19" viewBox="0 0 18 19" fill="none" xmlns="http://www.w3.org/2000/svg">
<g id="Icon Frame">
<path id="Vector 151" d="M7.3125 13.4375V7.8125L6.1875 8.86719" stroke="#3C425D" stroke-width="0.84375" stroke-linecap="round" stroke-linejoin="round"/>
<path id="Ellipse 67" d="M9.5625 13.0861C9.85629 13.3067 10.2215 13.4375 10.6172 13.4375C11.588 13.4375 12.375 12.6505 12.375 11.6797C12.375 10.7089 11.588 9.92188 10.6172 9.92188C10.2215 9.92188 9.85629 10.0526 9.5625 10.2733L9.91406 7.8125H12.375" stroke="#3C425D" stroke-width="0.84375" stroke-linecap="round" stroke-linejoin="round"/>
<path id="Vector" d="M3.62928 4.67391C0.448461 7.62058 0.274447 12.571 3.24061 15.7309C6.20678 18.8908 11.1899 19.0637 14.3707 16.117C17.5515 13.1703 17.7256 8.21995 14.7594 5.06003C13.0722 3.26265 10.7325 2.4317 8.44309 2.59155M9.5625 0.78125L7.55676 2.68122L9.5625 4.71875" stroke="#3C425D" stroke-width="1.40625" stroke-linecap="round" stroke-linejoin="round"/>
</g>
</svg>
