<svg width="24" height="25" viewBox="0 0 24 25" fill="none" xmlns="http://www.w3.org/2000/svg">
<g id="material-symbols:quiz-outline">
<path id="Vector" d="M14 15.3281C14.2833 15.3281 14.5293 15.2238 14.738 15.0151C14.9467 14.8065 15.0507 14.5608 15.05 14.2781C15.05 13.9948 14.9457 13.7491 14.737 13.5411C14.5283 13.3331 14.2827 13.2288 14 13.2281C13.7167 13.2281 13.4707 13.3325 13.262 13.5411C13.0533 13.7498 12.9493 13.9955 12.95 14.2781C12.95 14.5615 13.0543 14.8075 13.263 15.0161C13.4717 15.2248 13.7173 15.3288 14 15.3281ZM13.25 12.1281H14.75C14.75 11.6448 14.8 11.2905 14.9 11.0651C15 10.8398 15.2333 10.5441 15.6 10.1781C16.1 9.67813 16.4333 9.27413 16.6 8.96613C16.7667 8.65813 16.85 8.29546 16.85 7.87813C16.85 7.12813 16.5873 6.51579 16.062 6.04113C15.5367 5.56646 14.8493 5.32879 14 5.32813C13.3167 5.32813 12.7207 5.51979 12.212 5.90313C11.7033 6.28646 11.3493 6.79479 11.15 7.42813L12.5 7.97813C12.65 7.56146 12.8543 7.24879 13.113 7.04013C13.3717 6.83146 13.6673 6.72746 14 6.72813C14.4 6.72813 14.725 6.84079 14.975 7.06613C15.225 7.29146 15.35 7.59546 15.35 7.97813C15.35 8.21146 15.2833 8.43246 15.15 8.64113C15.0167 8.84979 14.7833 9.11213 14.45 9.42813C13.9 9.91146 13.5627 10.2905 13.438 10.5651C13.3133 10.8398 13.2507 11.3608 13.25 12.1281ZM8 18.3281C7.45 18.3281 6.979 18.1321 6.587 17.7401C6.195 17.3481 5.99934 16.8775 6 16.3281V4.32813C6 3.77813 6.196 3.30713 6.588 2.91513C6.98 2.52313 7.45067 2.32746 8 2.32813H20C20.55 2.32813 21.021 2.52413 21.413 2.91613C21.805 3.30813 22.0007 3.77879 22 4.32813V16.3281C22 16.8781 21.804 17.3491 21.412 17.7411C21.02 18.1331 20.5493 18.3288 20 18.3281H8ZM8 16.3281H20V4.32813H8V16.3281ZM4 22.3281C3.45 22.3281 2.979 22.1321 2.587 21.7401C2.195 21.3481 1.99934 20.8775 2 20.3281V6.32813H4V20.3281H18V22.3281H4Z" fill="url(#paint0_linear_6229_69222)"/>
</g>
<defs>
<linearGradient id="paint0_linear_6229_69222" x1="7.375" y1="12.3281" x2="16.9617" y2="12.3759" gradientUnits="userSpaceOnUse">
<stop stop-color="#583EE7"/>
<stop offset="0.484375" stop-color="#0EA0E6"/>
<stop offset="1" stop-color="#00B6AE"/>
</linearGradient>
</defs>
</svg>
