<svg width="19" height="19" viewBox="0 0 19 19" fill="none" xmlns="http://www.w3.org/2000/svg">
<g id="Robot">
<path id="Vector" d="M14.5625 3.875H10.0625V1.625C10.0625 1.47582 10.0032 1.33274 9.89775 1.22725C9.79226 1.12176 9.64918 1.0625 9.5 1.0625C9.35082 1.0625 9.20774 1.12176 9.10225 1.22725C8.99676 1.33274 8.9375 1.47582 8.9375 1.625V3.875H4.4375C3.84076 3.875 3.26847 4.11205 2.84651 4.53401C2.42455 4.95597 2.1875 5.52826 2.1875 6.125V14C2.1875 14.5967 2.42455 15.169 2.84651 15.591C3.26847 16.0129 3.84076 16.25 4.4375 16.25H14.5625C15.1592 16.25 15.7315 16.0129 16.1535 15.591C16.5754 15.169 16.8125 14.5967 16.8125 14V6.125C16.8125 5.52826 16.5754 4.95597 16.1535 4.53401C15.7315 4.11205 15.1592 3.875 14.5625 3.875ZM15.6875 14C15.6875 14.2984 15.569 14.5845 15.358 14.7955C15.147 15.0065 14.8609 15.125 14.5625 15.125H4.4375C4.13913 15.125 3.85298 15.0065 3.642 14.7955C3.43103 14.5845 3.3125 14.2984 3.3125 14V6.125C3.3125 5.82663 3.43103 5.54048 3.642 5.3295C3.85298 5.11853 4.13913 5 4.4375 5H14.5625C14.8609 5 15.147 5.11853 15.358 5.3295C15.569 5.54048 15.6875 5.82663 15.6875 6.125V14ZM12.0312 10.0625H6.96875C6.44661 10.0625 5.94585 10.2699 5.57663 10.6391C5.20742 11.0083 5 11.5091 5 12.0312C5 12.5534 5.20742 13.0542 5.57663 13.4234C5.94585 13.7926 6.44661 14 6.96875 14H12.0312C12.5534 14 13.0542 13.7926 13.4234 13.4234C13.7926 13.0542 14 12.5534 14 12.0312C14 11.5091 13.7926 11.0083 13.4234 10.6391C13.0542 10.2699 12.5534 10.0625 12.0312 10.0625ZM10.0625 11.1875V12.875H8.9375V11.1875H10.0625ZM6.125 12.0312C6.125 11.8075 6.21389 11.5929 6.37213 11.4346C6.53036 11.2764 6.74497 11.1875 6.96875 11.1875H7.8125V12.875H6.96875C6.74497 12.875 6.53036 12.7861 6.37213 12.6279C6.21389 12.4696 6.125 12.255 6.125 12.0312ZM12.0312 12.875H11.1875V11.1875H12.0312C12.255 11.1875 12.4696 11.2764 12.6279 11.4346C12.7861 11.5929 12.875 11.8075 12.875 12.0312C12.875 12.255 12.7861 12.4696 12.6279 12.6279C12.4696 12.7861 12.255 12.875 12.0312 12.875ZM5.5625 8.09375C5.5625 7.92687 5.61198 7.76374 5.7047 7.62499C5.79741 7.48623 5.92919 7.37809 6.08336 7.31423C6.23754 7.25037 6.40719 7.23366 6.57086 7.26621C6.73453 7.29877 6.88487 7.37913 7.00287 7.49713C7.12087 7.61513 7.20123 7.76547 7.23379 7.92914C7.26634 8.09281 7.24963 8.26246 7.18577 8.41664C7.12191 8.57081 7.01377 8.70259 6.87501 8.7953C6.73626 8.88802 6.57313 8.9375 6.40625 8.9375C6.18247 8.9375 5.96786 8.84861 5.80963 8.69037C5.65139 8.53214 5.5625 8.31753 5.5625 8.09375ZM11.75 8.09375C11.75 7.92687 11.7995 7.76374 11.8922 7.62499C11.9849 7.48623 12.1167 7.37809 12.2709 7.31423C12.425 7.25037 12.5947 7.23366 12.7584 7.26621C12.922 7.29877 13.0724 7.37913 13.1904 7.49713C13.3084 7.61513 13.3887 7.76547 13.4213 7.92914C13.4538 8.09281 13.4371 8.26246 13.3733 8.41664C13.3094 8.57081 13.2013 8.70259 13.0625 8.7953C12.9238 8.88802 12.7606 8.9375 12.5938 8.9375C12.37 8.9375 12.1554 8.84861 11.9971 8.69037C11.8389 8.53214 11.75 8.31753 11.75 8.09375Z" fill="#3769FF"/>
</g>
</svg>
