<svg width="18" height="19" viewBox="0 0 18 19" fill="none" xmlns="http://www.w3.org/2000/svg">
<g id="Gear">
<path id="Vector" d="M9.00015 6.1232C8.33264 6.1232 7.68012 6.32114 7.1251 6.69199C6.57009 7.06284 6.13751 7.58994 5.88206 8.20664C5.62662 8.82335 5.55978 9.50195 5.69 10.1566C5.82023 10.8113 6.14167 11.4127 6.61367 11.8847C7.08567 12.3567 7.68704 12.6781 8.34172 12.8084C8.99641 12.9386 9.67501 12.8717 10.2917 12.6163C10.9084 12.3608 11.4355 11.9283 11.8064 11.3733C12.1772 10.8182 12.3752 10.1657 12.3752 9.4982C12.3742 8.60338 12.0183 7.74548 11.3856 7.11274C10.7529 6.48001 9.89497 6.12413 9.00015 6.1232ZM9.00015 11.7482C8.55515 11.7482 8.12013 11.6162 7.75012 11.369C7.38011 11.1218 7.09172 10.7704 6.92142 10.3592C6.75113 9.9481 6.70657 9.49571 6.79339 9.05925C6.8802 8.62279 7.0945 8.22188 7.40916 7.90721C7.72383 7.59254 8.12474 7.37825 8.5612 7.29143C8.99766 7.20462 9.45006 7.24917 9.86119 7.41947C10.2723 7.58977 10.6237 7.87816 10.871 8.24817C11.1182 8.61818 11.2502 9.05319 11.2502 9.4982C11.2502 10.0949 11.0131 10.6672 10.5911 11.0892C10.1692 11.5111 9.59689 11.7482 9.00015 11.7482ZM15.1877 9.65008C15.1905 9.54883 15.1905 9.44758 15.1877 9.34633L16.2367 8.0357C16.2917 7.96689 16.3298 7.88612 16.3479 7.79989C16.3659 7.71367 16.3635 7.62441 16.3408 7.53929C16.1688 6.89284 15.9115 6.27216 15.5758 5.69359C15.5318 5.61788 15.4708 5.55347 15.3975 5.5055C15.3243 5.45753 15.2409 5.42731 15.1539 5.41726L13.4861 5.23164C13.4167 5.15851 13.3464 5.0882 13.2752 5.0207L13.0783 3.34867C13.0682 3.26163 13.0378 3.17816 12.9897 3.10492C12.9416 3.03167 12.8771 2.97068 12.8012 2.92679C12.2225 2.59165 11.6018 2.33465 10.9555 2.1625C10.8704 2.13986 10.7811 2.13754 10.6949 2.15574C10.6086 2.17393 10.5279 2.21214 10.4591 2.26726L9.15203 3.3107C9.05078 3.3107 8.94953 3.3107 8.84828 3.3107L7.53765 2.26375C7.46884 2.20874 7.38807 2.17067 7.30185 2.15259C7.21562 2.13452 7.12636 2.13695 7.04125 2.15969C6.3949 2.33197 5.77426 2.58921 5.19554 2.92469C5.11983 2.96865 5.05542 3.02968 5.00745 3.10292C4.95948 3.17616 4.92927 3.25959 4.91922 3.34656L4.73359 5.01719C4.66047 5.08703 4.59015 5.15734 4.52265 5.22812L2.85062 5.42008C2.76358 5.4302 2.68012 5.46052 2.60687 5.50862C2.53363 5.55672 2.47263 5.62126 2.42875 5.69711C2.0936 6.27589 1.8366 6.89653 1.66445 7.54281C1.64181 7.62798 1.63949 7.71727 1.65769 7.8035C1.67589 7.88972 1.71409 7.97046 1.76922 8.03922L2.81265 9.34633C2.81265 9.44758 2.81265 9.54883 2.81265 9.65008L1.7657 10.9607C1.71069 11.0295 1.67262 11.1103 1.65454 11.1965C1.63647 11.2827 1.6389 11.372 1.66164 11.4571C1.83362 12.1036 2.09087 12.7242 2.42664 13.3028C2.4706 13.3785 2.53163 13.4429 2.60487 13.4909C2.67811 13.5389 2.76154 13.5691 2.84851 13.5791L4.51633 13.7648C4.58617 13.8379 4.65648 13.9082 4.72726 13.9757L4.92203 15.6477C4.93216 15.7348 4.96248 15.8182 5.01057 15.8915C5.05867 15.9647 5.12322 16.0257 5.19906 16.0696C5.77785 16.4048 6.39848 16.6618 7.04476 16.8339C7.12993 16.8565 7.21922 16.8589 7.30545 16.8407C7.39167 16.8225 7.47242 16.7843 7.54117 16.7291L8.84828 15.6857C8.94953 15.6885 9.05078 15.6885 9.15203 15.6857L10.4627 16.7348C10.5315 16.7898 10.6122 16.8278 10.6985 16.8459C10.7847 16.864 10.8739 16.8616 10.9591 16.8388C11.6055 16.6668 12.2262 16.4096 12.8048 16.0738C12.8805 16.0299 12.9449 15.9688 12.9929 15.8956C13.0408 15.8224 13.071 15.7389 13.0811 15.652L13.2667 13.9841C13.3398 13.9148 13.4102 13.8445 13.4777 13.7732L15.1497 13.5763C15.2367 13.5662 15.3202 13.5359 15.3934 13.4878C15.4667 13.4397 15.5277 13.3751 15.5716 13.2993C15.9067 12.7205 16.1637 12.0999 16.3359 11.4536C16.3585 11.3684 16.3608 11.2791 16.3426 11.1929C16.3244 11.1067 16.2862 11.0259 16.2311 10.9572L15.1877 9.65008ZM14.0556 9.19305C14.0676 9.39631 14.0676 9.6001 14.0556 9.80336C14.0472 9.94252 14.0908 10.0798 14.178 10.1887L15.1757 11.4353C15.0612 11.7992 14.9146 12.1521 14.7377 12.49L13.1486 12.67C13.0102 12.6854 12.8824 12.7515 12.79 12.8556C12.6547 13.0078 12.5105 13.152 12.3583 13.2873C12.2542 13.3798 12.188 13.5076 12.1727 13.6459L11.9962 15.2336C11.6583 15.4106 11.3054 15.5572 10.9415 15.6716L9.69414 14.6739C9.59433 14.5942 9.47034 14.5508 9.34258 14.5509H9.30883C9.10556 14.5628 8.90178 14.5628 8.69851 14.5509C8.55935 14.5425 8.42204 14.5861 8.3132 14.6732L7.06304 15.6716C6.6992 15.5572 6.34625 15.4106 6.00836 15.2336L5.82836 13.6466C5.813 13.5083 5.74686 13.3805 5.64273 13.288C5.49051 13.1527 5.34636 13.0085 5.21101 12.8563C5.11858 12.7522 4.99081 12.6861 4.85242 12.6707L3.26476 12.4935C3.08771 12.1557 2.94112 11.8027 2.82672 11.4388L3.82445 10.1915C3.91157 10.0826 3.95517 9.94533 3.94679 9.80617C3.93484 9.60291 3.93484 9.39912 3.94679 9.19586C3.95517 9.0567 3.91157 8.91938 3.82445 8.81054L2.82672 7.56109C2.9412 7.19725 3.0878 6.8443 3.26476 6.5064L4.85172 6.3264C4.9901 6.31104 5.11787 6.2449 5.21031 6.14078C5.34566 5.98856 5.48981 5.84441 5.64203 5.70906C5.74657 5.61656 5.81298 5.4885 5.82836 5.34976L6.00484 3.76281C6.3427 3.58576 6.69565 3.43916 7.05953 3.32476L8.30687 4.3225C8.41571 4.40962 8.55302 4.45322 8.69219 4.44484C8.89545 4.43289 9.09924 4.43289 9.3025 4.44484C9.44166 4.45322 9.57897 4.40962 9.68781 4.3225L10.9373 3.32476C11.3011 3.43925 11.6541 3.58584 11.992 3.76281L12.172 5.34976C12.1873 5.48815 12.2535 5.61592 12.3576 5.70836C12.5098 5.8437 12.6539 5.98786 12.7893 6.14008C12.8817 6.2442 13.0095 6.31034 13.1479 6.3257L14.7355 6.50219C14.9126 6.84004 15.0592 7.193 15.1736 7.55687L14.1759 8.80422C14.0879 8.91397 14.0442 9.0527 14.0535 9.19305H14.0556Z" fill="#3C425D"/>
</g>
</svg>
