<svg width="24" height="25" viewBox="0 0 24 25" fill="none" xmlns="http://www.w3.org/2000/svg">
<g id="ph:share-fat-light">
<path id="Vector" d="M22.1473 10.6723L14.6473 3.17232C14.5686 3.09375 14.4685 3.04026 14.3594 3.01859C14.2504 2.99693 14.1373 3.00807 14.0346 3.0506C13.9319 3.09314 13.8441 3.16516 13.7823 3.25757C13.7204 3.34998 13.6874 3.45864 13.6873 3.56982V7.52607C8.5798 7.86263 2.40074 12.6823 1.69387 18.8379C1.67091 19.034 1.71039 19.2322 1.80669 19.4045C1.90299 19.5767 2.0512 19.7142 2.23019 19.7973C2.40919 19.8804 2.60985 19.9049 2.80359 19.8673C2.99732 19.8297 3.17426 19.732 3.30918 19.5879C4.3648 18.462 8.15605 14.8761 13.6873 14.6445V18.5698C13.6874 18.681 13.7204 18.7897 13.7823 18.8821C13.8441 18.9745 13.9319 19.0465 14.0346 19.089C14.1373 19.1316 14.2504 19.1427 14.3594 19.121C14.4685 19.0994 14.5686 19.0459 14.6473 18.9673L22.1473 11.4673C22.2526 11.3618 22.3118 11.2189 22.3118 11.0698C22.3118 10.9208 22.2526 10.7778 22.1473 10.6723ZM14.8123 17.2123V14.0698C14.8123 13.9206 14.753 13.7776 14.6476 13.6721C14.5421 13.5666 14.399 13.5073 14.2498 13.5073C11.6501 13.5073 9.11605 14.187 6.7198 15.5276C5.32314 16.3122 4.03663 17.2784 2.89387 18.4011C3.33449 15.9111 4.78387 13.5261 7.01887 11.6258C9.23137 9.75169 11.9332 8.63232 14.2498 8.63232C14.399 8.63232 14.5421 8.57305 14.6476 8.46757C14.753 8.36208 14.8123 8.219 14.8123 8.06982V4.92826L20.9539 11.0698L14.8123 17.2123Z" fill="#3769FF"/>
</g>
</svg>
