<svg width="35" height="35" viewBox="0 0 35 35" fill="none" xmlns="http://www.w3.org/2000/svg">
<g id="material-symbols:sound-detection-loud-sound" clip-path="url(#clip0_6230_73536)">
<path id="Vector" d="M17.5417 25.5384L13.5289 21.5256L9.53374 21.5256C8.99163 21.5256 8.52305 21.3281 8.12801 20.933C7.73298 20.538 7.53569 20.0697 7.53616 19.528L7.53617 15.5329C7.53617 14.9908 7.73651 14.5193 8.13721 14.1187C8.5379 13.718 9.0093 13.5176 9.55142 13.5176L13.5112 13.5176L17.524 9.50478L17.5417 25.5384ZM19.4863 8.74464C21.5487 9.20426 23.2342 10.2472 24.5428 11.8736C25.8514 13.4999 26.5052 15.3738 26.5043 17.4951C26.5043 19.6164 25.8502 21.4905 24.5421 23.1173C23.2339 24.7441 21.5487 25.7869 19.4863 26.2455L19.4863 24.1949C20.983 23.7589 22.1912 22.9221 23.1109 21.6847C24.0306 20.4473 24.4898 19.051 24.4883 17.4958C24.4883 15.9402 24.0287 14.5434 23.1095 13.3055C22.1902 12.0676 20.9823 11.2311 19.4856 10.796L19.4863 8.74464ZM19.4863 12.9166C20.3584 13.388 21.0773 14.0244 21.6429 14.8258C22.2086 15.6271 22.4915 16.5228 22.4915 17.5128C22.4915 18.5027 22.2086 19.3927 21.6429 20.1828C21.0773 20.9729 20.3584 21.6031 19.4863 22.0736V19.6694C19.7809 19.3748 20.0225 19.0451 20.2111 18.6802C20.3996 18.3153 20.4939 17.9321 20.4939 17.5304C20.4939 17.1062 20.4024 16.7083 20.2195 16.3368C20.0366 15.9654 19.7922 15.6267 19.4863 15.3207V12.9166Z" fill="#595A6C"/>
</g>
<defs>
<clipPath id="clip0_6230_73536">
<rect width="24" height="24" fill="white" transform="translate(17.4707 0.542969) rotate(45)"/>
</clipPath>
</defs>
</svg>
