<svg width="18" height="19" viewBox="0 0 18 19" fill="none" xmlns="http://www.w3.org/2000/svg">
<g id="SpeakerSimpleHigh">
<path id="Vector" d="M10.9343 2.24434C10.8397 2.19825 10.7341 2.17961 10.6294 2.19055C10.5248 2.20149 10.4253 2.24156 10.3423 2.30621L5.43164 6.12489H2.25C1.95163 6.12489 1.66548 6.24341 1.4545 6.45439C1.24353 6.66537 1.125 6.95152 1.125 7.24989V11.7499C1.125 12.0483 1.24353 12.3344 1.4545 12.5454C1.66548 12.7564 1.95163 12.8749 2.25 12.8749H5.43164L10.3423 16.6936C10.4254 16.7582 10.5249 16.7981 10.6296 16.809C10.7343 16.8198 10.8399 16.801 10.9345 16.7548C11.0291 16.7086 11.1088 16.6368 11.1645 16.5475C11.2203 16.4583 11.2499 16.3551 11.25 16.2499V2.74989C11.25 2.64451 11.2204 2.54124 11.1646 2.45186C11.1088 2.36248 11.029 2.29057 10.9343 2.24434ZM10.125 15.0996L5.97023 11.8687C5.87173 11.7915 5.75014 11.7497 5.625 11.7499H2.25V7.24989H5.625C5.75014 7.25009 5.87173 7.20824 5.97023 7.13106L10.125 3.9002V15.0996ZM14.0625 7.81239V11.1874C14.0625 11.3366 14.0032 11.4796 13.8977 11.5851C13.7923 11.6906 13.6492 11.7499 13.5 11.7499C13.3508 11.7499 13.2077 11.6906 13.1023 11.5851C12.9968 11.4796 12.9375 11.3366 12.9375 11.1874V7.81239C12.9375 7.6632 12.9968 7.52013 13.1023 7.41464C13.2077 7.30915 13.3508 7.24989 13.5 7.24989C13.6492 7.24989 13.7923 7.30915 13.8977 7.41464C14.0032 7.52013 14.0625 7.6632 14.0625 7.81239ZM16.3125 6.68739V12.3124C16.3125 12.4616 16.2532 12.6046 16.1477 12.7101C16.0423 12.8156 15.8992 12.8749 15.75 12.8749C15.6008 12.8749 15.4577 12.8156 15.3523 12.7101C15.2468 12.6046 15.1875 12.4616 15.1875 12.3124V6.68739C15.1875 6.5382 15.2468 6.39513 15.3523 6.28964C15.4577 6.18415 15.6008 6.12489 15.75 6.12489C15.8992 6.12489 16.0423 6.18415 16.1477 6.28964C16.2532 6.39513 16.3125 6.5382 16.3125 6.68739Z" fill="#3C425D"/>
</g>
</svg>
