<svg width="14" height="12" viewBox="0 0 14 12" fill="none" xmlns="http://www.w3.org/2000/svg">
<path d="M7.26793 11.1806L4.67039 8.58304L2.08429 8.58304C1.73337 8.58304 1.43006 8.45519 1.17434 8.19947C0.918633 7.94376 0.79093 7.6406 0.791235 7.28999L0.791236 4.70389C0.791236 4.35297 0.920922 4.04783 1.18029 3.78846C1.43967 3.52908 1.74481 3.3994 2.09573 3.3994L4.65895 3.3994L7.25649 0.801851L7.26793 11.1806ZM8.52665 0.309805C9.86166 0.607321 10.9527 1.28245 11.7998 2.3352C12.6469 3.38795 13.0701 4.6009 13.0695 5.97405C13.0695 7.34721 12.6461 8.56031 11.7993 9.61336C10.9526 10.6664 9.86166 11.3414 8.52665 11.6383L8.52665 10.3109C9.49549 10.0287 10.2776 9.48703 10.8729 8.68603C11.4683 7.88502 11.7655 6.98118 11.7645 5.97451C11.7645 4.96753 11.467 4.06339 10.872 3.26208C10.277 2.46077 9.49503 1.91929 8.5262 1.63764L8.52665 0.309805ZM8.52666 3.01034C9.09117 3.31548 9.55652 3.72743 9.92269 4.24617C10.2889 4.76492 10.472 5.34469 10.472 5.9855C10.472 6.6263 10.2889 7.20241 9.92269 7.71384C9.55652 8.22526 9.09117 8.63324 8.52665 8.93777L8.52665 7.38153C8.71737 7.19082 8.87376 6.97737 8.99581 6.74119C9.11787 6.50501 9.1789 6.25692 9.1789 5.99694C9.1789 5.72231 9.1197 5.46477 9.00131 5.22431C8.88291 4.98386 8.72469 4.76461 8.52666 4.56657V3.01034Z" fill="#595A6C"/>
</svg>
