<svg width="16" height="15" viewBox="0 0 16 15" fill="none" xmlns="http://www.w3.org/2000/svg">
<g id="MagnifyingGlass">
<path id="Vector" d="M13.9579 12.7934L11.0241 9.86017C11.8744 8.83929 12.2984 7.52989 12.2079 6.20435C12.1174 4.87881 11.5194 3.63918 10.5382 2.74335C9.557 1.84752 8.26821 1.36446 6.93993 1.39464C5.61164 1.42483 4.34613 1.96595 3.40665 2.90543C2.46717 3.84491 1.92605 5.11042 1.89587 6.43871C1.86568 7.76699 2.34874 9.05578 3.24458 10.037C4.14041 11.0182 5.38003 11.6162 6.70557 11.7067C8.03111 11.7972 9.34051 11.3732 10.3614 10.5229L13.2946 13.4567C13.3381 13.5002 13.3898 13.5348 13.4467 13.5583C13.5037 13.5819 13.5646 13.594 13.6262 13.594C13.6878 13.594 13.7488 13.5819 13.8057 13.5583C13.8626 13.5348 13.9143 13.5002 13.9579 13.4567C14.0014 13.4131 14.036 13.3614 14.0595 13.3045C14.0831 13.2476 14.0952 13.1866 14.0952 13.125C14.0952 13.0634 14.0831 13.0024 14.0595 12.9455C14.036 12.8886 14.0014 12.8369 13.9579 12.7934ZM2.84498 6.56251C2.84498 5.72812 3.09241 4.91247 3.55597 4.2187C4.01953 3.52493 4.67841 2.9842 5.44929 2.66489C6.22016 2.34559 7.06841 2.26204 7.88677 2.42482C8.70513 2.58761 9.45684 2.9894 10.0468 3.5794C10.6368 4.16941 11.0386 4.92112 11.2014 5.73947C11.3642 6.55783 11.2807 7.40608 10.9613 8.17696C10.642 8.94783 10.1013 9.60671 9.40754 10.0703C8.71377 10.5338 7.89812 10.7813 7.06373 10.7813C5.94523 10.78 4.8729 10.3351 4.082 9.54425C3.2911 8.75335 2.84622 7.68101 2.84498 6.56251Z" fill="white"/>
</g>
</svg>
