<svg width="28" height="29" viewBox="0 0 28 29" fill="none" xmlns="http://www.w3.org/2000/svg">
<g id="carbon:ibm-watson-knowledge-studio">
<path id="Vector" d="M17.5 22.3721H23.625V24.1221H17.5V22.3721ZM19.25 25.8721H21.875V27.6221H19.25V25.8721ZM23.625 20.6221H21.875C21.875 19.6596 22.225 18.8721 22.925 18.1721L23.3625 17.7346C24.0625 17.0346 24.5 15.9846 24.5 14.9346C24.5 12.7471 22.75 10.9971 20.5625 10.9971C18.375 10.9971 16.625 12.7471 16.625 14.9346C16.625 15.9846 17.0625 16.9471 17.7625 17.7346L18.2 18.1721C18.9 18.8721 19.25 19.6596 19.25 20.6221H17.5C17.5 20.1846 17.325 19.7471 16.975 19.3971L16.5375 18.9596C15.4875 17.9096 14.875 16.4221 14.875 14.9346C14.875 11.7846 17.4125 9.24707 20.5625 9.24707C23.7125 9.24707 26.25 11.7846 26.25 14.9346C26.25 16.4221 25.6375 17.9096 24.5875 18.9596L24.15 19.3971C23.8 19.7471 23.625 20.1846 23.625 20.6221ZM5.25 19.7471H12.25V21.4971H5.25V19.7471Z" fill="url(#paint0_linear_7525_40347)"/>
<path id="Vector_2" d="M10.5 17.9971C10.9832 17.9971 11.375 17.6053 11.375 17.1221C11.375 16.6388 10.9832 16.2471 10.5 16.2471C10.0168 16.2471 9.625 16.6388 9.625 17.1221C9.625 17.6053 10.0168 17.9971 10.5 17.9971Z" fill="url(#paint1_linear_7525_40347)"/>
<path id="Vector_3" d="M5.25 16.2471H7.875V17.9971H5.25V16.2471ZM5.25 12.7471H11.375V14.4971H5.25V12.7471ZM8.75 9.24707H14.875V10.9971H8.75V9.24707Z" fill="url(#paint2_linear_7525_40347)"/>
<path id="Vector_4" d="M6.125 10.9971C6.60825 10.9971 7 10.6053 7 10.1221C7 9.63882 6.60825 9.24707 6.125 9.24707C5.64175 9.24707 5.25 9.63882 5.25 10.1221C5.25 10.6053 5.64175 10.9971 6.125 10.9971Z" fill="url(#paint3_linear_7525_40347)"/>
<path id="Vector_5" d="M14 5.74707H17.5V7.49707H14V5.74707Z" fill="url(#paint4_linear_7525_40347)"/>
<path id="Vector_6" d="M11.375 7.49707C11.8582 7.49707 12.25 7.10532 12.25 6.62207C12.25 6.13882 11.8582 5.74707 11.375 5.74707C10.8918 5.74707 10.5 6.13882 10.5 6.62207C10.5 7.10532 10.8918 7.49707 11.375 7.49707Z" fill="url(#paint5_linear_7525_40347)"/>
<path id="Vector_7" d="M5.25 5.74707H8.75V7.49707H5.25V5.74707Z" fill="url(#paint6_linear_7525_40347)"/>
<path id="Vector_8" d="M15.75 24.9971H3.5V3.99707H19.25V7.49707H21V3.99707C21 3.03457 20.2125 2.24707 19.25 2.24707H3.5C2.5375 2.24707 1.75 3.03457 1.75 3.99707V24.9971C1.75 25.9596 2.5375 26.7471 3.5 26.7471H15.75V24.9971Z" fill="url(#paint7_linear_7525_40347)"/>
</g>
<defs>
<linearGradient id="paint0_linear_7525_40347" x1="10.8937" y1="18.4346" x2="20.9597" y2="18.4919" gradientUnits="userSpaceOnUse">
<stop stop-color="#583EE7"/>
<stop offset="0.484375" stop-color="#0EA0E6"/>
<stop offset="1" stop-color="#00B6AE"/>
</linearGradient>
<linearGradient id="paint1_linear_7525_40347" x1="10.0953" y1="17.1221" x2="10.9342" y2="17.1263" gradientUnits="userSpaceOnUse">
<stop stop-color="#583EE7"/>
<stop offset="0.484375" stop-color="#0EA0E6"/>
<stop offset="1" stop-color="#00B6AE"/>
</linearGradient>
<linearGradient id="paint2_linear_7525_40347" x1="7.83672" y1="13.6221" x2="12.4503" y2="13.6474" gradientUnits="userSpaceOnUse">
<stop stop-color="#583EE7"/>
<stop offset="0.484375" stop-color="#0EA0E6"/>
<stop offset="1" stop-color="#00B6AE"/>
</linearGradient>
<linearGradient id="paint3_linear_7525_40347" x1="5.72031" y1="10.1221" x2="6.55915" y2="10.1263" gradientUnits="userSpaceOnUse">
<stop stop-color="#583EE7"/>
<stop offset="0.484375" stop-color="#0EA0E6"/>
<stop offset="1" stop-color="#00B6AE"/>
</linearGradient>
<linearGradient id="paint4_linear_7525_40347" x1="14.9406" y1="6.62207" x2="16.6182" y2="6.6388" gradientUnits="userSpaceOnUse">
<stop stop-color="#583EE7"/>
<stop offset="0.484375" stop-color="#0EA0E6"/>
<stop offset="1" stop-color="#00B6AE"/>
</linearGradient>
<linearGradient id="paint5_linear_7525_40347" x1="10.9703" y1="6.62207" x2="11.8092" y2="6.62625" gradientUnits="userSpaceOnUse">
<stop stop-color="#583EE7"/>
<stop offset="0.484375" stop-color="#0EA0E6"/>
<stop offset="1" stop-color="#00B6AE"/>
</linearGradient>
<linearGradient id="paint6_linear_7525_40347" x1="6.19062" y1="6.62207" x2="7.86818" y2="6.6388" gradientUnits="userSpaceOnUse">
<stop stop-color="#583EE7"/>
<stop offset="0.484375" stop-color="#0EA0E6"/>
<stop offset="1" stop-color="#00B6AE"/>
</linearGradient>
<linearGradient id="paint7_linear_7525_40347" x1="6.92344" y1="14.4971" x2="16.1508" y2="14.5332" gradientUnits="userSpaceOnUse">
<stop stop-color="#583EE7"/>
<stop offset="0.484375" stop-color="#0EA0E6"/>
<stop offset="1" stop-color="#00B6AE"/>
</linearGradient>
</defs>
</svg>
