<svg width="40" height="40" viewBox="0 0 40 40" fill="none" xmlns="http://www.w3.org/2000/svg">
<g id="CurrencyInr">
<path id="Vector" d="M32.5 12.5C32.5 12.8315 32.3683 13.1495 32.1339 13.3839C31.8995 13.6183 31.5815 13.75 31.25 13.75H26.2266C26.2406 13.9562 26.25 14.1641 26.25 14.375C26.2471 16.8605 25.2585 19.2434 23.5009 21.0009C21.7434 22.7585 19.3605 23.7471 16.875 23.75H14.4828L25.8406 34.075C25.9644 34.1848 26.0651 34.318 26.137 34.467C26.2088 34.616 26.2504 34.7778 26.2593 34.9429C26.2682 35.1081 26.2442 35.2734 26.1887 35.4292C26.1333 35.5851 26.0474 35.7283 25.9362 35.8508C25.8249 35.9732 25.6905 36.0723 25.5406 36.1424C25.3908 36.2124 25.2285 36.2521 25.0633 36.259C24.898 36.2659 24.733 36.2399 24.5778 36.1826C24.4227 36.1253 24.2804 36.0377 24.1594 35.925L10.4094 23.425C10.2227 23.2553 10.0917 23.0331 10.0337 22.7876C9.97562 22.542 9.99323 22.2847 10.0842 22.0494C10.1751 21.814 10.3352 21.6117 10.5433 21.4691C10.7513 21.3264 10.9977 21.25 11.25 21.25H16.875C18.6977 21.2479 20.4452 20.5229 21.7341 19.2341C23.0229 17.9452 23.7479 16.1977 23.75 14.375C23.75 14.1641 23.7391 13.9562 23.7203 13.75H11.25C10.9185 13.75 10.6005 13.6183 10.3661 13.3839C10.1317 13.1495 10 12.8315 10 12.5C10 12.1685 10.1317 11.8505 10.3661 11.6161C10.6005 11.3817 10.9185 11.25 11.25 11.25H22.9953C22.4196 10.1218 21.5434 9.1746 20.4634 8.51287C19.3834 7.85114 18.1416 7.50063 16.875 7.5H11.25C10.9185 7.5 10.6005 7.3683 10.3661 7.13388C10.1317 6.89946 10 6.58152 10 6.25C10 5.91848 10.1317 5.60054 10.3661 5.36612C10.6005 5.1317 10.9185 5 11.25 5H31.25C31.5815 5 31.8995 5.1317 32.1339 5.36612C32.3683 5.60054 32.5 5.91848 32.5 6.25C32.5 6.58152 32.3683 6.89946 32.1339 7.13388C31.8995 7.3683 31.5815 7.5 31.25 7.5H23.2406C24.3556 8.53178 25.2038 9.81854 25.7125 11.25H31.25C31.5815 11.25 31.8995 11.3817 32.1339 11.6161C32.3683 11.8505 32.5 12.1685 32.5 12.5Z" fill="url(#paint0_linear_12006_54774)"/>
</g>
<defs>
<linearGradient id="paint0_linear_12006_54774" x1="16.0469" y1="20.63" x2="26.8321" y2="20.6687" gradientUnits="userSpaceOnUse">
<stop stop-color="#583EE7"/>
<stop offset="0.484375" stop-color="#0EA0E6"/>
<stop offset="1" stop-color="#00B6AE"/>
</linearGradient>
</defs>
</svg>
