<svg width="58" height="58" viewBox="0 0 58 58" fill="none" xmlns="http://www.w3.org/2000/svg">
<g id="HandCoins">
<path id="Vector" d="M42.4838 27.0625C42.4838 27.5446 42.3391 28.0159 42.068 28.4167C41.7968 28.8175 41.4114 29.13 40.9605 29.3145C40.5095 29.4989 40.0134 29.5472 39.5347 29.4532C39.056 29.3591 38.6163 29.127 38.2712 28.7861C37.926 28.4452 37.691 28.0109 37.5958 27.538C37.5006 27.0652 37.5494 26.5751 37.7362 26.1297C37.923 25.6843 38.2393 25.3036 38.6451 25.0358C39.0509 24.768 39.528 24.625 40.0161 24.625C40.6706 24.625 41.2983 24.8818 41.7611 25.3389C42.2239 25.796 42.4838 26.416 42.4838 27.0625ZM34.258 16.5H26.0322C25.5959 16.5 25.1775 16.6712 24.8689 16.976C24.5604 17.2807 24.3871 17.694 24.3871 18.125C24.3871 18.556 24.5604 18.9693 24.8689 19.274C25.1775 19.5788 25.5959 19.75 26.0322 19.75H34.258C34.6944 19.75 35.1128 19.5788 35.4214 19.274C35.7299 18.9693 35.9032 18.556 35.9032 18.125C35.9032 17.694 35.7299 17.2807 35.4214 16.976C35.1128 16.6712 34.6944 16.5 34.258 16.5ZM54 26.25V32.75C54 34.0429 53.48 35.2829 52.5544 36.1971C51.6288 37.1114 50.3735 37.625 49.0645 37.625H48.5792L45.2457 46.8428C45.0174 47.4742 44.5971 48.0204 44.0423 48.4066C43.4875 48.7928 42.8253 49.0001 42.1466 49H39.5308C38.852 49.0001 38.1899 48.7928 37.6351 48.4066C37.0803 48.0204 36.6599 47.4742 36.4317 46.8428L36.0369 45.75H24.2534L23.8586 46.8428C23.6304 47.4742 23.21 48.0204 22.6552 48.4066C22.1004 48.7928 21.4382 49.0001 20.7595 49H18.1437C17.465 49.0001 16.8028 48.7928 16.248 48.4066C15.6932 48.0204 15.2729 47.4742 15.0446 46.8428L12.4597 39.7009C10.0005 36.9518 8.46072 33.5198 8.05064 29.8737C7.51971 30.1492 7.0751 30.5627 6.76484 31.0697C6.45459 31.5766 6.29051 32.1576 6.29032 32.75C6.29032 33.181 6.11699 33.5943 5.80846 33.899C5.49994 34.2038 5.08148 34.375 4.64516 34.375C4.20884 34.375 3.79038 34.2038 3.48186 33.899C3.17333 33.5943 3 33.181 3 32.75C3.00251 31.3008 3.49524 29.8941 4.3999 28.7532C5.30455 27.6123 6.56925 26.8027 7.99306 26.4531C8.36059 21.9749 10.4197 17.7969 13.7616 14.7489C17.1034 11.7009 21.4836 10.0057 26.0322 10H47.4193C47.8557 10 48.2741 10.1712 48.5826 10.476C48.8912 10.7807 49.0645 11.194 49.0645 11.625C49.0645 12.056 48.8912 12.4693 48.5826 12.774C48.2741 13.0788 47.8557 13.25 47.4193 13.25H43.0206C45.7508 15.1421 47.8981 17.7432 49.2249 20.7656C49.3133 20.9688 49.3997 21.1719 49.4819 21.375C50.7173 21.4786 51.8679 22.0376 52.705 22.9408C53.5421 23.8441 54.0044 25.0254 54 26.25ZM50.7096 26.25C50.7096 25.819 50.5363 25.4057 50.2278 25.101C49.9193 24.7962 49.5008 24.625 49.0645 24.625H48.3118C47.9614 24.6254 47.6201 24.5152 47.3375 24.3106C47.0549 24.106 46.8458 23.8176 46.7407 23.4875C45.7981 20.5165 43.919 17.9207 41.3774 16.079C38.8359 14.2373 35.765 13.2461 32.6129 13.25H26.0322C23.1588 13.2499 20.3474 14.0756 17.9409 15.6264C15.5343 17.1773 13.6367 19.3864 12.4793 21.9842C11.3219 24.582 10.9547 27.4563 11.4227 30.2567C11.8906 33.057 13.1734 35.6623 15.1145 37.755C15.263 37.9145 15.3777 38.1016 15.4518 38.3055L18.1437 45.75H20.7595L21.5451 43.5786C21.6591 43.2631 21.8691 42.9901 22.1463 42.797C22.4235 42.6039 22.7544 42.5002 23.0936 42.5H37.1967C37.5359 42.5002 37.8668 42.6039 38.144 42.797C38.4212 42.9901 38.6312 43.2631 38.7452 43.5786L39.5308 45.75H42.1466L45.8708 35.4536C45.9849 35.1381 46.1949 34.8651 46.4721 34.672C46.7493 34.4789 47.0801 34.3752 47.4193 34.375H49.0645C49.5008 34.375 49.9193 34.2038 50.2278 33.899C50.5363 33.5943 50.7096 33.181 50.7096 32.75V26.25Z" fill="url(#paint0_linear_983_16057)"/>
</g>
<defs>
<linearGradient id="paint0_linear_983_16057" x1="16.7062" y1="29.5" x2="41.152" y2="29.6594" gradientUnits="userSpaceOnUse">
<stop stop-color="#583EE7"/>
<stop offset="0.484375" stop-color="#0EA0E6"/>
<stop offset="1" stop-color="#00B6AE"/>
</linearGradient>
</defs>
</svg>
