<svg width="40" height="40" viewBox="0 0 40 40" fill="none" xmlns="http://www.w3.org/2000/svg">
<g id="Money">
<path id="Vector" d="M20 13.75C18.7639 13.75 17.5555 14.1166 16.5277 14.8033C15.4999 15.4901 14.6988 16.4662 14.2258 17.6082C13.7527 18.7503 13.6289 20.0069 13.8701 21.2193C14.1112 22.4317 14.7065 23.5453 15.5806 24.4194C16.4547 25.2935 17.5683 25.8888 18.7807 26.1299C19.9931 26.3711 21.2497 26.2473 22.3918 25.7742C23.5338 25.3012 24.5099 24.5001 25.1967 23.4723C25.8834 22.4445 26.25 21.2361 26.25 20C26.25 18.3424 25.5915 16.7527 24.4194 15.5806C23.2473 14.4085 21.6576 13.75 20 13.75ZM20 23.75C19.2583 23.75 18.5333 23.5301 17.9166 23.118C17.2999 22.706 16.8193 22.1203 16.5355 21.4351C16.2516 20.7498 16.1774 19.9958 16.3221 19.2684C16.4667 18.541 16.8239 17.8728 17.3483 17.3483C17.8728 16.8239 18.541 16.4667 19.2684 16.3221C19.9958 16.1774 20.7498 16.2516 21.4351 16.5355C22.1203 16.8193 22.706 17.2999 23.118 17.9166C23.5301 18.5333 23.75 19.2583 23.75 20C23.75 20.9946 23.3549 21.9484 22.6517 22.6517C21.9484 23.3549 20.9946 23.75 20 23.75ZM37.5 8.75H2.5C2.16848 8.75 1.85054 8.8817 1.61612 9.11612C1.3817 9.35054 1.25 9.66848 1.25 10V30C1.25 30.3315 1.3817 30.6495 1.61612 30.8839C1.85054 31.1183 2.16848 31.25 2.5 31.25H37.5C37.8315 31.25 38.1495 31.1183 38.3839 30.8839C38.6183 30.6495 38.75 30.3315 38.75 30V10C38.75 9.66848 38.6183 9.35054 38.3839 9.11612C38.1495 8.8817 37.8315 8.75 37.5 8.75ZM30.2578 28.75H9.74219C9.32251 27.3306 8.55439 26.0388 7.50779 24.9922C6.46119 23.9456 5.16937 23.1775 3.75 22.7578V17.2422C5.16937 16.8225 6.46119 16.0544 7.50779 15.0078C8.55439 13.9612 9.32251 12.6694 9.74219 11.25H30.2578C30.6775 12.6694 31.4456 13.9612 32.4922 15.0078C33.5388 16.0544 34.8306 16.8225 36.25 17.2422V22.7578C34.8306 23.1775 33.5388 23.9456 32.4922 24.9922C31.4456 26.0388 30.6775 27.3306 30.2578 28.75ZM36.25 14.5891C34.7507 13.9444 33.5556 12.7493 32.9109 11.25H36.25V14.5891ZM7.08906 11.25C6.44436 12.7493 5.24932 13.9444 3.75 14.5891V11.25H7.08906ZM3.75 25.4109C5.24932 26.0556 6.44436 27.2507 7.08906 28.75H3.75V25.4109ZM32.9109 28.75C33.5556 27.2507 34.7507 26.0556 36.25 25.4109V28.75H32.9109Z" fill="url(#paint0_linear_12006_54768)"/>
</g>
<defs>
<linearGradient id="paint0_linear_12006_54768" x1="11.3281" y1="20" x2="29.3024" y2="20.1494" gradientUnits="userSpaceOnUse">
<stop stop-color="#583EE7"/>
<stop offset="0.484375" stop-color="#0EA0E6"/>
<stop offset="1" stop-color="#00B6AE"/>
</linearGradient>
</defs>
</svg>
