<svg width="58" height="58" viewBox="0 0 58 58" fill="none" xmlns="http://www.w3.org/2000/svg">
<g id="HandCoins">
<path id="Vector" d="M52.1841 31.9589C51.5097 31.44 50.7246 31.0836 49.89 30.9173C49.0554 30.7511 48.1938 30.7796 47.372 31.0006L37.8926 33.1801C38.1131 32.2484 38.1199 31.279 37.9125 30.3443C37.7051 29.4097 37.2888 28.5341 36.6948 27.7832C36.1009 27.0323 35.3447 26.4256 34.4829 26.0086C33.6211 25.5915 32.6761 25.3749 31.7188 25.375H20.377C19.4246 25.3726 18.4811 25.559 17.601 25.9234C16.721 26.2877 15.9219 26.8229 15.2499 27.4979L10.1251 32.625H3.625C2.66359 32.625 1.74156 33.0069 1.06174 33.6867C0.381919 34.3666 0 35.2886 0 36.25L0 45.3125C0 46.2739 0.381919 47.1959 1.06174 47.8758C1.74156 48.5556 2.66359 48.9375 3.625 48.9375H27.1875C27.3357 48.9376 27.4833 48.9193 27.627 48.8831L42.127 45.2581C42.2195 45.2361 42.3097 45.2058 42.3966 45.1675L51.2031 41.4202L51.3028 41.3748C52.1492 40.9519 52.874 40.3205 53.4088 39.5401C53.9437 38.7596 54.2711 37.8558 54.3602 36.9139C54.4493 35.9719 54.2971 35.0228 53.918 34.1559C53.5389 33.2891 52.9453 32.533 52.1932 31.9589H52.1841ZM3.625 36.25H9.0625V45.3125H3.625V36.25ZM49.7146 38.1101L41.1052 41.7759L26.9609 45.3125H12.6875V35.1874L17.8146 30.0626C18.15 29.7245 18.5493 29.4565 18.9891 29.2741C19.429 29.0916 19.9008 28.9985 20.377 29H31.7188C32.4398 29 33.1313 29.2864 33.6412 29.7963C34.1511 30.3062 34.4375 30.9977 34.4375 31.7188C34.4375 32.4398 34.1511 33.1313 33.6412 33.6412C33.1313 34.1511 32.4398 34.4375 31.7188 34.4375H25.375C24.8943 34.4375 24.4333 34.6285 24.0934 34.9684C23.7535 35.3083 23.5625 35.7693 23.5625 36.25C23.5625 36.7307 23.7535 37.1917 24.0934 37.5316C24.4333 37.8715 24.8943 38.0625 25.375 38.0625H32.625C32.7614 38.0621 32.8974 38.0469 33.0305 38.0172L48.2102 34.5259L48.2805 34.5077C48.7439 34.3791 49.2384 34.4264 49.6691 34.6405C50.0997 34.8546 50.4359 35.2203 50.6131 35.6674C50.7902 36.1145 50.7958 36.6113 50.6287 37.0623C50.4615 37.5132 50.1336 37.8864 49.7078 38.1101H49.7146ZM37.1562 21.75C37.6041 21.7505 38.0511 21.7141 38.493 21.6413C38.9899 23.1174 39.8992 24.4204 41.1132 25.3962C42.3273 26.372 43.7953 26.9797 45.3438 27.1476C46.8923 27.3155 48.4565 27.0364 49.8514 26.3435C51.2464 25.6506 52.4137 24.5727 53.2155 23.2374C54.0173 21.902 54.42 20.365 54.3759 18.8081C54.3318 17.2511 53.8429 15.7394 52.9668 14.4515C52.0908 13.1636 50.8644 12.1535 49.4324 11.5406C48.0005 10.9277 46.4231 10.7376 44.8866 10.9928C44.408 9.57056 43.5464 8.30789 42.3965 7.34375C41.2467 6.37961 39.8531 5.75139 38.3692 5.52821C36.8853 5.30504 35.3685 5.49556 33.9859 6.07882C32.6033 6.66208 31.4084 7.61546 30.5327 8.83405C29.657 10.0526 29.1345 11.4892 29.0226 12.9856C28.9107 14.482 29.2138 15.9803 29.8986 17.3156C30.5833 18.6508 31.6231 19.7713 32.9036 20.5537C34.1841 21.3361 35.6557 21.75 37.1562 21.75ZM50.75 19.0313C50.75 19.9275 50.4842 20.8035 49.9863 21.5487C49.4884 22.2938 48.7808 22.8746 47.9528 23.2176C47.1248 23.5605 46.2137 23.6503 45.3347 23.4754C44.4558 23.3006 43.6484 22.869 43.0147 22.2353C42.381 21.6016 41.9494 20.7942 41.7746 19.9153C41.5997 19.0363 41.6895 18.1252 42.0324 17.2972C42.3754 16.4692 42.9562 15.7616 43.7013 15.2637C44.4465 14.7658 45.3226 14.5 46.2188 14.5C47.4205 14.5 48.5731 14.9774 49.4228 15.8272C50.2726 16.677 50.75 17.8295 50.75 19.0313ZM37.1562 9.0625C38.1448 9.063 39.106 9.38673 39.8934 9.98434C40.6808 10.5819 41.2512 11.4207 41.5176 12.3726C40.5893 13.0258 39.8075 13.8655 39.2223 14.8381C38.6372 15.8107 38.2614 16.8947 38.1191 18.0208C37.8027 18.0891 37.48 18.124 37.1562 18.125C35.9545 18.125 34.8019 17.6476 33.9522 16.7978C33.1024 15.9481 32.625 14.7955 32.625 13.5938C32.625 12.392 33.1024 11.2394 33.9522 10.3897C34.8019 9.5399 35.9545 9.0625 37.1562 9.0625Z" fill="url(#paint0_linear_1779_28615)"/>
</g>
<defs>
<linearGradient id="paint0_linear_1779_28615" x1="14.616" y1="27.1875" x2="40.6843" y2="27.35" gradientUnits="userSpaceOnUse">
<stop stop-color="#583EE7"/>
<stop offset="0.484375" stop-color="#0EA0E6"/>
<stop offset="1" stop-color="#00B6AE"/>
</linearGradient>
</defs>
</svg>
