<svg width="59" height="58" viewBox="0 0 59 58" fill="none" xmlns="http://www.w3.org/2000/svg">
<g id="HandCoins">
<path id="Vector" d="M39.5 22.4494V21.5C39.5 17.225 33.0517 14 24.5 14C15.9483 14 9.5 17.225 9.5 21.5V28.3182C9.5 31.879 13.9744 34.7085 20.4091 35.5557V36.5C20.4091 40.775 26.8574 44 35.4091 44C43.9608 44 50.4091 40.775 50.4091 36.5V29.6818C50.4091 26.1534 46.0761 23.3205 39.5 22.4494ZM47.6818 29.6818C47.6818 31.9352 42.4335 34.4545 35.4091 34.4545C34.7733 34.4545 34.1426 34.4324 33.5205 34.3915C37.1972 33.0517 39.5 30.875 39.5 28.3182V25.2057C44.5915 25.9642 47.6818 28.0233 47.6818 29.6818ZM20.4091 32.7926V28.7375C21.7655 28.9142 23.1321 29.0019 24.5 29C25.8679 29.0019 27.2345 28.9142 28.5909 28.7375V32.7926C27.2365 32.9927 25.8691 33.0924 24.5 33.0909C23.1309 33.0924 21.7635 32.9927 20.4091 32.7926ZM36.7727 25.9199V28.3182C36.7727 29.7483 34.6574 31.2841 31.3182 32.2165V28.233C33.5187 27.6994 35.3818 26.9051 36.7727 25.9199ZM24.5 16.7273C31.5244 16.7273 36.7727 19.2466 36.7727 21.5C36.7727 23.7534 31.5244 26.2727 24.5 26.2727C17.4756 26.2727 12.2273 23.7534 12.2273 21.5C12.2273 19.2466 17.4756 16.7273 24.5 16.7273ZM12.2273 28.3182V25.9199C13.6182 26.9051 15.4813 27.6994 17.6818 28.233V32.2165C14.3426 31.2841 12.2273 29.7483 12.2273 28.3182ZM23.1364 36.5V35.7892C23.5847 35.8062 24.0381 35.8182 24.5 35.8182C25.1614 35.8182 25.8074 35.796 26.4415 35.7585C27.1459 36.0107 27.8634 36.2246 28.5909 36.3994V40.3983C25.2517 39.4659 23.1364 37.9301 23.1364 36.5ZM31.3182 40.9744V36.9091C32.6742 37.0914 34.0409 37.1825 35.4091 37.1818C36.777 37.1838 38.1436 37.0961 39.5 36.9193V40.9744C36.7872 41.3722 34.031 41.3722 31.3182 40.9744ZM42.2273 40.3983V36.4148C44.4278 35.8813 46.2909 35.0869 47.6818 34.1017V36.5C47.6818 37.9301 45.5665 39.4659 42.2273 40.3983Z" fill="url(#paint0_linear_1779_28713)"/>
</g>
<defs>
<linearGradient id="paint0_linear_1779_28713" x1="20.4943" y1="29" x2="40.1031" y2="29.1333" gradientUnits="userSpaceOnUse">
<stop stop-color="#583EE7"/>
<stop offset="0.484375" stop-color="#0EA0E6"/>
<stop offset="1" stop-color="#00B6AE"/>
</linearGradient>
</defs>
</svg>
