<svg width="59" height="58" viewBox="0 0 59 58" fill="none" xmlns="http://www.w3.org/2000/svg">
<g id="HandCoins">
<path id="Vector" d="M46.5 14.9167V33.875C46.5 34.6485 46.1927 35.3904 45.6457 35.9374C45.0987 36.4844 44.3569 36.7917 43.5833 36.7917H23.7701L25.6568 38.6766C25.7923 38.8121 25.8997 38.9729 25.9731 39.1499C26.0464 39.327 26.0841 39.5167 26.0841 39.7083C26.0841 39.9 26.0464 40.0897 25.9731 40.2667C25.8997 40.4438 25.7923 40.6046 25.6568 40.7401C25.5213 40.8756 25.3604 40.9831 25.1834 41.0564C25.0064 41.1297 24.8166 41.1675 24.625 41.1675C24.4334 41.1675 24.2436 41.1297 24.0666 41.0564C23.8896 40.9831 23.7287 40.8756 23.5932 40.7401L19.2182 36.3651C19.0826 36.2297 18.9751 36.0688 18.9017 35.8918C18.8283 35.7148 18.7905 35.525 18.7905 35.3333C18.7905 35.1417 18.8283 34.9519 18.9017 34.7749C18.9751 34.5978 19.0826 34.437 19.2182 34.3016L23.5932 29.9266C23.8669 29.6529 24.238 29.4992 24.625 29.4992C25.012 29.4992 25.3831 29.6529 25.6568 29.9266C25.9304 30.2002 26.0841 30.5713 26.0841 30.9583C26.0841 31.3453 25.9304 31.7165 25.6568 31.9901L23.7701 33.875H43.5833V14.9167H23.1667V16.375C23.1667 16.7618 23.013 17.1327 22.7395 17.4062C22.466 17.6797 22.0951 17.8333 21.7083 17.8333C21.3216 17.8333 20.9506 17.6797 20.6771 17.4062C20.4036 17.1327 20.25 16.7618 20.25 16.375V14.9167C20.25 14.1431 20.5573 13.4013 21.1043 12.8543C21.6513 12.3073 22.3931 12 23.1667 12H43.5833C44.3569 12 45.0987 12.3073 45.6457 12.8543C46.1927 13.4013 46.5 14.1431 46.5 14.9167ZM36.2917 41.1667C35.9049 41.1667 35.534 41.3203 35.2605 41.5938C34.987 41.8673 34.8333 42.2382 34.8333 42.625V44.0833H14.4167V25.125H34.2299L32.3432 27.0099C32.0696 27.2835 31.9159 27.6547 31.9159 28.0417C31.9159 28.4287 32.0696 28.7998 32.3432 29.0734C32.6169 29.3471 32.988 29.5008 33.375 29.5008C33.762 29.5008 34.1331 29.3471 34.4068 29.0734L38.7818 24.6984C38.9174 24.563 39.0249 24.4022 39.0983 24.2251C39.1717 24.0481 39.2095 23.8583 39.2095 23.6667C39.2095 23.475 39.1717 23.2853 39.0983 23.1082C39.0249 22.9312 38.9174 22.7703 38.7818 22.6349L34.4068 18.2599C34.1331 17.9863 33.762 17.8325 33.375 17.8325C32.988 17.8325 32.6169 17.9863 32.3432 18.2599C32.0696 18.5335 31.9159 18.9047 31.9159 19.2917C31.9159 19.6787 32.0696 20.0498 32.3432 20.3234L34.2299 22.2083H14.4167C13.6431 22.2083 12.9013 22.5156 12.3543 23.0626C11.8073 23.6096 11.5 24.3515 11.5 25.125V44.0833C11.5 44.8569 11.8073 45.5987 12.3543 46.1457C12.9013 46.6927 13.6431 47 14.4167 47H34.8333C35.6069 47 36.3487 46.6927 36.8957 46.1457C37.4427 45.5987 37.75 44.8569 37.75 44.0833V42.625C37.75 42.2382 37.5964 41.8673 37.3229 41.5938C37.0494 41.3203 36.6784 41.1667 36.2917 41.1667Z" fill="url(#paint0_linear_1779_28723)"/>
</g>
<defs>
<linearGradient id="paint0_linear_1779_28723" x1="20.9062" y1="29.5" x2="37.683" y2="29.5836" gradientUnits="userSpaceOnUse">
<stop stop-color="#583EE7"/>
<stop offset="0.484375" stop-color="#0EA0E6"/>
<stop offset="1" stop-color="#00B6AE"/>
</linearGradient>
</defs>
</svg>
