<svg width="58" height="58" viewBox="0 0 58 58" fill="none" xmlns="http://www.w3.org/2000/svg">
<g id="HandCoins">
<path id="Vector" d="M45.4545 19.8182H16.3636C15.9779 19.8182 15.6079 19.6649 15.3351 19.3922C15.0623 19.1194 14.9091 18.7494 14.9091 18.3636C14.9091 17.9779 15.0623 17.6079 15.3351 17.3351C15.6079 17.0623 15.9779 16.9091 16.3636 16.9091H41.0909C41.4767 16.9091 41.8466 16.7558 42.1194 16.4831C42.3922 16.2103 42.5455 15.8403 42.5455 15.4545C42.5455 15.0688 42.3922 14.6988 42.1194 14.426C41.8466 14.1532 41.4767 14 41.0909 14H16.3636C15.2063 14 14.0964 14.4597 13.2781 15.2781C12.4597 16.0964 12 17.2063 12 18.3636V41.6364C12 42.7937 12.4597 43.9036 13.2781 44.7219C14.0964 45.5403 15.2063 46 16.3636 46H45.4545C46.2261 46 46.966 45.6935 47.5116 45.1479C48.0571 44.6024 48.3636 43.8624 48.3636 43.0909V22.7273C48.3636 21.9557 48.0571 21.2158 47.5116 20.6702C46.966 20.1247 46.2261 19.8182 45.4545 19.8182ZM45.4545 43.0909H16.3636C15.9779 43.0909 15.6079 42.9377 15.3351 42.6649C15.0623 42.3921 14.9091 42.0221 14.9091 41.6364V22.4782C15.3761 22.6437 15.8681 22.728 16.3636 22.7273H45.4545V43.0909ZM36.7273 32.1818C36.7273 31.7503 36.8552 31.3285 37.095 30.9697C37.3347 30.6109 37.6755 30.3312 38.0741 30.1661C38.4728 30.0009 38.9115 29.9577 39.3347 30.0419C39.758 30.1261 40.1467 30.3339 40.4519 30.639C40.757 30.9442 40.9648 31.3329 41.049 31.7562C41.1332 32.1794 41.09 32.6181 40.9248 33.0168C40.7597 33.4154 40.48 33.7562 40.1212 33.9959C39.7624 34.2357 39.3406 34.3636 38.9091 34.3636C38.3304 34.3636 37.7755 34.1338 37.3663 33.7246C36.9571 33.3154 36.7273 32.7605 36.7273 32.1818Z" fill="url(#paint0_linear_1402_27002)"/>
</g>
<defs>
<linearGradient id="paint0_linear_1402_27002" x1="21.7727" y1="30" x2="39.203" y2="30.0988" gradientUnits="userSpaceOnUse">
<stop stop-color="#583EE7"/>
<stop offset="0.484375" stop-color="#0EA0E6"/>
<stop offset="1" stop-color="#00B6AE"/>
</linearGradient>
</defs>
</svg>
