<svg width="17" height="16" viewBox="0 0 17 16" fill="none" xmlns="http://www.w3.org/2000/svg">
<g id="uil:arrow-growth">
<path id="Vector" d="M15.1432 4.41333C15.0756 4.25043 14.9461 4.12098 14.7832 4.05333C14.7031 4.01917 14.617 4.00105 14.5299 4H11.1966C11.0198 4 10.8502 4.07024 10.7252 4.19526C10.6001 4.32029 10.5299 4.48986 10.5299 4.66667C10.5299 4.84348 10.6001 5.01305 10.7252 5.13807C10.8502 5.2631 11.0198 5.33333 11.1966 5.33333H12.9232L9.19657 9.06L7.00324 6.86C6.94127 6.79752 6.86753 6.74792 6.78629 6.71407C6.70505 6.68023 6.61792 6.6628 6.52991 6.6628C6.4419 6.6628 6.35476 6.68023 6.27352 6.71407C6.19228 6.74792 6.11855 6.79752 6.05657 6.86L2.05657 10.86C1.99409 10.922 1.94449 10.9957 1.91065 11.077C1.8768 11.1582 1.85938 11.2453 1.85938 11.3333C1.85938 11.4213 1.8768 11.5085 1.91065 11.5897C1.94449 11.671 1.99409 11.7447 2.05657 11.8067C2.11855 11.8692 2.19228 11.9188 2.27352 11.9526C2.35476 11.9864 2.4419 12.0039 2.52991 12.0039C2.61792 12.0039 2.70505 11.9864 2.78629 11.9526C2.86753 11.9188 2.94127 11.8692 3.00324 11.8067L6.52991 8.27333L8.72324 10.4733C8.78522 10.5358 8.85895 10.5854 8.94019 10.6193C9.02143 10.6531 9.10857 10.6705 9.19657 10.6705C9.28458 10.6705 9.37172 10.6531 9.45296 10.6193C9.5342 10.5854 9.60793 10.5358 9.66991 10.4733L13.8632 6.27333V8C13.8632 8.17681 13.9335 8.34638 14.0585 8.47141C14.1835 8.59643 14.3531 8.66667 14.5299 8.66667C14.7067 8.66667 14.8763 8.59643 15.0013 8.47141C15.1263 8.34638 15.1966 8.17681 15.1966 8V4.66667C15.1955 4.57955 15.1774 4.49348 15.1432 4.41333Z" fill="#3769FF"/>
</g>
</svg>
