<svg width="16" height="16" viewBox="0 0 16 16" fill="none" xmlns="http://www.w3.org/2000/svg">
<path d="M9.23743 6.17344V3.22939C9.23743 3.07323 9.29947 2.92346 9.40989 2.81304C9.52031 2.70262 9.67008 2.64058 9.82624 2.64058C9.9824 2.64058 10.1322 2.70262 10.2426 2.81304C10.353 2.92346 10.4151 3.07323 10.4151 3.22939V4.7522L12.9425 2.224C13.053 2.11351 13.2029 2.05144 13.3591 2.05144C13.5154 2.05144 13.6652 2.11351 13.7757 2.224C13.8862 2.33448 13.9482 2.48433 13.9482 2.64058C13.9482 2.79683 13.8862 2.94668 13.7757 3.05717L11.2482 5.58463H12.7703C12.9265 5.58463 13.0762 5.64667 13.1866 5.75709C13.2971 5.86751 13.3591 6.01728 13.3591 6.17344C13.3591 6.32961 13.2971 6.47937 13.1866 6.58979C13.0762 6.70022 12.9265 6.76225 12.7703 6.76225H9.82624C9.67008 6.76225 9.52031 6.70022 9.40989 6.58979C9.29947 6.47937 9.23743 6.32961 9.23743 6.17344ZM15.1167 11.9938C14.9855 12.9911 14.4957 13.9066 13.7388 14.5692C12.982 15.2318 12.0098 15.5962 11.0039 15.5944C5.15992 15.5944 0.405281 10.8398 0.405281 4.99582C0.403342 3.98995 0.76774 3.01778 1.43037 2.26101C2.09301 1.50423 3.00853 1.01464 4.00585 0.88372C4.25797 0.85287 4.5133 0.904358 4.73375 1.0305C4.9542 1.15665 5.12796 1.35068 5.22911 1.58367L6.78357 5.05397V5.0628C6.86091 5.24125 6.89286 5.43608 6.87654 5.62988C6.86023 5.82368 6.79618 6.01043 6.69009 6.17344C6.67684 6.19332 6.66286 6.21172 6.64814 6.23012L5.11576 8.04659C5.66704 9.16681 6.83877 10.3282 7.9737 10.881L9.76515 9.3567C9.78275 9.34191 9.80118 9.32815 9.82035 9.31548C9.98323 9.20685 10.1706 9.14054 10.3656 9.12254C10.5605 9.10455 10.7569 9.13545 10.9369 9.21244L10.9465 9.21686L14.4138 10.7706C14.6473 10.8712 14.842 11.0448 14.9687 11.2653C15.0954 11.4858 15.1473 11.7414 15.1167 11.9938ZM13.9479 11.8466C13.9479 11.8466 13.9428 11.8466 13.9398 11.8466L10.4806 10.2973L8.68837 11.8216C8.67117 11.8366 8.65297 11.8503 8.6339 11.8628C8.46444 11.9759 8.26855 12.043 8.06536 12.0577C7.86218 12.0725 7.65866 12.0342 7.47468 11.9467C6.09613 11.2806 4.72199 9.9168 4.05517 8.55297C3.96687 8.37033 3.92724 8.16798 3.94014 7.96553C3.95303 7.76308 4.01801 7.56739 4.12877 7.39743C4.14125 7.37748 4.15528 7.35853 4.17072 7.34076L5.70457 5.52207L4.15895 2.06281C4.15866 2.05988 4.15866 2.05692 4.15895 2.05398C3.4452 2.14709 2.78987 2.49718 2.31568 3.0387C1.8415 3.58022 1.58097 4.27603 1.5829 4.99582C1.58563 7.49358 2.57907 9.88825 4.34525 11.6544C6.11143 13.4206 8.50611 14.4141 11.0039 14.4168C11.7232 14.4193 12.4188 14.1596 12.9607 13.6865C13.5025 13.2133 13.8535 12.559 13.9479 11.8459V11.8466Z" fill="url(#paint0_linear_20150_185944)"/>
<defs>
<linearGradient id="paint0_linear_20150_185944" x1="4.36127" y1="8.23471" x2="11.4171" y2="8.26988" gradientUnits="userSpaceOnUse">
<stop stop-color="#583EE7"/>
<stop offset="0.484375" stop-color="#0EA0E6"/>
<stop offset="1" stop-color="#00B6AE"/>
</linearGradient>
</defs>
</svg>
