<svg width="16" height="17" viewBox="0 0 16 17" fill="none" xmlns="http://www.w3.org/2000/svg">
<path d="M14.7779 11.2137L11.2446 9.55124L11.2348 9.54651C11.0514 9.46414 10.8513 9.43108 10.6527 9.45033C10.454 9.46958 10.263 9.54053 10.0971 9.65677C10.0775 9.67032 10.0588 9.68504 10.0408 9.70087L8.21531 11.3349C7.0588 10.7451 5.86479 9.50084 5.30304 8.30225L6.86155 6.35632C6.87655 6.33663 6.8908 6.31695 6.9043 6.29568C7.01262 6.12188 7.07835 5.92266 7.09562 5.71574C7.11289 5.50882 7.08118 5.30063 7.0033 5.1097V5.10025L5.41554 1.384C5.3126 1.13457 5.13558 0.926783 4.91093 0.791665C4.68627 0.656547 4.42602 0.601342 4.16903 0.634291C3.15275 0.774709 2.2199 1.29876 1.54471 2.10858C0.869525 2.9184 0.498169 3.95859 0.500007 5.03488C0.500007 11.2877 5.34504 16.375 11.3001 16.375C12.3251 16.3769 13.3158 15.987 14.087 15.278C14.8583 14.5691 15.3574 13.5896 15.4911 12.5225C15.5226 12.2528 15.4701 11.9796 15.3415 11.7437C15.213 11.5078 15.0153 11.3219 14.7779 11.2137ZM11.3001 15.115C8.75484 15.1121 6.31464 14.0491 4.51488 12.1594C2.71512 10.2696 1.70279 7.7074 1.70002 5.03488C1.69719 4.26587 1.96106 3.52208 2.44232 2.9424C2.92359 2.36273 3.58936 1.98681 4.31528 1.88485C4.31499 1.888 4.31499 1.89116 4.31528 1.8943L5.8903 5.59559L4.34003 7.54388C4.3243 7.56289 4.31001 7.58317 4.29728 7.60452C4.18442 7.78637 4.11821 7.99575 4.10507 8.21237C4.09193 8.42898 4.1323 8.64549 4.22228 8.84091C4.90179 10.3002 6.30205 11.7594 7.70681 12.4721C7.89428 12.5657 8.10167 12.6066 8.30872 12.5909C8.51576 12.5752 8.71538 12.5033 8.88807 12.3823C8.90732 12.3687 8.92585 12.354 8.94357 12.3382L10.7668 10.7049L14.2919 12.3626C14.2919 12.3626 14.2979 12.3626 14.3001 12.3626C14.2042 13.1259 13.8467 13.8264 13.2945 14.333C12.7424 14.8396 12.0333 15.1176 11.3001 15.115Z" fill="url(#paint0_linear_20150_185937)"/>
<defs>
<linearGradient id="paint0_linear_20150_185937" x1="4.53125" y1="8.5" x2="11.7213" y2="8.53414" gradientUnits="userSpaceOnUse">
<stop stop-color="#583EE7"/>
<stop offset="0.484375" stop-color="#0EA0E6"/>
<stop offset="1" stop-color="#00B6AE"/>
</linearGradient>
</defs>
</svg>
