<svg width="16" height="16" viewBox="0 0 16 16" fill="none" xmlns="http://www.w3.org/2000/svg">
<path d="M14.7692 4.0009H12.3077V1.53936C12.3077 1.21294 12.178 0.899892 11.9472 0.669078C11.7164 0.438264 11.4033 0.308594 11.0769 0.308594H1.23077C0.904349 0.308594 0.591298 0.438264 0.360484 0.669078C0.12967 0.899892 0 1.21294 0 1.53936V11.3855C0.000361318 11.5013 0.0333748 11.6146 0.0952477 11.7125C0.157121 11.8103 0.245343 11.8887 0.34978 11.9387C0.454217 11.9887 0.570631 12.0082 0.685649 11.995C0.800667 11.9817 0.909623 11.9363 1 11.864L3.69231 9.69321V12.0009C3.69231 12.3273 3.82198 12.6404 4.05279 12.8712C4.28361 13.102 4.59666 13.2317 4.92308 13.2317H12.1223L15 15.5563C15.1089 15.6444 15.2446 15.6927 15.3846 15.6932C15.5478 15.6932 15.7044 15.6284 15.8198 15.513C15.9352 15.3976 16 15.241 16 15.0778V5.23167C16 4.90525 15.8703 4.5922 15.6395 4.36139C15.4087 4.13057 15.0957 4.0009 14.7692 4.0009ZM3.27308 8.44552L1.23077 10.0971V1.53936H11.0769V8.30859H3.66C3.51916 8.30861 3.38258 8.35694 3.27308 8.44552ZM14.7692 13.7894L12.7269 12.1378C12.618 12.0497 12.4824 12.0014 12.3423 12.0009H4.92308V9.53936H11.0769C11.4033 9.53936 11.7164 9.40969 11.9472 9.17888C12.178 8.94806 12.3077 8.63501 12.3077 8.30859V5.23167H14.7692V13.7894Z" fill="url(#paint0_linear_20150_185940)"/>
<defs>
<linearGradient id="paint0_linear_20150_185940" x1="4.3" y1="8.0009" x2="11.9694" y2="8.04067" gradientUnits="userSpaceOnUse">
<stop stop-color="#583EE7"/>
<stop offset="0.484375" stop-color="#0EA0E6"/>
<stop offset="1" stop-color="#00B6AE"/>
</linearGradient>
</defs>
</svg>
