<svg width="84" height="84" viewBox="0 0 84 84" fill="none" xmlns="http://www.w3.org/2000/svg">
<circle cx="42" cy="42" r="41.58" fill="white" stroke="#3769FF" stroke-width="0.84"/>
<g clip-path="url(#clip0_20193_171181)">
<path d="M31.1417 42V34.8615C31.1629 33.4583 31.4607 32.073 32.0182 30.7852C32.5757 29.4973 33.3818 28.3321 34.3904 27.3563C35.399 26.3805 36.5902 25.6133 37.8958 25.0986C39.2014 24.584 40.5957 24.332 41.9988 24.3572C43.4019 24.332 44.7963 24.584 46.1018 25.0986C47.4074 25.6133 48.5987 26.3805 49.6072 27.3563C50.6158 28.3321 51.4219 29.4973 51.9794 30.7852C52.5369 32.073 52.8348 33.4583 52.856 34.8615V42M47.4274 56.25C48.8671 56.25 50.2479 55.6781 51.266 54.66C52.284 53.642 52.856 52.2612 52.856 50.8215V44.7143M47.4274 56.25C47.4274 57.1499 47.0699 58.0129 46.4336 58.6492C45.7974 59.2854 44.9344 59.6429 44.0345 59.6429H39.9631C39.0633 59.6429 38.2003 59.2854 37.564 58.6492C36.9277 58.0129 36.5702 57.1499 36.5702 56.25C36.5702 55.3502 36.9277 54.4872 37.564 53.8509C38.2003 53.2146 39.0633 52.8572 39.9631 52.8572H44.0345C44.9344 52.8572 45.7974 53.2146 46.4336 53.8509C47.0699 54.4872 47.4274 55.3502 47.4274 56.25ZM27.0702 37.9286H29.7845C30.1445 37.9286 30.4897 38.0716 30.7442 38.3261C30.9987 38.5806 31.1417 38.9258 31.1417 39.2858V47.4286C31.1417 47.7885 30.9987 48.1337 30.7442 48.3883C30.4897 48.6428 30.1445 48.7858 29.7845 48.7858H27.0702C26.3504 48.7858 25.66 48.4998 25.151 47.9908C24.6419 47.4817 24.356 46.7913 24.356 46.0715V40.6429C24.356 39.923 24.6419 39.2326 25.151 38.7236C25.66 38.2146 26.3504 37.9286 27.0702 37.9286ZM56.9274 48.7858H54.2131C53.8532 48.7858 53.508 48.6428 53.2535 48.3883C52.9989 48.1337 52.856 47.7885 52.856 47.4286V39.2858C52.856 38.9258 52.9989 38.5806 53.2535 38.3261C53.508 38.0716 53.8532 37.9286 54.2131 37.9286H56.9274C57.6473 37.9286 58.3376 38.2146 58.8467 38.7236C59.3557 39.2326 59.6417 39.923 59.6417 40.6429V46.0715C59.6417 46.7913 59.3557 47.4817 58.8467 47.9908C58.3376 48.4998 57.6473 48.7858 56.9274 48.7858Z" stroke="#3769FF" stroke-width="2.71429" stroke-linecap="round" stroke-linejoin="round"/>
</g>
<defs>
<clipPath id="clip0_20193_171181">
<rect width="38" height="38" fill="white" transform="translate(23 23)"/>
</clipPath>
</defs>
</svg>
