<svg width="15" height="13" viewBox="0 0 15 13" fill="none" xmlns="http://www.w3.org/2000/svg">
<path d="M13.8741 0.699219H1.12684C0.985973 0.699219 0.850876 0.760326 0.751269 0.869097C0.651662 0.977868 0.595703 1.12539 0.595703 1.27922V11.1392C0.595703 11.4469 0.707621 11.7419 0.906835 11.9595C1.10605 12.177 1.37624 12.2992 1.65797 12.2992H13.343C13.6247 12.2992 13.8949 12.177 14.0941 11.9595C14.2933 11.7419 14.4052 11.4469 14.4052 11.1392V1.27922C14.4052 1.12539 14.3493 0.977868 14.2497 0.869097C14.1501 0.760326 14.015 0.699219 13.8741 0.699219ZM7.50046 6.87259L2.49252 1.85922H12.5084L7.50046 6.87259ZM5.55584 6.49922L1.65797 10.4004V2.59799L5.55584 6.49922ZM6.34193 7.28584L7.13863 8.08697C7.23662 8.1852 7.36479 8.2397 7.49781 8.2397C7.63083 8.2397 7.759 8.1852 7.85699 8.08697L8.65369 7.28584L12.5044 11.1392H2.49252L6.34193 7.28584ZM9.44508 6.49922L13.343 2.59727V10.4012L9.44508 6.49922Z" fill="url(#paint0_linear_20150_185939)"/>
<defs>
<linearGradient id="paint0_linear_20150_185939" x1="4.30701" y1="6.49922" x2="10.9264" y2="6.53851" gradientUnits="userSpaceOnUse">
<stop stop-color="#583EE7"/>
<stop offset="0.484375" stop-color="#0EA0E6"/>
<stop offset="1" stop-color="#00B6AE"/>
</linearGradient>
</defs>
</svg>
