<svg width="200" height="60" viewBox="0 0 200 60" fill="none" xmlns="http://www.w3.org/2000/svg">
<path d="M191.858 58.4853H8.23475C4.51352 58.4853 1.49805 55.4698 1.49805 51.7486V8.24846C1.49805 4.52721 4.51352 1.51172 8.23475 1.51172H191.858C195.579 1.51172 198.595 4.52721 198.595 8.24846V51.7486C198.595 55.4698 195.579 58.4853 191.858 58.4853Z" fill="black"/>
<path d="M8.23074 2.2491C4.92298 2.2491 2.23186 4.94024 2.23186 8.24801V51.7481C2.23186 55.0559 4.92298 57.747 8.23074 57.747H191.858C195.166 57.747 197.857 55.0559 197.857 51.7481V8.24801C197.857 4.94024 195.166 2.2491 191.858 2.2491H8.23074ZM191.858 59.2227H8.23074C4.1103 59.2227 0.759766 55.8686 0.759766 51.7481V8.24801C0.759766 4.12755 4.1103 0.773438 8.23074 0.773438H191.858C195.978 0.773438 199.329 4.12755 199.329 8.24801V51.7481C199.329 55.8686 195.978 59.2227 191.858 59.2227Z" fill="#A7A9AB"/>
<path d="M69.6221 16.0745L68.8665 13.7077C68.6811 13.1232 68.5243 12.4709 68.3817 11.9148H68.3532C68.2142 12.4709 68.0681 13.1374 67.9005 13.7077L67.1591 16.0745H69.6221ZM66.874 17.3969L66.047 20.1201H64.2363L67.316 10.5176H69.5508L72.6697 20.1201H70.7912L69.9215 17.3969" fill="white"/>
<path d="M75.2888 13.1836L76.4152 16.6981C76.6148 17.3112 76.7538 17.8672 76.8821 18.4375H76.9249C77.0532 17.8672 77.21 17.3254 77.3954 16.6981L78.5075 13.1836H80.3431L77.6948 20.1199H75.9732L73.3926 13.1836" fill="white"/>
<path d="M85.6264 16.7252C84.386 16.711 83.2027 16.9676 83.2027 18.0227C83.2027 18.7071 83.6446 19.0207 84.2007 19.0207C84.91 19.0207 85.4126 18.5645 85.5801 18.0655C85.6264 17.9371 85.6264 17.8088 85.6264 17.6805V16.7252ZM87.3338 18.4504C87.3338 19.0778 87.3623 19.6908 87.4478 20.115H85.8653L85.7405 19.3487H85.6942C85.2843 19.8869 84.5571 20.2718 83.6446 20.2718C82.2474 20.2718 81.4668 19.2631 81.4668 18.208C81.4668 16.4686 83.0173 15.5739 85.5801 15.5882V15.4741C85.5801 15.0179 85.3983 14.2622 84.1722 14.2622C83.4878 14.2622 82.7749 14.4761 82.3044 14.7755L81.9622 13.6349C82.4755 13.3212 83.3737 13.0254 84.4716 13.0254C86.6922 13.0254 87.3338 14.4333 87.3338 15.9589" fill="white"/>
<path d="M89.8127 13.1814H91.5628V20.1178H89.8127V13.1814ZM90.6788 12.1834C90.0978 12.1834 89.7129 11.7556 89.7129 11.2424C89.7129 10.7006 90.1085 10.2871 90.6967 10.2871C91.2919 10.2871 91.6626 10.7006 91.6769 11.2424C91.6769 11.7556 91.2919 12.1834 90.6967 12.1834" fill="white"/>
<path d="M94.084 20.1183H95.8377V9.98828H94.084V20.1183Z" fill="white"/>
<path d="M102.041 16.7252C100.8 16.711 99.6167 16.9676 99.6167 18.0227C99.6167 18.7071 100.059 19.0207 100.615 19.0207C101.328 19.0207 101.827 18.5645 101.998 18.0655C102.041 17.9371 102.041 17.8088 102.041 17.6805V16.7252ZM103.748 18.4504C103.748 19.0778 103.776 19.6908 103.862 20.115H102.283L102.155 19.3487H102.112C101.698 19.8869 100.971 20.2718 100.059 20.2718C98.665 20.2718 97.8809 19.2631 97.8809 18.208C97.8809 16.4686 99.4349 15.5739 101.998 15.5882V15.4741C101.998 15.0179 101.812 14.2622 100.586 14.2622C99.9019 14.2622 99.189 14.4761 98.7221 14.7755L98.3799 13.6349C98.8931 13.3212 99.7878 13.0254 100.886 13.0254C103.106 13.0254 103.748 14.4333 103.748 15.9589" fill="white"/>
<path d="M107.977 17.2525C107.977 17.3951 107.991 17.5377 108.02 17.666C108.205 18.3789 108.818 18.8922 109.57 18.8922C110.668 18.8922 111.338 18.0225 111.338 16.6145C111.338 15.3884 110.753 14.3903 109.584 14.3903C108.871 14.3903 108.219 14.9036 108.034 15.6735C108.005 15.8018 107.977 15.9587 107.977 16.1298V17.2525ZM106.223 9.98828H107.977V14.1337H108.005C108.433 13.4636 109.185 13.0252 110.226 13.0252C111.923 13.0252 113.131 14.4331 113.117 16.5432C113.117 19.0348 111.538 20.2752 109.969 20.2752C109.071 20.2752 108.276 19.933 107.777 19.0775H107.749L107.663 20.1183H106.166C106.195 19.6478 106.223 18.8779 106.223 18.1793" fill="white"/>
<path d="M115.182 20.1183H116.932V9.98828H115.182V20.1183Z" fill="white"/>
<path d="M123.763 15.9161C123.777 15.2745 123.492 14.2195 122.327 14.2195C121.243 14.2195 120.787 15.2032 120.716 15.9161H123.763ZM120.716 17.1387C120.758 18.3934 121.742 18.9352 122.854 18.9352C123.663 18.9352 124.234 18.8069 124.775 18.6215L125.032 19.8156C124.433 20.0758 123.606 20.2576 122.612 20.2576C120.359 20.2576 119.033 18.8782 119.033 16.7573C119.033 14.8325 120.202 13.0254 122.427 13.0254C124.676 13.0254 125.417 14.8753 125.417 16.4009C125.417 16.7288 125.389 16.9855 125.36 17.1387" fill="white"/>
<path d="M134.108 19.0065C135.103 19.0065 135.802 18.037 135.802 16.629C135.802 15.5454 135.317 14.2908 134.123 14.2908C132.882 14.2908 132.383 15.5027 132.383 16.6575C132.383 17.9942 133.053 19.0065 134.091 19.0065H134.108ZM134.051 20.2754C132.098 20.2754 130.576 18.9352 130.576 16.7003C130.576 14.4191 132.07 13.0254 134.166 13.0254C136.229 13.0254 137.612 14.4761 137.612 16.5862C137.612 19.1348 135.816 20.2754 134.066 20.2754" fill="white"/>
<path d="M139.673 15.246C139.673 14.4476 139.648 13.7775 139.619 13.1787H141.141L141.227 14.2195H141.269C141.583 13.6777 142.339 13.0254 143.494 13.0254C144.702 13.0254 145.957 13.806 145.957 16.0017V20.115H144.203V16.2013C144.203 15.2032 143.832 14.4476 142.881 14.4476C142.182 14.4476 141.697 14.9466 141.512 15.4741C141.455 15.6167 141.426 15.8306 141.426 16.0302V20.115H139.673" fill="white"/>
<path d="M154.035 11.3984V13.1771H155.7V14.4888H154.035V17.5364C154.035 18.3918 154.263 18.8195 154.93 18.8195C155.243 18.8195 155.415 18.8053 155.614 18.7483L155.643 20.0707C155.386 20.174 154.916 20.256 154.374 20.256C153.721 20.256 153.194 20.0421 152.866 19.6893C152.481 19.2901 152.31 18.6485 152.31 17.736V14.4888H151.326V13.1771H152.31V11.8832" fill="white"/>
<path d="M157.646 9.98828H159.4V14.1194H159.429C159.643 13.7915 159.942 13.5206 160.298 13.3353C160.655 13.1392 161.065 13.0252 161.507 13.0252C162.69 13.0252 163.927 13.8058 163.927 16.03V20.1183H162.177V16.2153C162.177 15.2173 161.806 14.4474 160.837 14.4474C160.156 14.4474 159.671 14.9036 159.471 15.4311C159.414 15.588 159.4 15.7733 159.4 15.9587V20.1183H157.646" fill="white"/>
<path d="M170.705 15.9161C170.719 15.2745 170.434 14.2195 169.265 14.2195C168.181 14.2195 167.728 15.2032 167.657 15.9161H170.705ZM167.657 17.1387C167.7 18.3934 168.68 18.9352 169.792 18.9352C170.605 18.9352 171.175 18.8069 171.713 18.6215L171.973 19.8156C171.375 20.0758 170.548 20.2576 169.55 20.2576C167.301 20.2576 165.975 18.8782 165.975 16.7573C165.975 14.8325 167.144 13.0254 169.364 13.0254C171.613 13.0254 172.355 14.8753 172.355 16.4009C172.355 16.7288 172.326 16.9855 172.298 17.1387" fill="white"/>
<path d="M45.076 29.4287C45.0296 24.6773 48.9647 22.364 49.1465 22.2571C46.9187 19.0063 43.4648 18.5643 42.2494 18.5287C39.3515 18.2257 36.5392 20.2681 35.0636 20.2681C33.5558 20.2681 31.2782 18.5608 28.8294 18.6107C25.6714 18.6606 22.7201 20.4891 21.1018 23.3228C17.7656 29.1079 20.2535 37.6054 23.4543 42.282C25.0583 44.5703 26.9261 47.1296 29.3748 47.0369C31.7701 46.9371 32.6647 45.5113 35.5555 45.5113C38.4212 45.5113 39.2624 47.0369 41.7611 46.9798C44.331 46.9371 45.9492 44.6808 47.4926 42.3675C49.3461 39.7441 50.0875 37.1599 50.116 37.028C50.0554 37.0066 45.1259 35.1246 45.076 29.4287Z" fill="white"/>
<path d="M40.3582 15.4568C41.6449 13.8457 42.5325 11.65 42.283 9.42578C40.4188 9.51133 38.0877 10.7161 36.7439 12.2916C35.5569 13.6817 34.4912 15.9593 34.7692 18.098C36.8651 18.2548 39.0144 17.0429 40.3582 15.4568Z" fill="white"/>
<path d="M73.9821 38.5002L72.3282 33.3924C72.1536 32.872 71.8256 31.6423 71.3409 29.7104H71.2839C71.0914 30.5409 70.7777 31.7706 70.3535 33.3924L68.7282 38.5002H73.9821ZM79.6994 46.6591H76.3596L74.531 40.9133H68.1793L66.4363 46.6591H63.1855L69.4874 27.0977H73.3726" fill="white"/>
<path d="M92.7047 39.5493C92.7047 38.1735 92.3946 37.0435 91.7744 36.1524C91.0971 35.2257 90.1882 34.7588 89.0476 34.7588C88.2741 34.7588 87.5684 35.019 86.9446 35.5287C86.3173 36.0455 85.9038 36.7156 85.7078 37.5497C85.6115 37.9346 85.5652 38.2519 85.5652 38.5014V40.8539C85.5652 41.8805 85.8788 42.7466 86.5062 43.4524C87.1371 44.1617 87.9533 44.511 88.9585 44.511C90.1419 44.511 91.0615 44.0583 91.7138 43.1458C92.3767 42.2369 92.7047 41.0393 92.7047 39.5493ZM95.8984 39.4317C95.8984 41.8306 95.2496 43.7304 93.9522 45.1205C92.7902 46.3609 91.3466 46.9776 89.6286 46.9776C87.768 46.9776 86.4349 46.3075 85.6222 44.9744H85.5652V52.4062H82.4285V37.1968C82.4285 35.6891 82.3929 34.1421 82.3145 32.5524H85.0697L85.2444 34.7908H85.305C86.3493 33.1049 87.9355 32.2637 90.0634 32.2637C91.7245 32.2637 93.1181 32.9231 94.2267 34.2384C95.3388 35.5572 95.8984 37.2859 95.8984 39.4317Z" fill="white"/>
<path d="M108.928 39.5493C108.928 38.1735 108.618 37.0435 107.997 36.1524C107.32 35.2257 106.411 34.7588 105.271 34.7588C104.497 34.7588 103.795 35.019 103.168 35.5287C102.537 36.0455 102.13 36.7156 101.938 37.5497C101.838 37.9346 101.792 38.2519 101.792 38.5014V40.8539C101.792 41.8805 102.102 42.7466 102.729 43.4524C103.36 44.1617 104.176 44.511 105.185 44.511C106.365 44.511 107.284 44.0583 107.94 43.1458C108.596 42.2369 108.928 41.0393 108.928 39.5493ZM112.118 39.4317C112.118 41.8306 111.473 43.7304 110.175 45.1205C109.013 46.3609 107.573 46.9776 105.852 46.9776C103.995 46.9776 102.661 46.3075 101.845 44.9744H101.792V52.4062H98.6551V37.1968C98.6551 35.6891 98.6159 34.1421 98.541 32.5524H101.296L101.471 34.7908H101.532C102.572 33.1049 104.159 32.2637 106.286 32.2637C107.951 32.2637 109.338 32.9231 110.453 34.2384C111.565 35.5572 112.118 37.2859 112.118 39.4317Z" fill="white"/>
<path d="M130.256 41.1748C130.256 42.8358 129.678 44.1903 128.516 45.2382C127.24 46.3788 125.469 46.9491 123.191 46.9491C121.084 46.9491 119.395 46.5428 118.115 45.7301L118.842 43.121C120.222 43.9515 121.73 44.3649 123.376 44.3649C124.556 44.3649 125.476 44.1012 126.135 43.5701C126.791 43.0354 127.119 42.3225 127.119 41.4314C127.119 40.6401 126.852 39.9664 126.31 39.4247C125.768 38.8829 124.866 38.3803 123.608 37.9133C120.183 36.6337 118.472 34.7624 118.472 32.303C118.472 30.6954 119.07 29.3766 120.272 28.35C121.469 27.3235 123.066 26.8066 125.059 26.8066C126.841 26.8066 128.32 27.1203 129.5 27.737L128.716 30.2926C127.614 29.6938 126.367 29.3908 124.973 29.3908C123.868 29.3908 123.009 29.6617 122.393 30.2035C121.872 30.6883 121.608 31.28 121.608 31.975C121.608 32.7485 121.904 33.3865 122.507 33.8891C123.027 34.3525 123.975 34.8551 125.351 35.4004C127.033 36.0777 128.27 36.869 129.065 37.7779C129.856 38.6868 130.256 39.8203 130.256 41.1748Z" fill="white"/>
<path d="M140.619 34.9025H137.166V41.7498C137.166 43.4928 137.775 44.3625 138.998 44.3625C139.554 44.3625 140.021 44.3161 140.388 44.2199L140.473 46.5974C139.86 46.8326 139.044 46.9467 138.039 46.9467C136.802 46.9467 135.833 46.5688 135.134 45.8167C134.439 45.0611 134.09 43.7922 134.09 42.0135V34.9025H132.029V32.55H134.09V29.9694L137.166 29.0391V32.55H140.619" fill="white"/>
<path d="M152.958 39.5921C152.958 38.2911 152.676 37.179 152.113 36.2451C151.461 35.1188 150.52 34.5556 149.301 34.5556C148.042 34.5556 147.084 35.1188 146.428 36.2451C145.865 37.179 145.59 38.3125 145.59 39.6527C145.59 40.9537 145.865 42.0658 146.428 42.9961C147.105 44.1225 148.053 44.6857 149.276 44.6857C150.47 44.6857 151.411 44.1153 152.088 42.9676C152.669 42.0195 152.958 40.8931 152.958 39.5921ZM156.209 39.4923C156.209 41.6595 155.592 43.4381 154.351 44.8318C153.054 46.2647 151.332 46.9776 149.187 46.9776C147.112 46.9776 145.465 46.2896 144.236 44.9173C143.01 43.545 142.396 41.8127 142.396 39.724C142.396 37.5354 143.027 35.7461 144.296 34.356C145.562 32.9587 147.269 32.2637 149.415 32.2637C151.486 32.2637 153.154 32.9516 154.408 34.3239C155.61 35.6641 156.209 37.3822 156.209 39.4923Z" fill="white"/>
<path d="M166.395 35.3112C166.085 35.2542 165.757 35.2257 165.408 35.2257C164.307 35.2257 163.451 35.6427 162.852 36.4732C162.332 37.2111 162.072 38.1378 162.072 39.2571V46.6603H158.939L158.964 36.9972C158.964 35.3683 158.924 33.889 158.85 32.5524H161.58L161.694 35.2542H161.776C162.107 34.3275 162.631 33.5789 163.344 33.0193C164.043 32.5167 164.799 32.2637 165.611 32.2637C165.9 32.2637 166.164 32.2851 166.395 32.3207" fill="white"/>
<path d="M177.418 38.1264C177.44 37.1996 177.237 36.394 176.813 35.7168C176.271 34.8471 175.433 34.4087 174.314 34.4087C173.291 34.4087 172.457 34.8364 171.819 35.6883C171.298 36.3655 170.985 37.1782 170.896 38.1264H177.418ZM180.405 38.939C180.405 39.5022 180.37 39.9727 180.295 40.3612H170.896C170.928 41.7549 171.384 42.8207 172.257 43.555C173.049 44.2144 174.075 44.5387 175.333 44.5387C176.723 44.5387 177.992 44.3177 179.137 43.8722L179.628 46.05C178.292 46.6275 176.716 46.9233 174.895 46.9233C172.71 46.9233 170.992 46.2782 169.744 44.9878C168.5 43.7047 167.873 41.9759 167.873 39.8088C167.873 37.6808 168.45 35.9093 169.616 34.4978C170.831 32.9865 172.478 32.2344 174.546 32.2344C176.577 32.2344 178.121 32.9865 179.165 34.4978C179.996 35.6954 180.405 37.1782 180.405 38.939Z" fill="white"/>
</svg>
