<svg width="24" height="24" viewBox="0 0 24 24" fill="none" xmlns="http://www.w3.org/2000/svg">
<g id="material-symbols:arrow-forward-ios-rounded">
<path id="Vector" d="M21.1 16.8516C20.85 17.1016 20.554 17.2266 20.212 17.2266C19.87 17.2266 19.5743 17.1016 19.325 16.8516L12 9.52656L4.65 16.8766C4.41667 17.1099 4.125 17.2266 3.775 17.2266C3.425 17.2266 3.125 17.1016 2.875 16.8516C2.625 16.6016 2.5 16.3056 2.5 15.9636C2.5 15.6216 2.625 15.3259 2.875 15.0766L11.3 6.67656C11.4 6.57656 11.5083 6.50556 11.625 6.46356C11.7417 6.42156 11.8667 6.4009 12 6.40156C12.1333 6.40156 12.2583 6.42256 12.375 6.46456C12.4917 6.50656 12.6 6.57723 12.7 6.67656L21.125 15.1016C21.3583 15.3349 21.475 15.6226 21.475 15.9646C21.475 16.3066 21.35 16.6022 21.1 16.8516Z" fill="url(#paint0_linear_3632_7787)"/>
</g>
<defs>
<linearGradient id="paint0_linear_3632_7787" x1="11.9875" y1="14.3173" x2="12.0023" y2="9.12843" gradientUnits="userSpaceOnUse">
<stop stop-color="#583EE7"/>
<stop offset="0.484375" stop-color="#0EA0E6"/>
<stop offset="1" stop-color="#00B6AE"/>
</linearGradient>
</defs>
</svg>
