<svg width="20" height="12" viewBox="0 0 20 12" fill="none" xmlns="http://www.w3.org/2000/svg">
<path d="M0.9 1.15039C1.15 0.90039 1.446 0.77539 1.788 0.77539C2.13 0.77539 2.42567 0.90039 2.675 1.15039L10 8.47539L17.35 1.12539C17.5833 0.892057 17.875 0.775391 18.225 0.775391C18.575 0.775391 18.875 0.900391 19.125 1.15039C19.375 1.40039 19.5 1.69639 19.5 2.03839C19.5 2.38039 19.375 2.67606 19.125 2.92539L10.7 11.3254C10.6 11.4254 10.4917 11.4964 10.375 11.5384C10.2583 11.5804 10.1333 11.6011 10 11.6004C9.86667 11.6004 9.74167 11.5794 9.625 11.5374C9.50833 11.4954 9.4 11.4247 9.3 11.3254L0.875 2.90039C0.641666 2.66706 0.525 2.37939 0.525 2.03739C0.525 1.69539 0.65 1.39972 0.9 1.15039Z" fill="url(#paint0_linear_4414_4948)"/>
<defs>
<linearGradient id="paint0_linear_4414_4948" x1="10.0125" y1="3.68461" x2="10.0199" y2="10.5978" gradientUnits="userSpaceOnUse">
<stop stop-color="#B9ACFF"/>
<stop offset="0.484375" stop-color="#5ECBFF"/>
<stop offset="1" stop-color="#66FFF8"/>
</linearGradient>
</defs>
</svg>
