<svg width="27" height="30" viewBox="0 0 27 30" fill="none" xmlns="http://www.w3.org/2000/svg">
<path d="M3.16667 30C2.30556 30 1.58333 29.7014 1 29.1042C0.416667 28.5069 0.125 27.7917 0.125 26.9583V23.5417H5.25V0.625L7.33333 2.125L9.54167 0.625L11.7083 2.125L13.875 0.625L16.0417 2.125L18.25 0.625L20.4167 2.125L22.5833 0.625L24.7917 2.125L26.875 0.625V26.9583C26.875 27.7917 26.5833 28.5069 26 29.1042C25.4167 29.7014 24.6944 30 23.8333 30H3.16667ZM23.8333 28.7083C24.3333 28.7083 24.7569 28.5417 25.1042 28.2083C25.4514 27.875 25.625 27.4583 25.625 26.9583V2.95833H6.5V23.5417H22.0833V26.9583C22.0833 27.4583 22.25 27.875 22.5833 28.2083C22.9167 28.5417 23.3333 28.7083 23.8333 28.7083ZM3.125 28.7083H20.7917V24.7917H1.375V26.9583C1.375 27.4583 1.54861 27.875 1.89583 28.2083C2.24306 28.5417 2.65278 28.7083 3.125 28.7083Z" fill="url(#paint0_linear_4198_25425)"/>
<defs>
<linearGradient id="paint0_linear_4198_25425" x1="7.31406" y1="15.3125" x2="20.1364" y2="15.3707" gradientUnits="userSpaceOnUse">
<stop stop-color="#583EE7"/>
<stop offset="0.484375" stop-color="#0EA0E6"/>
<stop offset="1" stop-color="#00B6AE"/>
</linearGradient>
</defs>
</svg>
