<svg width="40" height="40" viewBox="0 0 40 40" fill="none" xmlns="http://www.w3.org/2000/svg">
<g id="Icon/calender">
<path id="Vector" d="M15.5833 13.75V12.4583H24.4999V13.75H15.5833ZM15.5833 19.0417V17.75H24.4999V19.0417H15.5833ZM28.3333 14.1667C28.0555 14.1667 27.8055 14.0625 27.5833 13.8542C27.3611 13.6458 27.2499 13.3889 27.2499 13.0833C27.2499 12.8056 27.3611 12.5556 27.5833 12.3333C27.8055 12.1111 28.0555 12 28.3333 12C28.6111 12 28.8611 12.1111 29.0833 12.3333C29.3055 12.5556 29.4166 12.8056 29.4166 13.0833C29.4166 13.3889 29.3055 13.6458 29.0833 13.8542C28.8611 14.0625 28.6111 14.1667 28.3333 14.1667ZM28.3333 19.375C28.0555 19.375 27.8055 19.2639 27.5833 19.0417C27.3611 18.8194 27.2499 18.5694 27.2499 18.2917C27.2499 17.9861 27.3611 17.7222 27.5833 17.5C27.8055 17.2778 28.0555 17.1667 28.3333 17.1667C28.6111 17.1667 28.8611 17.2778 29.0833 17.5C29.3055 17.7222 29.4166 17.9861 29.4166 18.2917C29.4166 18.5694 29.3055 18.8194 29.0833 19.0417C28.8611 19.2639 28.6111 19.375 28.3333 19.375Z" fill="url(#paint0_linear_3663_8075)"/>
<path id="Vector_2" d="M9.66664 35C8.80553 35 8.0833 34.7014 7.49997 34.1042C6.91664 33.5069 6.62497 32.7917 6.62497 31.9583V28.5417H11.75V5.625L13.8333 7.125L16.0416 5.625L18.2083 7.125L20.375 5.625L22.5416 7.125L24.75 5.625L26.9166 7.125L29.0833 5.625L31.2916 7.125L33.375 5.625V31.9583C33.375 32.7917 33.0833 33.5069 32.5 34.1042C31.9166 34.7014 31.1944 35 30.3333 35H9.66664ZM30.3333 33.7083C30.8333 33.7083 31.2569 33.5417 31.6041 33.2083C31.9514 32.875 32.125 32.4583 32.125 31.9583V7.95833H13V28.5417H28.5833V31.9583C28.5833 32.4583 28.75 32.875 29.0833 33.2083C29.4166 33.5417 29.8333 33.7083 30.3333 33.7083ZM9.62497 33.7083H27.2916V29.7917H7.87497V31.9583C7.87497 32.4583 8.04858 32.875 8.3958 33.2083C8.74303 33.5417 9.15275 33.7083 9.62497 33.7083Z" fill="url(#paint1_linear_3663_8075)"/>
</g>
<defs>
<linearGradient id="paint0_linear_3663_8075" x1="19.301" y1="15.6875" x2="25.9314" y2="15.7495" gradientUnits="userSpaceOnUse">
<stop stop-color="#583EE7"/>
<stop offset="0.484375" stop-color="#0EA0E6"/>
<stop offset="1" stop-color="#00B6AE"/>
</linearGradient>
<linearGradient id="paint1_linear_3663_8075" x1="13.814" y1="20.3125" x2="26.6363" y2="20.3707" gradientUnits="userSpaceOnUse">
<stop stop-color="#583EE7"/>
<stop offset="0.484375" stop-color="#0EA0E6"/>
<stop offset="1" stop-color="#00B6AE"/>
</linearGradient>
</defs>
</svg>
