<svg width="20" height="20" viewBox="0 0 20 20" fill="none" xmlns="http://www.w3.org/2000/svg">
<g id="material-symbols:cancel-rounded">
<path id="Vector" d="M10.0052 11.166L12.4219 13.5827C12.5747 13.7355 12.7691 13.8118 13.0052 13.8118C13.2413 13.8118 13.4358 13.7355 13.5885 13.5827C13.7413 13.4299 13.8177 13.2355 13.8177 12.9993C13.8177 12.7632 13.7413 12.5688 13.5885 12.416L11.1719 9.99935L13.5885 7.58268C13.7413 7.4299 13.8177 7.23546 13.8177 6.99935C13.8177 6.76324 13.7413 6.56879 13.5885 6.41601C13.4358 6.26324 13.2413 6.18685 13.0052 6.18685C12.7691 6.18685 12.5747 6.26324 12.4219 6.41601L10.0052 8.83268L7.58854 6.41601C7.43576 6.26324 7.24132 6.18685 7.00521 6.18685C6.7691 6.18685 6.57465 6.26324 6.42187 6.41601C6.2691 6.56879 6.19271 6.76324 6.19271 6.99935C6.19271 7.23546 6.2691 7.4299 6.42187 7.58268L8.83854 9.99935L6.42187 12.416C6.2691 12.5688 6.19271 12.7632 6.19271 12.9993C6.19271 13.2355 6.2691 13.4299 6.42187 13.5827C6.57465 13.7355 6.7691 13.8118 7.00521 13.8118C7.24132 13.8118 7.43576 13.7355 7.58854 13.5827L10.0052 11.166ZM10.0052 18.3327C8.85243 18.3327 7.7691 18.1138 6.75521 17.676C5.74132 17.2382 4.85937 16.6446 4.10937 15.8952C3.35937 15.1452 2.76576 14.2632 2.32854 13.2493C1.89132 12.2355 1.67243 11.1521 1.67188 9.99935C1.67188 8.84657 1.89076 7.76324 2.32854 6.74935C2.76632 5.73546 3.35993 4.85352 4.10937 4.10352C4.85937 3.35352 5.74132 2.7599 6.75521 2.32268C7.7691 1.88546 8.85243 1.66657 10.0052 1.66602C11.158 1.66602 12.2413 1.8849 13.2552 2.32268C14.2691 2.76046 15.151 3.35407 15.901 4.10352C16.651 4.85352 17.2449 5.73546 17.6827 6.74935C18.1205 7.76324 18.3391 8.84657 18.3385 9.99935C18.3385 11.1521 18.1196 12.2355 17.6819 13.2493C17.2441 14.2632 16.6505 15.1452 15.901 15.8952C15.151 16.6452 14.2691 17.2391 13.2552 17.6768C12.2413 18.1146 11.158 18.3332 10.0052 18.3327Z" fill="#8189A2"/>
</g>
</svg>
