<svg width="90" height="90" viewBox="0 0 90 90" fill="none" xmlns="http://www.w3.org/2000/svg">
<g filter="url(#filter0_d_3657_69816)">
<circle cx="45" cy="37" r="34" fill="white"/>
</g>
<path d="M54.1 35.8501C53.85 36.1001 53.554 36.2251 53.212 36.2251C52.87 36.2251 52.5743 36.1001 52.325 35.8501L45 28.5251L37.65 35.8751C37.4167 36.1084 37.125 36.2251 36.775 36.2251C36.425 36.2251 36.125 36.1001 35.875 35.8501C35.625 35.6001 35.5 35.3041 35.5 34.9621C35.5 34.6201 35.625 34.3244 35.875 34.0751L44.3 25.6751C44.4 25.5751 44.5083 25.5041 44.625 25.4621C44.7417 25.4201 44.8667 25.3994 45 25.4001C45.1333 25.4001 45.2583 25.4211 45.375 25.4631C45.4917 25.5051 45.6 25.5758 45.7 25.6751L54.125 34.1001C54.3583 34.3334 54.475 34.6211 54.475 34.9631C54.475 35.3051 54.35 35.6008 54.1 35.8501Z" fill="url(#paint0_linear_3657_69816)"/>
<path d="M54.1 48.8501C53.85 49.1001 53.554 49.2251 53.212 49.2251C52.87 49.2251 52.5743 49.1001 52.325 48.8501L45 41.5251L37.65 48.8751C37.4167 49.1084 37.125 49.2251 36.775 49.2251C36.425 49.2251 36.125 49.1001 35.875 48.8501C35.625 48.6001 35.5 48.3041 35.5 47.9621C35.5 47.6201 35.625 47.3244 35.875 47.0751L44.3 38.6751C44.4 38.5751 44.5083 38.5041 44.625 38.4621C44.7417 38.4201 44.8667 38.3994 45 38.4001C45.1333 38.4001 45.2583 38.4211 45.375 38.4631C45.4917 38.5051 45.6 38.5758 45.7 38.6751L54.125 47.1001C54.3583 47.3334 54.475 47.6211 54.475 47.9631C54.475 48.3051 54.35 48.6008 54.1 48.8501Z" fill="url(#paint1_linear_3657_69816)"/>
<defs>
<filter id="filter0_d_3657_69816" x="0" y="0" width="90" height="90" filterUnits="userSpaceOnUse" color-interpolation-filters="sRGB">
<feFlood flood-opacity="0" result="BackgroundImageFix"/>
<feColorMatrix in="SourceAlpha" type="matrix" values="0 0 0 0 0 0 0 0 0 0 0 0 0 0 0 0 0 0 127 0" result="hardAlpha"/>
<feOffset dy="8"/>
<feGaussianBlur stdDeviation="5.5"/>
<feComposite in2="hardAlpha" operator="out"/>
<feColorMatrix type="matrix" values="0 0 0 0 0 0 0 0 0 0 0 0 0 0 0 0 0 0 0.15 0"/>
<feBlend mode="normal" in2="BackgroundImageFix" result="effect1_dropShadow_3657_69816"/>
<feBlend mode="normal" in="SourceGraphic" in2="effect1_dropShadow_3657_69816" result="shape"/>
</filter>
<linearGradient id="paint0_linear_3657_69816" x1="44.9875" y1="33.3159" x2="45.0023" y2="28.127" gradientUnits="userSpaceOnUse">
<stop stop-color="#583EE7"/>
<stop offset="0.484375" stop-color="#0EA0E6"/>
<stop offset="1" stop-color="#00B6AE"/>
</linearGradient>
<linearGradient id="paint1_linear_3657_69816" x1="44.9875" y1="46.3159" x2="45.0023" y2="41.127" gradientUnits="userSpaceOnUse">
<stop stop-color="#583EE7"/>
<stop offset="0.484375" stop-color="#0EA0E6"/>
<stop offset="1" stop-color="#00B6AE"/>
</linearGradient>
</defs>
</svg>
