<svg width="20" height="20" viewBox="0 0 20 20" fill="none" xmlns="http://www.w3.org/2000/svg">
<g id="solar:incoming-call-rounded-bold">
<g id="Group">
<path id="Vector" d="M15.578 4.42188L12.3905 7.60937M12.3905 7.60937V5.21875M12.3905 7.60937H14.7811" stroke="#3769FF" stroke-width="1.19531" stroke-linecap="round" stroke-linejoin="round"/>
<path id="Vector_2" d="M9.32258 12.1157L7.99578 13.4425C7.71608 13.7222 7.27142 13.7222 6.98455 13.4497C6.90566 13.3708 6.82677 13.2991 6.74787 13.2202C6.02263 12.4901 5.35373 11.7061 4.74692 10.875C4.15883 10.0574 3.68548 9.23978 3.34123 8.42936C3.00416 7.61177 2.83203 6.83003 2.83203 6.08416C2.83203 5.59647 2.91809 5.1303 3.09022 4.69998C3.26234 4.2625 3.53487 3.86088 3.91498 3.50228C4.37398 3.05045 4.87602 2.82812 5.40673 2.82812C5.60755 2.82812 5.80836 2.87116 5.98766 2.95722C6.17412 3.04328 6.33908 3.17238 6.46817 3.35884L8.13205 5.70405C8.26114 5.88334 8.35437 6.0483 8.41892 6.20608C8.48347 6.35669 8.51933 6.5073 8.51933 6.64356C8.51933 6.81569 8.46912 6.98781 8.36872 7.15277C8.27548 7.31772 8.13922 7.48984 7.96709 7.66197L7.42203 8.22855C7.34314 8.30744 7.30728 8.40067 7.30728 8.51542C7.30728 8.5728 7.31445 8.623 7.3288 8.68038C7.35031 8.73775 7.37183 8.78078 7.38617 8.82381C7.51527 9.06048 7.73759 9.36888 8.05316 9.74181C8.37589 10.1148 8.72014 10.4949 9.09308 10.875C9.1648 10.9467 9.24369 11.0184 9.31541 11.0901C9.60228 11.3698 9.60945 11.8288 9.32258 12.1157ZM17.1543 14.5398C17.1533 14.8105 17.0921 15.0775 16.975 15.3215C16.853 15.5797 16.6953 15.8236 16.4873 16.0531C16.1359 16.4403 15.7486 16.72 15.3111 16.8993C15.3039 16.8993 15.2968 16.9065 15.2896 16.9065C14.8664 17.0786 14.4074 17.1719 13.9126 17.1719C13.181 17.1719 12.3993 16.9998 11.5745 16.6483C10.7498 16.2969 9.92502 15.8236 9.10742 15.2283C8.82772 15.0203 8.54802 14.8123 8.28266 14.59L10.6279 12.2448C10.8287 12.3954 11.008 12.5102 11.1586 12.589C11.1944 12.6034 11.2375 12.6249 11.2877 12.6464C11.345 12.6679 11.4024 12.6751 11.467 12.6751C11.5889 12.6751 11.6821 12.6321 11.761 12.5532L12.3061 12.0153C12.4854 11.836 12.6575 11.6997 12.8225 11.6137C12.9874 11.5133 13.1524 11.4631 13.3317 11.4631C13.4679 11.4631 13.6114 11.4918 13.7691 11.5563C13.9269 11.6208 14.0919 11.7141 14.2712 11.836L16.6451 13.5214C16.8315 13.6505 16.9606 13.8011 17.0395 13.9804C17.1112 14.1597 17.1543 14.339 17.1543 14.5398Z" fill="#3769FF"/>
</g>
</g>
</svg>
