<svg width="84" height="84" viewBox="0 0 84 84" fill="none" xmlns="http://www.w3.org/2000/svg">
<circle cx="42" cy="42" r="42" fill="#557FFF"/>
<g clip-path="url(#clip0_2807_42857)">
<path d="M31.1414 42V34.8615C31.1626 33.4583 31.4605 32.073 32.018 30.7852C32.5754 29.4973 33.3816 28.3321 34.3902 27.3563C35.3987 26.3805 36.5899 25.6133 37.8955 25.0986C39.2011 24.584 40.5954 24.332 41.9986 24.3572C43.4017 24.332 44.796 24.584 46.1016 25.0986C47.4072 25.6133 48.5984 26.3805 49.607 27.3563C50.6156 28.3321 51.4217 29.4973 51.9792 30.7852C52.5366 32.073 52.8345 33.4583 52.8557 34.8615V42M47.4271 56.25C48.8669 56.25 50.2477 55.6781 51.2657 54.66C52.2838 53.642 52.8557 52.2612 52.8557 50.8215V44.7143M47.4271 56.25C47.4271 57.1499 47.0697 58.0129 46.4334 58.6492C45.7971 59.2854 44.9341 59.6429 44.0343 59.6429H39.9629C39.063 59.6429 38.2 59.2854 37.5637 58.6492C36.9275 58.0129 36.57 57.1499 36.57 56.25C36.57 55.3502 36.9275 54.4872 37.5637 53.8509C38.2 53.2146 39.063 52.8572 39.9629 52.8572H44.0343C44.9341 52.8572 45.7971 53.2146 46.4334 53.8509C47.0697 54.4872 47.4271 55.3502 47.4271 56.25ZM27.07 37.9286H29.7843C30.1442 37.9286 30.4894 38.0716 30.7439 38.3261C30.9984 38.5806 31.1414 38.9258 31.1414 39.2858V47.4286C31.1414 47.7885 30.9984 48.1337 30.7439 48.3883C30.4894 48.6428 30.1442 48.7858 29.7843 48.7858H27.07C26.3501 48.7858 25.6597 48.4998 25.1507 47.9908C24.6417 47.4817 24.3557 46.7913 24.3557 46.0715V40.6429C24.3557 39.923 24.6417 39.2326 25.1507 38.7236C25.6597 38.2146 26.3501 37.9286 27.07 37.9286ZM56.9271 48.7858H54.2129C53.8529 48.7858 53.5077 48.6428 53.2532 48.3883C52.9987 48.1337 52.8557 47.7885 52.8557 47.4286V39.2858C52.8557 38.9258 52.9987 38.5806 53.2532 38.3261C53.5077 38.0716 53.8529 37.9286 54.2129 37.9286H56.9271C57.647 37.9286 58.3374 38.2146 58.8464 38.7236C59.3555 39.2326 59.6414 39.923 59.6414 40.6429V46.0715C59.6414 46.7913 59.3555 47.4817 58.8464 47.9908C58.3374 48.4998 57.647 48.7858 56.9271 48.7858Z" stroke="white" stroke-width="2.71429" stroke-linecap="round" stroke-linejoin="round"/>
</g>
<defs>
<clipPath id="clip0_2807_42857">
<rect width="38" height="38" fill="white" transform="translate(23 23)"/>
</clipPath>
</defs>
</svg>
