<svg width="20" height="20" viewBox="0 0 20 20" fill="none" xmlns="http://www.w3.org/2000/svg">
<g id="Iconsax/Bold/messages3">
<path id="Vector" d="M12.8608 10.3186V13.5617C12.8608 13.8486 12.8289 14.1195 12.7572 14.3665C12.4623 15.5378 11.4902 16.2709 10.1514 16.2709H7.98391L5.57734 17.8725C5.49667 17.9278 5.4024 17.9598 5.30478 17.9652C5.20717 17.9706 5.10994 17.9491 5.02368 17.9031C4.93742 17.8571 4.86542 17.7883 4.81551 17.7043C4.76561 17.6202 4.73971 17.5241 4.74062 17.4263V16.2709C3.92781 16.2709 3.25047 16 2.78031 15.5299C2.30219 15.0518 2.03125 14.3745 2.03125 13.5617V10.3186C2.03125 8.80462 2.97156 7.76077 4.42187 7.62531C4.52547 7.61734 4.62906 7.60938 4.74062 7.60938H10.1514C11.777 7.60938 12.8608 8.69306 12.8608 10.3186Z" fill="#3769FF"/>
<path id="Vector_2" d="M14.582 12.8681C15.5941 12.8681 16.4467 12.5335 17.0364 11.9358C17.6341 11.3462 17.9688 10.4936 17.9688 9.48161V5.41778C17.9688 3.54523 16.4547 2.03125 14.582 2.03125H7.80859C5.93594 2.03125 4.42188 3.54523 4.42188 5.41778V6.0154C4.42188 6.23851 4.59719 6.41382 4.82031 6.41382H10.1514C12.3109 6.41382 14.0561 8.15887 14.0561 10.3183V12.4697C14.0561 12.6928 14.2314 12.8681 14.4545 12.8681H14.582Z" fill="#3769FF"/>
</g>
</svg>
