<svg width="20" height="20" viewBox="0 0 20 20" fill="none" xmlns="http://www.w3.org/2000/svg">
<g id="Iconsax/Bold/call">
<path id="Vector" d="M9.24306 12.3503L7.76891 13.8245C7.45814 14.1352 6.9641 14.1352 6.64537 13.8324C6.55772 13.7448 6.47006 13.6651 6.38241 13.5774C5.57662 12.7663 4.83344 11.8952 4.15923 10.9718C3.50583 10.0634 2.97991 9.15498 2.59743 8.25455C2.22292 7.34616 2.03168 6.47761 2.03168 5.64889C2.03168 5.10704 2.1273 4.5891 2.31854 4.111C2.50978 3.62493 2.81258 3.1787 3.2349 2.78028C3.74488 2.27827 4.30267 2.03125 4.89233 2.03125C5.11544 2.03125 5.33855 2.07906 5.53776 2.17468C5.74494 2.2703 5.92821 2.41373 6.07165 2.62091L7.92031 5.22657C8.06374 5.42578 8.16733 5.60905 8.23904 5.78436C8.31076 5.95169 8.3506 6.11903 8.3506 6.27043C8.3506 6.46167 8.29482 6.65291 8.18327 6.83618C8.07968 7.01946 7.92828 7.2107 7.73704 7.40194L7.13144 8.03144C7.04379 8.11909 7.00395 8.22268 7.00395 8.35017C7.00395 8.41392 7.01191 8.4697 7.02785 8.53345C7.05176 8.59719 7.07566 8.645 7.0916 8.69281C7.23503 8.95577 7.48205 9.29841 7.83266 9.71277C8.19123 10.1271 8.57372 10.5494 8.98807 10.9718C9.06776 11.0515 9.15541 11.1311 9.23509 11.2108C9.55383 11.5216 9.5618 12.0316 9.24306 12.3503ZM17.9445 15.0436C17.9435 15.3443 17.8754 15.641 17.7453 15.9122C17.6099 16.199 17.4346 16.47 17.2035 16.7249C16.813 17.1552 16.3827 17.466 15.8967 17.6652C15.8887 17.6652 15.8807 17.6732 15.8728 17.6732C15.4026 17.8644 14.8926 17.968 14.3428 17.968C13.53 17.968 12.6615 17.7768 11.7451 17.3863C10.8288 16.9959 9.9124 16.47 9.00401 15.8086C8.69324 15.5775 8.38248 15.3464 8.08765 15.0994L10.6933 12.4937C10.9164 12.6611 11.1156 12.7886 11.283 12.8762C11.3228 12.8922 11.3706 12.9161 11.4264 12.94C11.4901 12.9639 11.5539 12.9718 11.6256 12.9718C11.7611 12.9718 11.8647 12.924 11.9523 12.8364L12.5579 12.2387C12.7571 12.0395 12.9484 11.8881 13.1316 11.7925C13.3149 11.681 13.4982 11.6252 13.6974 11.6252C13.8488 11.6252 14.0082 11.6571 14.1835 11.7288C14.3588 11.8005 14.542 11.9041 14.7412 12.0395L17.3788 13.9121C17.586 14.0555 17.7294 14.2229 17.817 14.4221C17.8967 14.6213 17.9445 14.8205 17.9445 15.0436Z" fill="#3769FF"/>
</g>
</svg>
