<svg width="20" height="20" viewBox="0 0 20 20" fill="none" xmlns="http://www.w3.org/2000/svg">
<g id="ic:round-email">
<path id="Vector" d="M16.3828 3.625H3.63281C2.75625 3.625 2.04703 4.34219 2.04703 5.21875L2.03906 14.7812C2.03906 15.6578 2.75625 16.375 3.63281 16.375H16.3828C17.2594 16.375 17.9766 15.6578 17.9766 14.7812V5.21875C17.9766 4.34219 17.2594 3.625 16.3828 3.625ZM16.0641 7.01172L10.4302 10.5339C10.1752 10.6933 9.84047 10.6933 9.58547 10.5339L3.95156 7.01172C3.87166 6.96686 3.80169 6.90626 3.74588 6.83358C3.69007 6.7609 3.6496 6.67765 3.6269 6.58887C3.6042 6.5001 3.59974 6.40763 3.61381 6.31709C3.62788 6.22654 3.66017 6.13979 3.70874 6.06208C3.75731 5.98438 3.82113 5.91733 3.89636 5.86501C3.97159 5.81269 4.05665 5.77617 4.1464 5.75767C4.23614 5.73918 4.32871 5.73908 4.4185 5.7574C4.50828 5.77571 4.59342 5.81205 4.66875 5.86422L10.0078 9.20312L15.3469 5.86422C15.4222 5.81205 15.5073 5.77571 15.5971 5.7574C15.6869 5.73908 15.7795 5.73918 15.8692 5.75767C15.959 5.77617 16.044 5.81269 16.1193 5.86501C16.1945 5.91733 16.2583 5.98438 16.3069 6.06208C16.3555 6.13979 16.3877 6.22654 16.4018 6.31709C16.4159 6.40763 16.4114 6.5001 16.3887 6.58887C16.366 6.67765 16.3256 6.7609 16.2697 6.83358C16.2139 6.90626 16.144 6.96686 16.0641 7.01172Z" fill="#3769FF"/>
</g>
</svg>
