<svg width="40" height="40" viewBox="0 0 40 40" fill="none" xmlns="http://www.w3.org/2000/svg">
<path d="M25.1248 30.3749C24.1526 30.3749 23.3332 30.0346 22.6665 29.3541C21.9998 28.6735 21.6665 27.861 21.6665 26.9166C21.6665 25.9444 22.0068 25.1249 22.6873 24.4583C23.3679 23.7916 24.1804 23.4583 25.1248 23.4583C26.0971 23.4583 26.9165 23.7985 27.5832 24.4791C28.2498 25.1596 28.5832 25.9721 28.5832 26.9166C28.5832 27.8888 28.2429 28.7083 27.5623 29.3749C26.8818 30.0416 26.0693 30.3749 25.1248 30.3749Z" fill="white"/>
<path d="M8.95817 34.9998C8.31928 34.9998 7.77762 34.7775 7.33317 34.3331C6.88873 33.8886 6.6665 33.347 6.6665 32.7081V10.2498C6.6665 9.61087 6.88873 9.0692 7.33317 8.62476C7.77762 8.18031 8.31928 7.95809 8.95817 7.95809H12.4165V4.62476H13.9165V7.95809H26.2082V4.62476H27.6248V7.95809H31.0415C31.6804 7.95809 32.2221 8.18031 32.6665 8.62476C33.1109 9.0692 33.3332 9.61087 33.3332 10.2498V32.7081C33.3332 33.347 33.1109 33.8886 32.6665 34.3331C32.2221 34.7775 31.6804 34.9998 31.0415 34.9998H8.95817ZM8.95817 33.7081H31.0415C31.2915 33.7081 31.5207 33.6039 31.729 33.3956C31.9373 33.1873 32.0415 32.9581 32.0415 32.7081V17.4998H7.95817V32.7081C7.95817 32.9581 8.06234 33.1873 8.27067 33.3956C8.479 33.6039 8.70817 33.7081 8.95817 33.7081ZM7.95817 16.2081H32.0415V10.2498C32.0415 9.99976 31.9373 9.77059 31.729 9.56226C31.5207 9.35392 31.2915 9.24976 31.0415 9.24976H8.95817C8.70817 9.24976 8.479 9.35392 8.27067 9.56226C8.06234 9.77059 7.95817 9.99976 7.95817 10.2498V16.2081Z" fill="white"/>
</svg>
