<svg width="40" height="40" viewBox="0 0 40 40" fill="none" xmlns="http://www.w3.org/2000/svg">
<path opacity="0.4" d="M20.0006 22.3836C21.3797 22.3839 22.7024 21.8362 23.6778 20.8612C24.6531 19.8862 25.2012 18.5636 25.2014 17.1845C25.2016 15.8054 24.654 14.4826 23.679 13.5073C22.7039 12.5319 21.3814 11.9839 20.0022 11.9836C18.6231 11.9836 17.3005 12.5315 16.3253 13.5067C15.3501 14.4819 14.8022 15.8045 14.8022 17.1836C14.8022 18.5628 15.3501 19.8854 16.3253 20.8606C17.3005 21.8358 18.6231 22.3836 20.0022 22.3836H20.0006Z" stroke="white" stroke-width="2.5"/>
<path d="M6.03203 14.1504C9.31537 -0.282923 30.6987 -0.266256 33.9654 14.1671C35.882 22.6337 30.6154 29.8004 25.9987 34.2337C24.3855 35.7896 22.2316 36.6591 19.9904 36.6591C17.7491 36.6591 15.5952 35.7896 13.982 34.2337C9.38204 29.8004 4.11537 22.6171 6.03203 14.1504Z" stroke="white" stroke-width="2.5"/>
</svg>
