<svg width="40" height="52" viewBox="0 0 40 52" fill="none" xmlns="http://www.w3.org/2000/svg">
<path d="M21.7975 20.8324L15.4434 14.2179V13.0199H18.4382C19.5319 13.0199 20.5258 12.6771 21.4199 11.9913C22.314 11.3055 22.7697 10.2856 22.7871 8.9314H14.2715V8.1241H22.7611C22.5701 7.22133 22.0753 6.47046 21.2767 5.8715C20.4781 5.27254 19.5319 4.97306 18.4382 4.97306H14.2715V4.16577H25.7298V4.97306H21.3288C21.9017 5.2682 22.3878 5.71525 22.7871 6.31421C23.1864 6.91317 23.4382 7.51647 23.5423 8.1241H25.7298V8.9314H23.5684C23.5684 10.4592 23.0519 11.6571 22.0189 12.5251C20.9859 13.3932 19.7923 13.8272 18.4382 13.8272H16.1725L22.9173 20.8324H21.7975Z" fill="white"/>
<rect x="14.231" y="8.09546" width="11.5011" height="0.814819" fill="white"/>
<path d="M4.99919 36.667L13.5325 28.1337C14.4693 27.1957 15.7402 26.6682 17.0659 26.667H21.6659C22.5499 26.667 23.3978 27.0182 24.0229 27.6433C24.648 28.2685 24.9992 29.1163 24.9992 30.0004C24.9992 30.8844 24.648 31.7323 24.0229 32.3574C23.3978 32.9825 22.5499 33.3337 21.6659 33.3337H17.4992M24.1659 32.2004L31.1159 24.0504C31.6528 23.4552 32.3974 23.0884 33.1965 23.0255C33.9957 22.9626 34.7885 23.2084 35.4119 23.7123C36.0353 24.2162 36.442 24.9398 36.5481 25.7343C36.6542 26.5288 36.4518 27.3338 35.9825 27.9837L28.9825 37.8837C28.5242 38.533 27.9178 39.0637 27.2135 39.4318C26.5092 39.7999 25.7272 39.9948 24.9325 40.0004H16.3825C15.9427 40 15.5071 40.0867 15.1009 40.2555C14.6947 40.4242 14.3259 40.6717 14.0159 40.9837L11.6659 43.3337M3.33252 35.0004L13.3325 45.0004" stroke="white" stroke-width="1.66667" stroke-linecap="round" stroke-linejoin="round"/>
</svg>
