<svg width="40" height="40" viewBox="0 0 40 40" fill="none" xmlns="http://www.w3.org/2000/svg">
<path d="M15.5835 13.75V12.4583H24.5002V13.75H15.5835ZM15.5835 19.0417V17.75H24.5002V19.0417H15.5835ZM28.3335 14.1667C28.0557 14.1667 27.8057 14.0625 27.5835 13.8542C27.3613 13.6458 27.2502 13.3889 27.2502 13.0833C27.2502 12.8056 27.3613 12.5556 27.5835 12.3333C27.8057 12.1111 28.0557 12 28.3335 12C28.6113 12 28.8613 12.1111 29.0835 12.3333C29.3057 12.5556 29.4168 12.8056 29.4168 13.0833C29.4168 13.3889 29.3057 13.6458 29.0835 13.8542C28.8613 14.0625 28.6113 14.1667 28.3335 14.1667ZM28.3335 19.375C28.0557 19.375 27.8057 19.2639 27.5835 19.0417C27.3613 18.8194 27.2502 18.5694 27.2502 18.2917C27.2502 17.9861 27.3613 17.7222 27.5835 17.5C27.8057 17.2778 28.0557 17.1667 28.3335 17.1667C28.6113 17.1667 28.8613 17.2778 29.0835 17.5C29.3057 17.7222 29.4168 17.9861 29.4168 18.2917C29.4168 18.5694 29.3057 18.8194 29.0835 19.0417C28.8613 19.2639 28.6113 19.375 28.3335 19.375Z" fill="white"/>
<path d="M9.66667 35C8.80556 35 8.08333 34.7014 7.5 34.1042C6.91667 33.5069 6.625 32.7917 6.625 31.9583V28.5417H11.75V5.625L13.8333 7.125L16.0417 5.625L18.2083 7.125L20.375 5.625L22.5417 7.125L24.75 5.625L26.9167 7.125L29.0833 5.625L31.2917 7.125L33.375 5.625V31.9583C33.375 32.7917 33.0833 33.5069 32.5 34.1042C31.9167 34.7014 31.1944 35 30.3333 35H9.66667ZM30.3333 33.7083C30.8333 33.7083 31.2569 33.5417 31.6042 33.2083C31.9514 32.875 32.125 32.4583 32.125 31.9583V7.95833H13V28.5417H28.5833V31.9583C28.5833 32.4583 28.75 32.875 29.0833 33.2083C29.4167 33.5417 29.8333 33.7083 30.3333 33.7083ZM9.625 33.7083H27.2917V29.7917H7.875V31.9583C7.875 32.4583 8.04861 32.875 8.39583 33.2083C8.74306 33.5417 9.15278 33.7083 9.625 33.7083Z" fill="white"/>
</svg>
