<svg width="40" height="40" viewBox="0 0 40 40" fill="none" xmlns="http://www.w3.org/2000/svg">
<path d="M13.0832 18.6457C13.4165 18.6457 13.7082 18.5207 13.9582 18.2707C14.2082 18.0207 14.3332 17.729 14.3332 17.3957C14.3332 17.0346 14.2082 16.729 13.9582 16.479C13.7082 16.229 13.4165 16.104 13.0832 16.104C12.7221 16.104 12.4165 16.229 12.1665 16.479C11.9165 16.729 11.7915 17.0346 11.7915 17.3957C11.7915 17.729 11.9165 18.0207 12.1665 18.2707C12.4165 18.5207 12.7221 18.6457 13.0832 18.6457ZM20.0415 18.6457C20.4026 18.6457 20.7082 18.5207 20.9582 18.2707C21.2082 18.0207 21.3332 17.729 21.3332 17.3957C21.3332 17.0346 21.2082 16.729 20.9582 16.479C20.7082 16.229 20.4026 16.104 20.0415 16.104C19.7082 16.104 19.4165 16.229 19.1665 16.479C18.9165 16.729 18.7915 17.0346 18.7915 17.3957C18.7915 17.729 18.9165 18.0207 19.1665 18.2707C19.4165 18.5207 19.7082 18.6457 20.0415 18.6457ZM26.9165 18.6457C27.2498 18.6457 27.5484 18.5207 27.8123 18.2707C28.0762 18.0207 28.2082 17.729 28.2082 17.3957C28.2082 17.0346 28.0762 16.729 27.8123 16.479C27.5484 16.229 27.2498 16.104 26.9165 16.104C26.5832 16.104 26.2846 16.229 26.0207 16.479C25.7568 16.729 25.6248 17.0346 25.6248 17.3957C25.6248 17.729 25.7568 18.0207 26.0207 18.2707C26.2846 18.5207 26.5832 18.6457 26.9165 18.6457Z" fill="white"/>
<path d="M5 34.2293V8.06266C5 7.42377 5.22222 6.88211 5.66667 6.43766C6.11111 5.99322 6.65278 5.771 7.29167 5.771H32.7083C33.3472 5.771 33.8889 5.99322 34.3333 6.43766C34.7778 6.88211 35 7.42377 35 8.06266V26.8127C35 27.4516 34.7778 27.9932 34.3333 28.4377C33.8889 28.8821 33.3472 29.1043 32.7083 29.1043H10.125L5 34.2293ZM6.29167 31.1043L9.58333 27.8127H32.7083C32.9861 27.8127 33.2222 27.7154 33.4167 27.521C33.6111 27.3265 33.7083 27.0904 33.7083 26.8127V8.06266C33.7083 7.78488 33.6111 7.54877 33.4167 7.35433C33.2222 7.15989 32.9861 7.06266 32.7083 7.06266H7.29167C7.01389 7.06266 6.77778 7.15989 6.58333 7.35433C6.38889 7.54877 6.29167 7.78488 6.29167 8.06266V31.1043ZM6.29167 8.06266V7.06266V31.1043V8.06266Z" fill="white"/>
</svg>
