<svg width="20" height="27" viewBox="0 0 20 27" fill="none" xmlns="http://www.w3.org/2000/svg">
<path d="M12.8752 26.6667L2.7085 16.0833V14.1667H7.50016C9.25016 14.1667 10.8404 13.6181 12.271 12.5208C13.7016 11.4236 14.4307 9.79167 14.4585 7.625H0.833496V6.33333H14.4168C14.1113 4.88889 13.3196 3.6875 12.0418 2.72917C10.7641 1.77083 9.25016 1.29167 7.50016 1.29167H0.833496V0H19.1668V1.29167H12.1252C13.0418 1.76389 13.8196 2.47917 14.4585 3.4375C15.0974 4.39583 15.5002 5.36111 15.6668 6.33333H19.1668V7.625H15.7085C15.7085 10.0694 14.8821 11.9861 13.2293 13.375C11.5766 14.7639 9.66683 15.4583 7.50016 15.4583H3.87516L14.6668 26.6667H12.8752Z" fill="white"/>
</svg>
