<svg width="200" height="60" viewBox="0 0 200 60" fill="none" xmlns="http://www.w3.org/2000/svg">
<path d="M191.715 59.7041H7.85442C3.80953 59.7041 0.5 56.3893 0.5 52.3378V8.1398C0.5 4.08828 3.80947 0.773438 7.85442 0.773438H191.715C195.759 0.773438 199.069 4.08828 199.069 8.1398V52.3377C199.069 56.3893 195.76 59.7041 191.715 59.7041" fill="black"/>
<path d="M191.715 0.773438H7.85442C3.80953 0.773438 0.5 4.08828 0.5 8.1398V52.3377C0.5 56.3893 3.80947 59.7041 7.85442 59.7041H191.715C195.759 59.7041 199.069 56.3893 199.069 52.3378V8.1398C199.069 4.08828 195.76 0.773438 191.715 0.773438M191.715 1.95201C195.121 1.95201 197.892 4.72829 197.892 8.1398V52.3377C197.892 55.7499 195.121 58.5261 191.715 58.5261H7.85442C4.44848 58.5261 1.67672 55.7498 1.67672 52.3378V8.1398C1.67672 4.72829 4.44841 1.95208 7.85442 1.95208H191.715" fill="#A6A6A6"/>
<path d="M70.2473 15.8651C70.2473 17.0994 69.8823 18.0824 69.1515 18.8156C68.3212 19.6875 67.2393 20.1237 65.9091 20.1237C64.6353 20.1237 63.5523 19.6818 62.6617 18.7966C61.7695 17.9121 61.3242 16.8152 61.3242 15.5065C61.3242 14.1972 61.7695 13.101 62.6617 12.2158C63.5523 11.3313 64.6353 10.8887 65.9091 10.8887C66.5412 10.8887 67.1463 11.0125 67.7208 11.2594C68.2953 11.5069 68.7562 11.8354 69.1009 12.2469L68.3252 13.0243C67.7409 12.3251 66.9365 11.9758 65.9091 11.9758C64.9802 11.9758 64.1769 12.3028 63.4989 12.9571C62.8209 13.612 62.4819 14.4614 62.4819 15.5065C62.4819 16.5517 62.8209 17.401 63.4989 18.056C64.1769 18.7103 64.9801 19.0372 65.9091 19.0372C66.8946 19.0372 67.7162 18.7085 68.3741 18.0502C68.8011 17.6214 69.048 17.0253 69.114 16.2598H65.9091V15.198H70.1857C70.227 15.4289 70.2471 15.6505 70.2471 15.8651" fill="white"/>
<path d="M70.2458 15.866H70.0987C70.0975 17.0721 69.7458 18.009 69.0459 18.7123L69.0444 18.7135L69.0437 18.7147C68.2399 19.5565 67.2067 19.9755 65.9076 19.9773C64.6679 19.9755 63.6301 19.5519 62.7636 18.6933C61.899 17.8329 61.4715 16.7826 61.4698 15.5073C61.4715 14.2315 61.899 13.1818 62.7636 12.322C63.6301 11.4628 64.6679 11.0386 65.9076 11.0368C66.5207 11.0368 67.1045 11.1567 67.6612 11.3954C68.2185 11.6361 68.6588 11.9514 68.9868 12.3428L69.0994 12.2477L68.9955 12.1436L68.2197 12.9216L68.3237 13.0252L68.437 12.9309C67.8255 12.1971 66.9673 11.8271 65.9077 11.8293C64.9442 11.8281 64.0967 12.173 63.3957 12.8521C62.6879 13.5334 62.3322 14.4306 62.3334 15.5073C62.3322 16.5842 62.6879 17.4813 63.3957 18.1627C64.0967 18.8418 64.9442 19.1866 65.9076 19.1854C66.9257 19.1872 67.7934 18.8412 68.4766 18.1552C68.9328 17.697 69.1914 17.0624 69.2592 16.2733L69.2729 16.1133H66.0547V15.3462H70.1842V15.1989L70.0394 15.2248C70.0796 15.4482 70.0986 15.6604 70.0986 15.866H70.3928C70.3928 15.642 70.3721 15.4119 70.329 15.1725L70.3072 15.0515H65.7606V16.408H69.1126V16.2606L68.9661 16.248C68.9012 16.9893 68.6656 17.5475 68.2686 17.947C67.6366 18.5777 66.8609 18.8889 65.9077 18.8907C65.0131 18.8895 64.2542 18.581 63.5997 17.9509C62.9516 17.323 62.6293 16.5214 62.6276 15.5073C62.6293 14.4933 62.9516 13.6917 63.5997 13.0638C64.2542 12.4336 65.0131 12.1252 65.9077 12.124C66.9023 12.1264 67.6533 12.4555 68.2112 13.1202L68.3147 13.2434L69.2035 12.3519L69.2988 12.2565L69.212 12.1533C68.8507 11.7218 68.3692 11.3793 67.7774 11.125C67.1844 10.87 66.5587 10.7422 65.9077 10.7422C64.6001 10.7411 63.4716 11.2014 62.5563 12.1125C61.6376 13.0218 61.1745 14.1648 61.1758 15.5073C61.1745 16.8493 61.6376 17.9929 62.5569 18.9028C63.4716 19.8133 64.6001 20.2731 65.9077 20.2719C67.2694 20.2731 68.3991 19.8201 69.2563 18.9183L69.1499 18.8164L69.254 18.9206C70.0159 18.1581 70.3939 17.128 70.3929 15.866H70.2457M77.0255 12.1735H73.0064V14.9763H76.6309V16.0384H73.0064V18.8412H77.0255V19.9271H71.8734V11.0876H77.0255V12.1735Z" fill="white"/>
<path d="M77.0296 12.1727V12.0254H72.8635V15.1228H76.4879V15.8899L72.8634 15.8903V18.9877H76.8825V19.779H72.0246V11.2341H76.8825V12.1727H77.0296V12.0254V12.1727H77.1767V10.9395H71.7305V20.0737H77.1767V18.6931H73.1576V16.185H76.782V14.8282H73.1576V12.32H77.1767V12.1727H77.0296ZM81.8117 19.9264H80.677V12.1727H78.212V11.0867H84.2766V12.1727H81.8117V19.9263" fill="white"/>
<path d="M81.8092 19.9264V19.779H80.8215V12.0254H78.3567V11.2342H84.127V12.0254H81.6622V19.9264H81.8092V19.779V19.9264H81.9563V12.32H84.4212V10.9395H78.0625V12.32H80.5274V20.0736H81.9563V19.9263H81.8092M88.6621 19.9264V11.0867H89.7957V19.9263H88.6621" fill="white"/>
<path d="M88.6588 19.9264H88.8059V11.2341H89.6453V19.779H88.6588V19.9264H88.8059H88.6588V20.0737H89.9394V10.9395H88.5117V20.0737H88.6588V19.9264M94.8226 19.9264H93.6879V12.1727H91.2231V11.0867H97.2876V12.1727H94.8226V19.9263" fill="white"/>
<path d="M94.8247 19.9264V19.779H93.837V12.0253H91.3723V11.2341H97.1425V12.0253H94.6777V19.9263H94.8247V19.779V19.9263H94.9718V12.32H97.4367V10.9394H91.0781V12.3199H93.5429V20.0736H94.9718V19.9262H94.8247M103.136 18.044C103.79 18.7063 104.589 19.0371 105.534 19.0371C106.479 19.0371 107.279 18.7063 107.931 18.044C108.585 17.3816 108.913 16.5348 108.913 15.5065C108.913 14.4782 108.585 13.6315 107.931 12.9691C107.279 12.3067 106.479 11.9758 105.534 11.9758C104.589 11.9758 103.79 12.3067 103.136 12.9691C102.484 13.6315 102.157 14.4782 102.157 15.5065C102.157 16.5348 102.484 17.3816 103.136 18.044ZM108.77 18.7839C107.902 19.6776 106.823 20.1237 105.534 20.1237C104.244 20.1237 103.165 19.6776 102.299 18.7839C101.431 17.8913 100.999 16.7986 100.999 15.5065C100.999 14.2144 101.431 13.1215 102.299 12.2291C103.165 11.3352 104.244 10.8887 105.534 10.8887C106.817 10.8887 107.893 11.3376 108.764 12.2348C109.635 13.132 110.07 14.2225 110.07 15.5065C110.07 16.7986 109.636 17.8913 108.77 18.7839Z" fill="white"/>
<path d="M103.144 18.0448L103.039 18.1484C103.717 18.8372 104.562 19.1872 105.541 19.1854C106.52 19.1872 107.367 18.8372 108.043 18.1484C108.725 17.4588 109.068 16.5668 109.067 15.5073C109.068 14.448 108.725 13.5559 108.043 12.8663C107.367 12.1775 106.52 11.8276 105.541 11.8293C104.562 11.8276 103.717 12.1775 103.039 12.8663C102.359 13.5559 102.015 14.448 102.017 15.5073C102.015 16.5667 102.359 17.4588 103.039 18.1484L103.144 18.0448L103.248 17.9412C102.624 17.3052 102.312 16.5052 102.311 15.5073C102.312 14.5095 102.624 13.7096 103.248 13.0735C103.878 12.4377 104.63 12.1258 105.541 12.124C106.452 12.1258 107.206 12.4377 107.834 13.0735C108.459 13.7096 108.771 14.5095 108.772 15.5073C108.771 16.5052 108.459 17.3052 107.834 17.9412C107.206 18.5771 106.452 18.8889 105.541 18.8907C104.63 18.8889 103.878 18.5771 103.248 17.9412L103.144 18.0448ZM108.777 18.7848L108.672 18.6824C107.829 19.5479 106.797 19.9755 105.541 19.9773C104.285 19.9755 103.254 19.5479 102.412 18.6824L102.408 18.6778L102.412 18.6824C101.57 17.8139 101.155 16.7666 101.154 15.5073C101.155 14.2481 101.57 13.2008 102.412 12.3323C103.254 11.4668 104.285 11.0386 105.541 11.0369C106.789 11.0386 107.818 11.4685 108.666 12.3386C109.511 13.2111 109.929 14.2568 109.931 15.5073C109.929 16.7666 109.512 17.8139 108.672 18.6824L108.777 18.7848L108.883 18.8871C109.775 17.9699 110.226 16.8321 110.225 15.5073C110.226 14.1901 109.773 13.0547 108.877 12.1333C107.981 11.2083 106.858 10.7406 105.541 10.7422C104.218 10.7406 103.092 11.2061 102.201 12.1275V12.1269C101.308 13.0448 100.858 14.1826 100.859 15.5073C100.858 16.8321 101.308 17.9699 102.201 18.8877L102.205 18.8919L102.201 18.8871C103.092 19.8086 104.218 20.2731 105.541 20.2719C106.865 20.2731 107.991 19.8086 108.883 18.8871L108.777 18.7848ZM111.669 19.9272V11.0875H113.049L117.338 17.9641H117.387L117.338 16.2606V11.0875H118.473V19.9271H117.29L112.802 12.7172H112.753L112.802 14.4213V19.9271H111.669" fill="white"/>
<path d="M111.666 19.9264H111.813V11.2341H112.964L117.254 18.1107H117.535L117.482 16.2577V11.2342H118.323V19.779H117.368L112.881 12.5692H112.599L112.652 14.423V19.779H111.666V19.9264H111.813H111.666V20.0737H112.946V14.4183L112.897 12.7125L112.75 12.7165V12.8638H112.799V12.7165L112.674 12.7949L117.205 20.0737H118.617V10.9395H117.188V16.2616L117.237 17.9673L117.384 17.9634V17.8161H117.335V17.9634L117.46 17.8852L113.128 10.9395H111.519V20.0737H111.666V19.9264M157.794 44.9719H160.538V26.5543H157.794L157.794 44.9719ZM182.515 33.1888L179.369 41.1737H179.274L176.009 33.1887H173.053L177.949 44.3492L175.157 50.5571H178.021L185.567 33.1887L182.515 33.1888ZM166.95 42.8801C166.05 42.8801 164.797 42.43 164.797 41.3159C164.797 39.8943 166.359 39.3494 167.706 39.3494C168.914 39.3494 169.48 39.61 170.214 39.9658C170.001 41.6715 168.534 42.8801 166.95 42.8801ZM167.281 32.7858C165.294 32.7858 163.236 33.6628 162.384 35.6058L164.82 36.6244C165.341 35.6058 166.31 35.2737 167.328 35.2737C168.747 35.2737 170.19 36.1272 170.214 37.6436V37.833C169.717 37.5486 168.653 37.1222 167.352 37.1222C164.726 37.1222 162.052 38.5672 162.052 41.2686C162.052 43.733 164.205 45.3207 166.618 45.3207C168.464 45.3207 169.48 44.4913 170.12 43.52H170.214V44.9415H172.863V37.8801C172.863 34.6108 170.427 32.7858 167.281 32.7858ZM150.319 35.4307H146.415V29.1177H150.319C152.371 29.1177 153.536 30.8193 153.536 32.2741C153.536 33.7014 152.371 35.4307 150.319 35.4307ZM150.248 26.5543H143.672V44.9719H146.415V37.9941H150.248C153.29 37.9941 156.28 35.7882 156.28 32.2741C156.28 28.7603 153.29 26.5543 150.248 26.5543ZM114.387 42.8834C112.49 42.8834 110.903 41.2934 110.903 39.1094C110.903 36.9024 112.49 35.2881 114.387 35.2881C116.259 35.2881 117.728 36.9024 117.728 39.1094C117.728 41.2934 116.259 42.8834 114.387 42.8834H114.387ZM117.538 34.22H117.443C116.827 33.4844 115.642 32.8199 114.149 32.8199C111.021 32.8199 108.154 35.573 108.154 39.1094C108.154 42.6222 111.021 45.3518 114.149 45.3518C115.642 45.3518 116.827 44.687 117.443 43.9279H117.538V44.8298C117.538 47.2274 116.259 48.509 114.197 48.509C112.515 48.509 111.472 47.2981 111.045 46.2777L108.652 47.2745C109.339 48.9359 111.164 50.9773 114.197 50.9773C117.42 50.9773 120.145 49.0781 120.145 44.45V33.1997H117.538V34.22ZM122.04 44.9719H124.789V26.5537H122.04V44.9719ZM128.841 38.8959C128.77 36.4747 130.713 35.2408 132.111 35.2408C133.202 35.2408 134.126 35.7864 134.433 36.5704L128.841 38.8959ZM137.372 36.8074C136.851 35.4066 135.263 32.8199 132.016 32.8199C128.794 32.8199 126.116 35.3594 126.116 39.0858C126.116 42.5987 128.77 45.3518 132.324 45.3518C135.192 45.3518 136.851 43.5953 137.538 42.5749L135.405 41.1505C134.695 42.1951 133.723 42.8834 132.324 42.8834C130.926 42.8834 129.931 42.2424 129.291 40.9848L137.656 37.5193L137.372 36.8074ZM70.729 34.7425V37.4007H77.0795C76.8899 38.8959 76.3923 39.9876 75.6339 40.7472C74.71 41.6732 73.2645 42.6936 70.7289 42.6936C66.8189 42.6936 63.7623 39.5369 63.7623 35.6206C63.7623 31.7045 66.8189 28.5474 70.729 28.5474C72.8381 28.5474 74.3779 29.3783 75.5155 30.4464L77.3875 28.5715C75.8 27.0521 73.6908 25.8892 70.729 25.8892C65.3734 25.8892 60.8711 30.2565 60.8711 35.6206C60.8711 40.9848 65.3734 45.3518 70.729 45.3518C73.6201 45.3518 75.8 44.4028 77.5059 42.6222C79.2595 40.8658 79.8048 38.3975 79.8048 36.404C79.8048 35.7864 79.7576 35.2173 79.6622 34.7425H70.729ZM87.0247 42.8834C85.1286 42.8834 83.4934 41.3169 83.4934 39.0858C83.4934 36.8309 85.1286 35.2881 87.0247 35.2881C88.9201 35.2881 90.5553 36.8309 90.5553 39.0858C90.5553 41.3169 88.9201 42.8834 87.0247 42.8834ZM87.0247 32.8199C83.5646 32.8199 80.7447 35.4543 80.7447 39.0858C80.7447 42.6936 83.5646 45.3518 87.0247 45.3518C90.4841 45.3518 93.3041 42.6936 93.3041 39.0858C93.3041 35.4543 90.4841 32.8199 87.0247 32.8199ZM100.723 42.8834C98.828 42.8834 97.1926 41.3169 97.1926 39.0858C97.1926 36.8309 98.828 35.2881 100.723 35.2881C102.619 35.2881 104.254 36.8309 104.254 39.0858C104.254 41.3169 102.619 42.8834 100.723 42.8834H100.723ZM100.723 32.8199C97.2634 32.8199 94.444 35.4543 94.444 39.0858C94.444 42.6936 97.2634 45.3518 100.723 45.3518C104.183 45.3518 107.003 42.6936 107.003 39.0858C107.003 35.4543 104.183 32.8199 100.723 32.8199H100.723Z" fill="white"/>
<path d="M15.9562 11.988C15.4626 12.4341 15.168 13.1781 15.168 14.1657V13.9425V46.5328V46.3181C15.168 47.2302 15.4207 47.9346 15.8487 48.3882L15.9579 48.4929V48.4934C16.3044 48.8065 16.7486 48.9728 17.2577 48.9722C17.7551 48.9722 18.3148 48.8134 18.9055 48.478L40.2556 36.3275L47.5893 32.1534C48.5207 31.6234 49.0435 30.9397 49.1309 30.2433V30.2405C49.0435 29.5425 48.5207 28.8593 47.5893 28.3293L40.255 24.1557L18.9056 12.0052C18.3136 11.6692 17.7535 11.5098 17.2548 11.5098C16.7463 11.5098 16.3026 11.6755 15.9564 11.988H15.9562Z" fill="#00C1FF"/>
<path d="M15.958 48.4922L15.8487 48.3874C15.4207 47.9339 15.168 47.2295 15.168 46.3174V46.532V13.9498V14.165C15.168 13.1774 15.4626 12.4334 15.9562 11.9873L34.1802 30.2403L15.958 48.4922Z" fill="url(#paint0_linear_3804_84347)"/>
<path d="M40.2552 36.3262L34.1797 30.2398L40.2546 24.1544L47.5888 28.3279C48.5202 28.858 49.0431 29.5411 49.1305 30.2392V30.242C49.0431 30.9384 48.5202 31.6222 47.5888 32.1521L40.2552 36.3261" fill="url(#paint1_linear_3804_84347)"/>
<path d="M17.2566 48.9707C16.7476 48.9712 16.3034 48.8048 15.957 48.4918V48.4913L34.1792 30.2395L40.2547 36.3258L18.9045 48.4764C18.3138 48.8119 17.7541 48.9707 17.2566 48.9707Z" fill="url(#paint2_linear_3804_84347)"/>
<path d="M34.181 30.2422L15.957 11.9892C16.3035 11.6766 16.7471 11.5109 17.2555 11.5109C17.7543 11.5109 18.3144 11.6703 18.9063 12.0064L40.2559 24.1568L34.181 30.2422" fill="url(#paint3_linear_3804_84347)"/>
<path d="M17.2571 49.1875C16.7481 49.1875 16.3033 49.0212 15.9568 48.7081L15.9562 48.7087C15.9548 48.7072 15.9533 48.7059 15.9517 48.7047L15.8569 48.612C15.8539 48.6091 15.8512 48.6057 15.8477 48.6023L15.9569 48.4929C16.3033 48.8059 16.7475 48.9722 17.2566 48.9716C17.754 48.9716 18.3137 48.8129 18.9044 48.4774L40.2545 36.3269L40.3913 36.464L40.2528 36.5428L18.9043 48.6926C18.366 48.9982 17.854 49.1576 17.3915 49.1841C17.3467 49.1863 17.3019 49.1874 17.2571 49.1874" fill="url(#paint4_linear_3804_84347)"/>
<path d="M15.8487 48.6016C15.4207 48.148 15.168 47.4442 15.168 46.5315V46.3168C15.168 47.2289 15.4207 47.9333 15.8487 48.3869L15.9579 48.4917L15.8487 48.6016Z" fill="white"/>
<path d="M40.3946 36.4628L40.2578 36.3258L47.5914 32.1518C48.5228 31.6219 49.0457 30.9381 49.1331 30.2417C49.1331 30.4972 49.0762 30.7528 48.9631 31.0014C48.7349 31.5027 48.2777 31.9763 47.5915 32.367L40.3946 36.4629" fill="url(#paint5_linear_3804_84347)"/>
<path d="M49.1337 30.2422C49.0463 29.5441 48.5234 28.861 47.5921 28.3309L40.2578 24.1574L40.3946 24.0204H40.3952L47.5921 28.1162C48.6189 28.701 49.1331 29.4715 49.1337 30.2422Z" fill="url(#paint6_linear_3804_84347)"/>
<path d="M15.168 14.166V13.9409C15.168 13.8597 15.1702 13.7803 15.1743 13.7033V13.6997C15.1743 13.6987 15.1743 13.6976 15.1747 13.6964V13.6877C15.219 12.9021 15.4626 12.2893 15.8487 11.8801L15.9562 11.9882C15.4626 12.4344 15.168 13.1784 15.168 14.166Z" fill="url(#paint7_linear_3804_84347)"/>
<path d="M40.2539 24.1562L18.9044 12.0056C18.3125 11.6696 17.7524 11.5103 17.2537 11.5103C16.7452 11.5103 16.3015 11.676 15.9552 11.9885L15.8477 11.8803C15.8812 11.8447 15.9161 11.8104 15.9523 11.7774C15.9534 11.7762 15.9552 11.775 15.9563 11.7738C16.2999 11.4637 16.7389 11.298 17.2428 11.295H17.2537C17.7524 11.295 18.3125 11.4544 18.9044 11.7906L40.3913 24.0187L40.3907 24.0192L40.2539 24.1562Z" fill="url(#paint8_linear_3804_84347)"/>
<defs>
<linearGradient id="paint0_linear_3804_84347" x1="26.8142" y1="13.6055" x2="11.1091" y2="29.3357" gradientUnits="userSpaceOnUse">
<stop stop-color="#00A0FF"/>
<stop offset="0.00657" stop-color="#00A1FF"/>
<stop offset="0.2601" stop-color="#00BEFF"/>
<stop offset="0.5122" stop-color="#00D2FF"/>
<stop offset="0.7604" stop-color="#00DFFF"/>
<stop offset="1" stop-color="#00E3FF"/>
</linearGradient>
<linearGradient id="paint1_linear_3804_84347" x1="50.2652" y1="30.1346" x2="14.6743" y2="30.1346" gradientUnits="userSpaceOnUse">
<stop stop-color="#FFE000"/>
<stop offset="0.4087" stop-color="#FFBD00"/>
<stop offset="0.7754" stop-color="#FFA500"/>
<stop offset="1" stop-color="#FF9C00"/>
</linearGradient>
<linearGradient id="paint2_linear_3804_84347" x1="37.0291" y1="36.0262" x2="10.4157" y2="62.4875" gradientUnits="userSpaceOnUse">
<stop stop-color="#FF3A44"/>
<stop offset="1" stop-color="#C31162"/>
</linearGradient>
<linearGradient id="paint3_linear_3804_84347" x1="11.2602" y1="9.28306" x2="23.1212" y2="21.0945" gradientUnits="userSpaceOnUse">
<stop stop-color="#32A071"/>
<stop offset="0.0685" stop-color="#2DA771"/>
<stop offset="0.4762" stop-color="#15CF74"/>
<stop offset="0.8009" stop-color="#06E775"/>
<stop offset="1" stop-color="#00F076"/>
</linearGradient>
<linearGradient id="paint4_linear_3804_84347" x1="37.0158" y1="40.2491" x2="15.7025" y2="61.5967" gradientUnits="userSpaceOnUse">
<stop stop-color="#CC2E36"/>
<stop offset="1" stop-color="#9C0E4E"/>
</linearGradient>
<linearGradient id="paint5_linear_3804_84347" x1="50.2679" y1="30.2403" x2="14.6769" y2="30.2403" gradientUnits="userSpaceOnUse">
<stop stop-color="#E0C500"/>
<stop offset="0.4087" stop-color="#E0A600"/>
<stop offset="0.7754" stop-color="#E09100"/>
<stop offset="1" stop-color="#E08900"/>
</linearGradient>
<linearGradient id="paint6_linear_3804_84347" x1="50.2685" y1="30.2436" x2="14.6777" y2="30.2436" gradientUnits="userSpaceOnUse">
<stop stop-color="#FFE840"/>
<stop offset="0.4087" stop-color="#FFCE40"/>
<stop offset="0.7754" stop-color="#FFBC40"/>
<stop offset="1" stop-color="#FFB540"/>
</linearGradient>
<linearGradient id="paint7_linear_3804_84347" x1="17.5807" y1="13.6315" x2="4.25423" y2="26.4011" gradientUnits="userSpaceOnUse">
<stop stop-color="#40B8FF"/>
<stop offset="0.00657" stop-color="#40B9FF"/>
<stop offset="0.2601" stop-color="#40CEFF"/>
<stop offset="0.5122" stop-color="#40DDFF"/>
<stop offset="0.7604" stop-color="#40E7FF"/>
<stop offset="1" stop-color="#40EAFF"/>
</linearGradient>
<linearGradient id="paint8_linear_3804_84347" x1="11.2317" y1="13.1426" x2="20.7491" y2="22.6753" gradientUnits="userSpaceOnUse">
<stop stop-color="#65B895"/>
<stop offset="0.0685" stop-color="#62BD95"/>
<stop offset="0.4762" stop-color="#50DB97"/>
<stop offset="0.8009" stop-color="#44ED98"/>
<stop offset="1" stop-color="#40F498"/>
</linearGradient>
</defs>
</svg>
