<svg width="34" height="34" viewBox="0 0 34 34" fill="none" xmlns="http://www.w3.org/2000/svg">
<path d="M22 15.3324V15.3491M5.62167 10.9624C4.89066 10.4006 4.32924 9.6476 3.99943 8.78664C3.66963 7.92569 3.5843 6.99031 3.75286 6.08389C3.92142 5.17747 4.33732 4.3353 4.95459 3.65047C5.57185 2.96564 6.36645 2.46481 7.25056 2.20334C8.13466 1.94187 9.07385 1.92993 9.96432 2.16886C10.8548 2.40778 11.6618 2.88826 12.2963 3.55718C12.9308 4.22611 13.3679 5.05744 13.5595 5.95928C13.751 6.86113 13.6895 7.79837 13.3817 8.66743" stroke="black" stroke-width="3.33333" stroke-linecap="round" stroke-linejoin="round"/>
<path d="M23.6667 3.66602V10.0043C25.7292 11.198 27.2996 13.0868 28.0967 15.3327H30.3317C30.7737 15.3327 31.1976 15.5083 31.5102 15.8208C31.8227 16.1334 31.9983 16.5573 31.9983 16.9993V20.3327C31.9983 20.7747 31.8227 21.1986 31.5102 21.5112C31.1976 21.8238 30.7737 21.9993 30.3317 21.9993H28.095C27.535 23.5827 26.5833 24.9993 25.3317 26.121V29.4994C25.3317 30.1624 25.0683 30.7983 24.5994 31.2671C24.1306 31.736 23.4947 31.9994 22.8317 31.9994C22.1686 31.9994 21.5327 31.736 21.0639 31.2671C20.595 30.7983 20.3317 30.1624 20.3317 29.4994V28.5277C19.7809 28.6203 19.2234 28.6665 18.665 28.666H11.9983C11.4399 28.6665 10.8824 28.6203 10.3317 28.5277V29.4994C10.3317 30.1624 10.0683 30.7983 9.59942 31.2671C9.13058 31.736 8.49469 31.9994 7.83165 31.9994C7.16861 31.9994 6.53272 31.736 6.06388 31.2671C5.59504 30.7983 5.33165 30.1624 5.33165 29.4994V26.121C3.82159 24.771 2.75711 22.9942 2.27912 21.0258C1.80113 19.0574 1.93217 16.9903 2.65488 15.0981C3.3776 13.2058 4.65792 11.5776 6.32637 10.4291C7.99483 9.2805 9.97274 8.66569 11.9983 8.66602H16.165L23.6667 3.66602Z" stroke="black" stroke-width="3.33333" stroke-linecap="round" stroke-linejoin="round"/>
</svg>
