<svg width="41" height="52" viewBox="0 0 41 52" fill="none" xmlns="http://www.w3.org/2000/svg">
<path d="M22.2975 20.8327L15.9434 14.2181V13.0202H18.9382C20.0319 13.0202 21.0258 12.6773 21.9199 11.9915C22.814 11.3058 23.2697 10.2858 23.2871 8.93164H14.7715V8.12435H23.2611C23.0701 7.22157 22.5753 6.4707 21.7767 5.87174C20.9781 5.27279 20.0319 4.97331 18.9382 4.97331H14.7715V4.16602H26.2298V4.97331H21.8288C22.4017 5.26845 22.8878 5.71549 23.2871 6.31445C23.6864 6.91341 23.9382 7.51671 24.0423 8.12435H26.2298V8.93164H24.0684C24.0684 10.4594 23.5519 11.6573 22.5189 12.5254C21.4859 13.3934 20.2923 13.8275 18.9382 13.8275H16.6725L23.4173 20.8327H22.2975Z" fill="url(#paint0_linear_4198_672)"/>
<rect x="14.7305" y="8.0957" width="11.5011" height="0.814819" fill="url(#paint1_linear_4198_672)"/>
<path d="M5.4987 36.6677L14.032 28.1344C14.9688 27.1965 16.2397 26.6689 17.5654 26.6678H22.1654C23.0494 26.6678 23.8973 27.0189 24.5224 27.6441C25.1475 28.2692 25.4987 29.117 25.4987 30.0011C25.4987 30.8851 25.1475 31.733 24.5224 32.3581C23.8973 32.9832 23.0494 33.3344 22.1654 33.3344H17.9987M24.6654 32.2011L31.6154 24.0511C32.1523 23.4559 32.8969 23.0891 33.6961 23.0263C34.4952 22.9634 35.288 23.2092 35.9114 23.713C36.5349 24.2169 36.9415 24.9405 37.0476 25.7351C37.1537 26.5296 36.9513 27.3346 36.482 27.9844L29.482 37.8844C29.0238 38.5337 28.4173 39.0644 27.713 39.4325C27.0087 39.8006 26.2267 39.9955 25.432 40.0011H16.882C16.4422 40.0007 16.0066 40.0874 15.6004 40.2562C15.1942 40.425 14.8255 40.6725 14.5154 40.9844L12.1654 43.3344M3.83203 35.0011L13.832 45.0011" stroke="url(#paint2_linear_4198_672)" stroke-width="1.66667" stroke-linecap="round" stroke-linejoin="round"/>
<defs>
<linearGradient id="paint0_linear_4198_672" x1="17.8509" y1="12.4993" x2="23.3434" y2="12.5182" gradientUnits="userSpaceOnUse">
<stop stop-color="#583EE7"/>
<stop offset="0.484375" stop-color="#0EA0E6"/>
<stop offset="1" stop-color="#00B6AE"/>
</linearGradient>
<linearGradient id="paint1_linear_4198_672" x1="17.8214" y1="8.50311" x2="23.3072" y2="8.88916" gradientUnits="userSpaceOnUse">
<stop stop-color="#583EE7"/>
<stop offset="0.484375" stop-color="#0EA0E6"/>
<stop offset="1" stop-color="#00B6AE"/>
</linearGradient>
<linearGradient id="paint2_linear_4198_672" x1="12.7661" y1="34.0088" x2="28.7003" y2="34.129" gradientUnits="userSpaceOnUse">
<stop stop-color="#583EE7"/>
<stop offset="0.484375" stop-color="#0EA0E6"/>
<stop offset="1" stop-color="#00B6AE"/>
</linearGradient>
</defs>
</svg>
