<svg width="20" height="17" viewBox="0 0 20 17" fill="none" xmlns="http://www.w3.org/2000/svg">
<path d="M10.5 4H2.5C1.96957 4 1.46086 4.21071 1.08579 4.58579C0.710714 4.96086 0.5 5.46957 0.5 6V10C0.5 10.5304 0.710714 11.0391 1.08579 11.4142C1.46086 11.7893 1.96957 12 2.5 12H3.5V16C3.5 16.2652 3.60536 16.5196 3.79289 16.7071C3.98043 16.8946 4.23478 17 4.5 17H6.5C6.76522 17 7.01957 16.8946 7.20711 16.7071C7.39464 16.5196 7.5 16.2652 7.5 16V12H10.5L15.5 16V0L10.5 4ZM20 8C20 9.71 19.04 11.26 17.5 12V4C19.03 4.75 20 6.3 20 8Z" fill="#FE3131"/>
</svg>
