<svg width="23" height="28" viewBox="0 0 23 28" fill="none" xmlns="http://www.w3.org/2000/svg">
<path d="M14.1673 0.666992H3.50065C2.79341 0.666992 2.11513 0.947944 1.61503 1.44804C1.11494 1.94814 0.833984 2.62641 0.833984 3.33366V24.667C0.833984 25.3742 1.11494 26.0525 1.61503 26.5526C2.11513 27.0527 2.79341 27.3337 3.50065 27.3337H19.5007C20.2079 27.3337 20.8862 27.0527 21.3863 26.5526C21.8864 26.0525 22.1673 25.3742 22.1673 24.667V8.66699L14.1673 0.666992ZM8.16465 19.587C7.75265 19.9737 7.14465 20.147 6.43665 20.147C6.29937 20.1485 6.16216 20.1405 6.02598 20.123V22.0243H4.83398V16.7763C5.37192 16.6961 5.91548 16.6595 6.45932 16.667C7.20198 16.667 7.72998 16.8083 8.08598 17.0923C8.42465 17.3617 8.65398 17.803 8.65398 18.323C8.65265 18.8457 8.47932 19.287 8.16465 19.587ZM13.2407 21.3937C12.6807 21.859 11.8287 22.0803 10.7873 22.0803C10.1633 22.0803 9.72198 22.0403 9.42198 22.0003V16.7777C9.96012 16.6991 10.5035 16.6621 11.0473 16.667C12.0567 16.667 12.7127 16.8483 13.2247 17.235C13.778 17.6457 14.1247 18.3003 14.1247 19.2403C14.1247 20.2577 13.7527 20.9603 13.2407 21.3937ZM18.1673 17.6937H16.1247V18.9083H18.034V19.887H16.1247V22.0257H14.9167V16.707H18.1673V17.6937ZM14.1673 10.0003H12.834V3.33366L19.5007 10.0003H14.1673Z" fill="#E34242"/>
</svg>
