<svg width="31" height="30" viewBox="0 0 31 30" fill="none" xmlns="http://www.w3.org/2000/svg">
<path d="M8.58268 13.6462C8.91602 13.6462 9.20768 13.5212 9.45768 13.2712C9.70768 13.0212 9.83268 12.7295 9.83268 12.3962C9.83268 12.035 9.70768 11.7295 9.45768 11.4795C9.20768 11.2295 8.91602 11.1045 8.58268 11.1045C8.22157 11.1045 7.91602 11.2295 7.66602 11.4795C7.41602 11.7295 7.29102 12.035 7.29102 12.3962C7.29102 12.7295 7.41602 13.0212 7.66602 13.2712C7.91602 13.5212 8.22157 13.6462 8.58268 13.6462ZM15.541 13.6462C15.9021 13.6462 16.2077 13.5212 16.4577 13.2712C16.7077 13.0212 16.8327 12.7295 16.8327 12.3962C16.8327 12.035 16.7077 11.7295 16.4577 11.4795C16.2077 11.2295 15.9021 11.1045 15.541 11.1045C15.2077 11.1045 14.916 11.2295 14.666 11.4795C14.416 11.7295 14.291 12.035 14.291 12.3962C14.291 12.7295 14.416 13.0212 14.666 13.2712C14.916 13.5212 15.2077 13.6462 15.541 13.6462ZM22.416 13.6462C22.7493 13.6462 23.048 13.5212 23.3118 13.2712C23.5757 13.0212 23.7077 12.7295 23.7077 12.3962C23.7077 12.035 23.5757 11.7295 23.3118 11.4795C23.048 11.2295 22.7493 11.1045 22.416 11.1045C22.0827 11.1045 21.7841 11.2295 21.5202 11.4795C21.2563 11.7295 21.1243 12.035 21.1243 12.3962C21.1243 12.7295 21.2563 13.0212 21.5202 13.2712C21.7841 13.5212 22.0827 13.6462 22.416 13.6462Z" fill="url(#paint0_linear_4198_22514)"/>
<path d="M0.5 29.2288V3.06217C0.5 2.42329 0.722222 1.88162 1.16667 1.43717C1.61111 0.99273 2.15278 0.770508 2.79167 0.770508H28.2083C28.8472 0.770508 29.3889 0.99273 29.8333 1.43717C30.2778 1.88162 30.5 2.42329 30.5 3.06217V21.8122C30.5 22.4511 30.2778 22.9927 29.8333 23.4372C29.3889 23.8816 28.8472 24.1038 28.2083 24.1038H5.625L0.5 29.2288ZM1.79167 26.1038L5.08333 22.8122H28.2083C28.4861 22.8122 28.7222 22.715 28.9167 22.5205C29.1111 22.3261 29.2083 22.09 29.2083 21.8122V3.06217C29.2083 2.7844 29.1111 2.54829 28.9167 2.35384C28.7222 2.1594 28.4861 2.06217 28.2083 2.06217H2.79167C2.51389 2.06217 2.27778 2.1594 2.08333 2.35384C1.88889 2.54829 1.79167 2.7844 1.79167 3.06217V26.1038ZM1.79167 3.06217V2.06217V26.1038V3.06217Z" fill="url(#paint1_linear_4198_22514)"/>
<defs>
<linearGradient id="paint0_linear_4198_22514" x1="11.703" y1="12.3753" x2="19.5641" y2="12.6285" gradientUnits="userSpaceOnUse">
<stop stop-color="#583EE7"/>
<stop offset="0.484375" stop-color="#0EA0E6"/>
<stop offset="1" stop-color="#00B6AE"/>
</linearGradient>
<linearGradient id="paint1_linear_4198_22514" x1="8.5625" y1="14.9997" x2="22.9426" y2="15.0753" gradientUnits="userSpaceOnUse">
<stop stop-color="#583EE7"/>
<stop offset="0.484375" stop-color="#0EA0E6"/>
<stop offset="1" stop-color="#00B6AE"/>
</linearGradient>
</defs>
</svg>
