<svg width="30" height="36" viewBox="0 0 30 36" fill="none" xmlns="http://www.w3.org/2000/svg">
<path fill-rule="evenodd" clip-rule="evenodd" d="M15 0.0839844C12.9004 0.0839844 10.8867 0.918059 9.40206 2.40272C7.9174 3.88739 7.08332 5.90102 7.08332 8.00065C7.08332 10.1003 7.9174 12.1139 9.40206 13.5986C10.8867 15.0832 12.9004 15.9173 15 15.9173C17.0996 15.9173 19.1133 15.0832 20.5979 13.5986C22.0826 12.1139 22.9167 10.1003 22.9167 8.00065C22.9167 5.90102 22.0826 3.88739 20.5979 2.40272C19.1133 0.918059 17.0996 0.0839844 15 0.0839844ZM9.58332 8.00065C9.58332 6.56406 10.154 5.18631 11.1698 4.17049C12.1857 3.15467 13.5634 2.58398 15 2.58398C16.4366 2.58398 17.8143 3.15467 18.8302 4.17049C19.846 5.18631 20.4167 6.56406 20.4167 8.00065C20.4167 9.43724 19.846 10.815 18.8302 11.8308C17.8143 12.8466 16.4366 13.4173 15 13.4173C13.5634 13.4173 12.1857 12.8466 11.1698 11.8308C10.154 10.815 9.58332 9.43724 9.58332 8.00065ZM15 18.4173C11.145 18.4173 7.59166 19.294 4.95999 20.774C2.36666 22.234 0.416658 24.444 0.416658 27.1673V27.3373C0.414991 29.274 0.413325 31.704 2.54499 33.4407C3.59332 34.294 5.06166 34.9023 7.04499 35.3023C9.03166 35.7057 11.6233 35.9173 15 35.9173C18.3767 35.9173 20.9667 35.7057 22.9567 35.3023C24.94 34.9023 26.4067 34.294 27.4567 33.4407C29.5883 31.704 29.585 29.274 29.5833 27.3373V27.1673C29.5833 24.444 27.6333 22.234 25.0417 20.774C22.4083 19.294 18.8567 18.4173 15 18.4173ZM2.91666 27.1673C2.91666 25.749 3.95332 24.209 6.18499 22.954C8.37832 21.7207 11.4917 20.9173 15.0017 20.9173C18.5083 20.9173 21.6217 21.7207 23.815 22.954C26.0483 24.209 27.0833 25.749 27.0833 27.1673C27.0833 29.3473 27.0167 30.574 25.8767 31.5007C25.26 32.004 24.2267 32.4956 22.46 32.8523C20.6983 33.209 18.29 33.4173 15 33.4173C11.71 33.4173 9.29999 33.209 7.53999 32.8523C5.77332 32.4956 4.73999 32.004 4.12332 31.5023C2.98332 30.574 2.91666 29.3473 2.91666 27.1673Z" fill="black"/>
</svg>
