<svg width="40" height="40" viewBox="0 0 40 40" fill="none" xmlns="http://www.w3.org/2000/svg">
<path d="M38.9091 37.8182H34.1818V2.18182H36C36.2893 2.18182 36.5668 2.06688 36.7714 1.8623C36.976 1.65771 37.0909 1.38024 37.0909 1.09091C37.0909 0.801582 36.976 0.524105 36.7714 0.31952C36.5668 0.114935 36.2893 0 36 0H4C3.71067 0 3.4332 0.114935 3.22861 0.31952C3.02403 0.524105 2.90909 0.801582 2.90909 1.09091C2.90909 1.38024 3.02403 1.65771 3.22861 1.8623C3.4332 2.06688 3.71067 2.18182 4 2.18182H5.81818V37.8182H1.09091C0.801582 37.8182 0.524105 37.9331 0.31952 38.1377C0.114935 38.3423 0 38.6198 0 38.9091C0 39.1984 0.114935 39.4759 0.31952 39.6805C0.524105 39.8851 0.801582 40 1.09091 40H38.9091C39.1984 40 39.4759 39.8851 39.6805 39.6805C39.8851 39.4759 40 39.1984 40 38.9091C40 38.6198 39.8851 38.3423 39.6805 38.1377C39.4759 37.9331 39.1984 37.8182 38.9091 37.8182ZM8 2.18182H32V37.8182H25.4545V30.1818C25.4545 29.8925 25.3396 29.615 25.135 29.4104C24.9304 29.2058 24.653 29.0909 24.3636 29.0909H15.6364C15.347 29.0909 15.0696 29.2058 14.865 29.4104C14.6604 29.615 14.5455 29.8925 14.5455 30.1818V37.8182H8V2.18182ZM23.2727 37.8182H16.7273V31.2727H23.2727V37.8182ZM13.0909 8.36364C13.0909 8.07431 13.2058 7.79683 13.4104 7.59225C13.615 7.38766 13.8925 7.27273 14.1818 7.27273H17.0909C17.3802 7.27273 17.6577 7.38766 17.8623 7.59225C18.0669 7.79683 18.1818 8.07431 18.1818 8.36364C18.1818 8.65296 18.0669 8.93044 17.8623 9.13503C17.6577 9.33961 17.3802 9.45455 17.0909 9.45455H14.1818C13.8925 9.45455 13.615 9.33961 13.4104 9.13503C13.2058 8.93044 13.0909 8.65296 13.0909 8.36364ZM21.8182 8.36364C21.8182 8.07431 21.9331 7.79683 22.1377 7.59225C22.3423 7.38766 22.6198 7.27273 22.9091 7.27273H25.8182C26.1075 7.27273 26.385 7.38766 26.5896 7.59225C26.7942 7.79683 26.9091 8.07431 26.9091 8.36364C26.9091 8.65296 26.7942 8.93044 26.5896 9.13503C26.385 9.33961 26.1075 9.45455 25.8182 9.45455H22.9091C22.6198 9.45455 22.3423 9.33961 22.1377 9.13503C21.9331 8.93044 21.8182 8.65296 21.8182 8.36364ZM13.0909 15.6364C13.0909 15.347 13.2058 15.0696 13.4104 14.865C13.615 14.6604 13.8925 14.5455 14.1818 14.5455H17.0909C17.3802 14.5455 17.6577 14.6604 17.8623 14.865C18.0669 15.0696 18.1818 15.347 18.1818 15.6364C18.1818 15.9257 18.0669 16.2032 17.8623 16.4078C17.6577 16.6123 17.3802 16.7273 17.0909 16.7273H14.1818C13.8925 16.7273 13.615 16.6123 13.4104 16.4078C13.2058 16.2032 13.0909 15.9257 13.0909 15.6364ZM21.8182 15.6364C21.8182 15.347 21.9331 15.0696 22.1377 14.865C22.3423 14.6604 22.6198 14.5455 22.9091 14.5455H25.8182C26.1075 14.5455 26.385 14.6604 26.5896 14.865C26.7942 15.0696 26.9091 15.347 26.9091 15.6364C26.9091 15.9257 26.7942 16.2032 26.5896 16.4078C26.385 16.6123 26.1075 16.7273 25.8182 16.7273H22.9091C22.6198 16.7273 22.3423 16.6123 22.1377 16.4078C21.9331 16.2032 21.8182 15.9257 21.8182 15.6364ZM14.1818 24C13.8925 24 13.615 23.8851 13.4104 23.6805C13.2058 23.4759 13.0909 23.1984 13.0909 22.9091C13.0909 22.6198 13.2058 22.3423 13.4104 22.1377C13.615 21.9331 13.8925 21.8182 14.1818 21.8182H17.0909C17.3802 21.8182 17.6577 21.9331 17.8623 22.1377C18.0669 22.3423 18.1818 22.6198 18.1818 22.9091C18.1818 23.1984 18.0669 23.4759 17.8623 23.6805C17.6577 23.8851 17.3802 24 17.0909 24H14.1818ZM21.8182 22.9091C21.8182 22.6198 21.9331 22.3423 22.1377 22.1377C22.3423 21.9331 22.6198 21.8182 22.9091 21.8182H25.8182C26.1075 21.8182 26.385 21.9331 26.5896 22.1377C26.7942 22.3423 26.9091 22.6198 26.9091 22.9091C26.9091 23.1984 26.7942 23.4759 26.5896 23.6805C26.385 23.8851 26.1075 24 25.8182 24H22.9091C22.6198 24 22.3423 23.8851 22.1377 23.6805C21.9331 23.4759 21.8182 23.1984 21.8182 22.9091Z" fill="black"/>
</svg>
