<svg width="33" height="32" viewBox="0 0 33 32" fill="none" xmlns="http://www.w3.org/2000/svg">
<g clip-path="url(#clip0_4261_70243)">
<path d="M19.9577 3.55469H7.4599C7.01978 3.56634 6.60205 3.7512 6.29747 4.0691C5.99288 4.387 5.82605 4.81226 5.83323 5.25246V26.7458C5.82605 27.186 5.99288 27.6113 6.29747 27.9292C6.60205 28.2471 7.01978 28.4319 7.4599 28.4436H25.5399C25.98 28.4319 26.3977 28.2471 26.7023 27.9292C27.0069 27.6113 27.1737 27.186 27.1666 26.7458V10.5947L19.9577 3.55469ZM19.1666 11.5547V5.19024L25.6554 11.5547H19.1666Z" fill="#0D7B39"/>
<path d="M9.652 22L11.54 19.208L9.668 16.424H10.636L12.108 18.632L13.564 16.424H14.54L12.66 19.208L14.564 22H13.588L12.1 19.8L10.612 22H9.652ZM15.0709 22V16.424H15.8869V21.272H18.3429V22H15.0709ZM20.5673 22.096C19.9966 22.096 19.5273 21.9467 19.1593 21.648C18.7966 21.3493 18.5753 20.952 18.4953 20.456L19.2873 20.264C19.346 20.6267 19.4926 20.9013 19.7273 21.088C19.962 21.2747 20.25 21.368 20.5913 21.368C20.7886 21.368 20.962 21.3333 21.1113 21.264C21.266 21.1893 21.3886 21.0853 21.4793 20.952C21.57 20.8133 21.6153 20.6587 21.6153 20.488C21.6153 20.3067 21.5646 20.1573 21.4633 20.04C21.3673 19.9227 21.2286 19.8187 21.0473 19.728C20.8713 19.632 20.658 19.536 20.4073 19.44C20.082 19.3173 19.802 19.184 19.5673 19.04C19.338 18.896 19.1593 18.7253 19.0313 18.528C18.9086 18.3253 18.8473 18.0827 18.8473 17.8C18.8473 17.512 18.9166 17.2587 19.0553 17.04C19.1993 16.816 19.3993 16.64 19.6553 16.512C19.9113 16.384 20.2073 16.32 20.5433 16.32C20.9006 16.32 21.218 16.4027 21.4953 16.568C21.778 16.728 22.002 16.9707 22.1673 17.296L21.5193 17.696C21.402 17.4827 21.258 17.32 21.0873 17.208C20.922 17.096 20.7326 17.04 20.5193 17.04C20.354 17.04 20.2046 17.072 20.0713 17.136C19.9433 17.2 19.842 17.288 19.7673 17.4C19.698 17.5067 19.6633 17.6347 19.6633 17.784C19.6633 17.9387 19.706 18.072 19.7913 18.184C19.882 18.296 20.0126 18.3973 20.1833 18.488C20.3593 18.5733 20.578 18.664 20.8393 18.76C21.17 18.888 21.4526 19.0267 21.6873 19.176C21.922 19.32 22.1033 19.4933 22.2313 19.696C22.3593 19.8987 22.4233 20.1467 22.4233 20.44C22.4233 20.76 22.3433 21.0453 22.1833 21.296C22.0286 21.5413 21.8126 21.736 21.5353 21.88C21.258 22.024 20.9353 22.096 20.5673 22.096Z" fill="white"/>
</g>
<defs>
<clipPath id="clip0_4261_70243">
<rect width="32" height="32" fill="white" transform="translate(0.5)"/>
</clipPath>
</defs>
</svg>
