<svg width="28" height="21" viewBox="0 0 28 21" fill="none" xmlns="http://www.w3.org/2000/svg">
<path d="M0 17.1115C0 17.9367 0.327777 18.728 0.911223 19.3114C1.49467 19.8949 2.28599 20.2227 3.11111 20.2227H24.8889C25.714 20.2227 26.5053 19.8949 27.0888 19.3114C27.6722 18.728 28 17.9367 28 17.1115V13.2227H0V17.1115Z" fill="#138808"/>
<path d="M28 7V3.11111C28 2.28599 27.6722 1.49467 27.0888 0.911223C26.5053 0.327777 25.714 0 24.8889 0H3.11111C2.28599 0 1.49467 0.327777 0.911223 0.911223C0.327777 1.49467 0 2.28599 0 3.11111L0 7H28Z" fill="#FF9933"/>
<path d="M0 6.74219H28V13.4832H0V6.74219Z" fill="#F7F7F7"/>
<path d="M14.0017 13.2222C15.72 13.2222 17.1128 11.8293 17.1128 10.1111C17.1128 8.39289 15.72 7 14.0017 7C12.2835 7 10.8906 8.39289 10.8906 10.1111C10.8906 11.8293 12.2835 13.2222 14.0017 13.2222Z" fill="#000080"/>
<path d="M14 12.7363C15.4497 12.7363 16.625 11.5611 16.625 10.1113C16.625 8.66158 15.4497 7.48633 14 7.48633C12.5503 7.48633 11.375 8.66158 11.375 10.1113C11.375 11.5611 12.5503 12.7363 14 12.7363Z" fill="#F7F7F7"/>
<path d="M14.0745 9.13776L13.9967 9.64332L13.9189 9.13776L13.9967 7.62109L14.0745 9.13776ZM13.3527 7.70587L13.67 9.19065L13.8761 9.65887L13.8201 9.15098L13.3527 7.70587ZM12.7523 7.95476L13.4429 9.30654L13.7634 9.70554L13.5783 9.22876L12.7523 7.95476ZM12.2366 8.34987L13.2539 9.47765L13.6669 9.78021L13.3644 9.3672L12.2366 8.34987ZM11.8415 8.86554L13.1155 9.69154L13.5923 9.87665L13.1933 9.5562L11.8415 8.86554ZM11.5926 9.46598L13.0377 9.93343L13.5456 9.98943L13.0774 9.78332L11.5926 9.46598ZM11.5078 10.11L13.0245 10.1878L13.53 10.11L13.0245 10.0322L11.5078 10.11ZM11.5926 10.754L13.0774 10.4366L13.5456 10.2305L13.0377 10.2865L11.5926 10.754ZM11.8415 11.3544L13.1933 10.6638L13.5923 10.3433L13.1155 10.5284L11.8415 11.3544ZM12.2366 11.8701L13.3644 10.8528L13.6669 10.4398L13.2539 10.7423L12.2366 11.8701ZM12.7523 12.2652L13.5783 10.9912L13.7634 10.5144L13.4429 10.9134L12.7523 12.2652ZM13.3527 12.5141L13.8201 11.069L13.8761 10.5611L13.67 11.0293L13.3527 12.5141ZM13.9967 12.5989L14.0745 11.0822L13.9967 10.5766L13.9189 11.0822L13.9967 12.5989ZM14.6407 12.5141L14.3234 11.0293L14.1173 10.5611L14.1733 11.069L14.6407 12.5141ZM15.2411 12.2652L14.5505 10.9134L14.23 10.5144L14.4151 10.9912L15.2411 12.2652ZM15.7568 11.8701L14.7395 10.7423L14.3265 10.4398L14.629 10.8528L15.7568 11.8701ZM16.1519 11.3544L14.8779 10.5284L14.4011 10.3433L14.8001 10.6638L16.1519 11.3544ZM16.4008 10.754L14.9557 10.2865L14.4478 10.2305L14.916 10.4366L16.4008 10.754ZM16.4856 10.11L14.9689 10.0322L14.4634 10.11L14.9689 10.1878L16.4856 10.11ZM16.4008 9.46598L14.916 9.78332L14.4478 9.98943L14.9557 9.93343L16.4008 9.46598ZM16.1519 8.86554L14.8001 9.5562L14.4011 9.87665L14.8779 9.69154L16.1519 8.86554ZM15.7568 8.34987L14.629 9.3672L14.3265 9.78021L14.7395 9.47765L15.7568 8.34987ZM15.2411 7.95476L14.4151 9.22876L14.23 9.70554L14.5505 9.30654L15.2411 7.95476ZM14.6407 7.70587L14.1733 9.15098L14.1173 9.65887L14.3234 9.19065L14.6407 7.70587Z" fill="#6666B3"/>
<path d="M13.6556 7.66853C13.7415 7.66853 13.8111 7.59889 13.8111 7.51298C13.8111 7.42707 13.7415 7.35742 13.6556 7.35742C13.5696 7.35742 13.5 7.42707 13.5 7.51298C13.5 7.59889 13.5696 7.66853 13.6556 7.66853Z" fill="#000080"/>
<path d="M12.9915 7.84627C13.0774 7.84627 13.147 7.77662 13.147 7.69071C13.147 7.6048 13.0774 7.53516 12.9915 7.53516C12.9056 7.53516 12.8359 7.6048 12.8359 7.69071C12.8359 7.77662 12.9056 7.84627 12.9915 7.84627Z" fill="#000080"/>
<path d="M12.3977 8.18611C12.4837 8.18611 12.5533 8.11647 12.5533 8.03056C12.5533 7.94464 12.4837 7.875 12.3977 7.875C12.3118 7.875 12.2422 7.94464 12.2422 8.03056C12.2422 8.11647 12.3118 8.18611 12.3977 8.18611Z" fill="#000080"/>
<path d="M11.9134 8.67049C11.9993 8.67049 12.0689 8.60084 12.0689 8.51493C12.0689 8.42902 11.9993 8.35938 11.9134 8.35938C11.8275 8.35938 11.7578 8.42902 11.7578 8.51493C11.7578 8.60084 11.8275 8.67049 11.9134 8.67049Z" fill="#000080"/>
<path d="M11.5774 9.26424C11.6633 9.26424 11.733 9.19459 11.733 9.10868C11.733 9.02277 11.6633 8.95312 11.5774 8.95312C11.4915 8.95312 11.4219 9.02277 11.4219 9.10868C11.4219 9.19459 11.4915 9.26424 11.5774 9.26424Z" fill="#000080"/>
<path d="M11.3977 9.92439C11.4837 9.92439 11.5533 9.85475 11.5533 9.76884C11.5533 9.68292 11.4837 9.61328 11.3977 9.61328C11.3118 9.61328 11.2422 9.68292 11.2422 9.76884C11.2422 9.85475 11.3118 9.92439 11.3977 9.92439Z" fill="#000080"/>
<path d="M11.3977 10.608C11.4837 10.608 11.5533 10.5383 11.5533 10.4524C11.5533 10.3665 11.4837 10.2969 11.3977 10.2969C11.3118 10.2969 11.2422 10.3665 11.2422 10.4524C11.2422 10.5383 11.3118 10.608 11.3977 10.608Z" fill="#000080"/>
<path d="M11.5774 11.2701C11.6633 11.2701 11.733 11.2005 11.733 11.1145C11.733 11.0286 11.6633 10.959 11.5774 10.959C11.4915 10.959 11.4219 11.0286 11.4219 11.1145C11.4219 11.2005 11.4915 11.2701 11.5774 11.2701Z" fill="#000080"/>
<path d="M11.9134 11.8619C11.9993 11.8619 12.0689 11.7922 12.0689 11.7063C12.0689 11.6204 11.9993 11.5508 11.9134 11.5508C11.8275 11.5508 11.7578 11.6204 11.7578 11.7063C11.7578 11.7922 11.8275 11.8619 11.9134 11.8619Z" fill="#000080"/>
<path d="M12.3977 12.3463C12.4837 12.3463 12.5533 12.2766 12.5533 12.1907C12.5533 12.1048 12.4837 12.0352 12.3977 12.0352C12.3118 12.0352 12.2422 12.1048 12.2422 12.1907C12.2422 12.2766 12.3118 12.3463 12.3977 12.3463Z" fill="#000080"/>
<path d="M12.9915 12.6881C13.0774 12.6881 13.147 12.6184 13.147 12.5325C13.147 12.4466 13.0774 12.377 12.9915 12.377C12.9056 12.377 12.8359 12.4466 12.8359 12.5325C12.8359 12.6184 12.9056 12.6881 12.9915 12.6881Z" fill="#000080"/>
<path d="M13.6556 12.8658C13.7415 12.8658 13.8111 12.7962 13.8111 12.7102C13.8111 12.6243 13.7415 12.5547 13.6556 12.5547C13.5696 12.5547 13.5 12.6243 13.5 12.7102C13.5 12.7962 13.5696 12.8658 13.6556 12.8658Z" fill="#000080"/>
<path d="M14.3352 12.8658C14.4212 12.8658 14.4908 12.7962 14.4908 12.7102C14.4908 12.6243 14.4212 12.5547 14.3352 12.5547C14.2493 12.5547 14.1797 12.6243 14.1797 12.7102C14.1797 12.7962 14.2493 12.8658 14.3352 12.8658Z" fill="#000080"/>
<path d="M14.9993 12.6881C15.0852 12.6881 15.1549 12.6184 15.1549 12.5325C15.1549 12.4466 15.0852 12.377 14.9993 12.377C14.9134 12.377 14.8438 12.4466 14.8438 12.5325C14.8438 12.6184 14.9134 12.6881 14.9993 12.6881Z" fill="#000080"/>
<path d="M15.5931 12.3463C15.679 12.3463 15.7486 12.2766 15.7486 12.1907C15.7486 12.1048 15.679 12.0352 15.5931 12.0352C15.5071 12.0352 15.4375 12.1048 15.4375 12.1907C15.4375 12.2766 15.5071 12.3463 15.5931 12.3463Z" fill="#000080"/>
<path d="M16.0774 11.8619C16.1633 11.8619 16.233 11.7922 16.233 11.7063C16.233 11.6204 16.1633 11.5508 16.0774 11.5508C15.9915 11.5508 15.9219 11.6204 15.9219 11.7063C15.9219 11.7922 15.9915 11.8619 16.0774 11.8619Z" fill="#000080"/>
<path d="M16.4212 11.2701C16.5071 11.2701 16.5767 11.2005 16.5767 11.1145C16.5767 11.0286 16.5071 10.959 16.4212 10.959C16.3353 10.959 16.2656 11.0286 16.2656 11.1145C16.2656 11.2005 16.3353 11.2701 16.4212 11.2701Z" fill="#000080"/>
<path d="M16.5931 10.608C16.679 10.608 16.7486 10.5383 16.7486 10.4524C16.7486 10.3665 16.679 10.2969 16.5931 10.2969C16.5071 10.2969 16.4375 10.3665 16.4375 10.4524C16.4375 10.5383 16.5071 10.608 16.5931 10.608Z" fill="#000080"/>
<path d="M16.5931 9.92439C16.679 9.92439 16.7486 9.85475 16.7486 9.76884C16.7486 9.68292 16.679 9.61328 16.5931 9.61328C16.5071 9.61328 16.4375 9.68292 16.4375 9.76884C16.4375 9.85475 16.5071 9.92439 16.5931 9.92439Z" fill="#000080"/>
<path d="M16.4212 9.26424C16.5071 9.26424 16.5767 9.19459 16.5767 9.10868C16.5767 9.02277 16.5071 8.95312 16.4212 8.95312C16.3353 8.95312 16.2656 9.02277 16.2656 9.10868C16.2656 9.19459 16.3353 9.26424 16.4212 9.26424Z" fill="#000080"/>
<path d="M16.0774 8.67049C16.1633 8.67049 16.233 8.60084 16.233 8.51493C16.233 8.42902 16.1633 8.35938 16.0774 8.35938C15.9915 8.35938 15.9219 8.42902 15.9219 8.51493C15.9219 8.60084 15.9915 8.67049 16.0774 8.67049Z" fill="#000080"/>
<path d="M15.5931 8.18611C15.679 8.18611 15.7486 8.11647 15.7486 8.03056C15.7486 7.94464 15.679 7.875 15.5931 7.875C15.5071 7.875 15.4375 7.94464 15.4375 8.03056C15.4375 8.11647 15.5071 8.18611 15.5931 8.18611Z" fill="#000080"/>
<path d="M14.9993 7.84627C15.0852 7.84627 15.1549 7.77662 15.1549 7.69071C15.1549 7.6048 15.0852 7.53516 14.9993 7.53516C14.9134 7.53516 14.8438 7.6048 14.8438 7.69071C14.8438 7.77662 14.9134 7.84627 14.9993 7.84627Z" fill="#000080"/>
<path d="M14.3352 7.66853C14.4212 7.66853 14.4908 7.59889 14.4908 7.51298C14.4908 7.42707 14.4212 7.35742 14.3352 7.35742C14.2493 7.35742 14.1797 7.42707 14.1797 7.51298C14.1797 7.59889 14.2493 7.66853 14.3352 7.66853Z" fill="#000080"/>
<path d="M13.9969 10.8121C14.3835 10.8121 14.6969 10.4987 14.6969 10.1121C14.6969 9.72551 14.3835 9.41211 13.9969 9.41211C13.6103 9.41211 13.2969 9.72551 13.2969 10.1121C13.2969 10.4987 13.6103 10.8121 13.9969 10.8121Z" fill="#000080"/>
</svg>
